<svg xmlns="http://www.w3.org/2000/svg" viewBox="0 0 500 500"><g id="freepik--background-simple--inject-87"><path d="M274.15,170.61l-1.33-.74a34.41,34.41,0,0,0-35.59.94,33.11,33.11,0,0,0-3.89,3A36.14,36.14,0,0,0,222,206c1.12,6.92,4.27,13.84,2.81,20.67C223,235.54,214.13,240.8,206.15,245s-16.79,9.51-18.65,18.41c-1.16,5.58.8,11.45,3.89,16.27,8.19,12.76,24.06,19.31,39,18.52s29-8.08,40.32-17.92c15.82-13.77,27.19-33.35,28.71-54.45S291.71,182.45,274.15,170.61Z" style="fill:#f5f5f5"></path><path d="M370.78,44l-1.19,1A34.4,34.4,0,0,0,356.88,78.2a33.85,33.85,0,0,0,1.28,4.74,36.13,36.13,0,0,0,25.44,22.73c6.83,1.6,14.42,1.32,20.18,5.28,7.5,5.14,9,15.3,9.86,24.29s2.39,19.14,9.91,24.26c4.71,3.2,10.88,3.62,16.52,2.6,14.92-2.7,27-14.87,32-29s3.59-29.9-1.19-44.1c-6.7-19.88-20.46-37.85-39.39-47.3S388.43,32.28,370.78,44Z" style="fill:#f5f5f5"></path><path d="M128.82,31.49l1.19.95A34.42,34.42,0,0,1,142.72,65.7a33.72,33.72,0,0,1-1.28,4.73A36.11,36.11,0,0,1,116,93.16c-6.83,1.6-14.42,1.33-20.18,5.28-7.5,5.14-9,15.3-9.86,24.29S83.57,141.88,76.05,147c-4.71,3.2-10.88,3.62-16.52,2.6-14.92-2.7-27-14.87-32-29s-3.6-29.9,1.18-44.09c6.7-19.89,20.46-37.86,39.39-47.31S111.17,19.77,128.82,31.49Z" style="fill:#f5f5f5"></path></g><g id="freepik--Floor--inject-87"><path d="M473.17,471.18c0,.15-99.41.26-222,.26s-222-.11-222-.26,99.38-.26,222-.26S473.17,471,473.17,471.18Z" style="fill:#263238"></path></g><g id="freepik--Plant--inject-87"><path d="M233.77,428.44a8.44,8.44,0,0,1,4.39,5,14.87,14.87,0,0,1,.58,6.73c-.49,4.37-3,8.78-5.65,12.27-3.68-3.21-4.52-8.81-4.78-11.68-.39-4.53,1.64-13,5.46-12.29" style="fill:#FE3E55"></path><path d="M237.37,459.62a7.23,7.23,0,0,1,2.33-6.86,9.58,9.58,0,0,1,7.08-2.21,4.08,4.08,0,0,1,3.11,1.39,3.1,3.1,0,0,1,0,3.13,6.29,6.29,0,0,1-2.32,2.29c-3.18,2-6.64,3.35-10.24,2.26" style="fill:#FE3E55"></path><path d="M232.65,473a5.69,5.69,0,0,1,.13-.89c.12-.63.27-1.45.45-2.43a25,25,0,0,1,2.5-7.75,15.38,15.38,0,0,1,5.56-5.91,10.84,10.84,0,0,1,2.27-1,5.43,5.43,0,0,1,.66-.16c.15,0,.23-.05.23,0a16.27,16.27,0,0,0-3,1.4,16.06,16.06,0,0,0-5.4,5.87,27,27,0,0,0-2.56,7.65c-.23,1-.41,1.84-.55,2.4A4.65,4.65,0,0,1,232.65,473Z" style="fill:#263238"></path><path d="M232.79,435a2.33,2.33,0,0,1,0,.39c0,.29,0,.66.07,1.12,0,1,.11,2.4.17,4.15.11,3.5.2,8.34.18,13.69s-.16,10.18-.3,13.68c-.07,1.75-.14,3.17-.2,4.15,0,.46-.06.83-.08,1.12a1.69,1.69,0,0,1,0,.39,1.65,1.65,0,0,1,0-.39c0-.29,0-.67,0-1.13,0-1,.06-2.42.1-4.14.09-3.5.18-8.34.21-13.68s0-10.18-.09-13.68c0-1.73-.05-3.13-.06-4.15,0-.46,0-.84,0-1.13A1.65,1.65,0,0,1,232.79,435Z" style="fill:#263238"></path><path d="M231,462.29a16.89,16.89,0,0,0-9.23-12.38c-1.23-.59-2.83-1-3.84-.06s-.79,2.56-.29,3.83a14.43,14.43,0,0,0,13.28,9" style="fill:#FE3E55"></path><path d="M222.37,454.05a4,4,0,0,1,.78.34,7.91,7.91,0,0,1,.88.47c.33.21.73.41,1.13.71a13.75,13.75,0,0,1,1.28,1,17.07,17.07,0,0,1,1.37,1.25,17.17,17.17,0,0,1,4.31,7.2,15.51,15.51,0,0,1,.43,1.8,12.71,12.71,0,0,1,.22,1.6,10.4,10.4,0,0,1,.06,1.32,6.19,6.19,0,0,1,0,1,4.93,4.93,0,0,1-.09.85c-.07,0,0-1.22-.16-3.15a12.81,12.81,0,0,0-.26-1.57,17.55,17.55,0,0,0-.45-1.76,18.77,18.77,0,0,0-1.71-3.79,19.11,19.11,0,0,0-2.53-3.3,16.93,16.93,0,0,0-1.33-1.25c-.42-.38-.85-.69-1.24-1C223.45,454.62,222.34,454.11,222.37,454.05Z" style="fill:#263238"></path></g><g id="freepik--speech-bubble--inject-87"><path d="M94.25,114.51l-6.61-.8a25.41,25.41,0,1,1,6.54-6.33h0Z" style="fill:#fff"></path><path d="M94.25,114.51s0-.17,0-.48,0-.79,0-1.38c0-1.22-.06-3-.1-5.27l.15.07h0a.09.09,0,0,1-.13,0,.09.09,0,0,1,0-.11A25.33,25.33,0,0,0,98.55,96,25.06,25.06,0,0,0,88.22,72.22a24.75,24.75,0,0,0-9.94-4.3,25.81,25.81,0,0,0-11.5.5,24.68,24.68,0,0,0-10.48,6,26,26,0,0,0-4,4.77c-.51.89-1,1.77-1.48,2.69l-.6,1.39-.29.7-.23.72a25.81,25.81,0,0,0-1,11.58,24.59,24.59,0,0,0,3.92,10.2,25.63,25.63,0,0,0,7.12,7.18,25.28,25.28,0,0,0,8.4,3.6l2.1.37c.69.1,1.38.12,2.05.18a22.67,22.67,0,0,0,3.88-.07,25.4,25.4,0,0,0,11.42-4l.06,0,4.87.65,1.28.17.45.07-.42,0-1.26-.13-4.94-.55h.06A25.23,25.23,0,0,1,76.2,118a22.17,22.17,0,0,1-3.93.1c-.68-.06-1.37-.07-2.07-.17l-2.13-.37a25.38,25.38,0,0,1-8.54-3.62,26,26,0,0,1-7.26-7.26,24.86,24.86,0,0,1-4-10.37,26.12,26.12,0,0,1,1-11.78l.23-.74.3-.71c.2-.47.41-.94.61-1.42.45-.93,1-1.83,1.5-2.73a26,26,0,0,1,4-4.86A25,25,0,0,1,66.65,68a26.16,26.16,0,0,1,11.71-.49,25,25,0,0,1,10.1,4.39,26,26,0,0,1,6.93,7.46A25.49,25.49,0,0,1,98.68,88a26.18,26.18,0,0,1,.17,8.11,25.33,25.33,0,0,1-4.59,11.37l-.14-.13h0a.1.1,0,0,1,.13,0,.07.07,0,0,1,0,.06v5.34c0,.58,0,1,0,1.36S94.25,114.51,94.25,114.51Z" style="fill:#263238"></path><path d="M70.72,82.39l.82,12.93a2.09,2.09,0,0,0,2,2h0a2.1,2.1,0,0,0,2.21-1.87l1.44-13a1.64,1.64,0,0,0-1.66-1.82l-3.15,0A1.65,1.65,0,0,0,70.72,82.39Z" style="fill:#FE3E55"></path><path d="M76.93,104.55a3.16,3.16,0,1,1-2-4A3.16,3.16,0,0,1,76.93,104.55Z" style="fill:#FE3E55"></path></g><g id="freepik--Lines--inject-87"><path d="M256.74,36.75a9.9,9.9,0,0,1,.93,2.54,15.25,15.25,0,0,1-.22,7.36,19.43,19.43,0,0,1-5.74,9.26,29.46,29.46,0,0,1-11.85,6.19,52.08,52.08,0,0,1-6.69,1.39l.05-.49a14.52,14.52,0,0,1,8,7.29,13.75,13.75,0,0,1,1.08,8.64,14.06,14.06,0,0,1-2.23,5.35,10.14,10.14,0,0,1-1,1.22,2.58,2.58,0,0,1-.38.38s.48-.57,1.21-1.7A14.66,14.66,0,0,0,242,78.87a13.57,13.57,0,0,0-1.17-8.38,14.12,14.12,0,0,0-7.8-7l-1-.34,1-.15a52.89,52.89,0,0,0,6.62-1.4,29.12,29.12,0,0,0,11.67-6,19.2,19.2,0,0,0,5.7-9,15.56,15.56,0,0,0,.38-7.21C257.12,37.65,256.68,36.78,256.74,36.75Z" style="fill:#263238"></path><path d="M290.05,92.13a5,5,0,0,1-.06-.61,16.75,16.75,0,0,1-.06-1.79,20.9,20.9,0,0,1,1.26-6.59,23.31,23.31,0,0,1,5.52-8.63,21.7,21.7,0,0,1,11.43-6.14l0,.48a14.07,14.07,0,0,1-6.68-4.09,13.86,13.86,0,0,1-3.6-7.52A14.42,14.42,0,0,1,302.4,44.8l.24.43c-4.85,1.41-9.51,2.58-13.79,2.59a20.87,20.87,0,0,1-6-.74A18.1,18.1,0,0,1,278.21,45a13.36,13.36,0,0,1-4.9-5.35,7.54,7.54,0,0,1-.43-1,5.17,5.17,0,0,1-.24-.79,3.85,3.85,0,0,1-.14-.66,20.71,20.71,0,0,0,1,2.42,13.32,13.32,0,0,0,4.91,5.16,17.81,17.81,0,0,0,4.62,2,20.93,20.93,0,0,0,5.85.68c4.21,0,8.81-1.22,13.65-2.65l1.07-.32-.83.74a13.92,13.92,0,0,0-4.38,12,13.29,13.29,0,0,0,3.46,7.24,13.69,13.69,0,0,0,6.42,4l1.05.28-1.07.2A21.43,21.43,0,0,0,297,74.8a23.23,23.23,0,0,0-5.52,8.44,21.8,21.8,0,0,0-1.39,6.49c-.06.78,0,1.38,0,1.78A2.93,2.93,0,0,1,290.05,92.13Z" style="fill:#263238"></path></g><g id="freepik--character-2--inject-87"><path d="M269.93,105.05s11.25,51.54,19.87,54.49c5.69,2,47,11.35,47,11.35L341.37,149,301,138.48,279.38,98.56Z" style="fill:#ffbf9d"></path><path d="M301.09,138.48a47.74,47.74,0,0,0-3.25,4.4c-1.55,2.6-2.14,5-2.3,5a11.81,11.81,0,0,1,1.85-5.23A11.55,11.55,0,0,1,301.09,138.48Z" style="fill:#ff9a6c"></path><path d="M279.66,99.93,276,82.07l0-16.42s-2.52-.89-3.1,1.17a55.19,55.19,0,0,0-.95,7.45L270.56,68s-2.08.68-2.19,4.18,1.87,12.28,1.87,12.28.17,4.73-.76,7-2.43,5.65-1.85,8.41a28.7,28.7,0,0,0,2.91,6.67Z" style="fill:#ffbf9d"></path><path d="M274.66,96.15q-.82-5.25-1.66-10.5a5.66,5.66,0,0,0-.51-1.85A2,2,0,0,0,271,82.71c-1.1-.08-2.21,1.21-2.16,2.88.24,8.53-2,9.18-1.21,14.18" style="fill:#ffbf9d"></path><path d="M267.63,99.77s-.05-.11-.1-.32-.11-.54-.15-1a10.63,10.63,0,0,1,.23-3.53,37.31,37.31,0,0,0,.87-5.1q.12-1.45.12-3.06c0-.54,0-1,0-1.65a3.47,3.47,0,0,1,.59-1.68,2.2,2.2,0,0,1,1.54-1,1.94,1.94,0,0,1,1.65.73,5.9,5.9,0,0,1,.95,3c.29,1.91.54,3.65.76,5.15s.35,2.56.47,3.49a5.64,5.64,0,0,1,.1,1.29,7.11,7.11,0,0,1-.3-1.26c-.17-.92-.38-2.08-.63-3.46s-.55-3.23-.87-5.14a5.66,5.66,0,0,0-.87-2.77,1.47,1.47,0,0,0-1.2-.55,1.71,1.71,0,0,0-1.17.79,3,3,0,0,0-.51,1.44c0,.49,0,1.08,0,1.6,0,1.08-.05,2.12-.15,3.1A32.55,32.55,0,0,1,268,95,15.72,15.72,0,0,0,267.63,99.77Z" style="fill:#ff9a6c"></path><path d="M393.05,134.79c-1.2-.7-2.72-.68-3.94-1.35a5.12,5.12,0,0,1-2.29-3.34,13.73,13.73,0,0,1-.15-4.15L378,142.21a14.66,14.66,0,0,0,4.05,3.65,5.48,5.48,0,0,0,5.25.2c1.58-.93,2.35-3.23,1.27-4.71a4.31,4.31,0,0,0,5.63-1A4,4,0,0,0,393.05,134.79Z" style="fill:#263238"></path><path d="M352.8,99.4c-2.37,2.51-2.45,4.58-2.37,5.67,0,.32.15.71.47.75a.75.75,0,0,0,.44-.12l8.65-4.47" style="fill:#263238"></path><path d="M384.69,130.47a75,75,0,0,0,3.4-12.43,26.08,26.08,0,0,0-.87-12.75c-.22-.61-2.1-4.74-2.75-4.68-.47,0,.68,3.88.44,4.28a22.12,22.12,0,0,0-2.65,12.87,58,58,0,0,0,2.43,12.71" style="fill:#263238"></path><path d="M384.47,153.73l.84-39.67c.48-10.78-5.39-20-16.17-20.23l-1,0a19.29,19.29,0,0,0-18.48,18.52c-.37,9.34-.65,19.67-.39,24.67.56,10.34,11,11.52,11,11.52s0,10.53,0,13.57l15.59-.87,3.73-.35Z" style="fill:#ffbf9d"></path><path d="M360.24,148.58A25.05,25.05,0,0,0,373.55,144s-2.92,7.91-13.28,7.4Z" style="fill:#ff9a6c"></path><path d="M352.8,121.31a1.47,1.47,0,0,0,1.48,1.43,1.41,1.41,0,0,0,1.47-1.39,1.47,1.47,0,0,0-1.48-1.43A1.41,1.41,0,0,0,352.8,121.31Z" style="fill:#263238"></path><path d="M352,116.86c.2.19,1.28-.68,2.87-.75s2.79.69,2.95.49-.12-.43-.64-.78a4.08,4.08,0,0,0-2.37-.63,4,4,0,0,0-2.28.84C352.1,116.43,352,116.78,352,116.86Z" style="fill:#263238"></path><path d="M366.2,121.31a1.48,1.48,0,0,0,1.49,1.43,1.4,1.4,0,0,0,1.46-1.39,1.47,1.47,0,0,0-1.48-1.43A1.41,1.41,0,0,0,366.2,121.31Z" style="fill:#263238"></path><path d="M367.64,116.59c.19.18,1.28-.69,2.87-.75s2.79.68,2.95.48-.12-.43-.64-.78a4.11,4.11,0,0,0-2.38-.62,3.82,3.82,0,0,0-2.27.84C367.7,116.15,367.55,116.51,367.64,116.59Z" style="fill:#263238"></path><path d="M362.44,129a10.53,10.53,0,0,0-2.6-.36c-.4,0-.79-.09-.87-.36a2,2,0,0,1,.22-1.22c.34-1,.7-2,1.07-3.14,1.49-4.47,2.54-8.14,2.36-8.19s-1.53,3.51-3,8c-.36,1.1-.7,2.15-1,3.16a2.33,2.33,0,0,0-.15,1.6,1,1,0,0,0,.69.57,2.58,2.58,0,0,0,.7.06A10.49,10.49,0,0,0,362.44,129Z" style="fill:#263238"></path><path d="M366.92,111.64c.23.4,1.76-.1,3.64-.21s3.45.1,3.62-.32c.08-.2-.25-.56-.93-.86a6.36,6.36,0,0,0-5.53.41C367.1,111.05,366.82,111.45,366.92,111.64Z" style="fill:#263238"></path><path d="M351.78,112.19c.34.36,1.62,0,3.18-.11s2.88.17,3.18-.22c.12-.19-.09-.54-.68-.87a4.9,4.9,0,0,0-2.6-.52,4.81,4.81,0,0,0-2.52.79C351.8,111.64,351.63,112,351.78,112.19Z" style="fill:#263238"></path><path d="M384.78,121.76c.18-.09,7-2.4,7.09,4.68s-7.06,5.69-7.07,5.49S384.78,121.76,384.78,121.76Z" style="fill:#ffbf9d"></path><path d="M386.94,129.22s.12.09.33.18a1.24,1.24,0,0,0,.92,0,3,3,0,0,0,1.39-2.75,4.1,4.1,0,0,0-.36-1.76,1.41,1.41,0,0,0-.94-.94.62.62,0,0,0-.72.34c-.1.2-.05.34-.09.36s-.15-.12-.1-.41a.77.77,0,0,1,.28-.45,1,1,0,0,1,.68-.19,1.74,1.74,0,0,1,1.3,1.09,4.17,4.17,0,0,1,.44,2c0,1.43-.75,2.77-1.77,3.07a1.33,1.33,0,0,1-1.13-.17C387,129.39,386.91,129.24,386.94,129.22Z" style="fill:#ff9a6c"></path><path d="M354.23,100.65c-1.14-.63,2.29-4.34,5.11-5.62,4.25-1.93,10.75-3.13,14.68-2,4.73,1.34,8.65,3.69,11,8a27.85,27.85,0,0,1,3.13,14.22,8.45,8.45,0,0,1-1,4.33c-1,1.56-2.89,2.55-2.81,4.71a2.91,2.91,0,0,1-.73,2.16c-1.29,1.38-2.88.09-3.61-1.21-1.56-2.77-1.73-6.09-1.87-9.26a20.85,20.85,0,0,1,.44-6.74c.35-1.18.9-2.29,1.18-3.49a4.25,4.25,0,0,0-.5-3.54,3.91,3.91,0,0,0-.58-.58,7.36,7.36,0,0,0-7.32-1.39c-4,1.41-10.8,3.52-12.58,2.17a10.82,10.82,0,0,1-3.17-3.21Z" style="fill:#263238"></path><path d="M367.44,130c-.25,0-.26,1.61-1.65,2.76s-3.13,1-3.14,1.19.38.32,1.11.34a4,4,0,0,0,2.62-.9,3.48,3.48,0,0,0,1.28-2.31C367.73,130.42,367.55,130,367.44,130Z" style="fill:#263238"></path><path d="M389.7,121.45c.14-.12.34-.14.46-.26,8.36-8,1.71-15.63,1.6-18-.15-3.27,3.75.87,4.26-3.44.66-5.71-5.43-8.14-12.92-10.59-3.14-1-10.84-1.34-17.58.08-6,1.27-10,5.55-12.31,8.84a5.13,5.13,0,0,0-1.74,1.31c-1.06,2-.58,2.77-.58,2.77s13.3-6.92,24.46,2.15,9.15,16.91,12.09,17Z" style="fill:#455a64"></path><path d="M389.8,120.43a2.81,2.81,0,0,1-.19-.47c-.13-.38-.29-.83-.47-1.38-.41-1.2-1-2.94-1.79-5a33.41,33.41,0,0,0-3.61-7,21.09,21.09,0,0,0-7-6.42,25.73,25.73,0,0,0-9.08-3,32.19,32.19,0,0,0-7.87-.1,43.84,43.84,0,0,0-5.25.91,19.23,19.23,0,0,1-1.91.45s.15-.09.47-.2.78-.26,1.39-.44a35.21,35.21,0,0,1,5.26-1.08,31,31,0,0,1,8,0A25.69,25.69,0,0,1,377,99.67a21.27,21.27,0,0,1,7.18,6.6,32.42,32.42,0,0,1,3.56,7.14c.79,2.13,1.29,3.89,1.64,5.11l.38,1.41A1.54,1.54,0,0,1,389.8,120.43Z" style="fill:#263238"></path><path d="M380.82,92.51a8,8,0,0,1,2.44,1.06,19.6,19.6,0,0,1,5,4A20,20,0,0,1,391.7,103a8.35,8.35,0,0,1,.77,2.54A29,29,0,0,0,387.86,98,28.65,28.65,0,0,0,380.82,92.51Z" style="fill:#263238"></path><path d="M355.83,97.59c0,.08-.17.17-.38.37a2.29,2.29,0,0,0-.57,1c-.23.87-.17,1.74-.35,1.74a2.28,2.28,0,0,1-.15-1.89,1.85,1.85,0,0,1,.86-1.13C355.57,97.49,355.82,97.53,355.83,97.59Z" style="fill:#263238"></path><path d="M361.65,96.48c.07.13-.54.57-.83,1.4s-.14,1.55-.28,1.6-.2-.14-.29-.47a2.16,2.16,0,0,1,.08-1.31,2.22,2.22,0,0,1,.79-1.06C361.41,96.45,361.62,96.42,361.65,96.48Z" style="fill:#263238"></path><path d="M368.85,97.19c.06.14-.69.52-1.12,1.37s-.31,1.68-.45,1.71-.55-.88,0-2S368.84,97.05,368.85,97.19Z" style="fill:#263238"></path><path d="M376.61,100.2c.13.06-.23,1-1,1.88s-1.7,1.35-1.77,1.23.63-.73,1.38-1.57S376.48,100.13,376.61,100.2Z" style="fill:#263238"></path><path d="M382.9,105.05c.14,0-.23,1.16-1.35,2a2.84,2.84,0,0,1-2.29.74c0-.15,1-.4,2-1.15S382.77,105,382.9,105.05Z" style="fill:#263238"></path><path d="M386.6,111.52c.14,0-.21,1.06-1.29,1.71a2.28,2.28,0,0,1-2.11.37c0-.16.92-.24,1.84-.81S386.47,111.45,386.6,111.52Z" style="fill:#263238"></path><path d="M388.58,117.42c.14,0-.15,1-1.18,1.46s-1.94.14-1.87,0,.82-.06,1.65-.48S388.45,117.35,388.58,117.42Z" style="fill:#263238"></path><polygon points="339.75 148.09 311.69 141.05 311.69 175.98 336.84 185.35 343.93 158.69 339.75 148.09" style="fill:#e0e0e0"></polygon><path d="M339.76,148.09l20.42,5.27s.36,6.9,8.23,7.07c9,.2,16.65-7.76,16.65-7.76s19.61,7.62,23.56,10.8-9.74,68-9.74,68l-1.18,19.84a14.66,14.66,0,0,1,1.95,6.65c0,3.45.12,5.74.12,5.74-24.13,7.28-43,5.5-65.08-1.55,0,0-4.42-3.58-3.22-6.8a19.65,19.65,0,0,1,3.15-4.58l1.6-2.4-.88-63.62Z" style="fill:#e0e0e0"></path><path d="M336.3,157.37a2.63,2.63,0,0,1,0,.61v1.75c0,1.59,0,3.77,0,6.43,0,5.49,0,13,0,21.21s0,15.8-.11,21.23c-.06,2.71-.13,4.91-.2,6.43q-.06,1.07-.09,1.74a2.7,2.7,0,0,1-.07.61,2.63,2.63,0,0,1,0-.61V215c0-1.58,0-3.76,0-6.43,0-5.49,0-13,0-21.21s0-15.79.12-21.22c.06-2.72.13-4.92.2-6.43,0-.72.07-1.3.09-1.75A2.7,2.7,0,0,1,336.3,157.37Z" style="fill:#263238"></path><path d="M376.42,248.31a7,7,0,0,1-1.31.72,15.51,15.51,0,0,1-1.59.74c-.63.26-1.34.58-2.16.84a40.67,40.67,0,0,1-5.84,1.61,47,47,0,0,1-7.38.79,46.45,46.45,0,0,1-7.4-.52,41.22,41.22,0,0,1-5.89-1.38c-.83-.24-1.55-.54-2.19-.77s-1.19-.47-1.62-.67a8.59,8.59,0,0,1-1.34-.67,7.23,7.23,0,0,1,1.41.48c.45.18,1,.39,1.65.59s1.37.48,2.2.68a44,44,0,0,0,5.86,1.27,49.32,49.32,0,0,0,7.32.47,50.17,50.17,0,0,0,7.29-.74,46.87,46.87,0,0,0,5.81-1.48c.82-.24,1.53-.54,2.17-.77s1.18-.46,1.62-.65A8.49,8.49,0,0,1,376.42,248.31Z" style="fill:#263238"></path><rect x="354.38" y="183.28" width="17.5" height="50.64" style="fill:#fff"></rect><path d="M420.63,314.58c-1.49-8.34-3.87-16.51-5.45-24.83-1.18-6.18-1.95-12.56-4.76-18.19s-8.24-10.47-14.53-10.46L361,359.59c8.76-1.52,17.71.25,26.58.79s18.54-.44,25.18-6.35c4.12-3.66,6.61-8.86,7.92-14.21C422.7,331.59,422.12,322.92,420.63,314.58Z" style="fill:#FE3E55"></path><g style="opacity:0.30000000000000004"><path d="M410.87,314.94l-2.64-24c-.39-3.58-1.06-7.63-4.06-9.62-2.63-1.74-6.35-1.16-8.78.85a12.48,12.48,0,0,0-4,8.29,37.12,37.12,0,0,0,.53,9.4l7.93,55.21c6.34-3.74,10.05-10.89,11.35-18.13S411.67,322.25,410.87,314.94Z"></path></g><path d="M404.19,276.65a7.5,7.5,0,0,1,.29.8c.17.53.43,1.31.74,2.33.61,2,1.45,5,2.32,8.68a166.34,166.34,0,0,1,4.21,29.33,91.56,91.56,0,0,1-.25,16.33,32.5,32.5,0,0,1-4.14,12.66,22.33,22.33,0,0,1-6,6.68,16.3,16.3,0,0,1-2.09,1.29,4.93,4.93,0,0,1-.77.36,5.92,5.92,0,0,1,.72-.45,19.89,19.89,0,0,0,2-1.36,22.87,22.87,0,0,0,5.79-6.71,32.4,32.4,0,0,0,4-12.53,92.57,92.57,0,0,0,.21-16.24,177.18,177.18,0,0,0-4.05-29.28c-.83-3.69-1.61-6.66-2.16-8.71-.27-1-.48-1.77-.64-2.35A5.15,5.15,0,0,1,404.19,276.65Z" style="fill:#263238"></path><path d="M366.46,431.32l2.34,21.88s-24.61,3.42-25.8,7.57l44,9.7-2.07-34.41Z" style="fill:#455a64"></path><path d="M382.83,454.3a1.84,1.84,0,0,1,.79,2.32,1.78,1.78,0,0,1-2.3.81,1.94,1.94,0,0,1-.82-2.47,1.83,1.83,0,0,1,2.48-.57" style="fill:#e0e0e0"></path><g style="opacity:0.6000000000000001"><path d="M387,470.47l.67-3.59-42.43-8s-2.15.42-2.23,1.85Z" style="fill:#fff"></path></g><path d="M368.14,452.82c0,.22,1,.55,1.92,1.48s1.27,1.95,1.48,1.91.17-1.36-.94-2.45S368.14,452.62,368.14,452.82Z" style="fill:#263238"></path><path d="M363.11,453.71c-.1.2.75.77,1.28,1.84s.53,2.08.74,2.12.62-1.15-.06-2.47S363.16,453.51,363.11,453.71Z" style="fill:#263238"></path><path d="M359.27,458.66c.18.09.72-.92.43-2.22s-1.2-2-1.33-1.83.35.93.58,2S359.06,458.59,359.27,458.66Z" style="fill:#263238"></path><path d="M369.67,447.72c.05.22,1.1.14,2.29.49s2.06.94,2.22.78-.59-1.12-2-1.52S369.6,447.53,369.67,447.72Z" style="fill:#263238"></path><path d="M379.6,437.57l1,23.2s-23.24,8.82-23.47,13.13l45.05-.35-.1-36.21Z" style="fill:#455a64"></path><path d="M394.52,458.71a1.83,1.83,0,0,1,1.29,2.09,1.76,1.76,0,0,1-2.06,1.29,1.93,1.93,0,0,1-1.35-2.22,1.84,1.84,0,0,1,2.29-1.11" style="fill:#e0e0e0"></path><g style="opacity:0.6000000000000001"><path d="M402.19,473.55,402,469.9l-43.14,1.7s-2,.89-1.76,2.3Z" style="fill:#fff"></path></g><path d="M379.88,460.55c0,.22,1.11.31,2.2,1s1.67,1.62,1.87,1.53-.14-1.36-1.47-2.18S379.83,460.35,379.88,460.55Z" style="fill:#263238"></path><path d="M375.17,462.54c-.05.21.91.58,1.66,1.5s1,1.91,1.2,1.9.35-1.26-.61-2.39S375.17,462.33,375.17,462.54Z" style="fill:#263238"></path><path d="M372.53,468.21c.2.05.5-1-.08-2.25s-1.6-1.67-1.7-1.49.55.82,1,1.81S372.31,468.19,372.53,468.21Z" style="fill:#263238"></path><path d="M380.23,455.23c.1.2,1.1-.11,2.35,0s2.21.46,2.33.27-.83-1-2.29-1S380.12,455.06,380.23,455.23Z" style="fill:#263238"></path><path d="M379.66,455a36.91,36.91,0,0,0-.07,5.59l.18-.28c-2.63,1-6.13,2.35-9.84,4.1a52.88,52.88,0,0,0-10,5.75,10.56,10.56,0,0,0-2.47,2.52c-.47.72-.41,1.27-.34,1.25a3.25,3.25,0,0,1,.58-1.09,12.68,12.68,0,0,1,2.55-2.25,64.78,64.78,0,0,1,10-5.49c3.69-1.75,7.15-3.15,9.73-4.26l.19-.08v-.19A37.75,37.75,0,0,0,379.66,455Z" style="fill:#263238"></path><rect x="324.36" y="453.33" width="6.33" height="4.57" transform="translate(-226.24 365.04) rotate(-45)" style="fill:#e0e0e0"></rect><path d="M329.66,461.35a7.39,7.39,0,1,1-6.92-7.83A7.38,7.38,0,0,1,329.66,461.35Z" style="fill:#263238"></path><circle cx="322.29" cy="460.9" r="4.13" style="fill:#455a64"></circle><rect x="261.58" y="386.78" width="6.33" height="4.57" transform="translate(-197.57 301.17) rotate(-45)" style="fill:#e0e0e0"></rect><path d="M266.88,394.81A7.39,7.39,0,1,1,260,387,7.38,7.38,0,0,1,266.88,394.81Z" style="fill:#263238"></path><circle cx="259.51" cy="394.35" r="4.13" style="fill:#455a64"></circle><path d="M244.87,363.76s.42-4.93,10.09,4.59c8.11,8,34,37.54,41.18,45,19.16,19.86,37.84,42.85,56.32,50.26a7.2,7.2,0,0,1,4.47,7.15h0S346,472.84,340.7,468s-25.22-26.29-37.84-39.93C291.35,415.66,245,367.87,244.87,363.76Z" style="fill:#FE3E55"></path><path d="M357.09,469.9a3,3,0,0,1-.4,0,11.28,11.28,0,0,1-1.17-.19,27.52,27.52,0,0,1-4.32-1.39,61.28,61.28,0,0,1-6.46-3.1c-1.23-.68-2.53-1.4-3.89-2.25a42.28,42.28,0,0,1-3.87-3.22C331.79,455,325.93,449,319.47,442.3s-13.45-14.14-20.77-22L261.34,380c-4.79-5.15-8.69-9.3-11.42-12.12s-4.34-4.33-4.42-4.14c.31-.46,6.48,5.79,16.11,16s22.83,24.5,37.47,40.19c7.32,7.84,14.32,15.29,20.74,22s12.26,12.72,17.41,17.5a42.74,42.74,0,0,0,3.81,3.21c1.32.84,2.63,1.59,3.84,2.27a64.68,64.68,0,0,0,6.4,3.18,30.4,30.4,0,0,0,4.27,1.47c.5.12.89.19,1.15.24Z" style="fill:#263238"></path><path d="M404.62,269.85v29.23L400.15,364s2.79,31.48,4.49,49.25c1.49,15.44-.94,42.31-.94,42.31h-26l-9.32-89.63L362.56,310l-12.62-36.66Z" style="fill:#263238"></path><path d="M335.32,275.86l-.05,88.36a36.3,36.3,0,0,0,3.17,14.62l28.94,64.82,1.21,4.08L384.15,444,373.84,268.87Z" style="fill:#263238"></path><path d="M357.29,288.7c.14,0,5.54,36.95,12.06,82.56S381,453.87,380.9,453.89s-5.55-36.94-12.06-82.56S357.15,288.72,357.29,288.7Z" style="fill:#455a64"></path><path d="M400.26,258.16a6,6,0,0,0-1.38-3.7c-1.35-1.27-3.49-1-5.3-.6a158.63,158.63,0,0,0-35.48,12.29l2.53,7.2,30.95-1.74a11.7,11.7,0,0,0,5.56-1.25,7.84,7.84,0,0,0,3.33-5.55A23.56,23.56,0,0,0,400.26,258.16Z" style="fill:#FE3E55"></path><path d="M364.56,269.85l-8.7,4.36c4.72,7.08,5.36,16.05,5.6,24.56s.31,17.37,4.13,25c1.41,2.81,3.36,5.55,3.39,8.7,0,1.26-.26,2.64.42,3.7.94,1.48,3.06,1.45,4.79,1.25,2.34-.28,5-.76,6.19-2.79a8.43,8.43,0,0,0,.82-3.34c.42-3.38,1.35-6.67,1.95-10A55.5,55.5,0,0,0,364.56,269.85Z" style="fill:#FE3E55"></path><path d="M356.52,317.18c0-6-1.61-11.85-2-17.81a44.76,44.76,0,0,1,5.81-25.05l-8.52-1.92c-6.26,1.64-11.07,6.89-13.75,12.78S334.53,297.6,333.8,304c-.72,6.27-1.35,12.63-.38,18.87a58.15,58.15,0,0,1,1,6.66,10.76,10.76,0,0,1-.91,5.09,1.28,1.28,0,0,0,.78,1.78l8.18,2.56a1.28,1.28,0,0,0,1.66-1,4.72,4.72,0,0,1,1.51-2.6,30.07,30.07,0,0,1,3.93-2.5C354.57,329.64,356.53,323.16,356.52,317.18Z" style="fill:#FE3E55"></path><path d="M352.33,266.2l-15.46-4.34a16,16,0,0,0-4.09-.76,5.24,5.24,0,0,0-3.8,1.41,6.82,6.82,0,0,0-1.46,4.67,25.1,25.1,0,0,0,1.11,7.89c.53,1.73,1.39,3.55,3.05,4.28s3.28.22,4.87-.28c3-1,6-2.1,8.92-3.24l11.11-4.3Z" style="fill:#FE3E55"></path><g style="opacity:0.30000000000000004"><path d="M364.6,265.31a9.66,9.66,0,0,1-1.14,6.72,7.66,7.66,0,0,1-5.65,3.64,8,8,0,0,1-5.55-1.76,12.17,12.17,0,0,1-3.53-4.72l-.34,1.06a9.54,9.54,0,0,0,6.37,7.18,8.86,8.86,0,0,0,9-2.79A8.42,8.42,0,0,0,364.6,265.31Z"></path></g><circle cx="356.58" cy="267.57" r="8.29" style="fill:#FE3E55"></circle><path d="M364.87,267.57c-.06,0,0-.74-.36-2a8.3,8.3,0,0,0-3-4.45,8.1,8.1,0,0,0-7.64-1.11,7.35,7.35,0,0,0-2,1.1,7.22,7.22,0,0,0-1.69,1.71,8,8,0,0,0,0,9.5A7.42,7.42,0,0,0,351.8,274a7.62,7.62,0,0,0,2,1.1,8.18,8.18,0,0,0,10.67-5.56c.33-1.26.3-2,.36-2a1.66,1.66,0,0,1,0,.53,6.19,6.19,0,0,1-.18,1.52,8.38,8.38,0,0,1-6.56,6.3,8.47,8.47,0,0,1-4.48-.34,8.48,8.48,0,0,1-4-3,8.47,8.47,0,0,1,0-10.1,8.48,8.48,0,0,1,4-3,8.41,8.41,0,0,1,8,1.27,8.31,8.31,0,0,1,3,4.69,6.19,6.19,0,0,1,.18,1.52A1.66,1.66,0,0,1,364.87,267.57Z" style="fill:#263238"></path><path d="M371.51,276.65c-.13.09-1.31-1.79-3.35-3.56s-4-2.7-4-2.84a9.85,9.85,0,0,1,4.31,2.45A10,10,0,0,1,371.51,276.65Z" style="fill:#263238"></path><path d="M372,337.21c-.08.12-.87-.46-1.1-1.57s.24-2,.36-1.89-.07.84.15,1.78S372.15,337.11,372,337.21Z" style="fill:#263238"></path><path d="M375.59,337c-.15,0-.21-.78-.35-1.71s-.29-1.7-.15-1.75.53.68.67,1.67S375.73,337,375.59,337Z" style="fill:#263238"></path><path d="M378.87,336c-.14-.05,0-.74-.22-1.53s-.68-1.32-.59-1.44.83.33,1.09,1.3S379,336,378.87,336Z" style="fill:#263238"></path><path d="M335,336.72c-.14,0-.4-.78,0-1.7s1.19-1.28,1.25-1.15-.45.6-.77,1.36S335.17,336.7,335,336.72Z" style="fill:#263238"></path><path d="M339.39,334.49c.14,0,.24.8-.08,1.72s-.89,1.5-1,1.41.22-.74.51-1.58S339.24,334.48,339.39,334.49Z" style="fill:#263238"></path><path d="M342.59,335.81c.13,0,.27.79-.13,1.68s-1.07,1.34-1.15,1.23.34-.66.67-1.44S342.44,335.81,342.59,335.81Z" style="fill:#263238"></path><g style="opacity:0.30000000000000004"><path d="M399.54,188.62l-6.14-6.87a155.74,155.74,0,0,0-2.86,27.58,8.47,8.47,0,0,0,.61,4,12.46,12.46,0,0,0,2.23,2.65c3.16,3.35,4.59,7.94,5.92,12.35Q398.73,208.49,399.54,188.62Z"></path></g><path d="M416.17,192.67s2.48,38.91,2.46,44.64c0,4.24-9.25,48.65-9.25,48.65l-13.72-4.62,4.83-43.15-4.83-45.52Z" style="fill:#ffbf9d"></path><path d="M408,163a20.6,20.6,0,0,1,7.61,12.33c1.65,8.28,5.31,28.91,5.31,28.91l-27.21,1.15s-.48-14.31-.48-15.22,1.09-16.73,3.9-21.38C400.62,163.09,408,163,408,163Z" style="fill:#e0e0e0"></path><path d="M421,204.26a3.06,3.06,0,0,1-.55.07l-1.58.11-5.84.32-19.47.91h-.23v-.23c0-.6-.1-1.24-.15-1.89a118.07,118.07,0,0,1,.43-20.77c.3-2.64.62-4.77.88-6.24.12-.73.24-1.3.32-1.68a4.3,4.3,0,0,1,.14-.58,2.46,2.46,0,0,1-.05.6c-.06.43-.13,1-.23,1.69-.2,1.47-.47,3.6-.72,6.24a126.69,126.69,0,0,0-.29,20.71c0,.64.09,1.28.14,1.88l-.25-.22,19.48-.75,5.84-.18,1.58,0A2.13,2.13,0,0,1,421,204.26Z" style="fill:#263238"></path><path d="M403.64,163.48a44,44,0,0,0-4.13,3.24,43.82,43.82,0,0,0-3.35,4,13.71,13.71,0,0,1,7.48-7.28Z" style="fill:#263238"></path><path d="M395.41,284.41s-5.48,4.14-6.68,5.77-4.18,7.46-6.39,9.16a1.68,1.68,0,0,0,2.65,1.14,19.06,19.06,0,0,0,5.78-5c.93-1.42,1.91-.58,2,.66s-1,9.63-1,9.63-2.62,9.34-1.91,10.38a1.69,1.69,0,0,0,2.66.13c.36-.49,3.31-8.29,3.31-8.29l.76-4.25s-1.52,13.44-.67,14.5a1.47,1.47,0,0,0,2.36.11c.59-.54,1.2-6.48,1.2-6.48l1.38-7.93L400.56,319s.16,1.43,1.28,1.48,1.88-1.6,1.88-1.6l1.62-15.58s-.52,8.66.06,9.11c.78.61,1.49.41,1.75-.25.52-1.35,1.28-9.14,1.28-9.14l.71-14.82.76-7.15-13.87-.9Z" style="fill:#ffbf9d"></path></g><g id="freepik--character-1--inject-87"><path d="M156.68,438.86l-.78,20.72s20.8,7.76,21,11.6l-40.24-.07-.1-32.34Z" style="fill:#455a64"></path><path d="M143.46,457.82a1.64,1.64,0,0,0-1.14,1.87,1.59,1.59,0,0,0,1.85,1.15,1.73,1.73,0,0,0,1.19-2,1.63,1.63,0,0,0-2.05-1" style="fill:#e0e0e0"></path><path d="M136.69,471.11l.12-3.26,38.54,1.29s1.79.78,1.58,2Z" style="fill:#263238"></path><path d="M156.55,459.38c0,.2-1,.28-2,.91s-1.48,1.46-1.66,1.38.11-1.21,1.3-1.95S156.6,459.2,156.55,459.38Z" style="fill:#fff"></path><path d="M160.77,461.13c0,.19-.81.53-1.48,1.36s-.86,1.7-1.06,1.7-.31-1.12.54-2.14S160.77,461,160.77,461.13Z" style="fill:#fff"></path><path d="M163.16,466.19c-.18,0-.45-.94.05-2s1.43-1.5,1.51-1.33-.48.73-.89,1.62S163.35,466.17,163.16,466.19Z" style="fill:#fff"></path><path d="M156.21,454.64c-.09.18-1-.1-2.1,0s-2,.42-2.08.25.73-.87,2-.94S156.3,454.48,156.21,454.64Z" style="fill:#fff"></path><path d="M108.41,440.14l-1.12,25.07,4.83,20.08a2.57,2.57,0,0,1-2.07,3.14h0a2.55,2.55,0,0,1-2.24-.72c-3.75-3.75-17.1-17.81-17.15-19.16-.09-2.12-.71-26.82-.71-26.82Z" style="fill:#455a64"></path><path d="M110.05,488.43,90.56,466.56l0,1.06a4.06,4.06,0,0,0,.86,2.53c1.56,1.91,6,7.08,16.34,17.56a2.57,2.57,0,0,0,2.31.72Z" style="fill:#263238"></path><g style="opacity:0.6000000000000001"><path d="M95.89,458.58a1.56,1.56,0,0,1,.38,2,1.5,1.5,0,0,1-2,.39,1.63,1.63,0,0,1-.39-2.16,1.55,1.55,0,0,1,2.14-.18" style="fill:#fff"></path></g><path d="M104.56,477.34A5.55,5.55,0,0,1,109.7,475c0-.06-.29-.26-.87-.36a4,4,0,0,0-2.26.35,3.93,3.93,0,0,0-1.72,1.5C104.54,477,104.5,477.32,104.56,477.34Z" style="fill:#fff"></path><path d="M106.27,480.74a20.21,20.21,0,0,1,2.25-1,19.92,19.92,0,0,1,2.46-.26,2.85,2.85,0,0,0-2.61-.27C106.89,479.58,106.14,480.67,106.27,480.74Z" style="fill:#fff"></path><path d="M101.33,473a26.31,26.31,0,0,1,3.35-1.82,27.51,27.51,0,0,1,3.74-.79,7,7,0,0,0-7.09,2.61Z" style="fill:#fff"></path><path d="M101,465.32c.06.15,1.46-.4,3.27-.43s3.22.44,3.28.29a5,5,0,0,0-3.3-.84A4.93,4.93,0,0,0,101,465.32Z" style="fill:#fff"></path><path d="M101.17,458a12.75,12.75,0,0,1,3.39-.53,11.91,11.91,0,0,1,3.31.91c0-.06-.23-.38-.8-.72a5.43,5.43,0,0,0-2.48-.74,5.5,5.5,0,0,0-2.55.45C101.44,457.6,101.14,457.89,101.17,458Z" style="fill:#fff"></path><path d="M104.55,456a2.31,2.31,0,0,0,0-.95,6.53,6.53,0,0,0-.7-2.5,2.93,2.93,0,0,0-1.22-1.43,1,1,0,0,0-1.17.21,1.65,1.65,0,0,0-.42,1.12,3.62,3.62,0,0,0,3.11,3.43,4.22,4.22,0,0,0,4.19-2.11,1.47,1.47,0,0,0,.09-1.22,1,1,0,0,0-1-.56,3.6,3.6,0,0,0-1.67.83,7.1,7.1,0,0,0-1.75,1.91,2.16,2.16,0,0,0-.41.86,11.87,11.87,0,0,1,2.39-2.46,3.47,3.47,0,0,1,1.47-.68.55.55,0,0,1,.58.3,1,1,0,0,1-.11.8,3.78,3.78,0,0,1-3.65,1.79,3.16,3.16,0,0,1-2.69-2.88,1.23,1.23,0,0,1,.27-.79.56.56,0,0,1,.64-.13,2.73,2.73,0,0,1,1.06,1.19A10.17,10.17,0,0,1,104.55,456Z" style="fill:#fff"></path><path d="M169.06,265.5a89,89,0,0,1,3.05,26.1c-.19,5.58-12.43,160.29-12.43,160.29L134.33,453l1-145-2.06.54S122,370.83,121.33,380.87c-.63,9-9.53,74.74-9.53,74.74L88.71,455l3.66-84.71,5.11-83.16,2.22-24.23Z" style="fill:#263238"></path><path d="M130.7,293.42a4.36,4.36,0,0,0,1.08.55,12.61,12.61,0,0,0,3.18,1,6.68,6.68,0,0,0,2.34-.09,4.75,4.75,0,0,0,2.39-1.27,5.76,5.76,0,0,0,1.37-2.65,30.45,30.45,0,0,0,.55-3.08c.63-4.21,1-8.05,1.22-10.83.1-1.39.16-2.51.19-3.29a6.17,6.17,0,0,0,0-1.22,5.39,5.39,0,0,0-.19,1.2c-.1.89-.22,2-.36,3.28-.29,2.77-.74,6.58-1.37,10.78-.32,2.07-.51,4.18-1.74,5.46a5.27,5.27,0,0,1-4.33,1.33,14.17,14.17,0,0,1-3.16-.78A5.23,5.23,0,0,0,130.7,293.42Z" style="fill:#455a64"></path><path d="M137.49,273.48s-.17-.13-.52-.14a2.26,2.26,0,0,0-1.4.52,2.52,2.52,0,0,0-1,2,2.52,2.52,0,0,0,4.35,1.43,2.57,2.57,0,0,0,.39-2.2,2.29,2.29,0,0,0-.82-1.24c-.3-.21-.5-.23-.51-.21a2.86,2.86,0,0,1,1,1.54,2.22,2.22,0,0,1-.41,1.8,2.05,2.05,0,0,1-3.46-1.14,2.17,2.17,0,0,1,.73-1.69A2.76,2.76,0,0,1,137.49,273.48Z" style="fill:#455a64"></path><path d="M97.77,285.61a2.6,2.6,0,0,0,.86.1,15.83,15.83,0,0,0,2.38-.07,23,23,0,0,0,14-6.6,15.36,15.36,0,0,0,1.57-1.79,3.06,3.06,0,0,0,.48-.73c-.08-.06-.85.91-2.31,2.25A25.64,25.64,0,0,1,101,285.26C99,285.54,97.77,285.52,97.77,285.61Z" style="fill:#455a64"></path><path d="M159,273a10.89,10.89,0,0,0,1.43,2.53,28.87,28.87,0,0,0,4.63,5.27,29.21,29.21,0,0,0,5.75,4,11.11,11.11,0,0,0,2.68,1.13c0-.08-1-.56-2.49-1.47a36,36,0,0,1-5.59-4.07,35.62,35.62,0,0,1-4.67-5.09A27.11,27.11,0,0,0,159,273Z" style="fill:#455a64"></path><path d="M172.1,138.3,185,135.92l31.93-9.23,35.39-40.47,6.42,9.19s-23.25,43.47-27.62,46.69-52.79,18-52.79,18Z" style="fill:#ae7461"></path><path d="M252.31,86.22,261.7,70.6l5.47-15.48s2.67,0,2.53,2.14a55.11,55.11,0,0,1-1.6,7.34l3.47-5.47s1.74,1.33.67,4.67-5.87,10.94-5.87,10.94-1.74,4.41-1.6,6.81.4,6.14-1.07,8.54a28.91,28.91,0,0,1-5,5.32Z" style="fill:#ae7461"></path><path d="M258.28,84.33,263.35,75a6,6,0,0,1,1.1-1.57,2,2,0,0,1,1.77-.53c1.07.29,1.42,1.61,1.46,2.71.19,5.06-2.33,9.78-4.77,14.21" style="fill:#ae7461"></path><path d="M262.91,89.81a5.64,5.64,0,0,1,.53-1.19c.37-.74.92-1.82,1.54-3.16a31.09,31.09,0,0,0,1.83-4.87,18.43,18.43,0,0,0,.55-3c0-.53.08-1.06.07-1.61a5,5,0,0,0-.2-1.59,1.89,1.89,0,0,0-.84-1.17,1.4,1.4,0,0,0-1.33.07,5.3,5.3,0,0,0-1.76,2.3l-2.55,4.57c-.71,1.23-1.3,2.25-1.76,3.07a7.59,7.59,0,0,1-.71,1.09,6.4,6.4,0,0,1,.53-1.19L260.42,80l2.46-4.63a5.59,5.59,0,0,1,1.95-2.52,1.88,1.88,0,0,1,1.8-.08,2.36,2.36,0,0,1,1.1,1.48A5.55,5.55,0,0,1,268,76a15.13,15.13,0,0,1-.08,1.66,17,17,0,0,1-.6,3.07,29.54,29.54,0,0,1-1.95,4.9c-.67,1.33-1.28,2.38-1.7,3.1A6.89,6.89,0,0,1,262.91,89.81Z" style="fill:#6f4439"></path><path d="M195.42,171.81s7.82-21.4,8.51-28.76A22.38,22.38,0,0,0,202,131l-18.59,4.91-18.31.67a11.58,11.58,0,0,0-3.68.73l-38.4,14.41s-24.28,16.86-25.2,17.78,8,54.77,8,54.77S98,262.09,97.79,267.61s18.45,26.93,44.46,20.49,30.39-7.88,31.33-10c2.84-6.33-1.35-7.92-1.35-7.92l4.55-80,3.68-14Z" style="fill:#455a64"></path><path d="M169.42,272.85a11.08,11.08,0,0,1-1.47.71c-1,.43-2.36,1-4.12,1.66a101.3,101.3,0,0,1-14.08,4.09,102.67,102.67,0,0,1-14.52,2.05c-1.87.12-3.39.18-4.44.18a9.64,9.64,0,0,1-1.63-.05,11,11,0,0,1,1.63-.16c1-.06,2.55-.17,4.42-.34a118.49,118.49,0,0,0,28.49-6.12c1.77-.61,3.2-1.13,4.18-1.5A9.85,9.85,0,0,1,169.42,272.85Z" style="fill:#263238"></path><path d="M166.59,259.59a10.62,10.62,0,0,1-1.3,1.06c-.86.66-2.14,1.55-3.76,2.6a77.35,77.35,0,0,1-13.45,6.81,75.87,75.87,0,0,1-14.53,4c-1.91.33-3.46.53-4.53.62a11,11,0,0,1-1.68.1,10.15,10.15,0,0,1,1.65-.3c1.07-.15,2.6-.41,4.49-.78a83.85,83.85,0,0,0,27.85-10.8c1.64-1,2.95-1.84,3.84-2.45A10.06,10.06,0,0,1,166.59,259.59Z" style="fill:#263238"></path><path d="M185.16,149.62a7.87,7.87,0,0,1-.12,1.49c-.11,1-.31,2.35-.57,4.06-.52,3.41-1.35,8.11-2.46,13.27s-2.3,9.78-3.23,13.11c-.46,1.66-.86,3-1.15,3.92a7.44,7.44,0,0,1-.51,1.42,9,9,0,0,1,.31-1.47c.26-1,.59-2.37,1-4,.84-3.34,2-8,3.07-13.12s2-9.83,2.61-13.23c.29-1.62.54-3,.73-4A8.29,8.29,0,0,1,185.16,149.62Z" style="fill:#263238"></path><g style="opacity:0.30000000000000004"><path d="M118.44,215.47a97.94,97.94,0,0,0,13,5,32.21,32.21,0,0,0,13.82,1.06c5.4-.89,10.29-4.51,13.9-8.62s5.55-6.37,8.3-12.24c1.79-3.81,3.29-8.5,2.66-12.66-.54-3.57-2.18-6.87-3.79-10.1,0,0-.62-2.55-2.15-8.17s-3.75-18-3.75-18l-1.54,15.52-1.45,29.45-12.9,16.53-16.86,2.17Z"></path></g><path d="M113,204.37s3.19,4.32,6.37,2.28,27.87-30.26,28.11-31,6.42-8.1,8-12.84-1.21-16.26-1.21-16.26l5.51-1.27,2.34,22.64,1.33,7.76s9,15.37-.7,27.26-14.24,17.69-23.18,17.56-29.34-5.27-29.34-5.27Z" style="fill:#FE3E55"></path><path d="M166.73,189.48s-.11-.24-.35-.68a15,15,0,0,0-1.24-1.79,35.86,35.86,0,0,0-5.69-5.62,21.87,21.87,0,0,0-4.66-2.95,6.77,6.77,0,0,0-1.43-.43,2.06,2.06,0,0,0-1.44.22,17.72,17.72,0,0,0-2.49,2.08c-3.21,3.13-6.44,6.86-9.78,10.81s-6.38,7.84-9,11.46a62.34,62.34,0,0,0-3.53,5.29,3.9,3.9,0,0,0-.77,2.64,6.36,6.36,0,0,0,1.15,2.33,22.82,22.82,0,0,0,3.14,3.3c1,.89,1.92,1.61,2.67,2.18s1.35,1,1.76,1.29l.46.33.16.12-.17-.09-.48-.31c-.42-.28-1-.69-1.79-1.26s-1.69-1.27-2.71-2.15a22.47,22.47,0,0,1-3.19-3.3,6.58,6.58,0,0,1-1.2-2.41,2.85,2.85,0,0,1,0-.72,1.19,1.19,0,0,1,.06-.37,1.45,1.45,0,0,1,.12-.35,10.25,10.25,0,0,1,.64-1.34,62.43,62.43,0,0,1,3.52-5.32c2.64-3.63,5.7-7.51,9-11.49s6.58-7.68,9.81-10.82a18,18,0,0,1,2.55-2.1,2.27,2.27,0,0,1,1.59-.24,7.26,7.26,0,0,1,1.48.45,22,22,0,0,1,4.68,3,34.47,34.47,0,0,1,5.66,5.71,12.19,12.19,0,0,1,1.2,1.83A3.61,3.61,0,0,1,166.73,189.48Z" style="fill:#263238"></path><path d="M162.86,175.71a2.86,2.86,0,0,1-.6-.3c-.37-.2-.91-.5-1.6-.83A16,16,0,0,0,155,172.9a9.52,9.52,0,0,0-5.66,1.27,10.38,10.38,0,0,0-1.88,1.58l.09-.15a4.23,4.23,0,0,1,.31-.39,6.32,6.32,0,0,1,1.38-1.19,9.3,9.3,0,0,1,5.78-1.39,15.26,15.26,0,0,1,5.71,1.78c.68.36,1.22.68,1.58.91A3.74,3.74,0,0,1,162.86,175.71Z" style="fill:#263238"></path><path d="M122.18,216.32a1.35,1.35,0,0,1-.3-.25,7.57,7.57,0,0,1-.7-.81,9.73,9.73,0,0,1-1.59-3.17,9.92,9.92,0,0,1-.37-3.53,7.59,7.59,0,0,1,.16-1.06,1.12,1.12,0,0,1,.12-.38s-.06.56-.09,1.45a10.91,10.91,0,0,0,.43,3.44,11.37,11.37,0,0,0,1.49,3.14C121.83,215.88,122.22,216.29,122.18,216.32Z" style="fill:#263238"></path><path d="M153.69,181c.06,0-5.33,6.67-12,14.8s-12.18,14.69-12.23,14.64,5.33-6.67,12-14.8S153.64,180.94,153.69,181Z" style="fill:#263238"></path><polygon points="139.8 204.2 143.51 207.05 153.11 195.52 149.24 192.58 139.8 204.2" style="fill:#fff"></polygon><path d="M143.51,207.07h0l-3.72-2.86h0l9.44-11.63h0l3.89,3h0Zm-3.69-2.87,3.69,2.84,9.58-11.52-3.85-2.92Z" style="fill:#263238"></path><path d="M162.13,131.66c-.08-4.87-1.07-14.89-2.06-23.94A18.79,18.79,0,0,0,140.84,91l-1,0c-10.47.92-15.54,10.33-14.33,20.77l.26,39.78,6.83,5.76a12,12,0,0,0,12,2h0a12,12,0,0,0,7.64-11.26l0-4.47S162.3,141.75,162.13,131.66Z" style="fill:#ae7461"></path><path d="M152.27,143.61A23.49,23.49,0,0,1,139,140.25s3.32,7.17,13.36,6Z" style="fill:#6f4439"></path><path d="M157.19,116.86a1.44,1.44,0,0,1-1.34,1.49,1.39,1.39,0,0,1-1.53-1.26,1.45,1.45,0,0,1,1.35-1.49A1.38,1.38,0,0,1,157.19,116.86Z" style="fill:#263238"></path><path d="M158.18,112.18c-.18.19-1.29-.58-2.84-.53s-2.66.85-2.84.67.09-.43.58-.8a3.9,3.9,0,0,1,2.26-.77,3.77,3.77,0,0,1,2.26.66C158.09,111.76,158.26,112.09,158.18,112.18Z" style="fill:#263238"></path><path d="M143.37,116.86a1.44,1.44,0,0,1-1.34,1.49,1.39,1.39,0,0,1-1.53-1.26,1.45,1.45,0,0,1,1.35-1.49A1.38,1.38,0,0,1,143.37,116.86Z" style="fill:#263238"></path><path d="M142.72,112.19c-.15.21-1.34-.44-2.87-.22s-2.56,1.14-2.75,1,0-.44.48-.86a4,4,0,0,1,2.17-1,3.75,3.75,0,0,1,2.32.41C142.59,111.78,142.8,112.1,142.72,112.19Z" style="fill:#263238"></path><path d="M148.78,124.77a10.71,10.71,0,0,1,2.5-.52c.39,0,.77-.14.83-.42a2.08,2.08,0,0,0-.3-1.16l-1.26-3c-1.75-4.24-3-7.74-2.86-7.81s1.73,3.32,3.48,7.56l1.21,3a2.28,2.28,0,0,1,.25,1.55,1,1,0,0,1-.63.59,2.64,2.64,0,0,1-.67.12A9.7,9.7,0,0,1,148.78,124.77Z" style="fill:#263238"></path><path d="M142.74,105.5c-.14.43-1.69.27-3.5.55s-3.27.81-3.52.44c-.11-.18.13-.59.71-1a5.8,5.8,0,0,1,2.59-1,5.9,5.9,0,0,1,2.76.24C142.46,105,142.8,105.3,142.74,105.5Z" style="fill:#263238"></path><path d="M157.75,106.2c-.26.36-1.34,0-2.62,0s-2.37.31-2.63,0c-.11-.18.05-.54.51-.88a3.81,3.81,0,0,1,4.23,0C157.71,105.66,157.87,106,157.75,106.2Z" style="fill:#263238"></path><path d="M126.57,119.22c-.18-.07-7-1.84-6.57,5s7.25,5,7.25,4.85S126.57,119.22,126.57,119.22Z" style="fill:#ae7461"></path><path d="M125,126.63s-.11.09-.31.2a1.22,1.22,0,0,1-.89.07,3,3,0,0,1-1.54-2.58,3.94,3.94,0,0,1,.23-1.74,1.38,1.38,0,0,1,.85-1,.62.62,0,0,1,.73.29c.1.19.06.33.1.34s.14-.13.07-.41a.79.79,0,0,0-.3-.41.89.89,0,0,0-.67-.14,1.69,1.69,0,0,0-1.19,1.15,4.1,4.1,0,0,0-.3,1.94,3.13,3.13,0,0,0,1.93,2.87,1.31,1.31,0,0,0,1.09-.25C125,126.8,125,126.64,125,126.63Z" style="fill:#6f4439"></path><path d="M160.84,95.92a3.5,3.5,0,0,0-2.72-2.73c.06-.21-1.42-.92-2.57-1.73s-1.4-2.73-2.45-1.78a3.22,3.22,0,0,0-4.47-2.76c0-1.22-1.76-1.62-2.94-1.93s-1.63-.49-2.19.6a4.69,4.69,0,0,0-7.32-.38A6,6,0,0,0,129,88.63a5.7,5.7,0,0,0-4.9,4.05c-1.44.16-1.78,1.29-2.37,2.62s-1.38,2.81-.52,4a3.09,3.09,0,0,0-.5,4.88,3,3,0,0,0-1,.84,3.22,3.22,0,0,0-.8,4.51,3.2,3.2,0,0,0,2.15,5.69c-1.11,1.61.33,3.77,1.17,4.24,0,0,2.82-1.2,3.29.88,0,0,0,0,0,0a1.29,1.29,0,0,0,1.74,1.3,4.54,4.54,0,0,0,1.73-2,9.89,9.89,0,0,0,1.37-2.76,2.39,2.39,0,0,0-1-2.68,3.6,3.6,0,0,0,2.1-2.91,10.48,10.48,0,0,0-.32-3.73c-.38-1.81-.75-3.62-1.13-5.44A6.9,6.9,0,0,0,135.85,98a4,4,0,0,0,5.68-1.57,5.13,5.13,0,0,0,6.34,3c-.23,1.44,2.36,2.69,3.78,3a5.1,5.1,0,0,0,3.14-.71s2.46,1.36,3.76.79,3-2.26,2.09-3.6A6.31,6.31,0,0,0,160.84,95.92Z" style="fill:#263238"></path><path d="M147.72,86.75a2.6,2.6,0,0,0-.79-.42,1.42,1.42,0,0,0-1,.08,1.5,1.5,0,0,0-.81,1l-.09.4-.21-.35a2.52,2.52,0,0,0-2.16-1.13,2.45,2.45,0,0,0-2.23,1.8l-.12.45-.3-.36a3,3,0,0,0-2.41-1.08,3,3,0,0,0-2.81,2.57l0,.28-.27-.06a2.94,2.94,0,0,0-3.25,1.63,3,3,0,0,0,.58,3.2l.27.28-.37.08a3.22,3.22,0,0,0-2.56,3.22,5,5,0,0,0,.41,1.66,1,1,0,0,1-.27-.37,3.19,3.19,0,0,1-.38-1.28,3.39,3.39,0,0,1,.48-2,3.57,3.57,0,0,1,2.23-1.61l-.1.35a3.34,3.34,0,0,1,3.07-5.64l-.31.22a3.49,3.49,0,0,1,3.31-3,3.51,3.51,0,0,1,2.8,1.29L140,88a2.81,2.81,0,0,1,5.13-.72l-.3,0a1.73,1.73,0,0,1,1-1.18,1.6,1.6,0,0,1,1.16,0,1.64,1.64,0,0,1,.61.39C147.7,86.67,147.73,86.74,147.72,86.75Z" style="fill:#455a64"></path><path d="M161.84,126.16a2.16,2.16,0,0,0-3.18,1,2.69,2.69,0,0,0-4.77.82,2.2,2.2,0,0,0-3.67-.62,1.74,1.74,0,0,0-1.87-.75,1.7,1.7,0,0,0-2.78-1.51,2.78,2.78,0,0,0-4.1-.68,1.54,1.54,0,0,0-3,.11,2.5,2.5,0,0,0-2.88-.75,1.67,1.67,0,0,0-2.07-1.53c.24-.85-1-1.23-1.65-1.84-.29-.27-.47-.65-.78-.9s-.84-.3-1,0a1.43,1.43,0,0,0-2.68-.93,4.54,4.54,0,0,0-.23,1.22c-.19,1.32-.94,2.89,0,3.82.17.16.39.3.46.52.13.39-.25.75-.28,1.15s.4.83.59,1.25a4.31,4.31,0,0,1,0,2.05c0,.7.34,1.57,1,1.5a2.43,2.43,0,0,0,.76,3,2.37,2.37,0,0,0,1.39,3.11,1.21,1.21,0,0,0-.09,1.6,3.61,3.61,0,0,0,1.41,1,1,1,0,0,0-.24,1.42,2.26,2.26,0,0,0,1.35.82,1,1,0,0,1,.6.32c.25.36-.08.85,0,1.28.1.65,1,.84,1.31,1.45s-.08,1.29.35,1.7c.28.26.73.21,1.09.34.64.23.93.95,1.34,1.5a5.76,5.76,0,0,0,3.35,1.8c.63.16,1.28.3,1.92.42,1.29.24,2.6.4,3.9.56.65.07,1.44.08,1.78-.47a2.25,2.25,0,0,0,3.58-.42,5.46,5.46,0,0,0,3.48-.66l1.15-.5c1.13-.5,2.4-1.14,2.74-2.33a2.5,2.5,0,0,0,1.79-3.43c.52.15,1-.38,1.11-.91a4.9,4.9,0,0,0-.21-1.6c-.39-2.16.76-4.36.46-6.53-.21-1.53-1.12-3-.68-4.51a2.68,2.68,0,0,0,.21-.92c0-.31-.31-.64-.61-.55a1.41,1.41,0,0,0-1.42-1.86" style="fill:#263238"></path><path d="M143.65,126.33c.26,0,.31,1.66,1.78,2.81s3.26.91,3.28,1.15-.39.34-1.14.38a4.15,4.15,0,0,1-2.74-.87,3.63,3.63,0,0,1-1.38-2.36C143.36,126.74,143.54,126.32,143.65,126.33Z" style="fill:#fff"></path><path d="M134.41,137.83a11.41,11.41,0,0,1-.15-7.15,2.76,2.76,0,0,0-.42,1,8.46,8.46,0,0,0-.35,2.6,8.23,8.23,0,0,0,.46,2.58A3.12,3.12,0,0,0,134.41,137.83Z" style="fill:#455a64"></path><path d="M132.83,135.4s-.21-.27-.39-.77a4.86,4.86,0,0,1-.16-2c.12-1.63.57-2.9.49-2.92a6.71,6.71,0,0,0-.77,2.9,4.41,4.41,0,0,0,.26,2.12C132.5,135.22,132.81,135.42,132.83,135.4Z" style="fill:#455a64"></path><path d="M131.13,134a8,8,0,0,1-.25-6.06,2.2,2.2,0,0,0-.42.84,6.06,6.06,0,0,0-.33,2.23,6.15,6.15,0,0,0,.51,2.2A2.34,2.34,0,0,0,131.13,134Z" style="fill:#455a64"></path><path d="M159.19,144.3a1.73,1.73,0,0,0,1-.61,5.5,5.5,0,0,0,1.21-2.46,8.28,8.28,0,0,0,.22-2.73,2.86,2.86,0,0,0-.22-1.11,13.59,13.59,0,0,1-.27,3.77,5.9,5.9,0,0,1-1.08,2.4A5.23,5.23,0,0,1,159.19,144.3Z" style="fill:#455a64"></path><path d="M157.72,143.94a2.12,2.12,0,0,0,.78-.55,5.32,5.32,0,0,0,1.27-1.9,5.46,5.46,0,0,0,.37-2.27,2,2,0,0,0-.2-.92,6.72,6.72,0,0,0,0,.93,6.52,6.52,0,0,1-.43,2.16,6.41,6.41,0,0,1-1.16,1.87A7.59,7.59,0,0,0,157.72,143.94Z" style="fill:#455a64"></path><path d="M160.29,101.66a13.18,13.18,0,0,0-6.81-4.94c-8.34-2.47-20-3.41-32.4,8.77l-1.8.81a30.19,30.19,0,0,1,.26-7.22c.42-2,4.16-14,17.52-15.26C137.06,83.82,157.47,80.49,160.29,101.66Z" style="fill:#455a64"></path><g style="opacity:0.30000000000000004"><path d="M160.29,101.66a13.18,13.18,0,0,0-6.81-4.94c-8.34-2.47-20-3.41-32.4,8.77l-1.8.81a30.19,30.19,0,0,1,.26-7.22c.42-2,4.16-14,17.52-15.26C137.06,83.82,157.47,80.49,160.29,101.66Z"></path></g><path d="M121.08,105.49c5.07-5.56,11.6-8.75,18.46-11.3s17.69-4.23,25-4.64a15.33,15.33,0,0,1,6.51.64A5.85,5.85,0,0,1,175,95c.12,2.75-5.35,5.82-7.85,7s-7.62,3.13-7.62,3.13-1.37-6.24-6.3-8C143,93.43,120.7,105.69,121.08,105.49Z" style="fill:#455a64"></path><path d="M160.91,97.61a3.92,3.92,0,0,0-4.23-2.45,1.49,1.49,0,0,0,0-1.79,2.75,2.75,0,0,0-1.64-1,5,5,0,0,0-5.53,2.88A4.78,4.78,0,0,0,145,94.08a3.7,3.7,0,0,0-3.07,3.2,3,3,0,0,0,1.8,2.74c1.13.67,2.91.19,4.06-.44a4.18,4.18,0,0,0,6.61,1.76,3.8,3.8,0,0,0,6.5-3.73Z" style="fill:#263238"></path><path d="M84.09,224.45s-16.86-29.36-40.86-9.82c-17.83,14.52,3.17,41.81,5.38,45.93s52.58,77.92,59.23,84.57,22,22.22,39.42,11.14,10-30.78,1.13-42.81S84.09,224.45,84.09,224.45Z" style="fill:#e0e0e0"></path><path d="M84.09,224.45l.64.84c.41.57,1,1.4,1.82,2.48l7,9.58,25.59,35.27c5.39,7.46,11.3,15.62,17.64,24.38l9.83,13.58c1.68,2.33,3.46,4.67,5,7.23a51.19,51.19,0,0,1,4,8.09,36.24,36.24,0,0,1,2.3,9,26.78,26.78,0,0,1,.11,4.74,21.71,21.71,0,0,1-.87,4.71,20.15,20.15,0,0,1-5,8.3c-.55.61-1.2,1.13-1.8,1.69s-1.28,1-2,1.49a29.63,29.63,0,0,1-4.31,2.49,25.47,25.47,0,0,1-4.77,1.6,22.47,22.47,0,0,1-5.05.48,25.29,25.29,0,0,1-9.93-2.37c-6.32-2.84-11.61-7.58-16.53-12.56-.6-.64-1.17-1.33-1.75-2s-1.08-1.38-1.63-2.07c-1.08-1.37-2.11-2.77-3.14-4.16-2.08-2.78-4.08-5.58-6.09-8.36q-6-8.34-11.64-16.49C76,301.52,68.73,291,61.89,280.94c-3.41-5-6.74-9.95-9.92-14.75l-2.36-3.6c-.39-.59-.75-1.21-1.13-1.81s-.71-1.19-1.09-1.78c-1.51-2.35-3-4.68-4.31-7A60,60,0,0,1,37,237.53c-1.25-4.86-1.51-9.92,0-14.34a18.43,18.43,0,0,1,3.3-5.9,26.62,26.62,0,0,1,4.8-4.26,27.92,27.92,0,0,1,10.63-4.85,20.65,20.65,0,0,1,10.12.56,26,26,0,0,1,7.62,3.91A40.17,40.17,0,0,1,81.8,221c.81,1.09,1.39,2,1.76,2.54s.53.9.53.9-.19-.3-.58-.88-1-1.42-1.79-2.5a40.86,40.86,0,0,0-8.4-8.26A25.71,25.71,0,0,0,65.75,209a20.43,20.43,0,0,0-10-.51,27.6,27.6,0,0,0-10.49,4.83,26.36,26.36,0,0,0-4.72,4.22,18,18,0,0,0-3.22,5.79c-1.47,4.33-1.21,9.31,0,14.12a60.08,60.08,0,0,0,6.09,14.31c1.33,2.36,2.8,4.67,4.32,7,.37.59.75,1.18,1.11,1.81s.72,1.19,1.11,1.78l2.36,3.58c3.18,4.8,6.52,9.71,9.94,14.74,6.85,10.05,14.09,20.56,21.67,31.41q5.69,8.15,11.66,16.49c2,2.77,4,5.58,6.07,8.35,1,1.39,2.06,2.79,3.15,4.15.53.69,1.06,1.39,1.61,2.06s1.12,1.32,1.72,2c4.9,5,10.15,9.65,16.37,12.45a24.76,24.76,0,0,0,9.73,2.33,22,22,0,0,0,4.93-.47,25.39,25.39,0,0,0,4.67-1.57,29.58,29.58,0,0,0,4.23-2.44c.69-.44,1.3-1,1.94-1.46s1.23-1.05,1.77-1.65a20.15,20.15,0,0,0,2.93-3.78,18.08,18.08,0,0,0,1.92-4.31,22,22,0,0,0,.85-4.61,26.61,26.61,0,0,0-.11-4.64,35.8,35.8,0,0,0-2.25-8.86,51.69,51.69,0,0,0-4-8c-1.51-2.54-3.28-4.85-5-7.2l-9.81-13.6c-6.32-8.78-12.22-16.95-17.6-24.42L93.36,237.46l-6.9-9.63c-.77-1.1-1.37-1.94-1.78-2.51S84.09,224.45,84.09,224.45Z" style="fill:#263238"></path><path d="M150,345.8s-.07.16-.24.44a10.18,10.18,0,0,1-.82,1.17,15.62,15.62,0,0,1-4,3.45,18.94,18.94,0,0,1-7.35,2.57,22.89,22.89,0,0,1-9.49-.85,32.71,32.71,0,0,1-8.61-4.1,50.74,50.74,0,0,1-6.12-4.81c-1.63-1.5-2.88-2.78-3.74-3.67-.42-.45-.75-.8-1-1.05a1.72,1.72,0,0,1-.31-.39,2.26,2.26,0,0,1,.38.32l1,1c.89.85,2.18,2.09,3.84,3.54a53.39,53.39,0,0,0,6.13,4.69,33.22,33.22,0,0,0,8.5,4,23.16,23.16,0,0,0,9.28.88,19.23,19.23,0,0,0,7.23-2.42,16.29,16.29,0,0,0,4-3.26C149.56,346.36,149.92,345.77,150,345.8Z" style="fill:#263238"></path><path d="M66.58,214.49a35.26,35.26,0,0,0-4.87-.32,20,20,0,0,0-18.1,12.75,33.56,33.56,0,0,0-1.34,4.69,5.24,5.24,0,0,1,.1-1.32,17.33,17.33,0,0,1,.9-3.51,19.61,19.61,0,0,1,18.43-13,17,17,0,0,1,3.61.33A5.06,5.06,0,0,1,66.58,214.49Z" style="fill:#263238"></path><path d="M99.19,310.09a8.56,8.56,0,0,1,.11-1.41c.12-1,.27-2.27.45-3.8.38-3.21.87-7.65,1.27-12.57s.63-9.37.78-12.6c.06-1.54.12-2.83.17-3.83a6.62,6.62,0,0,1,.12-1.4,8.24,8.24,0,0,1,.08,1.4c0,.91,0,2.22,0,3.84,0,3.24-.23,7.71-.62,12.64s-1,9.36-1.42,12.57c-.24,1.6-.45,2.89-.62,3.78A6.65,6.65,0,0,1,99.19,310.09Z" style="fill:#263238"></path><path d="M106.83,310.51a4.42,4.42,0,0,1,0-1.11c0-.83.08-1.83.13-3,.11-2.54.27-6,.39-9.92s.17-7.38.21-9.92c0-1.18,0-2.19,0-3a4.16,4.16,0,0,1,.09-1.11,5.23,5.23,0,0,1,.11,1.11c0,.71.09,1.73.11,3,.06,2.54.07,6.06-.05,9.94s-.33,7.39-.55,9.92c-.1,1.27-.2,2.3-.29,3A4.28,4.28,0,0,1,106.83,310.51Z" style="fill:#263238"></path><path d="M113.62,310.09a15.82,15.82,0,0,1,.76-5.68,15.74,15.74,0,0,1-.76,5.68Z" style="fill:#263238"></path><g style="opacity:0.30000000000000004"><path d="M89,319.33c1.23,1.58,5.44,1.25,6.88-.15a6.85,6.85,0,0,0,1.63-5.57,59.37,59.37,0,0,0-1.26-5.86c-1.27-6.37.51-12.91,2.27-19.16,3-10.55,15.54-63.32,18.52-73.87H106.83L82.59,299.55l1.47,13.13Z"></path></g><path d="M77.72,294.1s1.17-20.76,2-28S82,237.58,83,233.73s6.8-32.6,6.8-32.6h4.87l16.79,6.69s-7.56,27.6-8.61,32-3.61,16-3.61,16-3.74,15.86-5.6,26.59-2.45,14.47-2.45,14.47Z" style="fill:#ae7461"></path><path d="M97.79,169.51a16,16,0,0,0-7,9.9c-1.06,4.15-7,33-7,33s17,1.23,21.73,2.8,6.6,3.37,6.6,3.37l6.44-13.8-1.23-25.93Z" style="fill:#455a64"></path><path d="M117.81,179.41c-.1,0-.54-1.13-1.67-2.75a17,17,0,0,0-2.27-2.61,17.6,17.6,0,0,0-7.31-4.13,16.62,16.62,0,0,0-3.41-.59c-2-.14-3.2.09-3.22,0a2.73,2.73,0,0,1,.85-.21,6.51,6.51,0,0,1,1-.12,10,10,0,0,1,1.37,0,15.66,15.66,0,0,1,3.51.49,18.75,18.75,0,0,1,4,1.64,18.17,18.17,0,0,1,3.48,2.61,15.26,15.26,0,0,1,2.24,2.76,9.44,9.44,0,0,1,.68,1.18,5.19,5.19,0,0,1,.42.94A2.79,2.79,0,0,1,117.81,179.41Z" style="fill:#263238"></path><path d="M111.12,213.23c-.14,0,1.26-7,3.13-15.59s3.5-15.52,3.64-15.49-1.26,7-3.13,15.6S111.26,213.26,111.12,213.23Z" style="fill:#263238"></path><path d="M92.6,312.88c-.95-2.6-.56-5.48-.35-8.24a17.33,17.33,0,0,0-.26-5.19l.07-.1-1.59-3.85-12.23-4.61c-.2.3-5.71,5.66-6.48,7.7s-2,6.22.71,7c0,0-.7,4.57,2.79,4.47,0,0,.29,3.58,2.38,3.39,0,0-.2,2.78,1.1,3.18s3.38.59,4.17-.8a29,29,0,0,0,1.69-5.27l2.13-3.2.67,2.17A21,21,0,0,0,89,313.74a10.47,10.47,0,0,0,1.28,1.8c.52.58,1.27,1.15,2,.9a1.56,1.56,0,0,0,.89-1.64A7.35,7.35,0,0,0,92.6,312.88Z" style="fill:#ae7461"></path></g></svg>
