<svg xmlns="http://www.w3.org/2000/svg"  viewBox="0 0 50 50" width="250px" height="250px"><path d="M 5 5 L 5 45 L 45 45 L 45 5 L 5 5 z M 7 7 L 43 7 L 43 43 L 7 43 L 7 7 z M 35 8.7734375 L 26 16.773438 L 26 9.125 L 24 9.125 L 24 16.898438 L 15 8.8984375 L 15 18 L 11 18 L 11 32 L 15 32 L 15 41.226562 L 24 33.226562 L 24 40 L 26 40 L 26 33.351562 L 35 41.351562 L 35 32 L 39 32 L 39 18 L 35 18 L 35 8.7734375 z M 33 13.226562 L 33 18 L 27.630859 18 L 33 13.226562 z M 17 13.351562 L 22.228516 18 L 17 18 L 17 13.351562 z M 13 20 L 22.369141 20 L 15 26.550781 L 15 30 L 13 30 L 13 20 z M 27.490234 20 L 37 20 L 37 30 L 35 30 L 35 26.675781 L 27.490234 20 z M 24 21.228516 L 24 30.552734 L 17 36.773438 L 17 27.449219 L 24 21.228516 z M 26 21.351562 L 33 27.574219 L 33 36.898438 L 26 30.675781 L 26 21.351562 z"/></svg>