<svg xmlns="http://www.w3.org/2000/svg" xmlns:xlink="http://www.w3.org/1999/xlink" version="1.1" width="1000" height="1000" viewBox="0 0 1000 1000" xml:space="preserve">
<desc>Created with Fabric.js 3.5.0</desc>
<defs>
</defs>
<rect x="0" y="0" width="100%" height="100%" fill="rgba(255,255,255,0)"/>
<g transform="matrix(0.9137 0 0 0.9137 500 520.647)" id="24637">
<g style="" vector-effect="non-scaling-stroke">
		<g transform="matrix(1 0 0 1 -5.2306 -123.1638)">
<path style="stroke: none; stroke-width: 1; stroke-dasharray: none; stroke-linecap: butt; stroke-dashoffset: 0; stroke-linejoin: miter; stroke-miterlimit: 4; is-custom-font: none; font-file-url: none; fill: rgb(242,242,242); fill-rule: nonzero; opacity: 1;" transform=" translate(-594.7693, -326.8362)" d="M 915.18858 538.70734 H 274.35008 a 16.51866 16.51866 0 0 1 -16.5 -16.5 V 127.05353 A 12.10185 12.10185 0 0 1 269.938 114.96515 H 919.39146 a 12.31113 12.31113 0 0 1 12.29712 12.29737 V 522.20734 A 16.51867 16.51867 0 0 1 915.18858 538.70734 Z" stroke-linecap="round"/>
</g>
		<g transform="matrix(1 0 0 1 -6.811 -119.6595)">
<path style="stroke: none; stroke-width: 1; stroke-dasharray: none; stroke-linecap: butt; stroke-dashoffset: 0; stroke-linejoin: miter; stroke-miterlimit: 4; is-custom-font: none; font-file-url: none; fill: rgb(255,255,255); fill-rule: nonzero; opacity: 1;" transform=" translate(-593.189, -330.3405)" d="M 891.81129 515.34051 H 294.56654 c -8.755 0 -15.87756 -6.66992 -15.87756 -14.86816 v -344.105 c 0 -6.08007 5.27795 -11.02685 11.76562 -11.02685 H 895.72828 c 6.59522 0 11.9607 5.02832 11.9607 11.2085 V 500.47235 C 907.689 508.67059 900.56617 515.34051 891.81129 515.34051 Z" stroke-linecap="round"/>
</g>
		<g transform="matrix(1 0 0 1 -5.4613 -336.3654)">
<path style="stroke: none; stroke-width: 1; stroke-dasharray: none; stroke-linecap: butt; stroke-dashoffset: 0; stroke-linejoin: miter; stroke-miterlimit: 4; is-custom-font: none; font-file-url: none; fill: rgb(204,204,204); fill-rule: nonzero; opacity: 1;" transform=" translate(-594.5387, -113.6346)" d="M 931.45884 126.10969 H 257.61851 V 117.7093 a 16.57377 16.57377 0 0 1 16.56006 -16.54981 H 914.89878 a 16.57369 16.57369 0 0 1 16.56006 16.54981 Z" stroke-linecap="round"/>
</g>
		<g transform="matrix(1 0 0 1 -312.2862 -336.3405)">
<circle style="stroke: none; stroke-width: 1; stroke-dasharray: none; stroke-linecap: butt; stroke-dashoffset: 0; stroke-linejoin: miter; stroke-miterlimit: 4; is-custom-font: none; font-file-url: none; fill: rgb(255,255,255); fill-rule: nonzero; opacity: 1;" cx="0" cy="0" r="4.28342"/>
</g>
		<g transform="matrix(1 0 0 1 -296.0273 -336.3405)">
<circle style="stroke: none; stroke-width: 1; stroke-dasharray: none; stroke-linecap: butt; stroke-dashoffset: 0; stroke-linejoin: miter; stroke-miterlimit: 4; is-custom-font: none; font-file-url: none; fill: rgb(255,255,255); fill-rule: nonzero; opacity: 1;" cx="0" cy="0" r="4.28342"/>
</g>
		<g transform="matrix(1 0 0 1 -279.7685 -336.3405)">
<circle style="stroke: none; stroke-width: 1; stroke-dasharray: none; stroke-linecap: butt; stroke-dashoffset: 0; stroke-linejoin: miter; stroke-miterlimit: 4; is-custom-font: none; font-file-url: none; fill: rgb(255,255,255); fill-rule: nonzero; opacity: 1;" cx="0" cy="0" r="4.28342"/>
</g>
		<g transform="matrix(1 0 0 1 -5.3464 -119.2425)">
<path style="stroke: none; stroke-width: 1; stroke-dasharray: none; stroke-linecap: butt; stroke-dashoffset: 0; stroke-linejoin: miter; stroke-miterlimit: 4; is-custom-font: none; font-file-url: none; fill: rgb(204,204,204); fill-rule: nonzero; opacity: 1;" transform=" translate(-594.6535, -330.7575)" d="M 826.07277 457.6286 H 363.23426 a 17.5199 17.5199 0 0 1 -17.5 -17.5 V 216.97479 a 13.10307 13.10307 0 0 1 13.0879 -13.08838 H 830.27565 a 13.31242 13.31242 0 0 1 13.29712 13.29736 V 440.1286 A 17.51982 17.51982 0 0 1 826.07277 457.6286 Z M 358.82216 205.88641 a 11.10062 11.10062 0 0 0 -11.0879 11.08838 V 440.1286 a 15.51745 15.51745 0 0 0 15.5 15.5 H 826.07277 a 15.51753 15.51753 0 0 0 15.5 -15.5 V 217.18377 a 11.31 11.31 0 0 0 -11.29712 -11.29736 Z" stroke-linecap="round"/>
</g>
		<g transform="matrix(1 0 0 1 -5.3465 -119.1454)">
<path style="stroke: none; stroke-width: 1; stroke-dasharray: none; stroke-linecap: butt; stroke-dashoffset: 0; stroke-linejoin: miter; stroke-miterlimit: 4; is-custom-font: none; font-file-url: none; fill: rgb(242,242,242); fill-rule: nonzero; opacity: 1;" transform=" translate(-594.6535, -330.8547)" d="M 379.23429 440.1286 h 430.8385 a 16 16 0 0 0 16 -16 V 237.58075 a 16 16 0 0 0 -16 -16 H 379.23429 a 16 16 0 0 0 -16 16 V 424.1286 A 16 16 0 0 0 379.23429 440.1286 Z" stroke-linecap="round"/>
</g>
		<g transform="matrix(1 0 0 1 -171.8465 -183.1453)">
<circle style="stroke: none; stroke-width: 1; stroke-dasharray: none; stroke-linecap: butt; stroke-dashoffset: 0; stroke-linejoin: miter; stroke-miterlimit: 4; is-custom-font: none; font-file-url: none; fill: rgb(204,204,204); fill-rule: nonzero; opacity: 1;" cx="0" cy="0" r="9"/>
</g>
		<g transform="matrix(1 0 0 1 -171.8465 -149.1453)">
<circle style="stroke: none; stroke-width: 1; stroke-dasharray: none; stroke-linecap: butt; stroke-dashoffset: 0; stroke-linejoin: miter; stroke-miterlimit: 4; is-custom-font: none; font-file-url: none; fill: rgb(204,204,204); fill-rule: nonzero; opacity: 1;" cx="0" cy="0" r="9"/>
</g>
		<g transform="matrix(1 0 0 1 -171.8465 -115.1453)">
<circle style="stroke: none; stroke-width: 1; stroke-dasharray: none; stroke-linecap: butt; stroke-dashoffset: 0; stroke-linejoin: miter; stroke-miterlimit: 4; is-custom-font: none; font-file-url: none; fill: rgb(204,204,204); fill-rule: nonzero; opacity: 1;" cx="0" cy="0" r="9"/>
</g>
		<g transform="matrix(1 0 0 1 -171.8465 -81.1453)">
<circle style="stroke: none; stroke-width: 1; stroke-dasharray: none; stroke-linecap: butt; stroke-dashoffset: 0; stroke-linejoin: miter; stroke-miterlimit: 4; is-custom-font: none; font-file-url: none; fill: rgb(204,204,204); fill-rule: nonzero; opacity: 1;" cx="0" cy="0" r="9"/>
</g>
		<g transform="matrix(1 0 0 1 21.1535 -183.1453)">
<path style="stroke: none; stroke-width: 1; stroke-dasharray: none; stroke-linecap: butt; stroke-dashoffset: 0; stroke-linejoin: miter; stroke-miterlimit: 4; is-custom-font: none; font-file-url: none; fill: rgb(204,204,204); fill-rule: nonzero; opacity: 1;" transform=" translate(-621.1535, -266.8547)" d="M 769.15354 267.85468 h -296 a 1 1 0 0 1 0 -2 h 296 a 1 1 0 0 1 0 2 Z" stroke-linecap="round"/>
</g>
		<g transform="matrix(1 0 0 1 21.1535 -149.1453)">
<path style="stroke: none; stroke-width: 1; stroke-dasharray: none; stroke-linecap: butt; stroke-dashoffset: 0; stroke-linejoin: miter; stroke-miterlimit: 4; is-custom-font: none; font-file-url: none; fill: rgb(204,204,204); fill-rule: nonzero; opacity: 1;" transform=" translate(-621.1535, -300.8547)" d="M 769.15354 301.85468 h -296 a 1 1 0 0 1 0 -2 h 296 a 1 1 0 0 1 0 2 Z" stroke-linecap="round"/>
</g>
		<g transform="matrix(1 0 0 1 21.1535 -115.1453)">
<path style="stroke: none; stroke-width: 1; stroke-dasharray: none; stroke-linecap: butt; stroke-dashoffset: 0; stroke-linejoin: miter; stroke-miterlimit: 4; is-custom-font: none; font-file-url: none; fill: rgb(204,204,204); fill-rule: nonzero; opacity: 1;" transform=" translate(-621.1535, -334.8547)" d="M 769.15354 335.85468 h -296 a 1 1 0 0 1 0 -2 h 296 a 1 1 0 0 1 0 2 Z" stroke-linecap="round"/>
</g>
		<g transform="matrix(1 0 0 1 21.1535 -81.1453)">
<path style="stroke: none; stroke-width: 1; stroke-dasharray: none; stroke-linecap: butt; stroke-dashoffset: 0; stroke-linejoin: miter; stroke-miterlimit: 4; is-custom-font: none; font-file-url: none; fill: rgb(204,204,204); fill-rule: nonzero; opacity: 1;" transform=" translate(-621.1535, -368.8547)" d="M 769.15354 369.85468 h -296 a 1 1 0 0 1 0 -2 h 296 a 1 1 0 0 1 0 2 Z" stroke-linecap="round"/>
</g>
		<g transform="matrix(1 0 0 1 -85.3465 -64.6453)">
<path style="stroke: none; stroke-width: 1; stroke-dasharray: none; stroke-linecap: butt; stroke-dashoffset: 0; stroke-linejoin: miter; stroke-miterlimit: 4; is-custom-font: none; font-file-url: none; fill: rgb(254,62,85); fill-rule: nonzero; opacity: 1;" transform=" translate(-514.6535, -385.3547)" d="M 529.15354 403.85468 h -29 a 5.00582 5.00582 0 0 1 -5 -5 v -27 a 5.00581 5.00581 0 0 1 5 -5 h 29 a 5.0058 5.0058 0 0 1 5 5 v 27 A 5.00581 5.00581 0 0 1 529.15354 403.85468 Z" stroke-linecap="round"/>
</g>
		<g transform="matrix(1 0 0 1 -20.3465 -81.6453)">
<path style="stroke: none; stroke-width: 1; stroke-dasharray: none; stroke-linecap: butt; stroke-dashoffset: 0; stroke-linejoin: miter; stroke-miterlimit: 4; is-custom-font: none; font-file-url: none; fill: rgb(254,62,85); fill-rule: nonzero; opacity: 1;" transform=" translate(-579.6535, -368.3547)" d="M 594.15354 403.85468 h -29 a 5.00573 5.00573 0 0 1 -5 -5 v -61 a 5.00573 5.00573 0 0 1 5 -5 h 29 a 5.00573 5.00573 0 0 1 5 5 v 61 A 5.00573 5.00573 0 0 1 594.15354 403.85468 Z" stroke-linecap="round"/>
</g>
		<g transform="matrix(1 0 0 1 45.6535 -98.6453)">
<path style="stroke: none; stroke-width: 1; stroke-dasharray: none; stroke-linecap: butt; stroke-dashoffset: 0; stroke-linejoin: miter; stroke-miterlimit: 4; is-custom-font: none; font-file-url: none; fill: rgb(254,62,85); fill-rule: nonzero; opacity: 1;" transform=" translate(-645.6535, -351.3547)" d="M 660.15354 403.85468 h -29 a 5.00573 5.00573 0 0 1 -5 -5 v -95 a 5.00573 5.00573 0 0 1 5 -5 h 29 a 5.00573 5.00573 0 0 1 5 5 v 95 A 5.00573 5.00573 0 0 1 660.15354 403.85468 Z" stroke-linecap="round"/>
</g>
		<g transform="matrix(1 0 0 1 113.6535 -115.1453)">
<path style="stroke: none; stroke-width: 1; stroke-dasharray: none; stroke-linecap: butt; stroke-dashoffset: 0; stroke-linejoin: miter; stroke-miterlimit: 4; is-custom-font: none; font-file-url: none; fill: rgb(254,62,85); fill-rule: nonzero; opacity: 1;" transform=" translate(-713.6535, -334.8547)" d="M 728.15354 403.85468 h -29 a 5.00573 5.00573 0 0 1 -5 -5 v -128 a 5.00573 5.00573 0 0 1 5 -5 h 29 a 5.00573 5.00573 0 0 1 5 5 v 128 A 5.00573 5.00573 0 0 1 728.15354 403.85468 Z" stroke-linecap="round"/>
</g>
		<g transform="matrix(1 0 0 1 21.1535 -47.1453)">
<path style="stroke: none; stroke-width: 1; stroke-dasharray: none; stroke-linecap: butt; stroke-dashoffset: 0; stroke-linejoin: miter; stroke-miterlimit: 4; is-custom-font: none; font-file-url: none; fill: rgb(63,61,86); fill-rule: nonzero; opacity: 1;" transform=" translate(-621.1535, -402.8547)" d="M 769.15354 403.85468 h -296 a 1 1 0 0 1 0 -2 h 296 a 1 1 0 0 1 0 2 Z" stroke-linecap="round"/>
</g>
		<g transform="matrix(1 0 0 1 321.8835 139.2052)">
<path style="stroke: none; stroke-width: 1; stroke-dasharray: none; stroke-linecap: butt; stroke-dashoffset: 0; stroke-linejoin: miter; stroke-miterlimit: 4; is-custom-font: none; font-file-url: none; fill: rgb(255,184,184); fill-rule: nonzero; opacity: 1;" transform=" translate(-921.8835, -589.2051)" d="M 899.20129 590.40229 a 10.05578 10.05578 0 0 1 15.32045 -1.74338 l 31.75518 -16.38865 l -1.97486 18.46439 L 914.44957 603.4668 a 10.11027 10.11027 0 0 1 -15.24828 -13.06451 Z" stroke-linecap="round"/>
</g>
		<g transform="matrix(1 0 0 1 362.9488 101.7417)">
<path style="stroke: none; stroke-width: 1; stroke-dasharray: none; stroke-linecap: butt; stroke-dashoffset: 0; stroke-linejoin: miter; stroke-miterlimit: 4; is-custom-font: none; font-file-url: none; fill: rgb(63,61,86); fill-rule: nonzero; opacity: 1;" transform=" translate(-962.9488, -551.7416)" d="M 926.52427 597.2886 a 4.50558 4.50558 0 0 1 -1.52363 -2.21154 l -2.52573 -8.15935 a 4.51467 4.51467 0 0 1 1.58686 -4.92123 l 25.73769 -19.44037 l 27.87506 -51.71229 a 14.49652 14.49652 0 1 1 22.9 17.78163 L 984.716 562.0959 a 46.37352 46.37352 0 0 1 -23.463 22.69646 l -30.16279 13.0827 a 4.505 4.505 0 0 1 -3.66895 -0.0393 A 4.4547 4.4547 0 0 1 926.52427 597.2886 Z" stroke-linecap="round"/>
</g>
		<g transform="matrix(1 0 0 1 401.2753 14.7007)">
<circle style="stroke: none; stroke-width: 1; stroke-dasharray: none; stroke-linecap: butt; stroke-dashoffset: 0; stroke-linejoin: miter; stroke-miterlimit: 4; is-custom-font: none; font-file-url: none; fill: rgb(255,184,184); fill-rule: nonzero; opacity: 1;" cx="0" cy="0" r="24.56103"/>
</g>
		<g transform="matrix(1 0 0 1 382.2695 313.252)">
<polygon style="stroke: none; stroke-width: 1; stroke-dasharray: none; stroke-linecap: butt; stroke-dashoffset: 0; stroke-linejoin: miter; stroke-miterlimit: 4; is-custom-font: none; font-file-url: none; fill: rgb(255,184,184); fill-rule: nonzero; opacity: 1;" points="9.0425,23.6445 -3.2165,23.6435 -9.0475,-23.6445 9.0475,-23.6435 9.0425,23.6445 "/>
</g>
		<g transform="matrix(1 0 0 1 374.6738 340.8356)">
<path style="stroke: none; stroke-width: 1; stroke-dasharray: none; stroke-linecap: butt; stroke-dashoffset: 0; stroke-linejoin: miter; stroke-miterlimit: 4; is-custom-font: none; font-file-url: none; fill: rgb(47,46,65); fill-rule: nonzero; opacity: 1;" transform=" translate(-872.1738, -689.6761)" d="M 867.79529 682.2327 h 23.64387 a 0 0 0 0 1 0 0 v 14.88687 a 0 0 0 0 1 0 0 H 852.90843 a 0 0 0 0 1 0 0 v 0 A 14.88686 14.88686 0 0 1 867.79529 682.2327 Z" stroke-linecap="round"/>
</g>
		<g transform="matrix(1 0 0 1 422.2695 313.2535)">
<polygon style="stroke: none; stroke-width: 1; stroke-dasharray: none; stroke-linecap: butt; stroke-dashoffset: 0; stroke-linejoin: miter; stroke-miterlimit: 4; is-custom-font: none; font-file-url: none; fill: rgb(255,184,184); fill-rule: nonzero; opacity: 1;" points="9.0425,23.645 -3.2165,23.644 -9.0475,-23.645 9.0475,-23.643 9.0425,23.645 "/>
</g>
		<g transform="matrix(1 0 0 1 414.6738 340.8374)">
<path style="stroke: none; stroke-width: 1; stroke-dasharray: none; stroke-linecap: butt; stroke-dashoffset: 0; stroke-linejoin: miter; stroke-miterlimit: 4; is-custom-font: none; font-file-url: none; fill: rgb(47,46,65); fill-rule: nonzero; opacity: 1;" transform=" translate(-912.1738, -689.678)" d="M 907.79529 682.23452 h 23.64387 a 0 0 0 0 1 0 0 V 697.1214 a 0 0 0 0 1 0 0 H 892.90843 a 0 0 0 0 1 0 0 v 0 A 14.88686 14.88686 0 0 1 907.79529 682.23452 Z" stroke-linecap="round"/>
</g>
		<g transform="matrix(1 0 0 1 396.4499 241.8586)">
<path style="stroke: none; stroke-width: 1; stroke-dasharray: none; stroke-linecap: butt; stroke-dashoffset: 0; stroke-linejoin: miter; stroke-miterlimit: 4; is-custom-font: none; font-file-url: none; fill: rgb(47,46,65); fill-rule: nonzero; opacity: 1;" transform=" translate(-996.4499, -691.8585)" d="M 1032.208 774.899 l -14.36695 -0.00066 a 4.50773 4.50773 0 0 1 -4.34457 -3.3293 l -20.67961 -76.70114 a 0.50006 0.50006 0 0 0 -0.98194 0.16011 l 4.17735 72.74238 a 4.4992 4.4992 0 0 1 -4.86667 4.742 L 974.998 771.16588 a 4.51234 4.51234 0 0 1 -4.096 -3.96406 L 956.19143 614.457 l 5.69125 3.4153 l 53.329 -9.05421 L 1036.669 769.80443 a 4.50072 4.50072 0 0 1 -4.46092 5.09453 Z" stroke-linecap="round"/>
</g>
		<g transform="matrix(1 0 0 1 395.3455 114.1648)">
<path style="stroke: none; stroke-width: 1; stroke-dasharray: none; stroke-linecap: butt; stroke-dashoffset: 0; stroke-linejoin: miter; stroke-miterlimit: 4; is-custom-font: none; font-file-url: none; fill: rgb(63,61,86); fill-rule: nonzero; opacity: 1;" transform=" translate(-995.3455, -564.1648)" d="M 974.02688 630.57892 a 32.93909 32.93909 0 0 1 -16.69168 -4.698 a 4.48018 4.48018 0 0 1 -2.13627 -4.589 c 1.87553 -11.48624 11.68388 -70.40767 20.608 -102.52933 c 3.63463 -13.08284 11.67132 -20.12935 23.88694 -20.94324 c 17.868 -1.172 33.7499 12.8072 35.4036 31.19985 c 2.91747 32.44838 -8.93327 78.55038 -14.16384 96.86557 a 4.49612 4.49612 0 0 1 -7.08751 2.30632 l -10.66149 -8.29346 a 3.53283 3.53283 0 0 0 -4.51612 0.18827 C 989.68227 628.10112 981.146 630.57924 974.02688 630.57892 Z" stroke-linecap="round"/>
</g>
		<g transform="matrix(1 0 0 1 411.785 129.8975)">
<polygon style="stroke: none; stroke-width: 1; stroke-dasharray: none; stroke-linecap: butt; stroke-dashoffset: 0; stroke-linejoin: miter; stroke-miterlimit: 4; is-custom-font: none; font-file-url: none; fill: rgb(0,0,0); fill-rule: nonzero; opacity: 0.2;" points="-2.498,-35 6.501,3.001 -6.501,35 2.501,4.001 -2.498,-35 "/>
</g>
		<g transform="matrix(1 0 0 1 407.5702 8.3992)">
<path style="stroke: none; stroke-width: 1; stroke-dasharray: none; stroke-linecap: butt; stroke-dashoffset: 0; stroke-linejoin: miter; stroke-miterlimit: 4; is-custom-font: none; font-file-url: none; fill: rgb(47,46,65); fill-rule: nonzero; opacity: 1;" transform=" translate(-1007.5702, -458.3993)" d="M 1015.29012 484.89818 a 16.53845 16.53845 0 0 0 6.388 -1.15546 c 0.89413 -0.34453 1.82229 -0.6277 2.71475 -0.97246 c 7.88184 -3.04473 13.07419 -11.43846 13.26053 -19.88589 s -4.18791 -16.64664 -10.68362 -22.05029 s -14.90949 -8.17814 -23.33455 -8.82 c -9.07519 -0.69142 -19.29429 1.60955 -24.36577 9.16714 c -1.34994 2.01171 -2.29409 4.45248 -1.49436 6.88154 a 4.40355 4.40355 0 0 0 1.24071 1.906 c 2.26461 2.015 4.52247 0.50009 6.83114 0.36634 c 3.17326 -0.18383 6.02327 2.38485 7.04751 5.39387 s 0.57317 6.32164 -0.25409 9.39067 a 23.459 23.459 0 0 0 -1.18275 5.71 a 5.74055 5.74055 0 0 0 2.37833 5.05482 c 1.98283 1.19867 4.5869 0.5051 6.571 -0.69146 s 3.69854 -2.8603 5.84171 -3.74078 s 5.02247 -0.685 6.26978 1.26757 a 6.93469 6.93469 0 0 1 0.79255 2.28865 c 1.11805 5.0949 0.86105 4.79484 1.97909 9.88974 Z" stroke-linecap="round"/>
</g>
		<g transform="matrix(1 0 0 1 323.6775 209.4197)">
<path style="stroke: none; stroke-width: 1; stroke-dasharray: none; stroke-linecap: butt; stroke-dashoffset: 0; stroke-linejoin: miter; stroke-miterlimit: 4; is-custom-font: none; font-file-url: none; fill: rgb(230,230,230); fill-rule: nonzero; opacity: 1;" transform=" translate(-923.6775, -659.4197)" d="M 977.22128 752.59121 L 823.42537 699.0304 a 10.55633 10.55633 0 0 1 -6.48991 -13.42571 l 39.96568 -114.75847 a 7.73373 7.73373 0 0 1 9.83576 -4.7548 L 1025.732 621.46289 a 7.86747 7.86747 0 0 1 4.83675 10.006 L 990.647 746.1013 A 10.55633 10.55633 0 0 1 977.22128 752.59121 Z" stroke-linecap="round"/>
</g>
		<g transform="matrix(1 0 0 1 323.2915 209.8636)">
<path style="stroke: none; stroke-width: 1; stroke-dasharray: none; stroke-linecap: butt; stroke-dashoffset: 0; stroke-linejoin: miter; stroke-miterlimit: 4; is-custom-font: none; font-file-url: none; fill: rgb(255,255,255); fill-rule: nonzero; opacity: 1;" transform=" translate(-923.2914, -659.8636)" d="M 836.54932 692.4354 l 134.4838 46.83519 a 10.22487 10.22487 0 0 0 13.01887 -6.29324 l 32.272 -92.66666 a 10.22487 10.22487 0 0 0 -6.29325 -13.01886 l -134.4838 -46.8352 a 10.22488 10.22488 0 0 0 -13.01887 6.29325 l -32.272 92.66666 A 10.22486 10.22486 0 0 0 836.54932 692.4354 Z" stroke-linecap="round"/>
</g>
		<g transform="matrix(1 0 0 1 268.624 171.4766)">
<path style="stroke: none; stroke-width: 1; stroke-dasharray: none; stroke-linecap: butt; stroke-dashoffset: 0; stroke-linejoin: miter; stroke-miterlimit: 4; is-custom-font: none; font-file-url: none; fill: rgb(254,62,85); fill-rule: nonzero; opacity: 1;" transform=" translate(-868.6241, -621.4766)" d="M 870.32 627.32885 l -6.66027 -2.3195 a 1.44418 1.44418 0 0 1 -0.88788 -1.83677 l 2.3195 -6.66027 a 1.44418 1.44418 0 0 1 1.83677 -0.88789 l 6.66027 2.3195 a 1.44418 1.44418 0 0 1 0.88788 1.83677 l -2.3195 6.66027 A 1.44417 1.44417 0 0 1 870.32 627.32885 Z" stroke-linecap="round"/>
</g>
		<g transform="matrix(1 0 0 1 262.6144 188.7328)">
<path style="stroke: none; stroke-width: 1; stroke-dasharray: none; stroke-linecap: butt; stroke-dashoffset: 0; stroke-linejoin: miter; stroke-miterlimit: 4; is-custom-font: none; font-file-url: none; fill: rgb(63,61,86); fill-rule: nonzero; opacity: 1;" transform=" translate(-862.6144, -638.7328)" d="M 864.31039 644.585 l -6.66027 -2.3195 a 1.44418 1.44418 0 0 1 -0.88789 -1.83677 l 2.3195 -6.66027 a 1.44418 1.44418 0 0 1 1.83677 -0.88789 l 6.66028 2.3195 a 1.44418 1.44418 0 0 1 0.88788 1.83677 l -2.3195 6.66027 A 1.44419 1.44419 0 0 1 864.31039 644.585 Z" stroke-linecap="round"/>
</g>
		<g transform="matrix(1 0 0 1 256.6048 205.9889)">
<path style="stroke: none; stroke-width: 1; stroke-dasharray: none; stroke-linecap: butt; stroke-dashoffset: 0; stroke-linejoin: miter; stroke-miterlimit: 4; is-custom-font: none; font-file-url: none; fill: rgb(204,204,204); fill-rule: nonzero; opacity: 1;" transform=" translate(-856.6048, -655.989)" d="M 858.30078 661.84117 l -6.66027 -2.3195 a 1.44418 1.44418 0 0 1 -0.88789 -1.83677 l 2.3195 -6.66028 a 1.44418 1.44418 0 0 1 1.83677 -0.88788 l 6.66027 2.3195 a 1.44418 1.44418 0 0 1 0.88789 1.83677 l -2.3195 6.66027 A 1.44419 1.44419 0 0 1 858.30078 661.84117 Z" stroke-linecap="round"/>
</g>
		<g transform="matrix(1 0 0 1 299.5035 182.2306)">
<path style="stroke: none; stroke-width: 1; stroke-dasharray: none; stroke-linecap: butt; stroke-dashoffset: 0; stroke-linejoin: miter; stroke-miterlimit: 4; is-custom-font: none; font-file-url: none; fill: rgb(204,204,204); fill-rule: nonzero; opacity: 1;" transform=" translate(-899.5035, -632.2307)" d="M 915.07426 639.18089 l -32.0904 -11.17577 a 1.44258 1.44258 0 1 1 0.94888 -2.72465 l 32.0904 11.17577 a 1.44258 1.44258 0 1 1 -0.94888 2.72465 Z" stroke-linecap="round"/>
</g>
		<g transform="matrix(1 0 0 1 293.4952 199.4872)">
<path style="stroke: none; stroke-width: 1; stroke-dasharray: none; stroke-linecap: butt; stroke-dashoffset: 0; stroke-linejoin: miter; stroke-miterlimit: 4; is-custom-font: none; font-file-url: none; fill: rgb(204,204,204); fill-rule: nonzero; opacity: 1;" transform=" translate(-893.4952, -649.4872)" d="M 909.06464 656.43705 l -32.0904 -11.17577 a 1.44258 1.44258 0 0 1 0.94889 -2.72466 l 32.0904 11.17578 a 1.44258 1.44258 0 1 1 -0.94889 2.72465 Z" stroke-linecap="round"/>
</g>
		<g transform="matrix(1 0 0 1 287.4843 216.743)">
<path style="stroke: none; stroke-width: 1; stroke-dasharray: none; stroke-linecap: butt; stroke-dashoffset: 0; stroke-linejoin: miter; stroke-miterlimit: 4; is-custom-font: none; font-file-url: none; fill: rgb(204,204,204); fill-rule: nonzero; opacity: 1;" transform=" translate(-887.4842, -666.743)" d="M 903.055 673.69321 l -32.0904 -11.17577 a 1.44258 1.44258 0 0 1 0.94889 -2.72466 l 32.0904 11.17577 a 1.44258 1.44258 0 0 1 -0.94889 2.72466 Z" stroke-linecap="round"/>
</g>
		<g transform="matrix(1 0 0 1 375.3758 212.9359)">
<path style="stroke: none; stroke-width: 1; stroke-dasharray: none; stroke-linecap: butt; stroke-dashoffset: 0; stroke-linejoin: miter; stroke-miterlimit: 4; is-custom-font: none; font-file-url: none; fill: rgb(254,62,85); fill-rule: nonzero; opacity: 1;" transform=" translate(-975.3758, -662.9359)" d="M 988.45374 683.04261 c 0.23367 -0.56078 0.45394 -1.13069 0.65639 -1.712 a 30.23861 30.23861 0 0 0 -18.61138 -38.50142 L 959.951 673.11628 Z" stroke-linecap="round"/>
</g>
		<g transform="matrix(1 0 0 1 356.3127 223.2277)">
<path style="stroke: none; stroke-width: 1; stroke-dasharray: none; stroke-linecap: butt; stroke-dashoffset: 0; stroke-linejoin: miter; stroke-miterlimit: 4; is-custom-font: none; font-file-url: none; fill: rgb(63,61,86); fill-rule: nonzero; opacity: 1;" transform=" translate(-956.3126, -673.2277)" d="M 956.88355 674.9589 l 10.54775 -30.28708 a 30.23857 30.23857 0 1 0 17.955 40.21342 Z" stroke-linecap="round"/>
</g>
		<g transform="matrix(1 0 0 1 412.4751 164.5304)">
<path style="stroke: none; stroke-width: 1; stroke-dasharray: none; stroke-linecap: butt; stroke-dashoffset: 0; stroke-linejoin: miter; stroke-miterlimit: 4; is-custom-font: none; font-file-url: none; fill: rgb(255,184,184); fill-rule: nonzero; opacity: 1;" transform=" translate(-1012.4751, -614.5304)" d="M 994.645 631.51231 a 10.05576 10.05576 0 0 1 10.9793 -10.8264 l 14.87332 -32.49251 l 9.84082 15.74776 l -15.63267 28.44114 a 10.11027 10.11027 0 0 1 -20.06077 -0.87 Z" stroke-linecap="round"/>
</g>
		<g transform="matrix(1 0 0 1 426.4534 112.9841)">
<path style="stroke: none; stroke-width: 1; stroke-dasharray: none; stroke-linecap: butt; stroke-dashoffset: 0; stroke-linejoin: miter; stroke-miterlimit: 4; is-custom-font: none; font-file-url: none; fill: rgb(63,61,86); fill-rule: nonzero; opacity: 1;" transform=" translate(-1026.4533, -562.9841)" d="M 1020.3943 620.06931 a 4.50557 4.50557 0 0 1 -2.56368 -0.79992 l -7.02273 -4.86165 a 4.51467 4.51467 0 0 1 -1.78835 -4.85164 l 8.25508 -31.18029 l -9.9788 -57.893 a 14.49652 14.49652 0 1 1 28.99268 -0.14028 l 8.17682 36.12342 a 46.37349 46.37349 0 0 1 -4.45582 32.33866 L 1024.349 617.713 a 4.505 4.505 0 0 1 -2.91123 2.23327 A 4.4546 4.4546 0 0 1 1020.3943 620.06931 Z" stroke-linecap="round"/>
</g>
		<g transform="matrix(1 0 0 1 401.5 347.8405)">
<path style="stroke: none; stroke-width: 1; stroke-dasharray: none; stroke-linecap: butt; stroke-dashoffset: 0; stroke-linejoin: miter; stroke-miterlimit: 4; is-custom-font: none; font-file-url: none; fill: rgb(204,204,204); fill-rule: nonzero; opacity: 1;" transform=" translate(-1001.5, -797.8405)" d="M 1096.5 798.84051 h -190 a 1 1 0 0 1 0 -2 h 190 a 1 1 0 0 1 0 2 Z" stroke-linecap="round"/>
</g>
		<g transform="matrix(1 0 0 1 2.086 312.7545)">
<polygon style="stroke: none; stroke-width: 1; stroke-dasharray: none; stroke-linecap: butt; stroke-dashoffset: 0; stroke-linejoin: miter; stroke-miterlimit: 4; is-custom-font: none; font-file-url: none; fill: rgb(160,97,106); fill-rule: nonzero; opacity: 1;" points="-9.045,23.644 3.215,23.643 9.047,-23.644 -9.047,-23.644 -9.045,23.644 "/>
</g>
		<g transform="matrix(1 0 0 1 9.6796 340.3388)">
<path style="stroke: none; stroke-width: 1; stroke-dasharray: none; stroke-linecap: butt; stroke-dashoffset: 0; stroke-linejoin: miter; stroke-miterlimit: 4; is-custom-font: none; font-file-url: none; fill: rgb(47,46,65); fill-rule: nonzero; opacity: 1;" transform=" translate(-609.6796, -790.3388)" d="M 589.914 782.39593 l 24.14379 -0.001 h 0.001 a 15.38605 15.38605 0 0 1 15.38648 15.38623 v 0.5 l -39.53052 0.00147 Z" stroke-linecap="round"/>
</g>
		<g transform="matrix(1 0 0 1 -46.914 312.7545)">
<polygon style="stroke: none; stroke-width: 1; stroke-dasharray: none; stroke-linecap: butt; stroke-dashoffset: 0; stroke-linejoin: miter; stroke-miterlimit: 4; is-custom-font: none; font-file-url: none; fill: rgb(160,97,106); fill-rule: nonzero; opacity: 1;" points="-9.045,23.644 3.215,23.643 9.047,-23.644 -9.047,-23.644 -9.045,23.644 "/>
</g>
		<g transform="matrix(1 0 0 1 -39.3204 340.3388)">
<path style="stroke: none; stroke-width: 1; stroke-dasharray: none; stroke-linecap: butt; stroke-dashoffset: 0; stroke-linejoin: miter; stroke-miterlimit: 4; is-custom-font: none; font-file-url: none; fill: rgb(47,46,65); fill-rule: nonzero; opacity: 1;" transform=" translate(-560.6796, -790.3388)" d="M 540.914 782.39593 l 24.14379 -0.001 h 0.001 a 15.38605 15.38605 0 0 1 15.38648 15.38623 v 0.5 l -39.53052 0.00147 Z" stroke-linecap="round"/>
</g>
		<g transform="matrix(1 0 0 1 -4.5118 -15.5435)">
<circle style="stroke: none; stroke-width: 1; stroke-dasharray: none; stroke-linecap: butt; stroke-dashoffset: 0; stroke-linejoin: miter; stroke-miterlimit: 4; is-custom-font: none; font-file-url: none; fill: rgb(160,97,106); fill-rule: nonzero; opacity: 1;" cx="0" cy="0" r="24.56103"/>
</g>
		<g transform="matrix(1 0 0 1 -17.9785 222.7851)">
<path style="stroke: none; stroke-width: 1; stroke-dasharray: none; stroke-linecap: butt; stroke-dashoffset: 0; stroke-linejoin: miter; stroke-miterlimit: 4; is-custom-font: none; font-file-url: none; fill: rgb(47,46,65); fill-rule: nonzero; opacity: 1;" transform=" translate(-582.0216, -672.7852)" d="M 612.00462 776.19239 H 589.25389 a 4.50027 4.50027 0 0 1 -4.49952 -4.55469 l 1.322 -108.03125 a 1.50006 1.50006 0 0 0 -2.989 -0.20019 L 569.84666 772.23634 a 4.50405 4.50405 0 0 1 -4.467 3.95605 H 542.41038 a 4.49963 4.49963 0 0 1 -4.48633 -4.85058 l 15.16748 -194.0752 l 0.41236 -0.04492 l 72.6289 -7.84375 l -9.63306 202.52832 A 4.49485 4.49485 0 0 1 612.00462 776.19239 Z" stroke-linecap="round"/>
</g>
		<g transform="matrix(1 0 0 1 0.6931 78.5985)">
<path style="stroke: none; stroke-width: 1; stroke-dasharray: none; stroke-linecap: butt; stroke-dashoffset: 0; stroke-linejoin: miter; stroke-miterlimit: 4; is-custom-font: none; font-file-url: none; fill: rgb(63,61,86); fill-rule: nonzero; opacity: 1;" transform=" translate(-600.6931, -528.5986)" d="M 553.97556 589.18067 a 4.49625 4.49625 0 0 1 -4.48388 -4.3584 c -0.39649 -12.27148 -1.07593 -54.73242 6.822 -85.90527 a 40.92362 40.92362 0 0 1 37.79272 -30.83887 h 0 a 41.17944 41.17944 0 0 1 40.5586 26.02344 c 13.27539 33.70313 25.81787 75.24609 10.18091 81.76172 c -20.49488 8.53906 -74.52344 12.3457 -90.59424 13.30859 Q 554.1129 589.18067 553.97556 589.18067 Z" stroke-linecap="round"/>
</g>
		<g transform="matrix(1 0 0 1 51.3707 -12.5628)">
<path style="stroke: none; stroke-width: 1; stroke-dasharray: none; stroke-linecap: butt; stroke-dashoffset: 0; stroke-linejoin: miter; stroke-miterlimit: 4; is-custom-font: none; font-file-url: none; fill: rgb(160,97,106); fill-rule: nonzero; opacity: 1;" transform=" translate(-651.3708, -437.4372)" d="M 647.84686 409.63245 a 10.525 10.525 0 0 0 1.24595 1.09311 l -2.57824 49.52618 l -10.72422 5.49051 L 641.96113 483.01 l 19.92972 -7.87486 a 8 8 0 0 0 5.0258 -8.18055 l -5.22116 -56.17946 a 10.4971 10.4971 0 1 0 -13.84863 -1.14269 Z" stroke-linecap="round"/>
</g>
		<g transform="matrix(1 0 0 1 33.2809 26.7659)">
<path style="stroke: none; stroke-width: 1; stroke-dasharray: none; stroke-linecap: butt; stroke-dashoffset: 0; stroke-linejoin: miter; stroke-miterlimit: 4; is-custom-font: none; font-file-url: none; fill: rgb(63,61,86); fill-rule: nonzero; opacity: 1;" transform=" translate(-633.2809, -476.7658)" d="M 646.71807 462.09529 l 7.54416 21.4389 a 4.5 4.5 0 0 1 -3.38906 5.91156 l -22.24542 4.30783 a 12.49741 12.49741 0 0 1 -8.22761 -23.60176 l 19.97367 -10.543 a 4.5 4.5 0 0 1 6.34426 2.48649 Z" stroke-linecap="round"/>
</g>
		<g transform="matrix(1 0 0 1 -62.0637 -12.5628)">
<path style="stroke: none; stroke-width: 1; stroke-dasharray: none; stroke-linecap: butt; stroke-dashoffset: 0; stroke-linejoin: miter; stroke-miterlimit: 4; is-custom-font: none; font-file-url: none; fill: rgb(160,97,106); fill-rule: nonzero; opacity: 1;" transform=" translate(-537.9363, -437.4372)" d="M 541.46023 409.63245 a 10.52654 10.52654 0 0 1 -1.24595 1.09311 l 2.57824 49.52618 l 10.72421 5.49051 L 547.346 483.01 l -19.92971 -7.87486 a 8 8 0 0 1 -5.0258 -8.18055 l 5.22116 -56.17946 a 10.4971 10.4971 0 1 1 13.84863 -1.14269 Z" stroke-linecap="round"/>
</g>
		<g transform="matrix(1 0 0 1 -43.9738 26.7656)">
<path style="stroke: none; stroke-width: 1; stroke-dasharray: none; stroke-linecap: butt; stroke-dashoffset: 0; stroke-linejoin: miter; stroke-miterlimit: 4; is-custom-font: none; font-file-url: none; fill: rgb(63,61,86); fill-rule: nonzero; opacity: 1;" transform=" translate(-556.0262, -476.7656)" d="M 545.19208 459.39926 a 4.4952 4.4952 0 0 1 3.7412 0.20954 l 19.97367 10.543 a 12.49741 12.49741 0 0 1 -8.22761 23.60176 l -22.24543 -4.30783 a 4.5 4.5 0 0 1 -3.38906 -5.91156 l 7.54417 -21.4389 A 4.495 4.495 0 0 1 545.19208 459.39926 Z" stroke-linecap="round"/>
</g>
		<g transform="matrix(1 0 0 1 -6.3595 -24.4643)">
<path style="stroke: none; stroke-width: 1; stroke-dasharray: none; stroke-linecap: butt; stroke-dashoffset: 0; stroke-linejoin: miter; stroke-miterlimit: 4; is-custom-font: none; font-file-url: none; fill: rgb(47,46,65); fill-rule: nonzero; opacity: 1;" transform=" translate(-593.6405, -425.5357)" d="M 605.02743 438.64306 a 16.14328 16.14328 0 0 1 9.04058 -15.16765 c 7.46588 -3.85407 12.156 -12.07515 10.10082 -19.58209 c -2.63064 -9.60889 -15.70861 -15.84073 -26.30516 -12.53479 a 48.56567 48.56567 0 0 0 -8.26083 3.83932 l -6.9231 3.711 a 71.73 71.73 0 0 0 -8.534 5.03785 a 28.31535 28.31535 0 0 0 -11.27028 26.53 c 1.36336 9.76869 7.76069 18.72744 16.51765 24.861 a 27.93653 27.93653 0 0 0 11.3188 5.03108 c 4.19751 0.69206 8.87033 -0.09445 11.93939 -2.70479 c 4.79626 -4.07937 4.30076 -10.91072 2.74952 -16.61635 A 12.09016 12.09016 0 0 1 605.02743 438.64306 Z" stroke-linecap="round"/>
</g>
		<g transform="matrix(1 0 0 1 -6.5 347.8405)">
<path style="stroke: none; stroke-width: 1; stroke-dasharray: none; stroke-linecap: butt; stroke-dashoffset: 0; stroke-linejoin: miter; stroke-miterlimit: 4; is-custom-font: none; font-file-url: none; fill: rgb(204,204,204); fill-rule: nonzero; opacity: 1;" transform=" translate(-593.5, -797.8405)" d="M 688.5 798.84051 h -190 a 1 1 0 0 1 0 -2 h 190 a 1 1 0 0 1 0 2 Z" stroke-linecap="round"/>
</g>
		<g transform="matrix(1 0 0 1 -328.0296 130.8604)">
<path style="stroke: none; stroke-width: 1; stroke-dasharray: none; stroke-linecap: butt; stroke-dashoffset: 0; stroke-linejoin: miter; stroke-miterlimit: 4; is-custom-font: none; font-file-url: none; fill: rgb(230,230,230); fill-rule: nonzero; opacity: 1;" transform=" translate(-271.9704, -580.8604)" d="M 378.4097 616.413 L 221.63255 680.73031 a 10.98425 10.98425 0 0 1 -14.31518 -5.98649 l -47.9919 -116.983 a 8.04723 8.04723 0 0 1 4.38557 -10.48759 l 162.0771 -66.49162 a 8.1864 8.1864 0 0 1 10.66888 4.46176 L 384.39618 602.0978 A 10.98426 10.98426 0 0 1 378.4097 616.413 Z" stroke-linecap="round"/>
</g>
		<g transform="matrix(1 0 0 1 -327.5565 131.3461)">
<path style="stroke: none; stroke-width: 1; stroke-dasharray: none; stroke-linecap: butt; stroke-dashoffset: 0; stroke-linejoin: miter; stroke-miterlimit: 4; is-custom-font: none; font-file-url: none; fill: rgb(255,255,255); fill-rule: nonzero; opacity: 1;" transform=" translate(-272.4435, -581.3461)" d="M 227.31143 666.54132 l 137.09069 -56.241 a 10.63937 10.63937 0 0 0 5.80508 -13.88139 L 331.45407 501.956 a 10.63935 10.63935 0 0 0 -13.88138 -5.80507 L 180.482 552.39192 a 10.63934 10.63934 0 0 0 -5.80507 13.88138 l 38.75312 94.46294 A 10.63935 10.63935 0 0 0 227.31143 666.54132 Z" stroke-linecap="round"/>
</g>
		<g transform="matrix(0.9252 -0.3795 0.3795 0.9252 -270.2423 78.2989)">
<rect style="stroke: none; stroke-width: 1; stroke-dasharray: none; stroke-linecap: butt; stroke-dashoffset: 0; stroke-linejoin: miter; stroke-miterlimit: 4; is-custom-font: none; font-file-url: none; fill: rgb(230,230,230); fill-rule: nonzero; opacity: 1;" x="-1.08925" y="-0.18155" rx="0" ry="0" width="2.1785" height="0.3631"/>
</g>
		<g transform="matrix(1 0 0 1 -338.4341 106.2743)">
<path style="stroke: none; stroke-width: 1; stroke-dasharray: none; stroke-linecap: butt; stroke-dashoffset: 0; stroke-linejoin: miter; stroke-miterlimit: 4; is-custom-font: none; font-file-url: none; fill: rgb(230,230,230); fill-rule: nonzero; opacity: 1;" transform=" translate(-261.566, -556.2743)" d="M 324.74712 530.55065 l -4.07171 1.67041 l -0.13781 -0.33592 l 4.07171 -1.67041 Z m -8.14351 3.34085 l -4.07171 1.67041 l -0.13781 -0.33592 l 4.07171 -1.67041 Z m -8.14351 3.34086 l -4.07171 1.67041 l -0.13781 -0.33592 l 4.07171 -1.67041 Z m -8.14351 3.34085 l -4.07171 1.67041 l -0.13781 -0.33592 l 4.07171 -1.67041 Z m -8.14351 3.34086 l -4.07171 1.67041 l -0.13781 -0.33592 l 4.07171 -1.67041 Z m -8.14351 3.34085 l -4.07171 1.67041 l -0.13781 -0.33592 l 4.07171 -1.67041 Z m -8.14351 3.34086 l -4.07171 1.67041 l -0.13781 -0.33592 l 4.07171 -1.67041 Z m -8.14351 3.34085 l -4.07171 1.67041 l -0.13781 -0.33592 l 4.07171 -1.67041 Z m -8.14351 3.34086 l -4.07172 1.67041 l -0.13781 -0.33592 l 4.07172 -1.67041 Z m -8.14351 3.34085 l -4.07172 1.67041 l -0.13781 -0.33592 l 4.07172 -1.67041 Z M 243.312 563.9592 l -4.07172 1.67041 l -0.13781 -0.33592 l 4.07172 -1.67041 Z m -8.14351 3.34085 l -4.07172 1.67041 l -0.13781 -0.33592 l 4.07172 -1.67041 Z m -8.14351 3.34086 l -4.07172 1.67041 l -0.13781 -0.33592 l 4.07172 -1.67041 Z m -8.14351 3.34085 l -4.0718 1.67045 l -0.13781 -0.33592 l 4.0718 -1.67045 Z m -8.14351 3.34086 l -4.07172 1.67041 l -0.13781 -0.33592 l 4.07172 -1.67041 Z m -8.14351 3.34085 l -4.0718 1.67045 l -0.13781 -0.33592 l 4.0718 -1.67045 Z" stroke-linecap="round"/>
</g>
		<g transform="matrix(0.9252 -0.3795 0.3795 0.9252 -406.6257 134.2499)">
<rect style="stroke: none; stroke-width: 1; stroke-dasharray: none; stroke-linecap: butt; stroke-dashoffset: 0; stroke-linejoin: miter; stroke-miterlimit: 4; is-custom-font: none; font-file-url: none; fill: rgb(230,230,230); fill-rule: nonzero; opacity: 1;" x="-1.08925" y="-0.18155" rx="0" ry="0" width="2.1785" height="0.3631"/>
</g>
		<g transform="matrix(0.9252 -0.3795 0.3795 0.9252 -323.6022 136.6881)">
<rect style="stroke: none; stroke-width: 1; stroke-dasharray: none; stroke-linecap: butt; stroke-dashoffset: 0; stroke-linejoin: miter; stroke-miterlimit: 4; is-custom-font: none; font-file-url: none; fill: rgb(230,230,230); fill-rule: nonzero; opacity: 1;" x="-1.08925" y="-0.18155" rx="0" ry="0" width="2.1785" height="0.3631"/>
</g>
		<g transform="matrix(1 0 0 1 -358.7058 151.0892)">
<path style="stroke: none; stroke-width: 1; stroke-dasharray: none; stroke-linecap: butt; stroke-dashoffset: 0; stroke-linejoin: miter; stroke-miterlimit: 4; is-custom-font: none; font-file-url: none; fill: rgb(230,230,230); fill-rule: nonzero; opacity: 1;" transform=" translate(-241.2942, -601.0892)" d="M 271.44765 588.915 l -4.01127 1.64562 l -0.13781 -0.33592 l 4.01127 -1.64562 Z m -8.02254 3.29123 l -4.01127 1.64561 l -0.13781 -0.33592 l 4.01127 -1.64561 Z m -8.02254 3.29123 l -4.01127 1.64561 l -0.13782 -0.33592 l 4.01128 -1.64561 Z M 247.38 598.78872 l -4.01127 1.64561 l -0.13781 -0.33592 l 4.01127 -1.64561 Z M 239.35748 602.08 l -4.01135 1.64564 l -0.13781 -0.33592 l 4.01135 -1.64564 Z m -8.02263 3.29126 l -4.01127 1.64561 l -0.13781 -0.33592 l 4.01127 -1.64561 Z m -8.02254 3.29123 l -4.01127 1.64561 l -0.13781 -0.33592 l 4.01127 -1.64561 Z m -8.02254 3.29123 l -4.01127 1.64561 l -0.13781 -0.33592 l 4.01127 -1.64561 Z" stroke-linecap="round"/>
</g>
		<g transform="matrix(0.9252 -0.3795 0.3795 0.9252 -393.8094 165.4904)">
<rect style="stroke: none; stroke-width: 1; stroke-dasharray: none; stroke-linecap: butt; stroke-dashoffset: 0; stroke-linejoin: miter; stroke-miterlimit: 4; is-custom-font: none; font-file-url: none; fill: rgb(230,230,230); fill-rule: nonzero; opacity: 1;" x="-1.08925" y="-0.18155" rx="0" ry="0" width="2.1785" height="0.3631"/>
</g>
		<g transform="matrix(0.9252 -0.3795 0.3795 0.9252 -356.8411 167.5923)">
<rect style="stroke: none; stroke-width: 1; stroke-dasharray: none; stroke-linecap: butt; stroke-dashoffset: 0; stroke-linejoin: miter; stroke-miterlimit: 4; is-custom-font: none; font-file-url: none; fill: rgb(230,230,230); fill-rule: nonzero; opacity: 1;" x="-1.08925" y="-0.18155" rx="0" ry="0" width="2.1785" height="0.3631"/>
</g>
		<g transform="matrix(1 0 0 1 -372.2934 173.9315)">
<path style="stroke: none; stroke-width: 1; stroke-dasharray: none; stroke-linecap: butt; stroke-dashoffset: 0; stroke-linejoin: miter; stroke-miterlimit: 4; is-custom-font: none; font-file-url: none; fill: rgb(230,230,230); fill-rule: nonzero; opacity: 1;" transform=" translate(-227.7066, -623.9315)" d="M 238.09306 619.86673 l -4.127 1.69309 l -0.13781 -0.33592 l 4.127 -1.69308 Z m -8.25406 3.38621 l -4.127 1.69309 l -0.13781 -0.33592 l 4.127 -1.69309 Z m -8.254 3.38618 l -4.127 1.69309 l -0.13781 -0.33592 l 4.127 -1.69309 Z" stroke-linecap="round"/>
</g>
		<g transform="matrix(0.9252 -0.3795 0.3795 0.9252 -387.7457 180.2708)">
<rect style="stroke: none; stroke-width: 1; stroke-dasharray: none; stroke-linecap: butt; stroke-dashoffset: 0; stroke-linejoin: miter; stroke-miterlimit: 4; is-custom-font: none; font-file-url: none; fill: rgb(230,230,230); fill-rule: nonzero; opacity: 1;" x="-1.08925" y="-0.18155" rx="0" ry="0" width="2.1785" height="0.3631"/>
</g>
		<g transform="matrix(0.9252 -0.3795 0.3795 0.9252 -346.4933 192.8156)">
<rect style="stroke: none; stroke-width: 1; stroke-dasharray: none; stroke-linecap: butt; stroke-dashoffset: 0; stroke-linejoin: miter; stroke-miterlimit: 4; is-custom-font: none; font-file-url: none; fill: rgb(230,230,230); fill-rule: nonzero; opacity: 1;" x="-1.08925" y="-0.18155" rx="0" ry="0" width="2.1785" height="0.3631"/>
</g>
		<g transform="matrix(1 0 0 1 -361.9456 199.1548)">
<path style="stroke: none; stroke-width: 1; stroke-dasharray: none; stroke-linecap: butt; stroke-dashoffset: 0; stroke-linejoin: miter; stroke-miterlimit: 4; is-custom-font: none; font-file-url: none; fill: rgb(230,230,230); fill-rule: nonzero; opacity: 1;" transform=" translate(-238.0544, -649.1548)" d="M 248.44085 645.09 l -4.127 1.69309 l -0.13781 -0.33592 l 4.127 -1.69309 Z m -8.25406 3.38621 l -4.127 1.69309 l -0.13781 -0.33592 l 4.127 -1.69309 Z m -8.254 3.38617 l -4.127 1.69309 l -0.13781 -0.33592 l 4.127 -1.69309 Z" stroke-linecap="round"/>
</g>
		<g transform="matrix(0.9252 -0.3795 0.3795 0.9252 -377.3979 205.4941)">
<rect style="stroke: none; stroke-width: 1; stroke-dasharray: none; stroke-linecap: butt; stroke-dashoffset: 0; stroke-linejoin: miter; stroke-miterlimit: 4; is-custom-font: none; font-file-url: none; fill: rgb(230,230,230); fill-rule: nonzero; opacity: 1;" x="-1.08925" y="-0.18155" rx="0" ry="0" width="2.1785" height="0.3631"/>
</g>
		<g transform="matrix(1 0 0 1 -305.2229 141.7519)">
<path style="stroke: none; stroke-width: 1; stroke-dasharray: none; stroke-linecap: butt; stroke-dashoffset: 0; stroke-linejoin: miter; stroke-miterlimit: 4; is-custom-font: none; font-file-url: none; fill: rgb(254,62,85); fill-rule: nonzero; opacity: 1;" transform=" translate(-294.7772, -591.7519)" d="M 233.13244 651.67138 L 349.3075 604.01085 a 11.48086 11.48086 0 0 0 6.25718 -14.96249 L 332.092 531.83249 l -0.22694 0.10082 l -28.50928 68.167 l -21.14465 -8.83989 a 2.7421 2.7421 0 0 0 -2.43553 0.152 a 2.92176 2.92176 0 0 0 -1.212 1.43285 l -14.9413 35.7216 l -15.45982 -6.46235 a 2.75263 2.75263 0 0 0 -3.60267 1.478 C 244.46085 623.82519 234.92848 647.2131 233.13244 651.67138 Z" stroke-linecap="round"/>
</g>
		<g transform="matrix(1 0 0 1 -317.6245 141.6924)">
<path style="stroke: none; stroke-width: 1; stroke-dasharray: none; stroke-linecap: butt; stroke-dashoffset: 0; stroke-linejoin: miter; stroke-miterlimit: 4; is-custom-font: none; font-file-url: none; fill: rgb(63,61,86); fill-rule: nonzero; opacity: 1;" transform=" translate(-282.3755, -591.6924)" d="M 232.77482 652.21015 l -0.33494 -0.14007 l 11.95457 -28.58641 a 3.08942 3.08942 0 0 1 4.03793 -1.65654 l 15.1545 6.33747 l 14.85618 -35.52489 a 3.08941 3.08941 0 0 1 4.03792 -1.65655 l 20.83926 8.71479 l 28.65584 -68.52337 l 0.33494 0.14007 L 303.51512 600.173 l -21.17421 -8.85486 a 2.723 2.723 0 0 0 -3.56291 1.46168 l -14.99625 35.85983 l -15.48944 -6.47754 a 2.72646 2.72646 0 0 0 -3.56291 1.46167 Z" stroke-linecap="round"/>
</g>
		<g transform="matrix(1 0 0 1 -355.8334 167.1788)">
<circle style="stroke: none; stroke-width: 1; stroke-dasharray: none; stroke-linecap: butt; stroke-dashoffset: 0; stroke-linejoin: miter; stroke-miterlimit: 4; is-custom-font: none; font-file-url: none; fill: rgb(63,61,86); fill-rule: nonzero; opacity: 1;" cx="0" cy="0" r="2.54162"/>
</g>
		<g transform="matrix(1 0 0 1 -322.5944 136.2745)">
<circle style="stroke: none; stroke-width: 1; stroke-dasharray: none; stroke-linecap: butt; stroke-dashoffset: 0; stroke-linejoin: miter; stroke-miterlimit: 4; is-custom-font: none; font-file-url: none; fill: rgb(63,61,86); fill-rule: nonzero; opacity: 1;" cx="0" cy="0" r="2.54162"/>
</g>
		<g transform="matrix(1 0 0 1 -270.8377 77.7955)">
<circle style="stroke: none; stroke-width: 1; stroke-dasharray: none; stroke-linecap: butt; stroke-dashoffset: 0; stroke-linejoin: miter; stroke-miterlimit: 4; is-custom-font: none; font-file-url: none; fill: rgb(63,61,86); fill-rule: nonzero; opacity: 1;" cx="0" cy="0" r="2.54162"/>
</g>
		<g transform="matrix(1 0 0 1 -414.8849 120.4132)">
<path style="stroke: none; stroke-width: 1; stroke-dasharray: none; stroke-linecap: butt; stroke-dashoffset: 0; stroke-linejoin: miter; stroke-miterlimit: 4; is-custom-font: none; font-file-url: none; fill: rgb(255,184,184); fill-rule: nonzero; opacity: 1;" transform=" translate(-185.1151, -570.4132)" d="M 186.9011 614.29488 a 10.09493 10.09493 0 0 0 3.60992 -15.05255 l 7.5486 -73.80428 h -16.3133 l -5.99906 72.06608 a 10.14964 10.14964 0 0 0 11.15384 16.79075 Z" stroke-linecap="round"/>
</g>
		<g transform="matrix(1 0 0 1 -398.1203 11.6271)">
<circle style="stroke: none; stroke-width: 1; stroke-dasharray: none; stroke-linecap: butt; stroke-dashoffset: 0; stroke-linejoin: miter; stroke-miterlimit: 4; is-custom-font: none; font-file-url: none; fill: rgb(255,184,184); fill-rule: nonzero; opacity: 1;" cx="0" cy="0" r="23.08006"/>
</g>
		<g transform="matrix(1 0 0 1 -384.9375 79.884)">
<path style="stroke: none; stroke-width: 1; stroke-dasharray: none; stroke-linecap: butt; stroke-dashoffset: 0; stroke-linejoin: miter; stroke-miterlimit: 4; is-custom-font: none; font-file-url: none; fill: rgb(255,101,132); fill-rule: nonzero; opacity: 1;" transform=" translate(-215.0625, -529.884)" d="M 206.22469 568.41934 a 4.221 4.221 0 0 1 -4.06806 -3.09992 c -1.84912 -6.71832 -6.66005 -18.07734 -14.29881 -33.76321 a 27.96723 27.96723 0 0 1 15.8818 -38.61269 h 0 a 27.95458 27.95458 0 0 1 35.92183 17.808 c 5.92086 18.56279 5.635 38.447 5.23719 46.13351 a 4.239 4.239 0 0 1 -3.32085 3.9139 l -34.4462 7.52221 A 4.20772 4.20772 0 0 1 206.22469 568.41934 Z" stroke-linecap="round"/>
</g>
		<g transform="matrix(1 0 0 1 -351.9185 315.366)">
<polygon style="stroke: none; stroke-width: 1; stroke-dasharray: none; stroke-linecap: butt; stroke-dashoffset: 0; stroke-linejoin: miter; stroke-miterlimit: 4; is-custom-font: none; font-file-url: none; fill: rgb(255,184,184); fill-rule: nonzero; opacity: 1;" points="-8.4995,22.2185 3.0205,22.2185 8.5015,-22.2185 -8.5015,-22.2175 -8.4995,22.2185 "/>
</g>
		<g transform="matrix(-1 0 0 -1 -344.7831 341.2872)">
<path style="stroke: none; stroke-width: 1; stroke-dasharray: none; stroke-linecap: butt; stroke-dashoffset: 0; stroke-linejoin: miter; stroke-miterlimit: 4; is-custom-font: none; font-file-url: none; fill: rgb(47,46,65); fill-rule: nonzero; opacity: 1;" transform=" translate(-255.217, -791.2872)" d="M 237.11328 784.29259 H 273.3207 a 0 0 0 0 1 0 0 v 13.98923 a 0 0 0 0 1 0 0 H 251.10251 a 13.98923 13.98923 0 0 1 -13.98923 -13.98923 v 0 a 0 0 0 0 1 0 0 Z" stroke-linecap="round"/>
</g>
		<g transform="matrix(1 0 0 1 -457.464 305.9595)">
<polygon style="stroke: none; stroke-width: 1; stroke-dasharray: none; stroke-linecap: butt; stroke-dashoffset: 0; stroke-linejoin: miter; stroke-miterlimit: 4; is-custom-font: none; font-file-url: none; fill: rgb(255,184,184); fill-rule: nonzero; opacity: 1;" points="-18.154,16.695 -8.058,22.245 18.154,-14.053 3.255,-22.245 -18.154,16.695 "/>
</g>
		<g transform="matrix(-0.8763 -0.4818 0.4818 -0.8763 -463.7005 333.4315)">
<path style="stroke: none; stroke-width: 1; stroke-dasharray: none; stroke-linecap: butt; stroke-dashoffset: 0; stroke-linejoin: miter; stroke-miterlimit: 4; is-custom-font: none; font-file-url: none; fill: rgb(47,46,65); fill-rule: nonzero; opacity: 1;" transform=" translate(-136.2994, -783.4315)" d="M 118.19573 776.43687 h 36.20742 a 0 0 0 0 1 0 0 V 790.4261 a 0 0 0 0 1 0 0 h -22.2182 a 13.98922 13.98922 0 0 1 -13.98922 -13.98922 v 0 a 0 0 0 0 1 0 0 Z" stroke-linecap="round"/>
</g>
		<g transform="matrix(1 0 0 1 -399.9612 208.3561)">
<path style="stroke: none; stroke-width: 1; stroke-dasharray: none; stroke-linecap: butt; stroke-dashoffset: 0; stroke-linejoin: miter; stroke-miterlimit: 4; is-custom-font: none; font-file-url: none; fill: rgb(47,46,65); fill-rule: nonzero; opacity: 1;" transform=" translate(-200.0388, -658.356)" d="M 239.04362 762.92032 a 4.22817 4.22817 0 0 1 -4.18943 -3.68448 L 220.44641 648.21146 a 2.34928 2.34928 0 0 0 -4.387 -0.83233 L 156.0137 756.31946 a 4.25173 4.25173 0 0 1 -5.20851 1.91152 L 137.717 753.24432 a 4.2283 4.2283 0 0 1 -2.41119 -5.54553 L 176.901 645.51807 a 3.25729 3.25729 0 0 0 0.21244 -0.80939 c 5.63385 -43.60531 19.96822 -65.78009 24.22716 -71.5376 a 3.27464 3.27464 0 0 0 0.466 -2.98154 l -0.58548 -1.75643 a 4.22648 4.22648 0 0 1 0.81376 -4.113 c 15.34656 -17.47993 42.095 -7.94158 42.36346 -7.84339 l 0.134 0.04955 l 0.084 0.11471 c 29.99294 41.13309 18.90348 174.73235 16.376 201.09633 a 4.21706 4.21706 0 0 1 -3.88476 3.80561 l -17.73551 1.36551 C 239.2618 762.91664 239.15236 762.92032 239.04362 762.92032 Z" stroke-linecap="round"/>
</g>
		<g transform="matrix(1 0 0 1 -329.0919 57.6097)">
<path style="stroke: none; stroke-width: 1; stroke-dasharray: none; stroke-linecap: butt; stroke-dashoffset: 0; stroke-linejoin: miter; stroke-miterlimit: 4; is-custom-font: none; font-file-url: none; fill: rgb(255,184,184); fill-rule: nonzero; opacity: 1;" transform=" translate(-270.9081, -507.6097)" d="M 291.60621 488.437 a 9.89229 9.89229 0 0 0 -0.22487 1.54123 l -40.36722 23.2877 l -9.81182 -5.6485 l -10.46 13.69361 l 16.39813 11.68759 a 7.51761 7.51761 0 0 0 9.01944 -0.21974 l 41.62555 -32.83868 a 9.86415 9.86415 0 1 0 -6.17923 -11.50321 Z" stroke-linecap="round"/>
</g>
		<g transform="matrix(1 0 0 1 -369.2588 64.1065)">
<path style="stroke: none; stroke-width: 1; stroke-dasharray: none; stroke-linecap: butt; stroke-dashoffset: 0; stroke-linejoin: miter; stroke-miterlimit: 4; is-custom-font: none; font-file-url: none; fill: rgb(255,101,132); fill-rule: nonzero; opacity: 1;" transform=" translate(-230.7412, -514.1065)" d="M 249.6646 514.36888 l -13.04658 16.909 a 4.22868 4.22868 0 0 1 -6.39366 0.3502 L 215.45475 516.291 a 11.74385 11.74385 0 0 1 14.40248 -18.55361 l 18.52432 10.35814 a 4.22869 4.22869 0 0 1 1.28305 6.27338 Z" stroke-linecap="round"/>
</g>
		<g transform="matrix(1 0 0 1 -410.2333 74.2415)">
<path style="stroke: none; stroke-width: 1; stroke-dasharray: none; stroke-linecap: butt; stroke-dashoffset: 0; stroke-linejoin: miter; stroke-miterlimit: 4; is-custom-font: none; font-file-url: none; fill: rgb(255,101,132); fill-rule: nonzero; opacity: 1;" transform=" translate(-189.7666, -524.2415)" d="M 199.09786 543.74606 l -21.01724 -3.795 a 4.22868 4.22868 0 0 1 -3.255 -5.51424 L 181.639 514.2639 a 11.74385 11.74385 0 0 1 23.1015 4.24132 l -0.66475 21.21319 a 4.2287 4.2287 0 0 1 -4.97792 4.02765 Z" stroke-linecap="round"/>
</g>
		<g transform="matrix(1 0 0 1 -423.9348 36.4188)">
<path style="stroke: none; stroke-width: 1; stroke-dasharray: none; stroke-linecap: butt; stroke-dashoffset: 0; stroke-linejoin: miter; stroke-miterlimit: 4; is-custom-font: none; font-file-url: none; fill: rgb(47,46,65); fill-rule: nonzero; opacity: 1;" transform=" translate(-176.0652, -486.4188)" d="M 205.53264 456.31837 c 5.93207 4.06 13.721 8.23343 19.77971 3.90987 a 11.02532 11.02532 0 0 0 3.61842 -12.70935 c -2.9011 -8.29622 -10.87182 -11.94861 -18.49383 -14.74824 c -9.90861 -3.63952 -20.69763 -6.53492 -30.92666 -3.92847 s -19.26917 12.51018 -17.42263 22.90329 c 1.48494 8.35793 9.36882 15.31239 8.24961 23.7271 c -1.1264 8.46874 -10.65039 12.92645 -19.05857 14.44 s -17.81712 1.99988 -23.85974 8.03934 c -7.70847 7.70443 -5.78353 21.47525 1.46982 29.60959 s 18.19907 11.82157 28.80546 14.32819 c 14.05282 3.32112 29.252 5.0665 42.59867 -0.44522 s 23.73281 -20.34863 19.8665 -34.26132 c -1.63312 -5.87671 -5.48026 -10.84332 -9.19832 -15.67848 s -7.48294 -9.89132 -8.90121 -15.82354 c -1.18189 -4.94351 -0.30712 -10.68318 2.97117 -14.39139 a 4.16949 4.16949 0 0 0 0.55855 -4.8737 Z" stroke-linecap="round"/>
</g>
		<g transform="matrix(1 0 0 1 -401.5 347.8405)">
<path style="stroke: none; stroke-width: 1; stroke-dasharray: none; stroke-linecap: butt; stroke-dashoffset: 0; stroke-linejoin: miter; stroke-miterlimit: 4; is-custom-font: none; font-file-url: none; fill: rgb(204,204,204); fill-rule: nonzero; opacity: 1;" transform=" translate(-198.5, -797.8405)" d="M 293.5 798.84051 h -190 a 1 1 0 0 1 0 -2 h 190 a 1 1 0 0 1 0 2 Z" stroke-linecap="round"/>
</g>
</g>
</g>
</svg>