<svg xmlns="http://www.w3.org/2000/svg" viewBox="0 0 500 500"><g id="freepik--Floor--inject-10"><path id="freepik--floor--inject-10" d="M76,445.47c-95.7-55.25-95.7-144.83,0-200.08s250.85-55.25,346.55,0,95.7,144.83,0,200.08S171.71,500.73,76,445.47Z" style="fill:#f5f5f5"></path></g><g id="freepik--Shadows--inject-10"><path id="freepik--Shadow--inject-10" d="M63.88,420.89l-23-13.28c-1.37-.79-1.37-2.08,0-2.87l176.81-102a5.51,5.51,0,0,1,5,0l23,13.21c1.37.79,1.37,2.08,0,2.87L68.85,420.89A5.51,5.51,0,0,1,63.88,420.89Z" style="fill:#e0e0e0"></path><path id="freepik--shadow--inject-10" d="M325.73,281,297,297.6a8.28,8.28,0,0,1-7.88-.18l-45.51-29.19a8.31,8.31,0,0,0-7.88-.19l-22,12.7c-2.21,1.28-2.16,3.26.1,4.44l51,26.5c2.26,1.18,2.31,3.16.1,4.44L228.75,337c-2.21,1.27-2.21,3.34,0,4.62l29.49,17a8.88,8.88,0,0,0,8,0l97-56c2.2-1.27,2.2-3.34,0-4.61l-29.5-17A8.79,8.79,0,0,0,325.73,281Z" style="fill:#e0e0e0"></path><ellipse id="freepik--shadow--inject-10" cx="398.08" cy="396.55" rx="59.71" ry="34.21" style="fill:#e0e0e0"></ellipse><ellipse id="freepik--shadow--inject-10" cx="311.01" cy="392.71" rx="31.72" ry="18.18" style="fill:#e0e0e0"></ellipse><path id="freepik--shadow--inject-10" d="M241,467.66a3.34,3.34,0,0,1-3.23-2.67l-.91-4.82a48.62,48.62,0,0,1-6-1.47h-.11a.92.92,0,0,0-.26,0l-8,3.7a3.87,3.87,0,0,1-1.65.34,4.2,4.2,0,0,1-2-.5l-7.91-4.57a2.68,2.68,0,0,1-.23-4.58l5.18-3.73a17.57,17.57,0,0,1-1.58-2.35l-10.33-.65a3.15,3.15,0,0,1-2.94-3.14v-5.88a3.14,3.14,0,0,1,2.94-3.13l10.33-.66a18.23,18.23,0,0,1,1.58-2.35l-5.18-3.73a2.67,2.67,0,0,1,.23-4.57l7.91-4.57a4.09,4.09,0,0,1,2-.51,3.87,3.87,0,0,1,1.65.35l8,3.71h.36a48.62,48.62,0,0,1,6-1.45l.91-4.82A3.33,3.33,0,0,1,241,413h11.63a3.32,3.32,0,0,1,3.22,2.66l.92,4.83a48.89,48.89,0,0,1,6,1.46h.11a1,1,0,0,0,.26,0l8-3.69a3.9,3.9,0,0,1,1.65-.35,4.07,4.07,0,0,1,2,.51l7.91,4.57a2.67,2.67,0,0,1,.23,4.57l-5.18,3.73a17.26,17.26,0,0,1,1.58,2.35l10.33.66a3.15,3.15,0,0,1,2.95,3.13v5.88a3.16,3.16,0,0,1-2.95,3.14l-10.33.65a17.57,17.57,0,0,1-1.58,2.35l5.18,3.73a2.68,2.68,0,0,1-.23,4.58l-7.91,4.57a4.17,4.17,0,0,1-2,.5,3.9,3.9,0,0,1-1.65-.34l-8-3.71a1.81,1.81,0,0,0-.22,0h-.14a48.89,48.89,0,0,1-6,1.46l-.92,4.82a3.33,3.33,0,0,1-3.22,2.67Zm5.81-36.17a25.08,25.08,0,0,0-12.32,2.92c-2.89,1.67-4.49,3.77-4.49,5.9s1.6,4.24,4.49,5.91a27.45,27.45,0,0,0,24.64,0c2.89-1.67,4.49-3.77,4.49-5.91s-1.6-4.23-4.49-5.9A25.08,25.08,0,0,0,246.77,431.49Z" style="fill:#e0e0e0"></path><path id="freepik--shadow--inject-10" d="M170.27,439.79a4.14,4.14,0,0,1-3.58-2.15l-1.45-2.83s-.15-.08-.22-.1c-1.31-.1-2.64-.26-3.93-.49h0a1.8,1.8,0,0,0-.81.16L156.34,437a4.72,4.72,0,0,1-2.58.73,4.5,4.5,0,0,1-1.63-.29l-5.82-2.33a2.91,2.91,0,0,1-1.06-4.8l1.94-2.06c-.36-.32-.7-.64-1-1a1.38,1.38,0,0,0-.6-.28l-6.76.27a3.87,3.87,0,0,1-3.62-2.65l-1-3.22a3.18,3.18,0,0,1,2.53-4.13l6.18-1.06,0-.05c.08-.29.18-.57.29-.86l-3.95-2a2.86,2.86,0,0,1-.56-4.88l3.71-3.09a4.74,4.74,0,0,1,3-1,4.18,4.18,0,0,1,1.24.18l5.66,1.78a2.27,2.27,0,0,0,.28,0,2.15,2.15,0,0,0,.67-.1c.89-.39,1.84-.75,2.82-1.07l-.28-2.29a3.37,3.37,0,0,1,3-3.75l7.27-.75a2.42,2.42,0,0,1,.38,0,4.15,4.15,0,0,1,3.58,2.15l1.45,2.83s.15.08.22.1c1.31.1,2.64.26,3.93.49h0a1.9,1.9,0,0,0,.82-.16l3.9-2.59a4.73,4.73,0,0,1,2.59-.73,4.5,4.5,0,0,1,1.63.29l5.81,2.33a2.9,2.9,0,0,1,1.06,4.8l-1.94,2.07a13.67,13.67,0,0,1,1,1,1.59,1.59,0,0,0,.6.29l6.76-.28a3.87,3.87,0,0,1,3.62,2.65l1,3.22a3.18,3.18,0,0,1-2.53,4.13l-6.19,1.06a.09.09,0,0,0,0,0c-.09.29-.18.57-.3.86l4,2a2.87,2.87,0,0,1,.56,4.88l-3.71,3.09a4.76,4.76,0,0,1-2.95,1,4.13,4.13,0,0,1-1.24-.18l-5.67-1.78a2.18,2.18,0,0,0-.95.08c-.89.39-1.84.75-2.82,1.07l.28,2.29a3.32,3.32,0,0,1-.71,2.5,3.38,3.38,0,0,1-2.28,1.25l-7.27.76Zm-1.92-26.69c-4.09,0-7.87,1.11-10.1,3a3.88,3.88,0,0,0-1.7,3.37c.26,1.6,2,3.19,4.64,4.25a19.34,19.34,0,0,0,7.13,1.29c4.09,0,7.86-1.11,10.1-3a3.87,3.87,0,0,0,1.69-3.37c-.25-1.6-2-3.19-4.63-4.25A19.38,19.38,0,0,0,168.35,413.1Z" style="fill:#e0e0e0"></path></g><g id="freepik--Plants--inject-10"><g id="freepik--plants--inject-10"><path d="M62.65,401.27c10.45-27.38,5.38-48.3.74-61.51s-17-27.89-27.28-28c-9.61-.07-12.62,11.52-4.82,22.62s25,32.53,25.1,47l-.78,12.61Z" style="fill:#FE3E55"></path><path d="M62.65,401.27c10.45-27.38,5.38-48.3.74-61.51s-17-27.89-27.28-28c-9.61-.07-12.62,11.52-4.82,22.62s25,32.53,25.1,47l-.78,12.61Z" style="opacity:0.15"></path><path d="M60.72,387.68a.64.64,0,0,1-.37-.65C63.94,358,49.11,328.5,37.49,319.26a.62.62,0,0,1-.1-.87.61.61,0,0,1,.86-.09c11.85,9.41,27,39.36,23.32,68.88a.62.62,0,0,1-.68.54Z" style="fill:#fff"></path><path d="M63.16,405.9A6.78,6.78,0,0,1,53.3,402a44.83,44.83,0,0,0-7-13.31c-7.41-10.16-18.68-17.58-19.7-23.82-1.22-7.5,6.18-11.6,15.77-6.84,8.41,4.16,23.31,19,20.84,47.85Z" style="fill:#FE3E55"></path><path d="M59.13,408.08a.61.61,0,0,1-.37-.56c-.19-26.16-15.08-40.53-22.92-44.47a.61.61,0,0,1-.27-.83.6.6,0,0,1,.82-.27c8.68,4.36,23.41,18.86,23.6,45.56a.61.61,0,0,1-.61.62A.66.66,0,0,1,59.13,408.08Z" style="fill:#fff"></path></g><g id="freepik--plants--inject-10"><path d="M434.49,384.45s-5.28-26.22,3.89-53.38c5.12-15.18,14.83-22.37,20.87-23.16,6.77-.89,13.77,5.37,8,15.44-5.5,9.56-16.47,13.63-22.39,38.39a106.45,106.45,0,0,0-3.1,23.25,2.14,2.14,0,0,1-3.23,1.82Z" style="fill:#FE3E55"></path><path d="M434.49,384.45s-5.28-26.22,3.89-53.38c5.12-15.18,14.83-22.37,20.87-23.16,6.77-.89,13.77,5.37,8,15.44-5.5,9.56-16.47,13.63-22.39,38.39a106.45,106.45,0,0,0-3.1,23.25,2.14,2.14,0,0,1-3.23,1.82Z" style="fill:#fff;opacity:0.5"></path><path d="M438.55,378.58a.41.41,0,0,0,.37-.47c-3.59-30,10.35-55.54,21.4-64a.44.44,0,0,0,.08-.6.43.43,0,0,0-.6-.08c-11.21,8.63-25.35,34.45-21.72,64.82A.42.42,0,0,0,438.55,378.58Z" style="fill:#fff"></path><path d="M439.16,387.18a2.14,2.14,0,0,0,3.18-1.35c1.44-6,5.13-12.28,12.05-18.91,8.05-7.71,19.2-14.83,17.41-21.5s-10.68-5.13-16.89-1.34-20,18-16.76,42.49Z" style="fill:#FE3E55"></path><path d="M439.16,387.18a2.14,2.14,0,0,0,3.18-1.35c1.44-6,5.13-12.28,12.05-18.91,8.05-7.71,19.2-14.83,17.41-21.5s-10.68-5.13-16.89-1.34-20,18-16.76,42.49Z" style="fill:#fff;opacity:0.65"></path><path d="M439.74,387.66a.41.41,0,0,0,.37-.4c-.75-18.39,14.43-39,25.38-42.82a.42.42,0,0,0,.24-.55.43.43,0,0,0-.54-.25c-10.87,2.89-27.53,25.12-25.93,43.57a.46.46,0,0,0,.4.45Z" style="fill:#fff"></path></g></g><g id="freepik--Stamp--inject-10"><g id="freepik--stamp--inject-10"><path d="M230.83,234.35c3.91-2.26,7.45-2.48,10-1s17.28,10,19.85,11.46,4.16,4.67,4.16,9.2c0,9.06-6.36,20.08-14.2,24.61-3.93,2.27-7.48,2.48-10,1l-19.83-11.45c-2.57-1.49-4.16-4.67-4.16-9.2C216.62,249.9,223,238.88,230.83,234.35Z" style="fill:#37474f"></path><path d="M250.66,245.8c-7.85,4.53-14.21,15.55-14.21,24.61s6.36,12.73,14.21,8.2,14.2-15.55,14.2-24.61S258.5,241.27,250.66,245.8Z" style="fill:#263238"></path><path d="M241.53,269.33c0,3.53,1.27,6,3.32,7L307,308v0l.65.33c1.55.63,3.57.39,5.76-.88a16.17,16.17,0,0,0,4.48-4A19.41,19.41,0,0,0,322.35,292c0-2.77-.94-4.72-2.49-5.68C297,272.5,274.64,259,260,250.13c-2-1.21-4.69-1.09-7.72.66-3.93,2.27-7.37,6.69-9.22,11.41A19.62,19.62,0,0,0,241.53,269.33Z" style="fill:#455a64"></path><path d="M241.53,269.33c0,3.53,1.27,6,3.32,7L307,308v0l.65.33c1.55.63,3.57.39,5.76-.88a16.17,16.17,0,0,0,4.48-4L243,262.2A19.62,19.62,0,0,0,241.53,269.33Z" style="fill:#37474f"></path><path d="M319.86,286.35l-34.78-21.06-29,16.77L307,308v0l.65.32c1.55.64,3.57.4,5.76-.87a16.17,16.17,0,0,0,4.48-4A19.41,19.41,0,0,0,322.35,292C322.35,289.26,321.41,287.31,319.86,286.35Z" style="opacity:0.2"></path><path d="M240.74,305.23a12.36,12.36,0,0,1,5.6-9.69l90-52a4,4,0,0,1,3.91-.42c1,.57,14,8.1,15,8.68a3.94,3.94,0,0,1,1.64,3.63v34.69a12.35,12.35,0,0,1-5.59,9.69l-90,52a3.93,3.93,0,0,1-3.95.39l-15-8.66a3.93,3.93,0,0,1-1.64-3.62Z" style="fill:#455a64"></path><path d="M240.74,305.23v34.7a3.93,3.93,0,0,0,1.64,3.62l15,8.66a3,3,0,0,0,1.64.36V309.62l-16.76-9.68A11.3,11.3,0,0,0,240.74,305.23Z" style="fill:#263238"></path><path d="M351.37,252.22l-90,52a12.35,12.35,0,0,0-5.59,9.69v34.7c0,3.56,2.5,5,5.59,3.23l90-52a12.35,12.35,0,0,0,5.59-9.69V255.45C357,251.88,354.46,250.43,351.37,252.22Z"></path><path d="M258.28,315.35a12.38,12.38,0,0,1,5.59-9.69l90-52a4,4,0,0,1,3.9-.42l2.16,1.22c1,.58,1.65,1.84,1.65,3.63v34.7a12.38,12.38,0,0,1-5.6,9.69l-90,52c-1.55.89-2.95,1-4,.39s-1.1-.61-2.12-1.19a4,4,0,0,1-1.63-3.63Z" style="fill:#455a64"></path><path d="M258.28,315.35v34.7a4,4,0,0,0,1.63,3.63c1,.58,1.11.61,2.12,1.19a3,3,0,0,0,1.64.36v-43l-3.88-2.21A11.25,11.25,0,0,0,258.28,315.35Z" style="fill:#263238"></path><path d="M356,254.88l-90,52a12.36,12.36,0,0,0-5.6,9.69v34.7c0,3.57,2.51,5,5.6,3.23l90-52a12.38,12.38,0,0,0,5.6-9.69v-34.7C361.62,254.54,359.11,253.09,356,254.88Z" style="fill:#37474f"></path><path d="M339.7,279.36a.77.77,0,0,0-.72.1,2.52,2.52,0,0,0-.93,1.13,3.85,3.85,0,0,0-.39,1.67v12.93a1.64,1.64,0,0,0,.39,1.22,6.66,6.66,0,0,0,.91.55.76.76,0,0,0,.73-.09,2.52,2.52,0,0,0,.95-1.14,3.85,3.85,0,0,0,.39-1.67V281.13a1.6,1.6,0,0,0-.39-1.21.72.72,0,0,0-.15-.11C340.37,279.74,339.78,279.39,339.7,279.36ZM273,317.91a2.5,2.5,0,0,0-.93,1.14,4,4,0,0,0-.38,1.67v12.37a1.67,1.67,0,0,0,.38,1.22l.12.1a9.58,9.58,0,0,0,.83.48.75.75,0,0,0,.68-.1l1.4-.8V317.51l-.71-.41Zm80.94-52a1.44,1.44,0,0,0-1.93-.18l-82.6,47.68c-1.47.85-2.67,3.38-2.67,5.65v21.65c0,1.58.59,2.59,1.44,2.79a1.47,1.47,0,0,0,1.94.18L352.75,296c1.48-.86,2.67-3.38,2.67-5.65V268.72C355.42,267.14,354.83,266.12,354,265.93Zm-77.23,69.84-3.64,2.1a2.21,2.21,0,0,1-1.76.32l-.1-.09a4.57,4.57,0,0,1-1.07-3.38V322.37a10.75,10.75,0,0,1,1.06-4.59,6.79,6.79,0,0,1,2.58-3.14l2.93-1.69ZM285.1,331l-5.88,3.39v-2.76l4.27-2.47v-6.45l-.71-.41-2.41,1.4v-2.77l3.12-1.8v-6.45l-.71-.4-3.56,2v-2.76l5.88-3.39Zm9.25-25.38L291.89,307v20l-1.6.93V308.73l-.71-.41-1.74,1v-2.77l6.51-3.76Zm8.36,15.21-5.88,3.4v-2.77l4.27-2.47V312.5l-.71-.41L298,313.48v-2.76l3.12-1.8v-6.45l-.71-.41-3.56,2.06v-2.77l5.88-3.39Zm8.06-4.66-5.59,3.23v-2.72l4-2.31V294.25l1.6-.93Zm9.3-5.36-1.61.92V303.6l-.71-.4-1.33.77a2.24,2.24,0,0,1-1.75.32l-.11-.09a4.65,4.65,0,0,1-1.06-3.39v-3.43a11.06,11.06,0,0,1,.93-4.53,6.73,6.73,0,0,1,2.7-3.2l2.94-1.7Zm13-7.5-1.61.93v-14l-.71-.41-2.24,16.11-1.26.73-1.9-12.94-.71-.41v14.86l-1.6.92V286.23l2.58-1.49,2,15,.71.41L330.43,282l2.62-1.51Zm9.53-10.88a10.81,10.81,0,0,1-1.06,4.62,6.84,6.84,0,0,1-2.6,3.15,2.25,2.25,0,0,1-1.81.33l-.07-.07A4.49,4.49,0,0,1,336,297v-12.9a10.82,10.82,0,0,1,1.07-4.61,6.82,6.82,0,0,1,2.6-3.16,2.22,2.22,0,0,1,1.8-.32l.08.07a4.49,4.49,0,0,1,1.07,3.38ZM352,287a10.75,10.75,0,0,1-1.07,4.61,6.84,6.84,0,0,1-2.6,3.15,2.25,2.25,0,0,1-1.81.32l-.07-.06a4.47,4.47,0,0,1-1.07-3.37v-3.3l1.69-1v2.44a1.61,1.61,0,0,0,.39,1.22l.12.09c.13.08.72.43.79.46a.78.78,0,0,0,.74-.09,2.45,2.45,0,0,0,.94-1.14,3.94,3.94,0,0,0,.38-1.66V275.77a1.69,1.69,0,0,0-.38-1.23.59.59,0,0,0-.19-.13l-.75-.44a.78.78,0,0,0-.71.1,2.43,2.43,0,0,0-.94,1.15,3.88,3.88,0,0,0-.39,1.67v2.77l-1.69,1v-1.88a10.8,10.8,0,0,1,1.06-4.61A6.87,6.87,0,0,1,349,271a2.29,2.29,0,0,1,1.81-.32s.05,0,.07.07a4.49,4.49,0,0,1,1.08,3.38Zm-35.59,5.91a2.39,2.39,0,0,0-1,1.12,4,4,0,0,0-.36,1.7v3.45a1.64,1.64,0,0,0,.38,1.22.53.53,0,0,0,.12.1c.13.08.71.42.78.45a.75.75,0,0,0,.75-.08l1.39-.8v-7.56l-.71-.41ZM355.46,262a2.87,2.87,0,0,0-3.41-.05l-82.6,47.69c-2.83,1.64-5.14,6.51-5.14,10.88v21.64c0,2.83,1,4.75,2.43,5.31a2.89,2.89,0,0,0,3.42,0l82.59-47.68c2.84-1.64,5.14-6.52,5.14-10.88V267.3C357.89,264.47,356.92,262.55,355.46,262Zm.49,27.26c0,3.31-1.75,7-3.9,8.26l-82.6,47.68a2.38,2.38,0,0,1-2,.31,4.81,4.81,0,0,1-1.22-3.65V320.2c0-3.31,1.75-7,3.9-8.26l82.59-47.69a2.41,2.41,0,0,1,2-.3A4.81,4.81,0,0,1,356,267.6Z"></path><path d="M352.75,262.35,270.16,310c-2.83,1.63-5.14,6.51-5.14,10.87v21.65c0,4.36,2.31,6.58,5.14,4.94l82.59-47.68c2.84-1.64,5.14-6.52,5.14-10.88V267.3C357.89,262.93,355.59,260.72,352.75,262.35Zm3.91,27.3c0,3.32-1.76,7-3.91,8.27L270.16,345.6c-2.15,1.24-3.9-.44-3.9-3.75V320.2c0-3.31,1.75-7,3.9-8.26l82.59-47.69c2.15-1.24,3.91.45,3.91,3.76Zm-3.91-23.5-82.59,47.69c-1.48.85-2.67,3.38-2.67,5.65v21.64c0,2.27,1.19,3.42,2.67,2.57L352.75,296c1.48-.86,2.67-3.38,2.67-5.65V268.72C355.42,266.45,354.23,265.3,352.75,266.15Zm-75.3,70-3.63,2.1a1.94,1.94,0,0,1-2.57-.18,4.57,4.57,0,0,1-1.07-3.38V322.37a10.75,10.75,0,0,1,1.06-4.59,6.79,6.79,0,0,1,2.58-3.14l3.63-2.1Zm8.35-4.82-6.58,3.8v-3.58l4.27-2.47v-6.45l-3.12,1.81v-3.59l3.12-1.8v-6.45l-4.27,2.47v-3.58l6.58-3.8ZM295.06,306l-2.46,1.42v20l-2.31,1.34v-20l-2.45,1.41v-3.58l7.22-4.17Zm8.35,15.22-6.58,3.8v-3.58l4.27-2.47V312.5L298,314.3v-3.58l3.12-1.8v-6.45l-4.27,2.47v-3.59l6.58-3.8Zm8.07-4.66-6.3,3.64v-3.54l4-2.31V294.25l2.31-1.34Zm9.3-5.37-2.32,1.34v-8.9l-1.33.77a2,2,0,0,1-2.57-.17,4.65,4.65,0,0,1-1.06-3.39v-3.43a11.06,11.06,0,0,1,.93-4.53,6.73,6.73,0,0,1,2.7-3.2l3.65-2.1Zm13-7.49L331.44,305V290.19L329.2,306.3l-1.86,1.08-2-13.7v14.86L323,309.87V286.23l3.19-1.84,2.07,15.79L330.43,282l3.32-1.92Zm9.54-10.88a10.74,10.74,0,0,1-1.06,4.61,6.82,6.82,0,0,1-2.6,3.16,2,2,0,0,1-2.59-.15A4.49,4.49,0,0,1,336,297v-12.9a10.82,10.82,0,0,1,1.07-4.61,6.82,6.82,0,0,1,2.6-3.16,2,2,0,0,1,2.58.16,4.49,4.49,0,0,1,1.08,3.38Zm9.37-5.37a10.75,10.75,0,0,1-1.07,4.61,6.9,6.9,0,0,1-2.6,3.15,2,2,0,0,1-2.59-.15,4.47,4.47,0,0,1-1.07-3.37v-3.3l2.39-1.39v3.26a1.62,1.62,0,0,0,.4,1.22.73.73,0,0,0,.94.05,2.45,2.45,0,0,0,.94-1.14,3.94,3.94,0,0,0,.38-1.66V275.77a1.69,1.69,0,0,0-.38-1.23.72.72,0,0,0-.94-.06,2.45,2.45,0,0,0-.94,1.14,4,4,0,0,0-.4,1.68v2.77l-2.39,1.39v-2.7a10.8,10.8,0,0,1,1.06-4.61A6.87,6.87,0,0,1,349,271a2,2,0,0,1,2.59.16,4.49,4.49,0,0,1,1.08,3.38Zm-13-7.55a2.4,2.4,0,0,0-.93,1.13,3.85,3.85,0,0,0-.39,1.67V295.6a1.64,1.64,0,0,0,.39,1.22.72.72,0,0,0,.93.05,2.45,2.45,0,0,0,.94-1.14,3.73,3.73,0,0,0,.4-1.67V281.13a1.56,1.56,0,0,0-.4-1.21A.71.71,0,0,0,339.69,279.87Zm-66.87,39.59a3.85,3.85,0,0,0-.39,1.67v12.36a1.72,1.72,0,0,0,.38,1.23.69.69,0,0,0,.93.07l1.4-.8V317.51l-1.4.81A2.49,2.49,0,0,0,272.82,319.46Zm43.28-25a3.94,3.94,0,0,0-.36,1.69v3.45a1.65,1.65,0,0,0,.39,1.23.7.7,0,0,0,.94.06l1.39-.8v-7.56l-1.39.81A2.46,2.46,0,0,0,316.1,294.45Z" style="fill:#FE3E55"></path><path d="M352.75,262.35,270.16,310c-2.83,1.63-5.14,6.51-5.14,10.87v21.65c0,4.36,2.31,6.58,5.14,4.94l82.59-47.68c2.84-1.64,5.14-6.52,5.14-10.88V267.3C357.89,262.93,355.59,260.72,352.75,262.35Zm3.91,27.3c0,3.32-1.76,7-3.91,8.27L270.16,345.6c-2.15,1.24-3.9-.44-3.9-3.75V320.2c0-3.31,1.75-7,3.9-8.26l82.59-47.69c2.15-1.24,3.91.45,3.91,3.76Zm-3.91-23.5-82.59,47.69c-1.48.85-2.67,3.38-2.67,5.65v21.64c0,2.27,1.19,3.42,2.67,2.57L352.75,296c1.48-.86,2.67-3.38,2.67-5.65V268.72C355.42,266.45,354.23,265.3,352.75,266.15Zm-75.3,70-3.63,2.1a1.94,1.94,0,0,1-2.57-.18,4.57,4.57,0,0,1-1.07-3.38V322.37a10.75,10.75,0,0,1,1.06-4.59,6.79,6.79,0,0,1,2.58-3.14l3.63-2.1Zm8.35-4.82-6.58,3.8v-3.58l4.27-2.47v-6.45l-3.12,1.81v-3.59l3.12-1.8v-6.45l-4.27,2.47v-3.58l6.58-3.8ZM295.06,306l-2.46,1.42v20l-2.31,1.34v-20l-2.45,1.41v-3.58l7.22-4.17Zm8.35,15.22-6.58,3.8v-3.58l4.27-2.47V312.5L298,314.3v-3.58l3.12-1.8v-6.45l-4.27,2.47v-3.59l6.58-3.8Zm8.07-4.66-6.3,3.64v-3.54l4-2.31V294.25l2.31-1.34Zm9.3-5.37-2.32,1.34v-8.9l-1.33.77a2,2,0,0,1-2.57-.17,4.65,4.65,0,0,1-1.06-3.39v-3.43a11.06,11.06,0,0,1,.93-4.53,6.73,6.73,0,0,1,2.7-3.2l3.65-2.1Zm13-7.49L331.44,305V290.19L329.2,306.3l-1.86,1.08-2-13.7v14.86L323,309.87V286.23l3.19-1.84,2.07,15.79L330.43,282l3.32-1.92Zm9.54-10.88a10.74,10.74,0,0,1-1.06,4.61,6.82,6.82,0,0,1-2.6,3.16,2,2,0,0,1-2.59-.15A4.49,4.49,0,0,1,336,297v-12.9a10.82,10.82,0,0,1,1.07-4.61,6.82,6.82,0,0,1,2.6-3.16,2,2,0,0,1,2.58.16,4.49,4.49,0,0,1,1.08,3.38Zm9.37-5.37a10.75,10.75,0,0,1-1.07,4.61,6.9,6.9,0,0,1-2.6,3.15,2,2,0,0,1-2.59-.15,4.47,4.47,0,0,1-1.07-3.37v-3.3l2.39-1.39v3.26a1.62,1.62,0,0,0,.4,1.22.73.73,0,0,0,.94.05,2.45,2.45,0,0,0,.94-1.14,3.94,3.94,0,0,0,.38-1.66V275.77a1.69,1.69,0,0,0-.38-1.23.72.72,0,0,0-.94-.06,2.45,2.45,0,0,0-.94,1.14,4,4,0,0,0-.4,1.68v2.77l-2.39,1.39v-2.7a10.8,10.8,0,0,1,1.06-4.61A6.87,6.87,0,0,1,349,271a2,2,0,0,1,2.59.16,4.49,4.49,0,0,1,1.08,3.38Zm-13-7.55a2.4,2.4,0,0,0-.93,1.13,3.85,3.85,0,0,0-.39,1.67V295.6a1.64,1.64,0,0,0,.39,1.22.72.72,0,0,0,.93.05,2.45,2.45,0,0,0,.94-1.14,3.73,3.73,0,0,0,.4-1.67V281.13a1.56,1.56,0,0,0-.4-1.21A.71.71,0,0,0,339.69,279.87Zm-66.87,39.59a3.85,3.85,0,0,0-.39,1.67v12.36a1.72,1.72,0,0,0,.38,1.23.69.69,0,0,0,.93.07l1.4-.8V317.51l-1.4.81A2.49,2.49,0,0,0,272.82,319.46Zm43.28-25a3.94,3.94,0,0,0-.36,1.69v3.45a1.65,1.65,0,0,0,.39,1.23.7.7,0,0,0,.94.06l1.39-.8v-7.56l-1.39.81A2.46,2.46,0,0,0,316.1,294.45Z" style="opacity:0.30000000000000004"></path></g></g><g id="freepik--Clipboard--inject-10"><g id="freepik--clip-board--inject-10"><g id="freepik--Board--inject-10"><path d="M64.22,415l-3.54-2a4.49,4.49,0,0,1-2-3.51V125.56a4.47,4.47,0,0,1,2-3.5L223.55,28a4.49,4.49,0,0,1,4,0l3.54,2.05a4.46,4.46,0,0,1,2,3.5V317.42a4.47,4.47,0,0,1-2,3.5L68.26,415A4.43,4.43,0,0,1,64.22,415Z" style="fill:#FE3E55"></path><path d="M64.22,415l-3.54-2a4.49,4.49,0,0,1-2-3.51V125.56a4.47,4.47,0,0,1,2-3.5L223.55,28a4.49,4.49,0,0,1,4,0l3.54,2.05a4.46,4.46,0,0,1,2,3.5V317.42a4.47,4.47,0,0,1-2,3.5L68.26,415A4.43,4.43,0,0,1,64.22,415Z" style="opacity:0.30000000000000004"></path><path d="M233.13,33.24c-.14-1-1-1.43-2-.84l-162.87,94a4.06,4.06,0,0,0-1.43,1.5l-7.59-4.38a4.06,4.06,0,0,1,1.43-1.5L223.54,28a4.51,4.51,0,0,1,4.05,0l3.54,2.05A4.52,4.52,0,0,1,233.13,33.24Z" style="fill:#FE3E55;opacity:0.4"></path><path d="M67.91,415.11a.38.38,0,0,1-.12.05.74.74,0,0,1-.21.07l-.08,0a2.34,2.34,0,0,1-.38.09h0a4.55,4.55,0,0,1-2.41-.19,3.1,3.1,0,0,1-.45-.21l-3.55-2a4.52,4.52,0,0,1-2-3.5V125.56a4.19,4.19,0,0,1,.59-2l7.59,4.38a4.08,4.08,0,0,0-.59,2V413.79a1.71,1.71,0,0,0,.3,1.06,1.08,1.08,0,0,0,1.09.35Z" style="opacity:0.15"></path></g><g id="freepik--Clip--inject-10"><path d="M182.28,68.84l-.3-.18-3.36-1.93a12.69,12.69,0,0,0-3.92-1.4c-.58-.13-1.1-.28-1.56-.42a13.83,13.83,0,0,1-1.49-.61l.26-.31h0l-3.8-2.19h0a4.11,4.11,0,0,0-1-.41c-1.43-.34-3.57.49-5.71.25a5.38,5.38,0,0,1-3.88-2.31c-1.29-1.75-2.08-4.81-3.23-7.34l1-1.48a2.4,2.4,0,0,0-.32-.17l-3.48-2a3.75,3.75,0,0,0-1.94-.52A7.43,7.43,0,0,0,145.9,49c-8.34,4.82-8.62,16.26-11.63,23.78S127,82.64,124.7,85.88s-2.48,5.63-7.6,12.7-5.34,8.8-5.34,10.13v10.54l3.8,2.18L183.81,82Zm-62.59,40.59c-.89.51-1.61-.17-1.61-1.55a4.26,4.26,0,0,1,1.61-3.41c.89-.52,1.61.18,1.61,1.55A4.24,4.24,0,0,1,119.69,109.43Zm30-29.55a3.45,3.45,0,0,1-5.26-1.61c-2.64.51-4.61-2-4.61-6.44,0-5.17,2.73-10.93,6.09-12.87a3.43,3.43,0,0,1,5.25,1.6c2.65-.52,4.61,2,4.61,6.44C155.76,72.17,153,77.93,149.68,79.88ZM172.35,79c-.89.51-1.61-.18-1.61-1.55a4.22,4.22,0,0,1,1.61-3.4c.89-.52,1.61.17,1.61,1.55A4.25,4.25,0,0,1,172.35,79Z" style="fill:#455a64"></path><path d="M119.35,111.32,112,107.08a5.27,5.27,0,0,0-.24,1.63v10.54l3.8,2.18,3.79-2.19Z" style="fill:#37474f;opacity:0.5"></path><path d="M126.93,98.18l3.8-8.76-6-3.54h0c-1.77,2.45-2.29,4.43-4.66,8.32Z" style="fill:#37474f;opacity:0.5"></path><path d="M142.11,80.66l.49-2.56c-1.68-.7-2.79-3-2.79-6.27,0-4.39,2-9.2,4.62-11.74l-5.26-3c-2.24,5.1-3.07,11.12-4.9,15.7-.39,1-.8,1.85-1.22,2.67Z" style="fill:#37474f;opacity:0.5"></path><path d="M182.28,68.84l-.3-.18a15.15,15.15,0,0,0-3.5-1.14,11.06,11.06,0,0,1-5.34-2.61,7.29,7.29,0,0,0-1.23-.92,3.46,3.46,0,0,0-1-.41c-2.3-.55-6.48,2-9.49-1.94l-.09-.12c-2.1-2.83-2.87-9.15-6-11a2.4,2.4,0,0,0-.32-.17c-1.29-.61-3-.5-5.29.83-8.34,4.82-8.62,16.26-11.63,23.77s-7.25,9.89-9.57,13.13-2.47,5.63-7.6,12.7-5.32,8.79-5.32,10.13v10.53L183.81,82V71.49A2.65,2.65,0,0,0,182.28,68.84Zm-58.81,42.78c-.88.51-1.6-.18-1.6-1.55a4.3,4.3,0,0,1,1.6-3.42c.9-.51,1.61.19,1.61,1.56A4.23,4.23,0,0,1,123.47,111.62Zm26.21-31.74a3.45,3.45,0,0,1-5.26-1.61,9.73,9.73,0,0,1-.83-4.25c0-5.17,2.73-10.94,6.09-12.88a5,5,0,0,1,1.47-.58c2.65-.52,4.61,2,4.61,6.44C155.76,72.17,153,77.93,149.68,79.88Zm26.46,1.33c-.9.51-1.62-.18-1.62-1.54a4.23,4.23,0,0,1,1.62-3.41c.88-.51,1.6.18,1.6,1.55A4.24,4.24,0,0,1,176.14,81.21Z" style="fill:#37474f"></path><path d="M155.76,67c0,5.17-2.72,10.93-6.08,12.88a3.45,3.45,0,0,1-5.26-1.61,4.68,4.68,0,0,0,1.48-.58C149.26,75.75,152,70,152,64.81a9.76,9.76,0,0,0-.83-4.25C153.8,60,155.76,62.59,155.76,67Z" style="fill:#263238"></path><path d="M123.48,111.61c-.89.52-1.62-.17-1.62-1.54a4.28,4.28,0,0,1,1.62-3.42c.89-.51,1.61.19,1.61,1.56a4.22,4.22,0,0,1-1.61,3.4" style="fill:#263238"></path><path d="M176.13,81.22c-.89.51-1.61-.18-1.61-1.55a4.26,4.26,0,0,1,1.61-3.41c.89-.52,1.61.18,1.61,1.55a4.26,4.26,0,0,1-1.61,3.41" style="fill:#263238"></path></g><g id="freepik--Papet--inject-10"><path d="M78.83,143.47,220.56,61.64a2.71,2.71,0,0,1,2.42,0l1.37.79a2.7,2.7,0,0,1,1.22,2.1V309.59a2.7,2.7,0,0,1-1.22,2.1L82.63,393.52a2.73,2.73,0,0,1-2.43,0l-1.37-.8a2.66,2.66,0,0,1-1.21-2.1v-245A2.69,2.69,0,0,1,78.83,143.47Z" style="fill:#f5f5f5"></path><path d="M82.34,393.65a3,3,0,0,1-.45.12l-.24,0a3.57,3.57,0,0,1-.73,0,3,3,0,0,1-.45-.12l-.27-.13-1.37-.79a2.67,2.67,0,0,1-1.21-2.1v-245a2.47,2.47,0,0,1,.35-1.2l3.8,2.19a2.49,2.49,0,0,0-.36,1.2V392.82C81.41,393.48,81.8,393.81,82.34,393.65Z" style="fill:#e0e0e0"></path><path d="M224.35,62.43,223,61.64a2.71,2.71,0,0,0-2.42,0L78.83,143.47a2.69,2.69,0,0,0-1.21,2.1V186l3.79,2.21L225.57,105V64.53A2.7,2.7,0,0,0,224.35,62.43Z" style="fill:#FE3E55"></path><path d="M224.35,62.43,223,61.64a2.71,2.71,0,0,0-2.42,0L78.83,143.47a2.69,2.69,0,0,0-1.21,2.1V186l3.79,2.21L225.57,105V64.53A2.7,2.7,0,0,0,224.35,62.43Z" style="fill:#fff;opacity:0.4"></path><path d="M225.52,64.17c-.15-.5-.62-.66-1.17-.34L82.63,145.66a2.36,2.36,0,0,0-.86.91L78,144.38a2.52,2.52,0,0,1,.86-.91L220.56,61.65a2.59,2.59,0,0,1,2.42,0l1.37.78A2.71,2.71,0,0,1,225.52,64.17Z" style="fill:#FE3E55"></path><path d="M225.52,64.17c-.15-.5-.62-.66-1.17-.34L82.63,145.66a2.36,2.36,0,0,0-.86.91L78,144.38a2.52,2.52,0,0,1,.86-.91L220.56,61.65a2.59,2.59,0,0,1,2.42,0l1.37.78A2.71,2.71,0,0,1,225.52,64.17Z" style="fill:#fff;opacity:0.6000000000000001"></path><path d="M77.62,145.58V186l3.79,2.19V147.76a2.48,2.48,0,0,1,.36-1.19L78,144.38A2.41,2.41,0,0,0,77.62,145.58Z" style="fill:#FE3E55"></path></g><g id="freepik--clip--inject-10"><path d="M194.55,87.41l-3.77-2.19a4.07,4.07,0,0,0-3.79.12c-4.41,1.94-6.31,2.82-8.59,3.77l-1.65.66c-.88.36-2.67.06-2.12-3l4.94-10.92-.08,0-3.71-2.15a1.76,1.76,0,0,0-.61-.22c-.13,0-.27,0-.42,0-2.4-.06-3.08-15.52-3.1-16h0l-.16-.09-3.67-2.11a4.08,4.08,0,0,0-2.1-.54,7.72,7.72,0,0,0-3.47,1c-5.76,3-11.58,12-13,20-.9,5.08-6,12.89-9,15.77s-3.15,5.29-3.15,5.29l-1.39,8.15L135,109c-.54,3.11-3.73,6.12-3.73,6.12l-11.89,8.91c-7.44,6.18-9.54,12.42-11,20.14v.06c0,.27,0,.45.13.53a.12.12,0,0,0,.13,0h0l1.52-.87L192,96.74a1.77,1.77,0,0,0,.75-1.14s0,0,0,0,0,0,0,0c.47-2.82,1.83-8.09,1.83-8.09ZM170,68.37c-.88,4.95-4.44,10.47-8,12.33-2.45,1.28-4.23.48-4.83-1.77a2.79,2.79,0,0,1-2.68-.34c-1.14-.9,9.28-18.78,10.13-18.39a3,3,0,0,1,1.57,2.14C169.11,61.45,170.78,63.92,170,68.37Z" style="fill:#455a64"></path><path d="M120.26,132.74l-6-3.44c-3.46,4.55-4.84,9.34-5.87,14.89v.06c0,.27,0,.45.13.53a.12.12,0,0,0,.13,0h0l4.7-3.73Z" style="fill:#37474f;opacity:0.5"></path><path d="M134.62,110.37l8.4,4.85,2.88-17-7.57-4.38a7.15,7.15,0,0,0-1.19,2.9l-1.39,8.15L135,109A6.53,6.53,0,0,1,134.62,110.37Z" style="fill:#37474f;opacity:0.5"></path><path d="M153.23,65.18a32.66,32.66,0,0,0-4,10.46,25.8,25.8,0,0,1-3,7.42l7.21,4.17L157.07,79a2.76,2.76,0,0,1-2.58-.36c-.59-.46,1.89-5.42,4.54-10.07Z" style="fill:#37474f;opacity:0.5"></path><path d="M194.61,87.44l-.06,0a4.12,4.12,0,0,0-3.77.12c-5.41,2.38-7,3.17-10.25,4.44-.85.34-2.58.06-2.13-2.86a1.36,1.36,0,0,1,0-.2l.74-4.16,1.13-6.49s.47-1.78-.72-2.46l-.08,0a2.21,2.21,0,0,0-.94-.21,4.6,4.6,0,0,1-3.38-2.16,8.47,8.47,0,0,1-1.27-6.49c.85-4.86-.09-8.27-2.25-9.54a.7.7,0,0,0-.16-.1c-1.4-.74-3.26-.62-5.45.53-5.76,3-11.58,12-13,20-.89,5.08-6,12.9-8.95,15.77s-3.16,5.29-3.16,5.29l-1.38,8.16-.74,4.16c-.54,3.11-3.74,6.12-3.74,6.12l-11.88,8.91a28.67,28.67,0,0,0-9.77,14.8s-4.46,3.46-4.74,3.74h0s0,0,0,0h0l1.52-.87,82-47.15s.94-.52,1.14-.65,3.52-3.25,3.52-3.25C196.77,90.17,196,88.26,194.61,87.44ZM170,68.37c-.88,4.95-4.44,10.47-8,12.33-2.45,1.28-4.23.48-4.83-1.77a9.43,9.43,0,0,1,0-3.84c.88-5,4.45-10.46,8-12.31a5.89,5.89,0,0,1,1-.44C169.11,61.45,170.78,63.92,170,68.37Z" style="fill:#37474f"></path><path d="M170,68.37c-.88,4.95-4.44,10.47-8,12.33-2.45,1.28-4.23.48-4.83-1.77a6.22,6.22,0,0,0,1-.43c3.54-1.86,7.12-7.37,8-12.32a9.25,9.25,0,0,0,0-3.84C169.11,61.45,170.78,63.92,170,68.37Z" style="fill:#263238"></path><path d="M166.57,62.55h0a1.93,1.93,0,0,1,1.71.83c1.47,2.09.06,7.41-.55,9.11-.85,2.38-6.34,7.93-7.86,7.93a3.69,3.69,0,0,1-2.48-1.58,9.21,9.21,0,0,1,0-3.71c.87-4.88,4.4-10.33,7.88-12.15a5.49,5.49,0,0,1,1-.41l.33,0m0-.23a2.48,2.48,0,0,0-.38,0,5.89,5.89,0,0,0-1,.44c-3.55,1.85-7.12,7.36-8,12.31a9.43,9.43,0,0,0,0,3.84,4,4,0,0,0,2.69,1.73h0c1.64,0,7.18-5.61,8.06-8.09s2.8-10.25-1.38-10.25Z" style="fill:#263238"></path><path d="M108.69,144.79l83.55-48,1.15-.64c.21-.13,3.51-3.26,3.51-3.26L113.42,141S108.36,145,108.69,144.79Z" style="fill:#263238"></path></g><path d="M195.07,157.13a.57.57,0,0,1-.56-.55V138.27a.54.54,0,0,1,.28-.47l15.74-9.09a.54.54,0,0,1,.55,0,.56.56,0,0,1,.28.48v18.3a.56.56,0,0,1-.28.48l-15.74,9.08A.53.53,0,0,1,195.07,157.13Zm.55-18.54v17l14.63-8.45v-17Z" style="fill:#455a64"></path><path d="M90.75,197.31v1.26c0,.69.48,1,1.08.62l53.3-30.77a2.35,2.35,0,0,0,1.08-1.86v-1.27c0-.68-.48-1-1.08-.62l-53.3,30.78A2.35,2.35,0,0,0,90.75,197.31Z" style="fill:#e0e0e0"></path><path d="M90.75,205.28v1.26c0,.69.48,1,1.08.62l94.26-54.42a2.38,2.38,0,0,0,1.07-1.86v-1.27c0-.69-.48-1-1.07-.62L91.83,203.42A2.37,2.37,0,0,0,90.75,205.28Z" style="fill:#e0e0e0"></path><path d="M90.75,212.87v1.26c0,.69.48,1,1.08.62l94.26-54.43a2.37,2.37,0,0,0,1.07-1.86V157.2c0-.69-.48-1-1.07-.62L91.83,211A2.38,2.38,0,0,0,90.75,212.87Z" style="fill:#e0e0e0"></path><polygon points="202.74 148.57 199.08 145.05 200.3 142.46 202.39 144.46 211.41 125.37 212.99 126.88 202.74 148.57" style="fill:#FE3E55"></polygon><path d="M195.07,188.23a.54.54,0,0,1-.28-.08.56.56,0,0,1-.28-.48v-18.3a.56.56,0,0,1,.28-.48l15.74-9.08a.54.54,0,0,1,.55,0,.56.56,0,0,1,.28.48v18.3a.56.56,0,0,1-.28.48l-15.74,9.08A.53.53,0,0,1,195.07,188.23Zm.55-18.54v17l14.63-8.45v-17Z" style="fill:#455a64"></path><path d="M90.75,228.41v1.26c0,.69.48,1,1.08.62l53.3-30.77a2.37,2.37,0,0,0,1.08-1.86v-1.27c0-.68-.48-1-1.08-.62l-53.3,30.78A2.35,2.35,0,0,0,90.75,228.41Z" style="fill:#e0e0e0"></path><path d="M90.75,236.38v1.26c0,.69.48,1,1.08.62l94.26-54.42a2.4,2.4,0,0,0,1.07-1.86v-1.27c0-.69-.48-1-1.07-.62L91.83,234.52A2.35,2.35,0,0,0,90.75,236.38Z" style="fill:#e0e0e0"></path><path d="M91.34,239a1.18,1.18,0,0,1-.55-.14,1.32,1.32,0,0,1-.59-1.18v-1.26A2.89,2.89,0,0,1,91.55,234l94.26-54.43a1.2,1.2,0,0,1,1.91,1.1V182a2.92,2.92,0,0,1-1.36,2.34L92.1,238.74A1.47,1.47,0,0,1,91.34,239Zm95.23-58.47a.42.42,0,0,0-.21.08L92.1,235a1.83,1.83,0,0,0-.8,1.38v1.26a.37.37,0,0,0,0,.22.4.4,0,0,0,.2-.08l94.26-54.42a1.81,1.81,0,0,0,.8-1.38v-1.27A.42.42,0,0,0,186.57,180.49Z" style="fill:#e0e0e0"></path><path d="M90.75,244v1.27c0,.68.48,1,1.08.62l94.26-54.43a2.37,2.37,0,0,0,1.07-1.86v-1.27c0-.68-.48-1-1.07-.62L91.83,242.1A2.38,2.38,0,0,0,90.75,244Z" style="fill:#e0e0e0"></path><polygon points="202.74 179.67 199.08 176.15 200.3 173.55 202.39 175.56 211.41 156.46 212.99 157.98 202.74 179.67" style="fill:#FE3E55"></polygon><path d="M195.07,219.32a.53.53,0,0,1-.28-.07.56.56,0,0,1-.28-.48v-18.3a.56.56,0,0,1,.28-.48l15.74-9.08a.56.56,0,0,1,.83.47v18.31a.57.57,0,0,1-.28.48l-15.74,9.08A.52.52,0,0,1,195.07,219.32Zm.55-18.53v17l14.63-8.44v-17Z" style="fill:#455a64"></path><path d="M90.75,259.51v1.26c0,.69.48,1,1.08.62l53.3-30.77a2.37,2.37,0,0,0,1.08-1.86v-1.27c0-.69-.48-1-1.08-.62l-53.3,30.77A2.38,2.38,0,0,0,90.75,259.51Z" style="fill:#e0e0e0"></path><path d="M90.75,267.48v1.26c0,.69.48,1,1.08.62l94.26-54.42a2.4,2.4,0,0,0,1.07-1.87v-1.26c0-.69-.48-1-1.07-.62L91.83,265.62A2.35,2.35,0,0,0,90.75,267.48Z" style="fill:#e0e0e0"></path><path d="M90.75,275.06v1.27c0,.68.48,1,1.08.62l94.26-54.43a2.37,2.37,0,0,0,1.07-1.86v-1.27c0-.68-.48-1-1.07-.62L91.83,273.2A2.37,2.37,0,0,0,90.75,275.06Z" style="fill:#e0e0e0"></path><polygon points="202.74 210.77 199.08 207.25 200.3 204.65 202.39 206.66 211.41 187.56 212.99 189.08 202.74 210.77" style="fill:#FE3E55"></polygon><path d="M195.07,250.42a.53.53,0,0,1-.28-.07.56.56,0,0,1-.28-.48v-18.3a.56.56,0,0,1,.28-.48L210.53,222a.59.59,0,0,1,.55,0,.57.57,0,0,1,.28.48v18.31a.54.54,0,0,1-.28.47l-15.74,9.09A.52.52,0,0,1,195.07,250.42Zm.55-18.53v17l14.63-8.44v-17Z" style="fill:#455a64"></path><path d="M90.75,290.6v1.27c0,.68.48,1,1.08.62l53.3-30.77a2.38,2.38,0,0,0,1.08-1.86v-1.27c0-.69-.48-1-1.08-.62l-53.3,30.77A2.38,2.38,0,0,0,90.75,290.6Z" style="fill:#e0e0e0"></path><path d="M90.75,298.58v1.26c0,.68.48,1,1.08.62L186.09,246a2.37,2.37,0,0,0,1.07-1.86V242.9c0-.68-.48-1-1.07-.62L91.83,296.71A2.38,2.38,0,0,0,90.75,298.58Z" style="fill:#e0e0e0"></path><path d="M90.75,306.16v1.26c0,.69.48,1,1.08.63l94.26-54.43a2.38,2.38,0,0,0,1.07-1.86v-1.27c0-.68-.48-1-1.07-.62L91.83,304.3A2.37,2.37,0,0,0,90.75,306.16Z" style="fill:#e0e0e0"></path><polygon points="202.74 241.87 199.08 238.34 200.3 235.75 202.39 237.76 211.41 218.66 212.99 220.18 202.74 241.87" style="fill:#FE3E55"></polygon><path d="M195.07,281.52a.53.53,0,0,1-.28-.07.56.56,0,0,1-.28-.48v-18.3a.56.56,0,0,1,.28-.48l15.74-9.09a.54.54,0,0,1,.55,0,.56.56,0,0,1,.28.48v18.3a.56.56,0,0,1-.28.48l-15.74,9.09A.52.52,0,0,1,195.07,281.52Zm.55-18.53v17l14.63-8.45v-17Z" style="fill:#455a64"></path><path d="M90.75,321.7V323c0,.68.48,1,1.08.62l53.3-30.77a2.38,2.38,0,0,0,1.08-1.87v-1.26c0-.69-.48-1-1.08-.62l-53.3,30.77A2.37,2.37,0,0,0,90.75,321.7Z" style="fill:#e0e0e0"></path><path d="M90.75,329.67v1.27c0,.68.48,1,1.08.62l94.26-54.43a2.37,2.37,0,0,0,1.07-1.86V274c0-.68-.48-1-1.07-.62L91.83,327.81A2.38,2.38,0,0,0,90.75,329.67Z" style="fill:#e0e0e0"></path><path d="M90.75,337.26v1.26c0,.69.48,1,1.08.62l94.26-54.42a2.38,2.38,0,0,0,1.07-1.86v-1.27c0-.69-.48-1-1.07-.62L91.83,335.4A2.35,2.35,0,0,0,90.75,337.26Z" style="fill:#e0e0e0"></path><polygon points="202.74 272.96 199.08 269.44 200.3 266.85 202.39 268.85 211.41 249.76 212.99 251.28 202.74 272.96" style="fill:#FE3E55"></polygon><path d="M195.07,312.6a.53.53,0,0,1-.28-.07.56.56,0,0,1-.28-.48v-18.3a.56.56,0,0,1,.28-.48l15.74-9.09a.54.54,0,0,1,.55,0,.56.56,0,0,1,.28.48V303a.56.56,0,0,1-.28.48l-15.74,9.09A.52.52,0,0,1,195.07,312.6Zm.55-18.53v17l14.63-8.44v-17Z" style="fill:#455a64"></path><path d="M90.75,352.78v1.27c0,.68.48,1,1.08.62l53.3-30.77a2.38,2.38,0,0,0,1.08-1.87v-1.26c0-.69-.48-1-1.08-.62l-53.3,30.77A2.37,2.37,0,0,0,90.75,352.78Z" style="fill:#e0e0e0"></path><path d="M90.75,360.75V362c0,.68.48,1,1.08.62l94.26-54.43a2.37,2.37,0,0,0,1.07-1.86v-1.27c0-.68-.48-1-1.07-.62L91.83,358.89A2.38,2.38,0,0,0,90.75,360.75Z" style="fill:#e0e0e0"></path><path d="M90.75,368.34v1.26c0,.69.48,1,1.08.62l94.26-54.42a2.38,2.38,0,0,0,1.07-1.86v-1.27c0-.69-.48-1-1.07-.62L91.83,366.48A2.35,2.35,0,0,0,90.75,368.34Z" style="fill:#e0e0e0"></path><polygon points="202.74 304.05 199.08 300.52 200.3 297.93 202.39 299.94 211.41 280.84 212.99 282.36 202.74 304.05" style="fill:#FE3E55"></polygon><path d="M93.15,162.55l50.58-29.23c.73-.42,1.32-.08,1.32.77v.38a2.91,2.91,0,0,1-1.32,2.29L93.15,166c-.73.42-1.32.08-1.32-.76v-.39A2.92,2.92,0,0,1,93.15,162.55Z" style="fill:#fafafa"></path><path d="M93.15,169.47l30.1-17.38c.73-.42,1.32-.08,1.32.77v.38a2.91,2.91,0,0,1-1.32,2.29l-30.1,17.38c-.73.42-1.32.08-1.32-.77v-.38A2.92,2.92,0,0,1,93.15,169.47Z" style="fill:#fafafa"></path><path d="M194.35,103.68l22.5-13c.36-.21.66,0,.66.38v.86a1.47,1.47,0,0,1-.66,1.14l-22.5,13c-.36.21-.66,0-.66-.38v-.86A1.47,1.47,0,0,1,194.35,103.68Z" style="fill:#FE3E55"></path><path d="M194.35,114.05l22.5-13c.36-.21.66,0,.66.38v.85a1.47,1.47,0,0,1-.66,1.14l-22.5,13c-.36.21-.66,0-.66-.38v-.85A1.47,1.47,0,0,1,194.35,114.05Z" style="fill:#FE3E55"></path><path d="M199,106.16l17.86-10.31c.36-.21.66,0,.66.38v.85a1.47,1.47,0,0,1-.66,1.14L199,108.53c-.36.21-.65,0-.65-.38v-.85A1.46,1.46,0,0,1,199,106.16Z" style="fill:#FE3E55"></path></g><g id="freepik--Impress--inject-10"><path d="M176.1,235.41a3.45,3.45,0,0,0,.72-1.43,3.09,3.09,0,0,0,.05-1.53l-2.54-9.83c-.11-.45-.33-.7-.65-.76a1.06,1.06,0,0,0-1,.46l-1.27,1.41,3.38,13.09Zm-.58-4.89a.27.27,0,0,1,.26,0h0l0,.07v0a.18.18,0,0,1,0,.14.18.18,0,0,1-.17.07h0l-.16-.09v-.05A.2.2,0,0,1,175.52,230.52Zm0,1.42.19,0,.14.18,0,0v.07l-.09.13h0a.21.21,0,0,1-.24-.2v-.08Zm-2-7.31a.13.13,0,0,1-.11.07h-.07l0,0a.18.18,0,0,1-.08-.17h0l0-.07.06,0h-.07v-.1l0,0a.17.17,0,0,1,.19,0l0,0,.09,0,0,0h0l0,0h0a.18.18,0,0,1,0,.15l0,.05S173.51,224.62,173.49,224.63Zm.42,4.82,0,.05h0l0,0a.17.17,0,0,1-.22,0h0v0l0-.06v0a.29.29,0,0,1,.08-.19l0,0,.12,0,.15.1,0,.14Zm.39-6,0,0-.17,0,0,0h0a.18.18,0,0,1,0-.26l0,0,.13,0,0,0,0,0a.2.2,0,0,1,.1.14A.16.16,0,0,1,174.3,223.43Zm.51,4.6a.19.19,0,0,1,.11-.11.2.2,0,0,1,.18,0l0,0h0l0,.12h0a.13.13,0,0,1-.07.14l0,0H175l0,0,0,0h0l-.11-.12Z" style="fill:#FE3E55"></path><path d="M135.45,270.82a3.14,3.14,0,0,0,.06-1.54l-.71-2.74c-.13-.49-.34-.76-.64-.82s-.63.12-1,.53l-1.27,1.41,1.55,6,1.27-1.42A3.29,3.29,0,0,0,135.45,270.82Zm-2-2.22a.19.19,0,0,1-.11.16h0l-.13,0,0,0,0-.06,0,0v0l-.1-.17,0-.06a.26.26,0,0,1,.16-.1.26.26,0,0,1,.21.08l0,0,0,0v.16Zm.48,1h0l0,.08h-.08c-.21,0-.24-.15-.26-.29a.18.18,0,0,1,.08-.18h0l.1,0h0a.14.14,0,0,1,.08,0h0l.13.07v0A.19.19,0,0,1,133.88,269.63Z" style="fill:#FE3E55"></path><path d="M182.66,221.15s-.07,0-.11,0h0l0-.07v0a.09.09,0,0,1,0-.07h0v-.12l0,0s0,0,.06,0l-2.39-9.26c-.44-1.68-1.33-2.71-2.53-2.92s-2.54.45-3.79,1.84l-15,16.63a.12.12,0,0,1,0,.08.13.13,0,0,1,0,.06.19.19,0,0,1,0,.09.09.09,0,0,1,0,.05h0v0h0a.18.18,0,0,1-.13.11h-.12a.16.16,0,0,1-.15,0h0l0,0-13.14,14.59a0,0,0,0,1,0,0l0,0-5,5.57h.05l0,0a.21.21,0,0,1,0,.22l0,0-.06.05,0,0a.21.21,0,0,1,0,.2.19.19,0,0,1-.14.07l0,.09v0l-.07.07h-.17l-.08,0,0,0h-.05l-.07-.09-.5.57,0,.06a.44.44,0,0,1-.05.51l0,0H139l0,0,0,0-.13-.08-36.56,40.6a.17.17,0,0,1,.09.11.14.14,0,0,1,0,.06v.06l-.16.14,0,0h0a.32.32,0,0,1-.12,0l0,0v0a.41.41,0,0,1-.16.45l-.06.05-.11-.08h0l-.06,0,0,0-3,3.34a11.16,11.16,0,0,0-1.18,1.63l0,0h.1l0,0,.13.06v.05a.34.34,0,0,1-.12.35l0,0-.12,0h0a.22.22,0,0,1-.15-.15h0s0,0,0,0a15.14,15.14,0,0,0-1.93,7.2.67.67,0,0,1,.19-.09h0l.11,0,0,0a.32.32,0,0,1,.1.18.74.74,0,0,1,0,.19.27.27,0,0,1,.06.1h0v0l0,.09,0,0a.45.45,0,0,1-.39.15h-.09a9,9,0,0,0,.23,1.52h.08l0,0,0,0,0,0,.14,0,0,0,.07.07h.08l0,0a.21.21,0,0,1,.06.15.34.34,0,0,1,.06.12.34.34,0,0,1,0,.14l0,0h0v.12l-.11.07a.19.19,0,0,1,0,.07.4.4,0,0,1-.22.24l4.16,16.12,0-.06h0a.18.18,0,0,1,.23-.11h0l.11,0,.06.17,0,.06V323l0,0a.2.2,0,0,1-.19.07.18.18,0,0,1-.14-.16h0l0,0v0c.71,2.75,2.64,3.62,4.69,2.43a6.71,6.71,0,0,0,1.62-1.35l21.15-23.49h-.1a.25.25,0,0,1-.13-.18s0,0,0,0v0l.06-.13h0a.17.17,0,0,1,.17-.07h0l.09.1v0s0,0,0,.07a0,0,0,0,0,0,0h0v.07l10-11.12,0-.08,0,0a.22.22,0,0,1,.09-.1.23.23,0,0,1,.14,0L149.33,276a.17.17,0,0,1-.06-.06l0-.05.09-.19h.23l0,0,1-1.16v0l0,0h0a.39.39,0,0,1,.17-.17L163,260.81l-.07,0,.14-.29.06,0h.13l11.32-12.57a.2.2,0,0,1,.15-.17h0l6.8-7.56a13.51,13.51,0,0,0,2.84-5.52,12.15,12.15,0,0,0,.23-6Zm-2.78-6.87a.19.19,0,0,1,0-.14v0l.12-.05h0l.08,0h.08c.12,0,.15.1.15.13a.14.14,0,0,1,0,.14h0v0l0,0v0a.18.18,0,0,1,0,.16.15.15,0,0,1-.09.05l-.08,0a.22.22,0,0,1-.18-.08h0l-.09,0,0-.06a.27.27,0,0,1,0-.17S179.88,214.3,179.88,214.28ZM164.81,221a.16.16,0,0,1,0-.13.19.19,0,0,1,.15-.08h0l.12.07,0,.06s0,.07.05.1a.33.33,0,0,0,0,.06l0,0,0,.22-.06,0v0a.32.32,0,0,1-.26.14h0l-.12-.09v-.09l-.06,0v0a.2.2,0,0,1,.06-.19h0Zm-4.64,6.06a.2.2,0,0,1,.19-.24h0l.11.08v0a.43.43,0,0,0,0,0,.28.28,0,0,1,0,.2.24.24,0,0,1-.16.08h-.05l-.12-.15v0ZM155.06,232v0l0,0a.21.21,0,0,1,.22-.07h0l.08,0,0,.09v-.09l.12,0,0,0a.17.17,0,0,1,0,.23l0,0a.27.27,0,0,1-.06.1l0,0h0l0,0h0a.21.21,0,0,1-.19,0,.15.15,0,0,1,0-.06l-.06,0a.23.23,0,0,1-.06-.15V232Zm-.91,1.44,0-.09v0a.4.4,0,0,1,.22-.09h0l.11.09,0,.2-.1.13h-.15a.18.18,0,0,1-.19-.17v0Zm-55.82,79a.23.23,0,0,1-.16.13h0l-.21.08,0-.05a.25.25,0,0,1-.07-.12.48.48,0,0,1-.18-.07l-.1,0,0,0-.09-.14,0-.07h0l0,0,0-.05v0s0,0,0-.05l0,0v-.07l0,0a.35.35,0,0,1,.09-.07v0l0,0,.1,0h0l.14,0a.17.17,0,0,1,.14.05l0,0h0l.12.14V312a.65.65,0,0,0,0,.24h.06l0,.05A.24.24,0,0,1,98.33,312.48Zm4.15,11.75a.33.33,0,0,1-.16.18h-.08v0l0,0-.12.07-.17-.07,0-.09h0l0-.24h0a.24.24,0,0,1,0-.22.16.16,0,0,1,0-.07l0,0,0-.06.17,0,0,0h0a.29.29,0,0,1,.24,0h0l0,.12v0h0l.07.16Zm1.08.77v.06s0,0,0,.05a.49.49,0,0,1-.08.13l0,0v0l-.15.08h-.11a.66.66,0,0,1-.22-.08h0l0-.05h0s0-.05,0-.07a.29.29,0,0,1,0-.08.28.28,0,0,1,0-.14l0-.11,0,0,0-.05a.55.55,0,0,1,.2-.24l0,0,.09,0a.16.16,0,0,1,.15,0,.19.19,0,0,1,.11.11.1.1,0,0,1,0,0l0,0v.07a.23.23,0,0,1,.1.17V325Zm.8-.5h0a.16.16,0,0,1-.1.1.41.41,0,0,1-.61.07h0l0-.06v0a.48.48,0,0,1,0-.34.35.35,0,0,1,.08-.13l0,0a.22.22,0,0,1,.21-.1.32.32,0,0,1,.31,0l.05,0v0a.14.14,0,0,1,.06.1h0a.15.15,0,0,1,0,.08.17.17,0,0,1,0,.1l0,0ZM129.13,298V298s0,0,0,.05a.33.33,0,0,1-.09.13l0,0,0,0-.14.09h-.11a.65.65,0,0,1-.23-.07h0l-.05-.05h0a.19.19,0,0,1,0-.07.1.1,0,0,1,0-.08.21.21,0,0,1,0-.14l-.06-.11.06-.05a.11.11,0,0,1,0,0,.45.45,0,0,1,.19-.25l0,0h.08a.24.24,0,0,1,.16,0,.18.18,0,0,1,.12.11l0,0,0,0v.07a.24.24,0,0,1,.11.18v0Zm20.71-23.22-.06,0-.17-.07,0,0a.23.23,0,0,1,0-.14.74.74,0,0,1-.09-.12v-.09a.24.24,0,0,1,.08-.32h0l.07,0,.11,0,0,0a.16.16,0,0,1,.08.12.18.18,0,0,1,.07.05.21.21,0,0,1,0,.2v0A.27.27,0,0,1,149.84,274.74Zm5-5.49h0l-.05,0-.12,0h0a.18.18,0,0,1-.16-.05.25.25,0,0,1-.07-.2h0l0-.15,0-.06a.61.61,0,0,1,.16-.19l0,0,.19.05,0,0,0,0a.46.46,0,0,1,.11.2.31.31,0,0,1,.06.13v.06Zm8.94-10.18h0a.2.2,0,0,1,0,.19.22.22,0,0,1-.19.07.2.2,0,0,1-.17-.12l0,0v-.06l0,0h0l0,0V259l0-.13,0,0a.37.37,0,0,1,.36-.1h.06l.09.08v0A.22.22,0,0,1,163.76,259.07ZM178.3,243.6a.31.31,0,0,1-.17.07l-.07,0,0,0h-.15l0,0h0l-.09-.09v0a.24.24,0,0,1,.08-.21v0l.2-.11,0,0,.08,0,0,0h0a.2.2,0,0,1,.12.1h0l0,0,0,.15Zm2.38-3.16a.17.17,0,0,1-.14.05h0l0,0v0l0,0a.17.17,0,0,1-.16.07.14.14,0,0,1-.1,0,.16.16,0,0,1-.09-.05.22.22,0,0,1-.06-.2v0l0-.11,0-.06a.22.22,0,0,1,.16-.08l0,0a.21.21,0,0,1,.13-.07h0l.12.06,0,0a.34.34,0,0,0,0,.08l0,0h0l0,0h0A.19.19,0,0,1,180.68,240.44Zm2.64-5.92a10.29,10.29,0,0,1-2.16,4.19L145.81,278v.08l-.14.14-.09,0h0l-12.14,13.48v.05a.43.43,0,0,0,0,.05h0s0,.07,0,.08l0,.05,0,0-.07.12h0l-.07.08v0l0,0a.27.27,0,0,1-.3.07l-.83.92h0a.58.58,0,0,1,.37.27l0,0v.14l0,0,0,.05a.15.15,0,0,1-.08.13.19.19,0,0,1-.13,0h-.06l0,0h0l-.1,0h0a.19.19,0,0,1-.1-.06.13.13,0,0,1-.08-.07l0,0h0v-.11a.09.09,0,0,1,0-.05s0,0,0,0l-25.94,28.8a3.33,3.33,0,0,1-2.88,1.39c-.9-.15-1.58-.94-1.91-2.21l-2-7.76h0a.45.45,0,0,1-.26-.11l0,0h0l-.06-.08v0a.14.14,0,0,1,0-.11s0,0,0-.05a.37.37,0,0,1,0-.11.23.23,0,0,1,.12-.12.14.14,0,0,1,.1,0l-.62-2.4a.26.26,0,0,1-.27,0h0l-.08-.14v0a.09.09,0,0,1,0-.05.2.2,0,0,1,.12-.12.22.22,0,0,1,.16,0l-1.56-6a10.69,10.69,0,0,1,2.33-8.73l20.31-22.55,0,0A1.1,1.1,0,0,1,119,273l0,0v-.06a.19.19,0,0,1,.07-.23v0l0-.05h0l.06-.05a.34.34,0,0,1,.2,0l0,0h.08l.19,0v.05h0l.05.06,4.17-4.63a.23.23,0,0,1-.11-.19v0l0,0a.24.24,0,0,1,0-.2l.06-.15.06,0h.17l.15.12v.05s0,0,0,0l.38-.42-.09-.11,0,0h0l-.15-.1,0-.08a.44.44,0,0,1,.19-.25.56.56,0,0,1,.37-.07h0l.1.09h0l6.61-7.34h0l0,0h-.09l0,0a.2.2,0,0,1,.08-.3l0,0,0,0a.2.2,0,0,1,.29,0,.21.21,0,0,1,.06.1L157,231.18a.2.2,0,0,1-.1-.07l0,0,.05-.2,0,0h0a.21.21,0,0,1,.33,0h0l.5-.55-.06-.06v0s0,0,0-.06v0h0l0-.19.06,0a.21.21,0,0,1,.18,0s0,.07.06.11L174.25,212a5.17,5.17,0,0,1,1.24-1,2.41,2.41,0,0,1,1.64-.36c.91.15,1.59.93,1.92,2.21l.54,2.1a.21.21,0,0,1,.11,0h.16l0,.06h0l.12.07,0,.14-.06.09-.07,0,0,0a.18.18,0,0,1,0,.07.19.19,0,0,1-.14,0l3.77,14.6A9.21,9.21,0,0,1,183.32,234.52Zm.18-6.65a.43.43,0,0,1-.17-.24v0l0-.1,0,0a.43.43,0,0,0,.09-.1v0l.12,0h0a.31.31,0,0,1,.1.05l.06,0,.06,0h0l0,0v0a.29.29,0,0,1,0,.23l0,0h0l0,.14h-.06A.37.37,0,0,1,183.5,227.87Zm.81.43s0,.12-.1.15h-.05a.17.17,0,0,1-.16,0h-.12l0,0,0-.06s0,0,0,0l0,0,0-.15,0,0a0,0,0,0,0,0,0,.27.27,0,0,1,.17-.08h0l.07.06a.23.23,0,0,1,.11,0l0,0,.05.1Z" style="fill:#FE3E55"></path><path d="M116.71,299.42l-2.65-10.27c-.12-.45-.33-.7-.65-.76a1.13,1.13,0,0,0-1,.48,3.53,3.53,0,0,0-.74,1.43,3.14,3.14,0,0,0-.06,1.54l2.66,10.27c.11.45.33.7.65.75a1.12,1.12,0,0,0,1-.48,3.5,3.5,0,0,0,.74-1.42A3,3,0,0,0,116.71,299.42Zm-2.91-7.32h0a.35.35,0,0,1,.07-.11v0h0v0l.06-.07,0,0,.06-.07h0a.18.18,0,0,1,.15,0h0l.17,0a.34.34,0,0,1,.11.14h0l.08.16,0,.06a.06.06,0,0,0,0,0,.19.19,0,0,1,0,.08.26.26,0,0,1-.08.13l0,0-.14,0h0a.37.37,0,0,1-.14.06h0l-.09,0h0a.47.47,0,0,1-.1-.11l0,0h0l0,0-.06-.12Zm0,2.55,0-.07a.16.16,0,0,1,0-.15.28.28,0,0,1,.18-.11h0l0,0,.2.16,0,.07a.3.3,0,0,1-.16.17h0l0,0-.17,0Zm.63,5.79v0a.23.23,0,0,1-.07.07v0l-.1.1h0a.2.2,0,0,1-.24-.14v0l-.07-.06,0-.08a.26.26,0,0,1,.35-.16.18.18,0,0,1,.15.13v0Zm.42-3.34,0,0a.18.18,0,0,1-.16.05l0,0h0a.18.18,0,0,1-.17-.14.25.25,0,0,1,0-.08h0l-.12-.1v-.06a.27.27,0,0,1,.2-.21h0l.14,0,0,0a.16.16,0,0,1,0,.07v0h.1l0,.05a.14.14,0,0,1,0,.06.18.18,0,0,1,0,.13h0Zm1.43,2.47v.05a.53.53,0,0,1,0,.22l0,.06-.13.07h0a.3.3,0,0,1-.21-.1v0h0a.28.28,0,0,1-.12-.1v-.07l0-.11,0-.05a.43.43,0,0,1,.5-.17h0l.09.17Z" style="fill:#FE3E55"></path><path d="M144.72,277.24l0,0v0h0l3.77-4.19-.16,0-.08-.12,0-.16,0,0s0,0,0,0h0l0,0,0,0a.2.2,0,0,1,.29.09l0,0v0l32-35.51a7.29,7.29,0,0,0,1.6-6l-2.68-10.35-.05-.06v-.1L177.92,214c-.46-1.8-1.93-2-3.28-.56l-15.11,16.78.06.06,0,0,0,0a.21.21,0,0,1,0,.29.26.26,0,0,1-.1.07h0l-.11,0,0,0h-.05a.2.2,0,0,1-.16-.09l-6.6,7.33h0V238l-.05.09,0,0,0,0h0l0,0-.06,0v0l0,0a.19.19,0,0,1-.09.05l-5.79,6.44a.21.21,0,0,1,.11,0,.21.21,0,0,1,.07.15.28.28,0,0,1-.08.18l0,0-.2,0,0-.05a.32.32,0,0,1,0-.09h0l-15.81,17.56h0a.19.19,0,0,1,.06.21s0,.05,0,.07h0l0,.11,0,0a.36.36,0,0,0,0,.09l0,.06v0l-.07.07h-.06l-.06,0h-.07v0l0,0a.23.23,0,0,1-.26-.06l-6.23,6.92s0,0,0,0v.08l-.12.08h0L99.24,297.21a7.28,7.28,0,0,0-1.59,6l3.29,12.72,0,0a.19.19,0,0,1,.05.2v0h0l1.09,4.24c.47,1.8,1.94,2.05,3.28.56L130.51,293h0v0a.19.19,0,0,1,0-.08.23.23,0,0,1,.08-.12v0l.05,0,.13-.11.08,0,13.84-15.38h0Zm-46,22.95a.26.26,0,0,1-.2.14v0h-.25v0h-.1v0h0a.25.25,0,0,1-.06-.17l0,0,0-.07,0-.15h.06a.32.32,0,0,1,.2,0l.07,0,0,0,0,0,.12.06v0l0,0,0,.13Zm46.49-25.74,0,.12-.05,0h0a.27.27,0,0,1-.13,0h0l0,0h-.08l0,0h-.09a.16.16,0,0,1-.14-.05l0,0h0c-.08-.09-.09-.13-.09-.14a.38.38,0,0,1,0-.18h0l0,0,0-.18.06,0,0,0,.06-.05a.33.33,0,0,1,.14,0h0l.12.07v0h0a.33.33,0,0,1,.15.05h0l.06.07v0a.22.22,0,0,1,0,.14v0l0,0Zm2.4-3a.38.38,0,0,1-.07.15h0l-.11.12h-.08v0h-.11a.27.27,0,0,1-.19-.05c0-.05-.09-.14,0-.29l0,0s0,0,0,0h0v-.13l.05,0a.23.23,0,0,1,.16,0,.25.25,0,0,1,.12,0l.08,0,.1.1,0,.1Zm.77-4,0,0,0,.12h-.07a.44.44,0,0,1-.49-.17l0,0,0-.18,0,0s0,0,0,0a.52.52,0,0,1,.17-.15l0,0,.15,0,0,0a.25.25,0,0,1,.1.21v0h0a.24.24,0,0,1,0,.15Zm6-3.08,0,0a.22.22,0,0,1-.13,0h-.16l0,0a.2.2,0,0,1,0-.18v0H154l-.1-.09,0-.23H154l0,0h.2l0,.05a.2.2,0,0,1,0,.19l.07,0a.27.27,0,0,1,.1.17v0ZM155.78,252h0a.21.21,0,0,1,0,.11.19.19,0,0,1-.13.07.23.23,0,0,1-.15-.05.41.41,0,0,1-.07-.11l-.1-.08,0,0v-.09a.2.2,0,0,1,0-.11v0l.05-.09,0,0a.33.33,0,0,1,.16,0,.48.48,0,0,1,.11-.05l.07-.1h0l0,0,.17,0,0,0,0,0,.13,0a.2.2,0,0,1,.14,0,.45.45,0,0,1,.17.08l0,0h.08l.05.25,0,0a.25.25,0,0,1,0,.08v0l-.07.11h0l-.06.05a.46.46,0,0,1-.28.1h-.13l-.1,0Zm.05-4.13,0-.06a.2.2,0,0,1,0-.2.25.25,0,0,1,.29-.05.22.22,0,0,1,.13.24h0l0,.07h0a.21.21,0,0,1-.25,0h0Zm1.06,11.83,0,0,0,0v.19l-.05,0-.1,0,0,.07,0,0a.29.29,0,0,1-.16,0,.27.27,0,0,1-.13,0,.35.35,0,0,1-.12-.07l0,0h0l0,0,0,0-.06,0,0-.13-.06,0a.44.44,0,0,1-.14-.31.34.34,0,0,1,.13-.24l.05,0,.15,0h0a.14.14,0,0,1,.11,0h0l.17.06,0,0,0-.05.22.05,0,.06h.05l0,.05,0,.06,0,.06,0,0Zm4.21-2.78h0l-.05,0,0,0h0l0,0h-.19l0,0a.35.35,0,0,1-.08-.37l0-.06.08-.09h0a.21.21,0,0,1,.21,0h0a.19.19,0,0,1,.19,0,.24.24,0,0,1,.06.2A.21.21,0,0,1,161.1,256.9Zm1.5-1.09h0l0,.09,0,0a.18.18,0,0,1-.23,0h0l-.05,0h0l-.09-.09,0,0a.18.18,0,0,1-.16,0l0,0,0-.11v0a.15.15,0,0,1,0-.08.2.2,0,0,1,0-.11h0l0-.06h0a1,1,0,0,0,.12-.14l.07-.1h.1a.17.17,0,0,1,.1,0h0l.1.11,0,0,.18.09v0a.36.36,0,0,1,0,.14h0A.31.31,0,0,1,162.6,255.81Zm-.5-3.14h0l.13,0,0,0a.3.3,0,0,1,0,.35l0,.06-.13.07h0a.31.31,0,0,1-.13-.06.26.26,0,0,1-.07-.24A.3.3,0,0,1,162.1,252.67Zm.05-4.35,0,0,0,0h.16l.17.14-.06.23-.07,0h0l0,0h-.18l0,0A.22.22,0,0,1,162.15,248.32Zm.94-4.26v0a.24.24,0,0,1-.11.06l0,0h0l0,.09-.09,0,0,0,0,0-.05,0a.2.2,0,0,1-.22-.05.21.21,0,0,1,0-.25h0a.32.32,0,0,1,.07-.23.16.16,0,0,1,.08-.06h.13l0,0h0a.22.22,0,0,1,.18,0,.18.18,0,0,1,.13.18v0Zm.63,3.58h0a.19.19,0,0,1-.14.07.26.26,0,0,1-.18-.09h0l0,0,0-.19,0,0a.2.2,0,0,1,.23-.06.25.25,0,0,1,.17.23v0Zm2.13,3.44,0,.15-.06,0a.26.26,0,0,1-.3-.08l0,0V251l0,0c.06-.06.18-.13.37,0l0,0Zm4.33-3.27,0,0a.43.43,0,0,1-.18.06l-.12,0h0l-.15-.07v-.07a.22.22,0,0,1,.08-.22h0l.14-.08h.06c.16,0,.26,0,.28.17v0Zm.87-.74a.23.23,0,0,1,0,.14.28.28,0,0,1-.11.07v0h0l-.08.1,0,0,0,0-.11,0h0a.25.25,0,0,1-.16,0,.62.62,0,0,1-.24-.41v-.11h0v-.05h0l0,0a.61.61,0,0,1,.4-.24h0l.11.06,0,0s0,0,.09.07l.05,0,0,0,.05.1v.11l0,0v.16Zm1.15-5.45,0-.15,0,0,0,0h0v0l0,0s0,0,0-.05a.19.19,0,0,1,.29,0l0,0,0,.21-.06,0v0l-.1.12-.17,0Zm.78,1.46a.3.3,0,0,1,0,.2.28.28,0,0,1,0,.13l0,.05-.17,0h-.07l-.11,0h0a.2.2,0,0,1-.09-.12.3.3,0,0,1,.05-.19v0l.06-.12,0,0a.52.52,0,0,1,.22-.07h.05l.12.14v.07Zm1-.15a.25.25,0,0,1-.06-.13.35.35,0,0,1-.11-.08l0,0,0,0h0a.23.23,0,0,1,0-.31h0l.05,0h.13a.21.21,0,0,1,.12.08l.07,0a.18.18,0,0,1,.08.18h0a.27.27,0,0,1,0,.35l0,.05H174Zm.41,1.27a.23.23,0,0,1-.15.07.21.21,0,0,1-.18-.06l0,0,0-.2,0,0,.08,0h0l0,0,.18.08V244A.27.27,0,0,1,174.37,244.2Zm5.09-7a.08.08,0,0,1,0,.05.17.17,0,0,1,0,.07v0l-.1.11h-.09l0,0-.09.11h0a.24.24,0,0,1-.09,0l-.06,0h0a.18.18,0,0,1-.12-.08.28.28,0,0,1-.11-.07.37.37,0,0,1,0-.11v0h0v0a0,0,0,0,0,0,0l0-.05.05-.1s0-.05,0-.07a.35.35,0,0,1,0-.3.38.38,0,0,1,.23-.11h.05l.09.11h0a.16.16,0,0,1,.07.07h0l.09.14,0,0h.06l.14.15,0,.05,0,0Zm.79-8.32h0l.07-.06h0l.07,0h0l0,0h0l.06,0h0c.23,0,.31.2.36.31h0l0,.08,0,0v.12h0v.1l-.07.08h0l-.28.09-.07,0a.19.19,0,0,1-.13,0h0l-.08-.09v-.07a.2.2,0,0,1-.09-.13v-.06h0a.31.31,0,0,0,0-.08v0s0,0,0,0v0Zm.16,3h.06l0,0,.09.11,0,.06a.28.28,0,0,1-.23.17h0l-.13-.1v0C180.17,232,180.19,231.87,180.41,231.84ZM179.21,221l0-.08v-.07l.17-.09.05,0a.19.19,0,0,1,.1.14.22.22,0,0,1,0,.16.21.21,0,0,1-.15.08h0l-.13-.13Zm-.12,4.51-.08-.05,0,0-.05,0h0v-.06A.55.55,0,0,1,179,225v0l.11,0h0s.05,0,.11,0l0,0h0l.1,0,0,0,0,0,0,0h0l0,0,.09.06v0a.15.15,0,0,1,.08.11.41.41,0,0,1,0,.12h0l0,.12,0,0v.06l-.1.06h0a.21.21,0,0,1-.11.09h-.18l0,0,0,.05h0l0,0a.18.18,0,0,1,0,.27h0v.09l0,0a.14.14,0,0,1-.1.06.2.2,0,0,1-.09.06h0l0,0-.07,0h0l-.06,0h0l0,0-.08-.07v0h0l-.05-.07h0l0,0a.32.32,0,0,1,0-.18.53.53,0,0,1-.14.08.08.08,0,0,0-.06,0l-.05,0-.1-.05h0a.24.24,0,0,1-.13,0s-.06-.06-.08-.08l-.09-.05,0-.1a.25.25,0,0,1,0-.09.64.64,0,0,1-.06-.16.29.29,0,0,1,.09-.28.13.13,0,0,1,.11-.05.2.2,0,0,1,.26,0h0l0,0h0l0,0a.18.18,0,0,1,.14.06l0,0,0,.08a.23.23,0,0,1,.14.17v.09l0,0a.24.24,0,0,1,0,.08l.06,0,.05,0h.13Zm-.47-1.77.07,0h0l.06,0a.2.2,0,0,1,.08.08h0l0,0,.06.11-.14.22-.15,0,0,0-.08,0,0,0h0a.25.25,0,0,1-.08-.1h0l-.05-.05,0,0,0-.06v0l0-.13,0,0a.2.2,0,0,1,.08,0h0a.21.21,0,0,1,.19,0Zm-.72-3.59h0l.13,0,.07,0a.2.2,0,0,1,.18,0h0a.25.25,0,0,1,.27.18v.07l-.1.12h-.05a.35.35,0,0,1-.12,0l-.13,0h-.08a.23.23,0,0,1-.25-.17h0v-.07Zm-.58-1h0l.06,0,.06,0h0a.14.14,0,0,1,0,.2h0l0,.07-.14,0,0,0h-.05l0,0a.16.16,0,0,1,0-.16A.17.17,0,0,1,177.32,219.17Zm-4.7-2.68v0l.12,0,.05,0,.09,0,.06,0,0,0,.16.11v.08a.25.25,0,0,1-.06.24l0,0-.13,0-.06-.05-.06,0,0,0a.18.18,0,0,1-.09-.15v0l0,0a.2.2,0,0,1-.07-.1A.2.2,0,0,1,172.62,216.49Zm-.72,3a3,3,0,0,1,2.69-1.29c.87.16,1.47.86,1.79,2.08l2.53,9.81a8.43,8.43,0,0,1-.15,4.26,9.29,9.29,0,0,1-2,3.92L173.43,242l-4.85-18.78Zm-.29,16.65a.17.17,0,0,1-.12.19h0l-.1.07,0,0a.18.18,0,0,1-.13-.14.23.23,0,0,1,.13-.24.21.21,0,0,1,.25.05h0l0,.06Zm-.94.61-.06,0a.44.44,0,0,1-.51,0l0,0v-.18l0,0,0,0a.5.5,0,0,1,.1-.19l0,0,.15,0,0,0a.25.25,0,0,1,.16.16v0h0a.32.32,0,0,1,.08.14v.19Zm-1.91-4.33a.15.15,0,0,1-.13-.13v0l0-.08v0a.18.18,0,0,1,.07-.05v0l.09-.09h0a.17.17,0,0,1,.21.14v0l.05.06,0,.07A.25.25,0,0,1,168.76,232.43Zm.07,5.12a.17.17,0,0,1,0,.14.21.21,0,0,1-.17.08h0l-.05,0-.16-.15,0-.06a.23.23,0,0,1,.16-.15h0l0,0,.16,0,0,0S168.82,237.53,168.83,237.55Zm-5.27-11.05h0l0,0h0v0l0,0,.06-.11.16,0,.07.06h0l.14.16h0a.26.26,0,0,1,.13.16.22.22,0,0,1,0,.08v.08l-.12.11H164a.27.27,0,0,1-.21.09h0l-.1-.06v0h0l-.14-.09,0-.1A.26.26,0,0,1,163.56,226.5ZM167,225l.74,2.84-3.91,4.33,1.33,5.12,2.85-3.16.73,2.84-2.85,3.17,1.33,5.12,3.9-4.33.73,2.84-6,6.68L161,231.65Zm.38,5,0,0a.37.37,0,0,1-.18.22.29.29,0,0,1-.29.07.22.22,0,0,1-.11-.1l-.08,0v0l0-.1a.69.69,0,0,1,0-.25v-.09l.12-.1h0l0,0,.12,0H167a.46.46,0,0,1,.16.06.17.17,0,0,1,.12.06h0l0,0h0a.43.43,0,0,0,0,.05.41.41,0,0,1,0,.1h0ZM166,233a.19.19,0,0,1-.17.19.22.22,0,0,1-.24-.17h0v-.09l.13-.1h0l.08,0h.06l.1.1Zm-5.31,12.08s0,0,0,0h0l0-.09h0l0,0v0a.19.19,0,0,1,.17-.12l0,0,.07,0,0,0a.19.19,0,0,1,.17-.05.19.19,0,0,1,.12.1h.1l.09,0v0a.27.27,0,0,1,.06.12v.11l0,.05-.09.14-.18,0-.08,0h0a.17.17,0,0,1-.1,0l0,0h0a.18.18,0,0,1-.15-.1h0a.2.2,0,0,1-.12-.08l0,0Zm.17-4.89h0l.1.09h0l0,0a.22.22,0,0,1,0,.08s0,0,0,0h0v.05a.13.13,0,0,1,.05.09.11.11,0,0,1,0,.08v0l-.08.07,0,0v0l-.14.07,0,0h0a.21.21,0,0,1-.14,0h0l-.13,0,0-.07a.17.17,0,0,1-.09-.12.19.19,0,0,1,0-.14v-.08l0,0h0v0a.15.15,0,0,1,.1-.14A.21.21,0,0,1,160.84,240.18Zm-.53-3.56v-.06l0,0a.18.18,0,0,1,.2,0,.2.2,0,0,1,.08.19v0h0l0,.09,0,.06h0a.17.17,0,0,1-.25,0h0l-.09-.07v-.18Zm-2.54-3v0l.06,0,0-.07,0,0a.26.26,0,0,1,.13-.09l0,0,0,0,.17,0,0,0,.05,0a.7.7,0,0,1,.19.14h0l0,.06h0a.22.22,0,0,1,0,.08.11.11,0,0,1,0,.08.32.32,0,0,1-.06.13V234l-.06,0,0,0a.48.48,0,0,1-.26.16h0l-.08,0a.19.19,0,0,1-.15,0,.18.18,0,0,1-.06-.13.21.21,0,0,1,0-.06v-.09A.22.22,0,0,1,157.77,233.67Zm-.89.21.05-.07h0a.19.19,0,0,1,.13-.07.41.41,0,0,1,.59.14h0l0,.07h0a.49.49,0,0,1-.22.43h0a.23.23,0,0,1-.23,0,.35.35,0,0,1-.28-.12l0,0v-.06a.27.27,0,0,1,0-.11h0a.19.19,0,0,1,0-.08.3.3,0,0,1,0-.1Zm-2.63,3.65.06,0,0-.1,0,0,0,0a.22.22,0,0,1,.13-.08h0l.06,0,0,0a.18.18,0,0,1,.07,0l0,0,.15,0,0,0a.28.28,0,0,1,0,.12s0,0,0,0a.25.25,0,0,1,0,.23h0v.12l-.05.07a.33.33,0,0,1-.11.08v0l0,0-.16.06-.24-.21Zm4.85-3.8.74,2.85-2.24,2.48L161.72,255l-2.11,2.35-4.12-15.92-2.24,2.5-.74-2.85Zm-1.22,5.91,0-.06a.27.27,0,0,1,.07-.08.67.67,0,0,1,.21-.18l.08,0,.16,0h0l.11.07,0,0v0h0a.3.3,0,0,1,.06.16.17.17,0,0,1,0,.14h0v.05h0l0,0-.08.08h0l0,.12h-.05a.37.37,0,0,1-.31,0,.29.29,0,0,1-.25-.19.28.28,0,0,1,0-.16Zm-3.58,4.77,0,0s0,0,0-.05a.28.28,0,0,1,.11-.07h0l.09,0h0a.19.19,0,0,1,.13.09h0l0,0a.19.19,0,0,1,0,.22l-.06,0h0v.14l-.06,0a.26.26,0,0,1-.27,0l0,0,0-.14v0a.25.25,0,0,1,0-.07l0,0Zm-1.38,9.47,0,0H153l.16.05V254a.26.26,0,0,1-.1.29l0,0h-.17l0,0C152.8,254.18,152.73,254.05,152.92,253.88Zm-.17-7.45,0-.25.06,0a.24.24,0,0,1,.23,0h.07l.06.16,0,0,0,.07a.27.27,0,0,1-.14.07.28.28,0,0,1-.19-.09h0Zm.35,12.36,0,0,.16,0,0,0a.21.21,0,0,1,0,.19h0l0,.17-.06,0a.2.2,0,0,1-.21,0A.22.22,0,0,1,153,259,.31.31,0,0,1,153.1,258.79Zm.26-7.66h0a.23.23,0,0,1,0-.09l0,0,0,0,0,0,0-.17,0,0v0s0-.06,0-.1v0l0-.06h0a.09.09,0,0,1,0-.05h0l0-.06h0a.43.43,0,0,1,.51.05h0l.08,0,0,0,.06.11v0s0,0,0,.06v.14l0,0c-.07.11-.13.19-.19.27l0,.06a.21.21,0,0,1-.1.12h0l-.13,0,0,0,0,0a.17.17,0,0,1-.15,0Zm-4.26-8.3a.53.53,0,0,1,.33-.17h0l.12,0,0,0a.25.25,0,0,0,.11.12l0,0,0,.15,0,0a.47.47,0,0,1-.07.12l-.06.06-.07.07h0l-.06,0h0a.35.35,0,0,1-.28-.08l0,0h0l-.17-.05v-.08A.42.42,0,0,1,149.1,242.83Zm-.61.71,0,0,.08,0h0l0,0,.18.06,0,.05,0,0a.34.34,0,0,1,.08.21v0l-.07.08a.55.55,0,0,1-.05.13l0,0-.12,0h0a.22.22,0,0,1-.17-.14v-.06a.18.18,0,0,1,0-.19Zm2.41-.71.73,2.84-3.9,4.33,1.32,5.12L151.9,252l.74,2.84L149.79,258l1.32,5.12,3.9-4.33.74,2.84-6,6.68-4.86-18.78Zm-4,18a.45.45,0,0,1,.2-.19l0,0h0l.09,0h0a.16.16,0,0,1,.1.05l0,0a.19.19,0,0,1,.09.05.27.27,0,0,1,.08.16.2.2,0,0,1,0,.12l0,.1,0,0a.34.34,0,0,1-.2.15v0l0,0a.18.18,0,0,1-.24,0l0,0H147l0-.06a.19.19,0,0,1,0-.08l-.07-.05,0-.05A.32.32,0,0,1,146.92,260.79Zm.34,5.7v0l0,0,.17-.06,0,0,.06,0a.22.22,0,0,1,.06.15.26.26,0,0,1-.1.18h0l0,.05-.24,0,0-.07A.27.27,0,0,1,147.26,266.49Zm-1.91-1.68a.2.2,0,0,1,.11-.12v0l0,0a.21.21,0,0,1,.23,0l0,.06h0v0l.15,0,0,.06a.27.27,0,0,1-.07.28l0,0-.14,0,0,0s0,0-.06,0l0,0-.09,0-.05,0,0,0a.26.26,0,0,1-.07-.12h0v-.12Zm-.11-10.33-.11-.08,0,0,0-.17,0,0a.24.24,0,0,1,.25-.08h0l.17.07v0l0,0c.12.13.13.25.05.35l0,0-.13,0,0,0A.61.61,0,0,1,145.24,254.48Zm.73,2.35a.22.22,0,0,1-.26,0h0a.37.37,0,0,1-.22-.09l-.06-.08v0l0-.1v0l0,0a.31.31,0,0,1,0-.19.23.23,0,0,1,.2-.12h0l.08,0h0a.16.16,0,0,1,.05.11l0,0v0l.1,0,0,.1s0,0,0,0l0,0,0,.05A.2.2,0,0,1,146,256.83Zm-1.44,11.27h0l0,.06v0a.36.36,0,0,1-.1.28l0,0v0h0l-.06.17h-.08a.4.4,0,0,1-.29-.12.52.52,0,0,1-.16-.33v0l.06-.12,0,0a.33.33,0,0,0,.13-.11l0,0,.15,0,0,0a.38.38,0,0,1,.12.09l.06.06Zm-.19-6.63,0,0,.09,0v.08c0,.21-.09.27-.21.32a.18.18,0,0,1-.2,0v0l0-.09v0a.16.16,0,0,1,0-.09v0l0-.13,0,0A.19.19,0,0,1,144.34,261.47Zm-.86-.82.08,0,0-.07,0,0a.25.25,0,0,1,.22,0h0l0,0a.21.21,0,0,1,.15,0,.27.27,0,0,1,.14.12v0l0,.15-.06,0a.87.87,0,0,1-.08.1l-.06.05V261l-.22.12-.05,0h0a.35.35,0,0,1-.24-.21l0,0Zm-1.71-6.74a.25.25,0,0,1,0-.07h0v-.16l0,0,0,0h0l0,0h0a.18.18,0,0,1,.18,0h0l.19.05,0,.07v0h0l.12.11v.18l-.1.1h-.09l0,0a.27.27,0,0,1-.42,0l0,0,0-.12ZM137.15,262l0,0h0l0-.17.1-.07a.35.35,0,0,1,.24,0h0l0,0h0l0,0h.06l.14,0,.09.16,0,.09h0l-.11.22h0a.29.29,0,0,1-.11.19.16.16,0,0,1-.09,0h0l-.06,0-.17-.08v-.05h0a.33.33,0,0,1-.17-.18v0ZM136,259.51h0l.24.05v0a.23.23,0,0,1,.21.05.35.35,0,0,1,.05.08v0l0,0,0,.18,0,0h0a.28.28,0,0,1-.13.21l0,0h-.13l0,0H136l-.09-.08a.29.29,0,0,1-.11-.22h0v0h0a0,0,0,0,1,0,0h0v-.18l.12-.14Zm-.5-1h.05a.22.22,0,0,1,.32.1l0,0,0,.14,0,0-.05,0a.27.27,0,0,1-.21,0,.25.25,0,0,1-.15-.14l0-.05Zm-.46,2.59h0l.07,0h0a.51.51,0,0,1,.32.13.38.38,0,0,1,.09.13v0a.23.23,0,0,1,0,.24.34.34,0,0,1-.13.28l0,0-.05,0a.16.16,0,0,1-.12,0h0a.14.14,0,0,1-.09,0,.18.18,0,0,1-.1,0h0l-.07-.05h0a.2.2,0,0,1-.06-.13A.41.41,0,0,1,135.08,261.06Zm-6.25,9.51h0c.06-.16.24-.13.32-.12h0l.12.14,0,.08h0a.21.21,0,0,1-.26.13h-.11l0,0A.17.17,0,0,1,128.83,270.57Zm-.86.54H128a.3.3,0,0,1,.22.1v0l0,0v.18l0,0s0,0-.06,0a.16.16,0,0,1-.15,0,.23.23,0,0,1-.15-.14h0l0-.05Zm-4.32,6.56h0a.2.2,0,0,1,.09-.15.31.31,0,0,1,.21,0h0l.15,0,.05,0a.57.57,0,0,1,.14.2l0,.05-.1.18h0l0,0a.4.4,0,0,1-.22.05.35.35,0,0,1-.14,0h-.06l-.1-.16v0a.13.13,0,0,0,0-.06.28.28,0,0,1,0-.13Zm-.86-4.92,0-.15.06,0a.47.47,0,0,1,.21,0s0,0,.06,0h0l0,0,.11.06v0l0,0,0,.14v0a.25.25,0,0,1-.2.15v0H123l0,0h-.1v0h0a.25.25,0,0,1-.06-.16l0,0Zm-4.57,4.17.06-.05a.26.26,0,0,1,.26,0h0l.13.12v0l0,0c.07.16.05.28-.07.36l0,0h-.14l0,0a.57.57,0,0,1-.13-.16s0-.07-.08-.12l0,0Zm-3.07,7a.29.29,0,0,1,.32,0l0,0,.06.16v.05c0,.07-.13.19-.37.09l0,0v-.06l0-.17Zm-3.53.81h0s0-.06,0-.09v0l.08-.11h0a.43.43,0,0,1,0-.07l0,0,.11,0h0l.32.07.08,0a.21.21,0,0,1,.15,0l0,0,0,.13v0l0,.05a.23.23,0,0,1,0,.16l0,.06h0l-.06.07,0,0a.07.07,0,0,0,0,.05v0l-.14.11h0l-.1,0h0l-.08,0h0l0,0h-.06l-.07,0h0A.45.45,0,0,1,111.62,284.69Zm-2.83,3.95a.34.34,0,0,1,0-.14l0-.06.18,0h.08a.5.5,0,0,1,.13,0h0a.2.2,0,0,1,.11.13.3.3,0,0,1,0,.21v0l0,.14-.06,0a.64.64,0,0,1-.23.09h0l-.15-.15v-.07A.35.35,0,0,1,108.79,288.64Zm-.2,9a.29.29,0,0,1,.22-.12h0l.14.08v.05c0,.08,0,.24-.21.31h0l-.15-.06,0,0s0,0,0,0A.23.23,0,0,1,108.59,297.6Zm-.14,3.36.11-.08h0a.48.48,0,0,1,.2.05l.14.05h0l.09.15,0,.07a.22.22,0,0,1-.21.15v0l-.18,0,0,0h0c-.16-.09-.21-.2-.16-.33Zm-1.52-8a.22.22,0,0,0,0-.08.41.41,0,0,1,.07-.3h0a.15.15,0,0,1,0-.07v0l.1-.06h0l0,0h0a.21.21,0,0,1-.06-.1.16.16,0,0,1,0-.15.19.19,0,0,1,.12-.09h.13l.13,0,.05,0,.07.06a.19.19,0,0,1,.11,0h0l.05.1v0a.3.3,0,0,1-.05.16.2.2,0,0,1,0,.12l0,.12v.06l-.08.15h0l0,.07-.1.08a.28.28,0,0,1-.06.14.35.35,0,0,1-.17.09l0,0-.05.05-.24-.09v0l-.08-.05h0l0-.12Zm-1.31-.38a.23.23,0,0,1,.2,0l.05,0,0,.2,0,0-.07.07h0l0,.05-.21,0,0,0a.23.23,0,0,1,0-.2A.22.22,0,0,1,105.62,292.53Zm-6,13h0l0-.08,0,0v-.24l.07-.1h0L100,305l.07,0a.17.17,0,0,1,.14-.06h0l.1.09v0a.09.09,0,0,1,0,.05.22.22,0,0,1,.1.13.13.13,0,0,1,0,.06h0s0,.06,0,.09v0l0,0,0,.05-.06.16,0,0h0l-.07.08h0l-.07,0h0l0,0h0l-.06,0h0A.42.42,0,0,1,99.63,305.57Zm1,5.54a.21.21,0,0,1-.2-.18v-.11a.21.21,0,0,1,.23-.1h.13l0,0a.21.21,0,0,1,0,.2A.26.26,0,0,1,100.66,311.11Zm.49-3.17,0,0a.32.32,0,0,1-.13.1.3.3,0,0,1-.09.08l0,.12,0,0v0l-.16.08h0l0,.05h-.13a.24.24,0,0,1-.13.08.36.36,0,0,1-.19,0h-.11l-.14-.21,0,0a.25.25,0,0,1,0-.07v0l0-.13,0,0,.05-.06a.47.47,0,0,1,.22-.19h0l.06,0h.14l0,0h0a.25.25,0,0,1,0-.12.27.27,0,0,1,.1-.11.22.22,0,0,1,.16,0,.28.28,0,0,1,.1.09l.12,0,0,0,0,.09a.22.22,0,0,1,.07.09v0Zm2.53,13.14a.23.23,0,0,1,0,.16v0l-.12.07h-.22a.17.17,0,0,1-.18-.13.14.14,0,0,1,0-.15h0v0h0l0-.05a.22.22,0,0,1,0-.18.19.19,0,0,1,.1-.06l.08,0a.23.23,0,0,1,.21.07h0l.11.05,0,.07a.21.21,0,0,1,0,.18Zm.55-3.84,0,.08-.18,0,0,0-.06-.07,0,0,0,0,0-.15,0,0a.2.2,0,0,1,.26-.08.26.26,0,0,1,.13.3Zm1.48,3v0a.18.18,0,0,1-.1.11h0a.43.43,0,0,1,0,.07l0,0a.18.18,0,0,1,0,.07l0,0h-.16l0,0a.36.36,0,0,1-.07-.1l0,0a.25.25,0,0,1,0-.22v0l0-.08v0a.19.19,0,0,1,0-.08.23.23,0,0,1,.08-.12v0l0,0,.13-.1.3.12.06.18,0,.06,0,.09Zm4.51-9.46a9.54,9.54,0,0,1-2,3.92,3.06,3.06,0,0,1-2.71,1.32c-.88-.14-1.48-.84-1.8-2.08L101,303.72a8.26,8.26,0,0,1,.16-4.27,9.33,9.33,0,0,1,2-3.94,3,3,0,0,1,2.71-1.32c.87.16,1.47.86,1.79,2.1l.55,2.14-2.19,2.43-.56-2.2c-.12-.45-.34-.7-.66-.76a1.12,1.12,0,0,0-1,.48,3.41,3.41,0,0,0-.74,1.43,3,3,0,0,0-.05,1.54l2.65,10.28c.12.44.34.7.65.75a1.13,1.13,0,0,0,1-.48,3.43,3.43,0,0,0,.74-1.42,3,3,0,0,0,.06-1.55l-.67-2.59,2.19-2.43.68,2.62A8.37,8.37,0,0,1,110.22,310.8Zm-4.17-1.07v-.24h0a.2.2,0,0,1,.1-.12h0l.16-.06a.38.38,0,0,1,.17.05h0l.16.09,0,.06s0,0,0,0a.25.25,0,0,1,0,.07.38.38,0,0,1,0,.15v0l-.09.1h0a.34.34,0,0,1-.09.13v0l-.09,0h0a.42.42,0,0,1-.14,0l0,0h-.08l-.12-.06,0-.06h0a.66.66,0,0,1,0-.13v0Zm.73-1.2-.21.05-.16-.18,0-.06v-.07l.09-.16h0a.23.23,0,0,1,.27.19s0,0,0,0v0Zm0-5.65h0l0-.07v0a.16.16,0,0,1,0-.15.24.24,0,0,1,.18-.1h0l0,0,.18.08v.05a.22.22,0,0,1-.08.23A.26.26,0,0,1,106.79,302.88Zm-2.21-2.17v0a.21.21,0,0,1,.14-.12.2.2,0,0,1,.11,0h.1a.23.23,0,0,1,.13.18h0l.07.1,0,.07a.25.25,0,0,1-.12.14l0,.05a.19.19,0,0,1-.1.12h-.17l0,0a.45.45,0,0,1-.07-.07h-.08a.18.18,0,0,1-.08-.21.17.17,0,0,1,.12-.11h0v-.05Zm6.29,2.21-.13.18h-.06a.16.16,0,0,1-.13,0,.77.77,0,0,1-.19,0l-.11,0h0l-.16-.07,0-.07h0a.06.06,0,0,1,0,0l0,0,0,0,0-.05v0l0-.05v-.05a.26.26,0,0,1,0-.11v0l.06-.09,0,0a.45.45,0,0,1,.14-.06.18.18,0,0,1,.14-.05h0l0,0,.18.05,0,0a.6.6,0,0,0,.16.19l0,0,.05,0a.18.18,0,0,1,.13.13.22.22,0,0,1,0,.2Zm1.47,5.43h0l-.06.05h0l-.07.15h0l0,0h0l0,0h0a.18.18,0,0,1-.17-.07h0l-.14-.14v-.1h0l0-.16.09-.16.13,0,.08,0h0a.2.2,0,0,1,.11,0,.31.31,0,0,1,.27.22v.05Zm3.42.58a.08.08,0,0,1,0,0h0v0h0v.11h0v.07l0,0a.18.18,0,0,1-.22,0h0l0-.07,0-.05a.2.2,0,0,1-.19,0,.18.18,0,0,1,0-.16l-.08,0,0,0-.06-.09v0a.32.32,0,0,1,0-.14.2.2,0,0,1,0-.08l0,0,0-.06.16-.07.18.07.07.07v0a.18.18,0,0,1,.08.07h0l0,0a.18.18,0,0,1,.08.17h0a.24.24,0,0,1,.07.15h0Zm2.23-2.52a.19.19,0,0,1-.32.13h0l-.09,0,0-.07h0a.18.18,0,0,1,.12-.22h0l.1,0,.16.09v.06l0,.05Zm.77-5.13a9.51,9.51,0,0,1-2,3.94,3,3,0,0,1-2.71,1.31c-.88-.16-1.47-.85-1.79-2.09l-2.65-10.24a8.41,8.41,0,0,1,.16-4.28,9.39,9.39,0,0,1,2-3.93,3.08,3.08,0,0,1,2.72-1.32c.88.16,1.47.85,1.79,2.09L118.92,297A8.41,8.41,0,0,1,118.76,301.28Zm-1.43-14v0a.15.15,0,0,1,.11-.11.22.22,0,0,1,.2,0h0l.11.17,0,.05a.2.2,0,0,1-.2.14.27.27,0,0,1-.24-.15v-.11Zm1,5.11,0-.13,0,0a.22.22,0,0,1,.21-.06h0l0,0a.23.23,0,0,1,.18.09l.13.1v.06s0,.06,0,.08a0,0,0,0,0,0,0v.05l-.16.11h-.09a.35.35,0,0,1-.22-.06l0,0,0-.11a.23.23,0,0,1-.08-.12Zm.83,1.32v0l-.12.07h0a.33.33,0,0,0-.17,0h0l-.15-.05,0,0a.49.49,0,0,1-.06-.13.28.28,0,0,1,0-.09s0-.06,0-.1v-.09h0a.36.36,0,0,1,.24-.19l0,0v0h0L119,293l.06.05a.37.37,0,0,1,.19.25A.54.54,0,0,1,119.18,293.69Zm.83.61,0,.06-.1.06h-.12l-.14.08,0,0h-.12a.19.19,0,0,1-.11-.15h0l0-.2.05-.06v0h0l.06-.16.16-.08.13,0,0,.08h0l.12,0A.32.32,0,0,1,120,294.3Zm.81,6.89v.13l-.13.1h0l-.12,0h0a.29.29,0,0,1-.18-.16h0l-.08,0,0,0,0-.08a.4.4,0,0,1,0-.15h0v-.06l0-.16.31-.08.16.11v.07l.09,0,0,0,0,0a.26.26,0,0,1,0,.15h0a.25.25,0,0,1,0,.08Zm4.86-5.18,0,0a.17.17,0,0,1-.18.08.22.22,0,0,1-.16-.15v0h0l-.06-.08,0-.07h0a.2.2,0,0,1,.23-.12h0l.11,0,.07.17,0,.06Zm2.42-1.49a.19.19,0,0,1-.16.06l-.06,0,0,0-.06,0-.14,0,.08-.05,0-.08a.44.44,0,0,1,0-.27l0-.05.18-.06,0,0a.27.27,0,0,1,.11.16h0l.09.07v0A.22.22,0,0,1,128.1,294.52Zm1.63-4-3-11.8,1.21,13.83-1.69,1.89-5.09-9.5,1.4,5.42.08,0,0,.09a.15.15,0,0,1,.11.11.19.19,0,0,1,0,.16v.1l0,0h0v0s0,0,0,0l1.5,5.81L122,299l-4.86-18.78,3-3.37,5.45,11.31-1.6-15.59,2.92-3.23,4.85,18.77Zm1.32-8.85,0-.1a.23.23,0,0,1,0-.14v0l.1-.08h0a.2.2,0,0,1,.2.07l0,0v0a.2.2,0,0,1,.09.18l.05.15,0,.05-.06.06,0,0,0,0h-.2l0,0,0,0a.32.32,0,0,1-.15-.17Zm3.61,5.27a.22.22,0,0,1-.1.2h0a.19.19,0,0,1-.09.17.22.22,0,0,1-.21,0,.21.21,0,0,1-.13-.16v0l0,0a.08.08,0,0,0,0,0h0l0,0v-.05l0-.14,0,0a.33.33,0,0,1,.37,0l.06,0,.06.11Zm-.77-1L129,267.12l3.33-3.7c1-1.14,2-1.62,2.79-1.43s1.34.95,1.67,2.23l.71,2.73a8.39,8.39,0,0,1-.15,4.25,9.18,9.18,0,0,1-2,3.91l-1.22,1.36,1.83,7.07Zm2.74-9.33h-.09l0,0-.18,0,0,0a.23.23,0,0,1,.11-.32l0,0,0,0,.16.05.12.18Zm1.21,5.88,0,0h-.14l0,0a.33.33,0,0,0-.16-.07l0,0-.09-.12v0a.52.52,0,0,1,0-.14.36.36,0,0,0,0-.09.19.19,0,0,0,0-.09h0l0-.06h0a.36.36,0,0,1,.3,0h.2l0,.07a.44.44,0,0,1,0,.32A.54.54,0,0,1,137.84,282.43Zm.37-6.5-.05.07h0a.18.18,0,0,1-.16,0,.25.25,0,0,1-.14-.15h0l0,0,0-.2,0,0a.2.2,0,0,1,.24,0,.28.28,0,0,1,.1.27Zm.45-3.59a.19.19,0,0,1-.13,0l0,0h0l-.05.08h-.14l0,0h-.05a.21.21,0,0,1-.2-.12.23.23,0,0,1,.08-.25h0a.32.32,0,0,1,.14-.19l.1,0h0l.11,0v0a0,0,0,0,1,0,0,.26.26,0,0,1,.19,0,.23.23,0,0,1,.07.23v0l0,.06Zm.47,7.67-.08.14H139a.29.29,0,0,1-.27-.18l0,0,.05-.16,0,0c.07,0,.22-.07.34.16l0,0Zm0-13h0v.12l0,0a.22.22,0,0,1-.14.05.33.33,0,0,1-.12,0h-.06l0,0-.08-.05,0,0h0l-.07,0h-.05l0,0-.08-.12v0a.19.19,0,0,1,0-.09h0v-.05a.26.26,0,0,1,.06-.3h0a.18.18,0,0,1,.18-.11h.22l.1,0H139l.09.05v0l0,0h0l0,.05,0,.06h0l0,0A.23.23,0,0,1,139.13,267Zm2.2,10.53a.17.17,0,0,1-.12.11s0,0,0,0l0,.05h0l0,0a.21.21,0,0,1-.17.08.25.25,0,0,1-.18-.11h0v0l0-.14,0,0v0a.34.34,0,0,1,0-.1v-.05h0v-.05a.24.24,0,0,1,0-.12.18.18,0,0,1,.05-.07l0,0,.12,0v0l.17,0,0,.07h0a.19.19,0,0,1,.13.07h0l.13.05,0,.08A.17.17,0,0,1,141.33,277.55Zm-3.81-19.85,2.11-2.35,2.27,8.78h0l0,0,.15,0,0,0a.18.18,0,0,1-.12.3l1.76,6.82,3.65-4.05.73,2.82-5.76,6.39Zm7.14,19.42h0l-.11,0h0a.31.31,0,0,1-.3-.15s0-.05,0-.05l-.07,0v-.13h0a.28.28,0,0,1,0-.14.27.27,0,0,1,.05-.12v-.11l.1-.07.09,0a.75.75,0,0,1,.14-.12.33.33,0,0,1,.33,0,.18.18,0,0,1,.09.1c.14.08.15.18.13.25v0l0,0v0l0,.05a.24.24,0,0,1,0,.17v0l-.07.05a.26.26,0,0,1-.13.22l-.05,0Z" style="fill:#FE3E55"></path><polygon points="99.82 322.83 99.83 322.85 99.82 322.81 99.82 322.83" style="fill:#FE3E55"></polygon><path d="M149.42,276.06a.25.25,0,0,0,.17,0,.25.25,0,0,0,.11-.17v-.05l-.11-.1-.27.29Z" style="fill:#FE3E55"></path></g></g><g id="freepik--Gears--inject-10"><g id="freepik--gears--inject-10"><g id="freepik--gears--inject-10"><path d="M211.51,417.37l0,6.87h0a.7.7,0,0,0,.32.52l6.27,4.51a.84.84,0,0,1,.11,1.29c-.91,1-1.67-.33-2.25.74a1.92,1.92,0,0,1-1.43.94l-10.54.67a1.07,1.07,0,0,0-1,1v8.25a1.08,1.08,0,0,0,1,1.05l10.54.66a2,2,0,0,1,1.42.95,14.74,14.74,0,0,0,1.11,1.72l-5.59.85,0,6.88h0a.65.65,0,0,0,.37.52l7.91,4.57a2.14,2.14,0,0,0,1.75.08l8-3.72a3,3,0,0,1,1.84-.1,49.07,49.07,0,0,0,6.22,1.48,1.51,1.51,0,0,1,1.16,1.12l1,5.28a1.24,1.24,0,0,0,1.17,1H252.6a1.25,1.25,0,0,0,1.18-1l1-5.28a1.54,1.54,0,0,1,1.16-1.13,45.87,45.87,0,0,0,6.22-1.48,3,3,0,0,1,1.84.11l8,3.72a2.14,2.14,0,0,0,1.75-.08l7.91-4.57a.63.63,0,0,0,.36-.53h0l0-6.87-5.25-1.27a13.79,13.79,0,0,0,.8-1.3,1.92,1.92,0,0,1,1.43-.94l10.54-.67a1.07,1.07,0,0,0,1-1.05V434a1.07,1.07,0,0,0-1-1L279,434.61a2,2,0,0,1-1.43-.94,15.12,15.12,0,0,0-2.24-3.11.85.85,0,0,1,.12-1.29l6.27-4.51a.63.63,0,0,0,.31-.53h0l0-6.86-8.28-.61a2.14,2.14,0,0,0-1.75-.08l-8,6.08a1.76,1.76,0,0,1-1.66-.21,18.64,18.64,0,0,0-6.81-3.16,1.61,1.61,0,0,1-1.15-1.16l-.61-3.25a1.24,1.24,0,0,0-1.17-1H241a1.25,1.25,0,0,0-1.17,1l-.66,3.48a1.63,1.63,0,0,1-1.15,1.16,26.27,26.27,0,0,0-6.68,3,2,2,0,0,1-1.73.12l-8-6.08a2.14,2.14,0,0,0-1.75.08l-5.32-.92Zm48.63,11.82c7.38,4.26,7.05,9.74-.33,14s-19.47,4.2-26.85-.06-6.93-9.68.45-13.94S252.76,424.92,260.14,429.19Z" style="fill:#FE3E55"></path><path d="M211.51,417.37l0,6.87h0a.7.7,0,0,0,.32.52l6.27,4.51a.84.84,0,0,1,.11,1.29c-.91,1-1.67-.33-2.25.74a1.92,1.92,0,0,1-1.43.94l-10.54.67a1.07,1.07,0,0,0-1,1v8.25a1.08,1.08,0,0,0,1,1.05l10.54.66a2,2,0,0,1,1.42.95,14.74,14.74,0,0,0,1.11,1.72l-5.59.85,0,6.88h0a.65.65,0,0,0,.37.52l7.91,4.57a2.14,2.14,0,0,0,1.75.08l8-3.72a3,3,0,0,1,1.84-.1,49.07,49.07,0,0,0,6.22,1.48,1.51,1.51,0,0,1,1.16,1.12l1,5.28a1.24,1.24,0,0,0,1.17,1H252.6a1.25,1.25,0,0,0,1.18-1l1-5.28a1.54,1.54,0,0,1,1.16-1.13,45.87,45.87,0,0,0,6.22-1.48,3,3,0,0,1,1.84.11l8,3.72a2.14,2.14,0,0,0,1.75-.08l7.91-4.57a.63.63,0,0,0,.36-.53h0l0-6.87-5.25-1.27a13.79,13.79,0,0,0,.8-1.3,1.92,1.92,0,0,1,1.43-.94l10.54-.67a1.07,1.07,0,0,0,1-1.05V434a1.07,1.07,0,0,0-1-1L279,434.61a2,2,0,0,1-1.43-.94,15.12,15.12,0,0,0-2.24-3.11.85.85,0,0,1,.12-1.29l6.27-4.51a.63.63,0,0,0,.31-.53h0l0-6.86-8.28-.61a2.14,2.14,0,0,0-1.75-.08l-8,6.08a1.76,1.76,0,0,1-1.66-.21,18.64,18.64,0,0,0-6.81-3.16,1.61,1.61,0,0,1-1.15-1.16l-.61-3.25a1.24,1.24,0,0,0-1.17-1H241a1.25,1.25,0,0,0-1.17,1l-.66,3.48a1.63,1.63,0,0,1-1.15,1.16,26.27,26.27,0,0,0-6.68,3,2,2,0,0,1-1.73.12l-8-6.08a2.14,2.14,0,0,0-1.75.08l-5.32-.92Zm48.63,11.82c7.38,4.26,7.05,9.74-.33,14s-19.47,4.2-26.85-.06-6.93-9.68.45-13.94S252.76,424.92,260.14,429.19Z" style="fill:#fff;opacity:0.30000000000000004"></path><path d="M269.84,423l1.58,12.39.53,11.05,8.49-.1-3.66-.18a13.79,13.79,0,0,0,.8-1.3,1.92,1.92,0,0,1,1.43-.94l10.54-.67a1.07,1.07,0,0,0,1-1.05V434a1.07,1.07,0,0,0-1-1L279,434.61a2,2,0,0,1-1.43-.94,15.12,15.12,0,0,0-2.24-3.11.85.85,0,0,1,.12-1.29l6.27-4.51a.63.63,0,0,0,.31-.53h0l0-6.86-3.91-.29Z" style="opacity:0.1"></path><path d="M236.44,421.06l-13.23,7.63L221.7,437l6,.06c-.4-2.73,1.55-5.49,5.71-7.89,7.38-4.27,19.35-4.27,26.73,0,4.32,2.49,6,5.41,5.14,8.26l4.35,0s-2.52-11.07-6.82-14.34S236.44,421.06,236.44,421.06Z" style="opacity:0.1"></path><path d="M207.5,432.69l-3.49.22a1.07,1.07,0,0,0-1,1v8.25a1.08,1.08,0,0,0,1,1.05l10.54.66a2,2,0,0,1,.52.15l0-9.92Z" style="fill:#FE3E55"></path><path d="M263.2,455.59a2.36,2.36,0,0,1,.8.18l8,3.72a2,2,0,0,0,.71.14l0-7.46-9.52-5.58Z" style="fill:#FE3E55"></path><path d="M240,463.94a1.23,1.23,0,0,0,1,.58H252.6a1.22,1.22,0,0,0,.71-.25l0-8.16L240,454.61Z" style="fill:#FE3E55"></path><path d="M221,459.62v-9.53L214,446l-2.46,1.42,0,6.88h0a.65.65,0,0,0,.37.52l7.91,4.57A2.15,2.15,0,0,0,221,459.62Z" style="fill:#FE3E55"></path><path d="M211.51,417.37h0a.64.64,0,0,0,.31.54l6.27,4.51a.84.84,0,0,1,.12,1.28c-.64.69-1.85,3.33-2.75,3.67l-3.62-2.6a.69.69,0,0,1-.31-.53h0Z" style="fill:#FE3E55"></path><g style="opacity:0.7000000000000001"><path d="M207.5,432.69l-3.49.22a1.07,1.07,0,0,0-1,1v8.25a1.08,1.08,0,0,0,1,1.05l10.54.66a2,2,0,0,1,.52.15l0-9.92Z" style="fill:#fff"></path><path d="M214.7,443.55v-9.08l-7.22-1.39-3.43.22a.67.67,0,0,0-.62.66v8.25a.68.68,0,0,0,.62.66l10.55.67Z" style="fill:#fff"></path><path d="M263.2,455.59a2.36,2.36,0,0,1,.8.18l8,3.72a2,2,0,0,0,.71.14l0-7.46-9.52-5.58Z" style="fill:#fff"></path><path d="M272.34,459.19l0-6.8-8.74-5.12v8a2.57,2.57,0,0,1,.57.17l8,3.72Z" style="fill:#fff"></path><path d="M240,463.94a1.23,1.23,0,0,0,1,.58H252.6a1.22,1.22,0,0,0,.71-.25l0-8.16L240,454.61Z" style="fill:#fff"></path><path d="M221,459.62v-9.53L214,446l-2.46,1.42,0,6.88h0a.65.65,0,0,0,.37.52l7.91,4.57A2.15,2.15,0,0,0,221,459.62Z" style="fill:#fff"></path><path d="M220.64,459.24v-8.93L214,446.47l-2.07,1.2,0,6.65c0,.05.07.13.18.19l7.91,4.56A1.33,1.33,0,0,0,220.64,459.24Z" style="fill:#fff"></path><path d="M211.51,417.37h0a.64.64,0,0,0,.31.54l6.27,4.51a.84.84,0,0,1,.12,1.28c-.64.69-1.91,3.38-2.75,3.67l-3.62-2.6a.69.69,0,0,1-.31-.53h0Z" style="fill:#fff"></path><path d="M215.5,426.91a10.17,10.17,0,0,0,1.5-2.08,10.56,10.56,0,0,1,.93-1.39.45.45,0,0,0,.14-.38.42.42,0,0,0-.2-.32l-6-4.3,0,5.13h0v.67c0,.05,0,.13.16.21Z" style="fill:#fff"></path></g><path d="M219.79,412.27l-7.91,4.57a.59.59,0,0,0,0,1.07l6.27,4.51a.83.83,0,0,1,.11,1.28,15.44,15.44,0,0,0-2.23,3.11,1.92,1.92,0,0,1-1.43.94l-10.54.67a1.07,1.07,0,0,0-1,1.05v5.88a1.06,1.06,0,0,0,1,1l10.54.67A2,2,0,0,1,216,438a15.44,15.44,0,0,0,2.23,3.11.84.84,0,0,1-.11,1.29l-6.27,4.51a.59.59,0,0,0,0,1.07l7.91,4.56a2.1,2.1,0,0,0,1.75.08l8-3.71a3,3,0,0,1,1.84-.11,49.07,49.07,0,0,0,6.22,1.48,1.51,1.51,0,0,1,1.16,1.12l1,5.29a1.26,1.26,0,0,0,1.18,1h11.63a1.25,1.25,0,0,0,1.17-1l1-5.29a1.51,1.51,0,0,1,1.16-1.12,49.07,49.07,0,0,0,6.22-1.48,2.9,2.9,0,0,1,1.84.11l8,3.71a2.1,2.1,0,0,0,1.75-.08l7.91-4.56a.59.59,0,0,0,0-1.07l-6.27-4.51a.84.84,0,0,1-.11-1.29,15.91,15.91,0,0,0,2.24-3.11,1.92,1.92,0,0,1,1.42-.94l10.54-.67a1.07,1.07,0,0,0,1-1v-5.88a1.08,1.08,0,0,0-1-1.05L279,427.75a2,2,0,0,1-1.43-.94,15.44,15.44,0,0,0-2.23-3.11.83.83,0,0,1,.11-1.28l6.27-4.51a.59.59,0,0,0,0-1.07l-7.91-4.57a2.14,2.14,0,0,0-1.75-.08l-8,3.71a2.9,2.9,0,0,1-1.84.11,49.07,49.07,0,0,0-6.22-1.48,1.51,1.51,0,0,1-1.16-1.12l-1-5.29a1.25,1.25,0,0,0-1.17-1H241a1.26,1.26,0,0,0-1.17,1l-1,5.29a1.51,1.51,0,0,1-1.16,1.12A49.07,49.07,0,0,0,231.4,416a2.9,2.9,0,0,1-1.84-.11l-8-3.71A2.14,2.14,0,0,0,219.79,412.27Zm40.34,12.43c7.38,4.26,7.38,11.17,0,15.43s-19.34,4.26-26.72,0-7.38-11.17,0-15.43S252.75,420.43,260.13,424.7Z" style="fill:#FE3E55"></path><g style="opacity:0.55"><path d="M219.79,412.27l-7.91,4.57a.59.59,0,0,0,0,1.07l6.27,4.51a.83.83,0,0,1,.11,1.28,15.44,15.44,0,0,0-2.23,3.11,1.92,1.92,0,0,1-1.43.94l-10.54.67a1.07,1.07,0,0,0-1,1.05v5.88a1.06,1.06,0,0,0,1,1l10.54.67A2,2,0,0,1,216,438a15.44,15.44,0,0,0,2.23,3.11.84.84,0,0,1-.11,1.29l-6.27,4.51a.59.59,0,0,0,0,1.07l7.91,4.56a2.1,2.1,0,0,0,1.75.08l8-3.71a3,3,0,0,1,1.84-.11,49.07,49.07,0,0,0,6.22,1.48,1.51,1.51,0,0,1,1.16,1.12l1,5.29a1.26,1.26,0,0,0,1.18,1h11.63a1.25,1.25,0,0,0,1.17-1l1-5.29a1.51,1.51,0,0,1,1.16-1.12,49.07,49.07,0,0,0,6.22-1.48,2.9,2.9,0,0,1,1.84.11l8,3.71a2.1,2.1,0,0,0,1.75-.08l7.91-4.56a.59.59,0,0,0,0-1.07l-6.27-4.51a.84.84,0,0,1-.11-1.29,15.91,15.91,0,0,0,2.24-3.11,1.92,1.92,0,0,1,1.42-.94l10.54-.67a1.07,1.07,0,0,0,1-1v-5.88a1.08,1.08,0,0,0-1-1.05L279,427.75a2,2,0,0,1-1.43-.94,15.44,15.44,0,0,0-2.23-3.11.83.83,0,0,1,.11-1.28l6.27-4.51a.59.59,0,0,0,0-1.07l-7.91-4.57a2.14,2.14,0,0,0-1.75-.08l-8,3.71a2.9,2.9,0,0,1-1.84.11,49.07,49.07,0,0,0-6.22-1.48,1.51,1.51,0,0,1-1.16-1.12l-1-5.29a1.25,1.25,0,0,0-1.17-1H241a1.26,1.26,0,0,0-1.17,1l-1,5.29a1.51,1.51,0,0,1-1.16,1.12A49.07,49.07,0,0,0,231.4,416a2.9,2.9,0,0,1-1.84-.11l-8-3.71A2.14,2.14,0,0,0,219.79,412.27Zm40.34,12.43c7.38,4.26,7.38,11.17,0,15.43s-19.34,4.26-26.72,0-7.38-11.17,0-15.43S252.75,420.43,260.13,424.7Z" style="fill:#fff"></path></g><g style="opacity:0.2"><path d="M260.33,424.36c-7.48-4.32-19.64-4.32-27.12,0-3.69,2.13-5.73,5-5.73,8.05s2,5.92,5.73,8c7.48,4.32,19.64,4.32,27.12,0,3.69-2.13,5.73-5,5.73-8a7.22,7.22,0,0,0-1-3.65A12.53,12.53,0,0,0,260.33,424.36Zm-.2,15.77c-7.38,4.26-19.34,4.26-26.72,0s-7.38-11.17,0-15.43,19.34-4.27,26.72,0S267.51,435.87,260.13,440.13Z" style="fill:#fff"></path><path d="M290.52,435.35v-5.88a1.08,1.08,0,0,0-1-1.05L279,427.75a2,2,0,0,1-1.43-.94,15.44,15.44,0,0,0-2.23-3.11.83.83,0,0,1,.11-1.28l6.27-4.51a.59.59,0,0,0,0-1.07l-7.91-4.57a2.14,2.14,0,0,0-1.75-.08l-8,3.71a2.9,2.9,0,0,1-1.84.11,49.07,49.07,0,0,0-6.22-1.48,1.51,1.51,0,0,1-1.16-1.12l-1-5.29a1.25,1.25,0,0,0-1.17-1H241a1.26,1.26,0,0,0-1.17,1l-1,5.29a1.51,1.51,0,0,1-1.16,1.12A49.07,49.07,0,0,0,231.4,416a2.9,2.9,0,0,1-1.84-.11l-8-3.71a2.14,2.14,0,0,0-1.75.08l-7.91,4.57a.59.59,0,0,0,0,1.07l6.27,4.51a.83.83,0,0,1,.11,1.28,15.44,15.44,0,0,0-2.23,3.11,1.92,1.92,0,0,1-1.43.94l-10.54.67a1.07,1.07,0,0,0-1,1.05v5.88a1.06,1.06,0,0,0,1,1l10.54.67A2,2,0,0,1,216,438a15.44,15.44,0,0,0,2.23,3.11.84.84,0,0,1-.11,1.29l-6.27,4.51a.59.59,0,0,0,0,1.07l7.91,4.56a2.1,2.1,0,0,0,1.75.08l8-3.71a3,3,0,0,1,1.84-.11,49.07,49.07,0,0,0,6.22,1.48,1.51,1.51,0,0,1,1.16,1.12l1,5.29a1.26,1.26,0,0,0,1.18,1h11.63a1.25,1.25,0,0,0,1.17-1l1-5.29a1.51,1.51,0,0,1,1.16-1.12,49.07,49.07,0,0,0,6.22-1.48,2.9,2.9,0,0,1,1.84.11l8,3.71a2.1,2.1,0,0,0,1.75-.08l7.91-4.56a.59.59,0,0,0,0-1.07l-6.27-4.51a.84.84,0,0,1-.11-1.29,15.91,15.91,0,0,0,2.24-3.11,1.92,1.92,0,0,1,1.42-.94l10.54-.67A1.07,1.07,0,0,0,290.52,435.35Zm-1,.66-10.54.67a2.36,2.36,0,0,0-1.75,1.15,15.49,15.49,0,0,1-2.18,3,1.24,1.24,0,0,0-.34,1,1.08,1.08,0,0,0,.15.47,1.27,1.27,0,0,0,.37.4l6.26,4.51a.3.3,0,0,1,.16.22c0,.06-.07.14-.18.2l-7.91,4.57a1.73,1.73,0,0,1-1.39.06l-8-3.72a3.31,3.31,0,0,0-2.11-.12,48.12,48.12,0,0,1-6.18,1.47,1.89,1.89,0,0,0-1.47,1.43l-1,5.29a.85.85,0,0,1-.79.65H241a.83.83,0,0,1-.79-.65l-1-5.29a1.93,1.93,0,0,0-1.47-1.44,46.51,46.51,0,0,1-6.18-1.46,3.25,3.25,0,0,0-2.11.13l-8,3.71a1.73,1.73,0,0,1-1.39-.06l-7.91-4.57c-.11-.06-.18-.14-.18-.2a.31.31,0,0,1,.16-.22l6.27-4.51a1.21,1.21,0,0,0,.17-1.86,15.61,15.61,0,0,1-2.18-3,2.29,2.29,0,0,0-1.74-1.15L204,436a.68.68,0,0,1-.62-.66v-5.88a.68.68,0,0,1,.62-.66l10.55-.67a2.32,2.32,0,0,0,1.74-1.15,15.56,15.56,0,0,1,2.18-3,1.27,1.27,0,0,0,.34-1,1.22,1.22,0,0,0-.52-.87l-6.26-4.51a.29.29,0,0,1-.16-.22c0-.06.07-.14.18-.2L220,412.6a1.81,1.81,0,0,1,1.39-.06l8,3.72a3.31,3.31,0,0,0,2.11.12,48.12,48.12,0,0,1,6.18-1.46,1.92,1.92,0,0,0,1.47-1.44l1-5.28a.83.83,0,0,1,.78-.66h11.64a.85.85,0,0,1,.79.66l1,5.28a1.92,1.92,0,0,0,1.47,1.44,48.12,48.12,0,0,1,6.18,1.46,3.31,3.31,0,0,0,2.11-.12l8-3.72a1.81,1.81,0,0,1,1.39.06l7.91,4.57c.11.06.18.14.18.2a.3.3,0,0,1-.15.22l-6.27,4.51a1.22,1.22,0,0,0-.52.87,1.27,1.27,0,0,0,.34,1,15.15,15.15,0,0,1,2.18,3,2.36,2.36,0,0,0,1.74,1.15l10.55.67a.68.68,0,0,1,.62.66v5.88A.68.68,0,0,1,289.51,436Z" style="fill:#fff"></path></g><path d="M139.67,409.63h0a.84.84,0,0,0,.52.74l4.67,2.35a1.26,1.26,0,0,1,.54,1.71,8.12,8.12,0,0,0-.48,1.26,2.17,2.17,0,0,1-1.54,1.48l-7.28-3.81v6h0a1.12,1.12,0,0,0,0,.36l1,3.22a1.77,1.77,0,0,0,1.68,1.18l6.65-.27a3.26,3.26,0,0,1,2.15.92c0,.05.1.09.14.14a7.06,7.06,0,0,0-1.32.45v6h0a.83.83,0,0,0,.6.77l5.82,2.33a2.77,2.77,0,0,0,2.28-.23l3.91-2.6a3.69,3.69,0,0,1,2.35-.47c1.24.22,2.5.37,3.76.47a2.54,2.54,0,0,1,1.89,1.22l1.45,2.83a2,2,0,0,0,1.87,1l7.28-.76a1.25,1.25,0,0,0,1.13-1.24h0v-4a1.46,1.46,0,0,1,.74-.53,30.1,30.1,0,0,0,3-1.12,4.06,4.06,0,0,1,2.41-.16l5.66,1.78a2.65,2.65,0,0,0,2.23-.44l3.71-3.09a.91.91,0,0,0,.37-.67h0v-6l-5.19,2.93a1.28,1.28,0,0,1-.54-1.72,8.8,8.8,0,0,0,.48-1.26,2.17,2.17,0,0,1,1.54-1.48l6.33-1.08a1.1,1.1,0,0,0,.94-1.05h0v-6l-4.06.71-5.33.76a3.26,3.26,0,0,1-2.15-.92,17,17,0,0,0-1.59-1.42,1.11,1.11,0,0,1-.17-1.7l2.64-2.81a1,1,0,0,0,.29-.65h0v-6l-4.54,3.67-1.88-.75a2.77,2.77,0,0,0-2.28.23l-3.91,2.6a3.65,3.65,0,0,1-2.35.47c-1.24-.21-2.3-1-3.56-1.11-.72-.05-1.76.05-2.09-.58l-1.45-2.82a2,2,0,0,0-1.88-1l-7.27.76a1.26,1.26,0,0,0-1.13,1.42l.33,2.76a1.57,1.57,0,0,1-1.08,1.64,30.29,30.29,0,0,0-3,1.12,4,4,0,0,1-2.4.16L146,405.42a2.66,2.66,0,0,0-1.66.12l-4.66-1.89Zm36.59,1.77c6.3,2.53,7.87,7.53,3.49,11.17s-12.73,3.42-19,.89-8.17-6.4-3.8-10S170,408.88,176.26,411.4Z" style="fill:#FE3E55"></path><path d="M139.67,409.63h0a.84.84,0,0,0,.52.74l4.67,2.35a1.26,1.26,0,0,1,.54,1.71,8.12,8.12,0,0,0-.48,1.26,2.17,2.17,0,0,1-1.54,1.48l-7.28-3.81v6h0a1.12,1.12,0,0,0,0,.36l1,3.22a1.77,1.77,0,0,0,1.68,1.18l6.65-.27a3.26,3.26,0,0,1,2.15.92c0,.05.1.09.14.14a7.06,7.06,0,0,0-1.32.45v6h0a.83.83,0,0,0,.6.77l5.82,2.33a2.77,2.77,0,0,0,2.28-.23l3.91-2.6a3.69,3.69,0,0,1,2.35-.47c1.24.22,2.5.37,3.76.47a2.54,2.54,0,0,1,1.89,1.22l1.45,2.83a2,2,0,0,0,1.87,1l7.28-.76a1.25,1.25,0,0,0,1.13-1.24h0v-4a1.46,1.46,0,0,1,.74-.53,30.1,30.1,0,0,0,3-1.12,4.06,4.06,0,0,1,2.41-.16l5.66,1.78a2.65,2.65,0,0,0,2.23-.44l3.71-3.09a.91.91,0,0,0,.37-.67h0v-6l-5.19,2.93a1.28,1.28,0,0,1-.54-1.72,8.8,8.8,0,0,0,.48-1.26,2.17,2.17,0,0,1,1.54-1.48l6.33-1.08a1.1,1.1,0,0,0,.94-1.05h0v-6l-4.06.71-5.33.76a3.26,3.26,0,0,1-2.15-.92,17,17,0,0,0-1.59-1.42,1.11,1.11,0,0,1-.17-1.7l2.64-2.81a1,1,0,0,0,.29-.65h0v-6l-4.54,3.67-1.88-.75a2.77,2.77,0,0,0-2.28.23l-3.91,2.6a3.65,3.65,0,0,1-2.35.47c-1.24-.21-2.3-1-3.56-1.11-.72-.05-1.76.05-2.09-.58l-1.45-2.82a2,2,0,0,0-1.88-1l-7.27.76a1.26,1.26,0,0,0-1.13,1.42l.33,2.76a1.57,1.57,0,0,1-1.08,1.64,30.29,30.29,0,0,0-3,1.12,4,4,0,0,1-2.4.16L146,405.42a2.66,2.66,0,0,0-1.66.12l-4.66-1.89Zm36.59,1.77c6.3,2.53,7.87,7.53,3.49,11.17s-12.73,3.42-19,.89-8.17-6.4-3.8-10S170,408.88,176.26,411.4Z" style="fill:#fff;opacity:0.30000000000000004"></path><path d="M151.19,409.88l.51,7.15,2.87.07a5.78,5.78,0,0,1,2.34-3.68c4.38-3.64,13-4.54,19.35-2,3.77,1.51,5.83,3.91,6,6.38l1.1,0s3-6-.18-9.39a17.84,17.84,0,0,0-5.93-3.84,3.74,3.74,0,0,1-2,.29c-1.24-.21-2.3-1-3.56-1.11-.72-.05-1.76.05-2.09-.58l-.22-.43a15.48,15.48,0,0,0-2.91.14C160.6,403.82,151.19,409.88,151.19,409.88Z" style="opacity:0.1"></path><path d="M185.09,428.81l5.59,1.76a2.52,2.52,0,0,0,1.41-.05v-7.4l-.29.17a1.28,1.28,0,0,1-.54-1.72h0L185.08,418Z" style="fill:#FE3E55"></path><path d="M169.18,425.3c-.9-.05-1.8-.14-2.7-.28v7.11a2.2,2.2,0,0,1,.62.68l1.45,2.83a2,2,0,0,0,1.06.89V425.6Z" style="fill:#FE3E55"></path><path d="M139.67,403.65a.83.83,0,0,0,.53.72l4.67,2.35a1.26,1.26,0,0,1,.53,1.71,8.74,8.74,0,0,0-.47,1.26,2.16,2.16,0,0,1-1.55,1.48l-1.17.2-2-1a.84.84,0,0,1-.53-.75h0Z" style="fill:#FE3E55"></path><path d="M145,415.46c0,.07-.06.15-.08.22a2.17,2.17,0,0,1-1.54,1.48l-7.28-3.81v6h0a1.12,1.12,0,0,0,0,.36l1,3.22a1.77,1.77,0,0,0,1.68,1.18l6.65-.27a2.74,2.74,0,0,1,1,.22V416Z" style="fill:#FE3E55"></path><path d="M154.43,434.48v-7.41l-6.82-2.15a8.07,8.07,0,0,0-1.13.41v6h0a.83.83,0,0,0,.6.77l5.82,2.33A2.6,2.6,0,0,0,154.43,434.48Z" style="fill:#FE3E55"></path><g style="opacity:0.7000000000000001"><path d="M185.09,428.81l5.59,1.76a2.52,2.52,0,0,0,1.41-.05v-7.4l-.29.17a1.28,1.28,0,0,1-.54-1.72h0L185.08,418Z" style="fill:#fff"></path><path d="M190.84,423.06a1.81,1.81,0,0,1-.19-1.26l-5.06-2.92v9.56l5.24,1.64a1.67,1.67,0,0,0,.75,0v-6.37h0A1.78,1.78,0,0,1,190.84,423.06Z" style="fill:#fff"></path><path d="M169.18,425.3c-.9-.05-1.8-.14-2.7-.28v7.11a2.2,2.2,0,0,1,.62.68l1.45,2.83a2,2,0,0,0,1.06.89V425.6Z" style="fill:#fff"></path><path d="M169.11,435.57v-9.7l-.1-.07c-.67,0-1.34-.1-2-.19v6.28a2.33,2.33,0,0,1,.56.69L169,435.4A.62.62,0,0,0,169.11,435.57Z" style="fill:#fff"></path><path d="M139.67,403.65a.83.83,0,0,0,.53.72l4.67,2.35a1.26,1.26,0,0,1,.53,1.71,8.74,8.74,0,0,0-.47,1.26,2.16,2.16,0,0,1-1.55,1.48l-1.17.2-2-1a.84.84,0,0,1-.53-.75h0Z" style="fill:#fff"></path><path d="M142.29,410.84l1-.17a1.66,1.66,0,0,0,1.14-1.12,8.85,8.85,0,0,1,.5-1.33.77.77,0,0,0-.3-1.05l-4.46-2.24v3.82h0v.9c0,.09.09.19.25.27Z" style="fill:#fff"></path><path d="M145,415.46c0,.07-.06.15-.08.22a2.17,2.17,0,0,1-1.54,1.48l-7.28-3.81v6h0a1.12,1.12,0,0,0,0,.36l1,3.22a1.77,1.77,0,0,0,1.68,1.18l6.65-.27a2.74,2.74,0,0,1,1,.22V416Z" style="fill:#fff"></path><path d="M146,423.36v-7l-.73-.24a2.61,2.61,0,0,1-1.84,1.56l-.17,0-6.68-3.5v5.14a.66.66,0,0,0,0,.21l1,3.22a1.31,1.31,0,0,0,1.18.82l6.65-.27A2.74,2.74,0,0,1,146,423.36Z" style="fill:#fff"></path><path d="M154.43,434.48v-7.41l-6.82-2.15a8.07,8.07,0,0,0-1.13.41v6h0a.83.83,0,0,0,.6.77l5.82,2.33A2.6,2.6,0,0,0,154.43,434.48Z" style="fill:#fff"></path><path d="M153.92,434v-6.6l-6.32-2-.61.22v4.45h0v1.21c0,.16.18.26.29.3L153.1,434A1.76,1.76,0,0,0,153.92,434Z" style="fill:#fff"></path></g><path d="M143.75,399.87,140,403a.78.78,0,0,0,.16,1.4l4.67,2.35a1.25,1.25,0,0,1,.53,1.71,9.2,9.2,0,0,0-.47,1.26,2.16,2.16,0,0,1-1.55,1.48l-6.32,1.08a1.1,1.1,0,0,0-.89,1.45l1,3.22a1.77,1.77,0,0,0,1.68,1.18l6.65-.27a3.31,3.31,0,0,1,2.15.92,14.82,14.82,0,0,0,1.59,1.42,1.12,1.12,0,0,1,.16,1.7l-2.64,2.81a.82.82,0,0,0,.32,1.42l5.82,2.33a2.74,2.74,0,0,0,2.27-.23l3.92-2.6a3.69,3.69,0,0,1,2.35-.47c1.24.22,2.5.37,3.76.47a2.54,2.54,0,0,1,1.89,1.22l1.44,2.83a2,2,0,0,0,1.88,1l7.27-.76a1.27,1.27,0,0,0,1.14-1.41l-.34-2.77a1.59,1.59,0,0,1,1.09-1.64,30.1,30.1,0,0,0,3-1.12,4,4,0,0,1,2.41-.15l5.66,1.77a2.65,2.65,0,0,0,2.23-.44l3.71-3.09a.78.78,0,0,0-.16-1.41l-4.67-2.34a1.28,1.28,0,0,1-.53-1.72,9.6,9.6,0,0,0,.48-1.26,2.17,2.17,0,0,1,1.54-1.48l6.33-1.08a1.09,1.09,0,0,0,.88-1.45l-1-3.22a1.79,1.79,0,0,0-1.68-1.18l-6.65.27a3.24,3.24,0,0,1-2.15-.92,17,17,0,0,0-1.59-1.42,1.11,1.11,0,0,1-.17-1.7l2.64-2.81a.82.82,0,0,0-.31-1.42l-5.82-2.33a2.77,2.77,0,0,0-2.28.23l-3.91,2.6a3.65,3.65,0,0,1-2.35.47c-1.24-.21-2.5-.37-3.77-.46a2.57,2.57,0,0,1-1.88-1.23l-1.45-2.82a2,2,0,0,0-1.88-1l-7.27.76a1.26,1.26,0,0,0-1.13,1.42l.33,2.76a1.57,1.57,0,0,1-1.09,1.64,31,31,0,0,0-3,1.12,4,4,0,0,1-2.41.16L146,399.43A2.69,2.69,0,0,0,143.75,399.87Zm32.5,5.54c6.31,2.53,7.88,7.53,3.5,11.17s-13,4.55-19.34,2-7.87-7.53-3.5-11.17S170,402.89,176.25,405.41Z" style="fill:#FE3E55"></path><g style="opacity:0.55"><path d="M143.75,399.87,140,403a.78.78,0,0,0,.16,1.4l4.67,2.35a1.25,1.25,0,0,1,.53,1.71,9.2,9.2,0,0,0-.47,1.26,2.16,2.16,0,0,1-1.55,1.48l-6.32,1.08a1.1,1.1,0,0,0-.89,1.45l1,3.22a1.77,1.77,0,0,0,1.68,1.18l6.65-.27a3.31,3.31,0,0,1,2.15.92,14.82,14.82,0,0,0,1.59,1.42,1.12,1.12,0,0,1,.16,1.7l-2.64,2.81a.82.82,0,0,0,.32,1.42l5.82,2.33a2.74,2.74,0,0,0,2.27-.23l3.92-2.6a3.69,3.69,0,0,1,2.35-.47c1.24.22,2.5.37,3.76.47a2.54,2.54,0,0,1,1.89,1.22l1.44,2.83a2,2,0,0,0,1.88,1l7.27-.76a1.27,1.27,0,0,0,1.14-1.41l-.34-2.77a1.59,1.59,0,0,1,1.09-1.64,30.1,30.1,0,0,0,3-1.12,4,4,0,0,1,2.41-.15l5.66,1.77a2.65,2.65,0,0,0,2.23-.44l3.71-3.09a.78.78,0,0,0-.16-1.41l-4.67-2.34a1.28,1.28,0,0,1-.53-1.72,9.6,9.6,0,0,0,.48-1.26,2.17,2.17,0,0,1,1.54-1.48l6.33-1.08a1.09,1.09,0,0,0,.88-1.45l-1-3.22a1.79,1.79,0,0,0-1.68-1.18l-6.65.27a3.24,3.24,0,0,1-2.15-.92,17,17,0,0,0-1.59-1.42,1.11,1.11,0,0,1-.17-1.7l2.64-2.81a.82.82,0,0,0-.31-1.42l-5.82-2.33a2.77,2.77,0,0,0-2.28.23l-3.91,2.6a3.65,3.65,0,0,1-2.35.47c-1.24-.21-2.5-.37-3.77-.46a2.57,2.57,0,0,1-1.88-1.23l-1.45-2.82a2,2,0,0,0-1.88-1l-7.27.76a1.26,1.26,0,0,0-1.13,1.42l.33,2.76a1.57,1.57,0,0,1-1.09,1.64,31,31,0,0,0-3,1.12,4,4,0,0,1-2.41.16L146,399.43A2.69,2.69,0,0,0,143.75,399.87Zm32.5,5.54c6.31,2.53,7.88,7.53,3.5,11.17s-13,4.55-19.34,2-7.87-7.53-3.5-11.17S170,402.89,176.25,405.41Z" style="fill:#fff"></path></g><g style="opacity:0.2"><path d="M182,409.21a10.81,10.81,0,0,0-5.52-4.27c-6.45-2.58-15.36-1.64-19.85,2.1-2,1.67-2.93,3.72-2.6,5.77.4,2.55,2.67,4.84,6.23,6.26,6.45,2.59,15.36,1.64,19.86-2.1,2-1.66,2.92-3.71,2.6-5.77A6,6,0,0,0,182,409.21Zm-2.21,7.37c-4.37,3.64-13,4.55-19.34,2s-7.87-7.53-3.5-11.17,13-4.54,19.34-2S184.13,412.94,179.75,416.58Z" style="fill:#fff"></path><path d="M199.49,407.09a1.79,1.79,0,0,0-1.68-1.18l-6.65.27a3.24,3.24,0,0,1-2.15-.92,17,17,0,0,0-1.59-1.42,1.11,1.11,0,0,1-.17-1.7l2.64-2.81a.82.82,0,0,0-.31-1.42l-5.82-2.33a2.77,2.77,0,0,0-2.28.23l-3.91,2.6a3.65,3.65,0,0,1-2.35.47c-1.24-.21-2.5-.37-3.77-.46a2.57,2.57,0,0,1-1.88-1.23l-1.45-2.82a2,2,0,0,0-1.88-1l-7.27.76a1.26,1.26,0,0,0-1.13,1.42l.33,2.76a1.57,1.57,0,0,1-1.09,1.64,31,31,0,0,0-3,1.12,4,4,0,0,1-2.41.16L146,399.43a2.69,2.69,0,0,0-2.23.44L140,403a.78.78,0,0,0,.16,1.4l4.67,2.35a1.25,1.25,0,0,1,.53,1.71,9.2,9.2,0,0,0-.47,1.26,2.16,2.16,0,0,1-1.55,1.48l-6.32,1.08a1.1,1.1,0,0,0-.89,1.45l1,3.22a1.77,1.77,0,0,0,1.68,1.18l6.65-.27a3.31,3.31,0,0,1,2.15.92,14.82,14.82,0,0,0,1.59,1.42,1.12,1.12,0,0,1,.16,1.7l-2.64,2.81a.82.82,0,0,0,.32,1.42l5.82,2.33a2.74,2.74,0,0,0,2.27-.23l3.92-2.6a3.69,3.69,0,0,1,2.35-.47c1.24.22,2.5.37,3.76.47a2.54,2.54,0,0,1,1.89,1.22l1.44,2.83a2,2,0,0,0,1.88,1l7.27-.76a1.27,1.27,0,0,0,1.14-1.41l-.34-2.77a1.59,1.59,0,0,1,1.09-1.64,30.1,30.1,0,0,0,3-1.12,4,4,0,0,1,2.41-.15l5.66,1.77a2.65,2.65,0,0,0,2.23-.44l3.71-3.09a.78.78,0,0,0-.16-1.41l-4.67-2.34a1.28,1.28,0,0,1-.53-1.72,9.6,9.6,0,0,0,.48-1.26,2.17,2.17,0,0,1,1.54-1.48l6.33-1.08a1.09,1.09,0,0,0,.88-1.45ZM200,411a.61.61,0,0,1-.44.28l-6.32,1.08a2.66,2.66,0,0,0-1.95,1.84,9.05,9.05,0,0,1-.45,1.19,1.85,1.85,0,0,0,0,1.7,1.72,1.72,0,0,0,.73.68l4.66,2.34c.15.08.24.17.25.26a.43.43,0,0,1-.18.31l-3.72,3.09a2.13,2.13,0,0,1-1.75.34l-5.66-1.77a4.45,4.45,0,0,0-2.76.18,30.67,30.67,0,0,1-3,1.09,2.1,2.1,0,0,0-1.44,2.19l.33,2.77a.76.76,0,0,1-.68.85l-7.27.76a1.49,1.49,0,0,1-1.37-.75l-1.45-2.82a3,3,0,0,0-2.3-1.5c-1.26-.1-2.51-.25-3.72-.46a4.11,4.11,0,0,0-2.71.55l-3.92,2.59a2.25,2.25,0,0,1-1.81.19l-5.81-2.33a.44.44,0,0,1-.29-.25.45.45,0,0,1,.15-.35l2.64-2.81a1.59,1.59,0,0,0,.45-1.24,1.66,1.66,0,0,0-.67-1.21,14.78,14.78,0,0,1-1.54-1.38,3.73,3.73,0,0,0-2.53-1.06l-6.65.26a1.29,1.29,0,0,1-1.18-.82l-1-3.22a.62.62,0,0,1,0-.52.68.68,0,0,1,.44-.28l6.33-1.08a2.66,2.66,0,0,0,1.95-1.84,6.51,6.51,0,0,1,.45-1.18,1.77,1.77,0,0,0-.77-2.39l-4.67-2.34c-.15-.07-.24-.17-.25-.26a.4.4,0,0,1,.19-.3l3.71-3.1a2.18,2.18,0,0,1,1.75-.34l5.66,1.77a4.44,4.44,0,0,0,2.76-.17,28.27,28.27,0,0,1,3-1.1,2.11,2.11,0,0,0,1.45-2.19l-.34-2.76a.82.82,0,0,1,.16-.57.83.83,0,0,1,.52-.29l7.27-.76a1.52,1.52,0,0,1,1.38.75l1.45,2.82a3,3,0,0,0,2.29,1.5c1.26.1,2.51.25,3.72.46a4.19,4.19,0,0,0,2.72-.54l3.91-2.6a2.25,2.25,0,0,1,1.81-.19l5.82,2.33a.32.32,0,0,1,.13.6l-2.64,2.81a1.64,1.64,0,0,0-.45,1.25,1.7,1.7,0,0,0,.67,1.2,14.78,14.78,0,0,1,1.54,1.38,3.79,3.79,0,0,0,2.54,1.07l6.65-.27a1.26,1.26,0,0,1,1.17.83l1,3.21A.62.62,0,0,1,200,411Z" style="fill:#fff"></path></g></g></g></g><g id="freepik--speech-bubble--inject-10"><g id="freepik--speech-bubble--inject-10"><g id="freepik--speech-bubble--inject-10"><path d="M394.91,98.78l3.14-5.89-2.52-7.28V81.16l7.71,4.45v4.46l-3.32,5.74a.43.43,0,0,1-.22.2h0Z" style="fill:#FE3E55"></path><path d="M394.91,98.78l3.14-5.89-2.52-7.28V81.16l7.71,4.45v4.46l-3.32,5.74a.43.43,0,0,1-.22.2h0Z" style="opacity:0.30000000000000004"></path><path d="M381.07,48.44a5.11,5.11,0,0,1,2.31-4l1.89-1.09a5.08,5.08,0,0,1,4.62,0l23.46,13.52a5.09,5.09,0,0,1,2.31,4V92.64a5.11,5.11,0,0,1-2.31,4l-1.88,1.09a5.17,5.17,0,0,1-4.63,0l-8.44-4.87-3.31,5.73a.5.5,0,0,1-.9-.08l-3.49-10.1-7.32-4.2a5.13,5.13,0,0,1-2.31-4Z" style="fill:#FE3E55"></path><path d="M415.66,92.64a5.11,5.11,0,0,1-2.31,4l-1.88,1.09a5.19,5.19,0,0,1-4.23.18c1.09.41,1.92-.2,1.92-1.52V64.63a4.69,4.69,0,0,0-.68-2.28L415,58.59a4.71,4.71,0,0,1,.67,2.28Z" style="opacity:0.30000000000000004"></path><path d="M381.15,47.78c.27-1,1.16-1.29,2.23-.68l23.47,13.53a4.57,4.57,0,0,1,1.62,1.72L415,58.6a4.62,4.62,0,0,0-1.63-1.73L389.9,43.35a5.17,5.17,0,0,0-4.63,0l-1.89,1.09A5.09,5.09,0,0,0,381.15,47.78Z" style="fill:#fff;opacity:0.30000000000000004"></path></g><g id="freepik--Check--inject-10"><path d="M391.83,82.53l-.28,0a2.09,2.09,0,0,1-1.61-1.19l-4.16-8.85a2.09,2.09,0,0,1,3.78-1.78l2.79,5.93L402,65.45a2.09,2.09,0,1,1,3.17,2.72L393.42,81.8A2.11,2.11,0,0,1,391.83,82.53Z" style="fill:#fafafa"></path></g></g></g><g id="freepik--Character--inject-10"><g id="freepik--character--inject-10"><g id="freepik--Bottom--inject-10"><path d="M372.77,366.8c.15-4.92-.7-44.89-.7-44.89l19.5,12.14c-3.1,21.93-5.64,32.26-6,36.06h0a5,5,0,0,0-.14.77c-.06,4.34-5.28,6.63-9.35,9.49a77.27,77.27,0,0,1-11,6.63c-3,1.37-8.93,1.43-9.65-.36,5-3.5,10.71-7.32,14.67-11.34C372,373.38,372.64,371.37,372.77,366.8Z" style="fill:#ffa8a7"></path><path d="M347,391.23c-.25,0-.66,2.62.7,3.75,1.57,1.31,6.19,3.47,12.34,2.79s9.49-2.45,12-4.37,5.95-4.62,8.73-5.17c2.59-.52,5.4-1.59,6.24-2.34s.75-4.09.75-4.09Z" style="fill:#263238"></path><path d="M385.77,368.94s.42,0,.57.74.35,3.61.74,5.13a25.51,25.51,0,0,1,.51,8.14c-.35,1.71-4.57,2.86-7.27,3.8a34.82,34.82,0,0,0-8.77,5.11,26.17,26.17,0,0,1-13,4.42c-6.11,0-10.05-1.58-11.25-3.66-1.48-2.59-.28-4.06,6.78-7.06,1.33-.57,6-3.13,7.63-4.06a23.3,23.3,0,0,0,9.92-10.43,2.54,2.54,0,0,1,1-1.37,2.36,2.36,0,0,1,1.37-.11,17.67,17.67,0,0,1,4.12.88c.94.43,2.27.94,2.23,2.08a3.63,3.63,0,0,1-.27,1.16c-.09.23-.16.54,0,.68s.48,0,.66-.17a17.67,17.67,0,0,0,1.92-2.13,6.57,6.57,0,0,1,1.12-1,12.13,12.13,0,0,0,1.21-.73A2.27,2.27,0,0,0,385.77,368.94Z" style="fill:#37474f"></path><path d="M352.94,386.05c8.84.67,11.56,5.85,11.9,9.05a21.73,21.73,0,0,1-6.29,1.18c-6.11,0-10.3-1.58-11.5-3.66C345.66,390.18,346.65,388.24,352.94,386.05Z" style="fill:#fafafa"></path><path d="M366.2,386.27a.46.46,0,0,0,.27-.09.39.39,0,0,0,.07-.57,10.69,10.69,0,0,0-8-3.06.41.41,0,0,0-.39.44.42.42,0,0,0,.47.37,9.9,9.9,0,0,1,7.2,2.76A.45.45,0,0,0,366.2,386.27Z" style="fill:#f0f0f0"></path><path d="M370,384.21a.46.46,0,0,0,.27-.09.39.39,0,0,0,.07-.57,10.69,10.69,0,0,0-8-3.06.41.41,0,1,0,.08.81,10,10,0,0,1,7.21,2.76A.41.41,0,0,0,370,384.21Z" style="fill:#f0f0f0"></path><path d="M373.58,381.85a.41.41,0,0,0,.28-.09.4.4,0,0,0,.07-.57,10.72,10.72,0,0,0-8-3.06.41.41,0,0,0-.38.45.42.42,0,0,0,.47.36,9.9,9.9,0,0,1,7.2,2.76A.43.43,0,0,0,373.58,381.85Z" style="fill:#f0f0f0"></path><path d="M377.07,379.49a.45.45,0,0,0,.27-.08.39.39,0,0,0,.07-.57c-1.67-2-5.48-3.41-8.69-3.11a.41.41,0,0,0-.39.44.43.43,0,0,0,.47.37c2.89-.27,6.45,1,7.93,2.8A.45.45,0,0,0,377.07,379.49Z" style="fill:#f0f0f0"></path><path d="M414.25,345.55l18.68-2.09c1,11.82.38,25.11,1.24,36.22.16,2.09,1.78,16.19,1.4,20.56-.56,6.56-8.75,6.46-9.59,2.64s-2.87-20.47-3.08-22.17c-.68-7.11-4.25-18.67-7.46-31.24C415.29,348.85,414.4,346.16,414.25,345.55Z" style="fill:#ffa8a7"></path><path d="M423.22,405.85c.23,3.81.86,6.33,2.28,8.56s4.13,2.93,6.85,2.28,6.23-2.4,7-5.68a19.8,19.8,0,0,0,0-9.06Z" style="fill:#263238"></path><path d="M434.07,378.32c1.13.08,1.46,5.19,2.11,10.3.69,5.48,2.42,7.75,3,12.24.71,5.13.43,7.43-1.48,10.53s-8.64,6.15-12,1.7c-2.71-3.62-2.82-7.64-2.57-12.77a108.65,108.65,0,0,0-.36-13c-.22-3.85-1.12-7.72-.15-8.15.08.56.15,1.28.23,1.83s.18,2.51.8,2.53a7.79,7.79,0,0,0,0-1.45,1.65,1.65,0,0,1,.31-1.24,2.14,2.14,0,0,1,1.24-.52c1.11-.21,3.45-.3,4.58-.4.56-.05,1.12-.07,1.68-.07a4.93,4.93,0,0,1,1.43.19,1,1,0,0,1,.6.53,1.4,1.4,0,0,1,.06.58,4.23,4.23,0,0,0,.14,1.06c0,.15.16.33.32.3s.18-.19.18-.31c0-.62-.08-1.07-.11-1.79,0-.34-.07-.79-.08-1.13S434.1,378.65,434.07,378.32Z" style="fill:#37474f"></path><path d="M439.53,403.83c.2,3.19,0,5.37-1.48,7.8-1.91,3.11-9.19,6.16-12.51,1.72-1.65-2.21-2.09-4.83-2.32-7.5C425.21,402.43,436.4,400.92,439.53,403.83Z" style="fill:#fafafa"></path><path d="M426.1,400.27a.37.37,0,0,0,.14,0,17.29,17.29,0,0,1,9.7-.94.43.43,0,0,0,.5-.3.4.4,0,0,0-.32-.47,18,18,0,0,0-10.24,1,.39.39,0,0,0-.2.53A.43.43,0,0,0,426.1,400.27Z" style="fill:#f0f0f0"></path><path d="M435.66,395.46a.41.41,0,0,0,.36-.26.4.4,0,0,0-.26-.5c-5-1.61-10,.81-10.23.91a.38.38,0,0,0-.18.53.44.44,0,0,0,.56.17s4.89-2.37,9.58-.87A.33.33,0,0,0,435.66,395.46Z" style="fill:#f0f0f0"></path><path d="M435.37,391.86a.42.42,0,0,0,.35-.26.39.39,0,0,0-.25-.51A13.54,13.54,0,0,0,425,392a.38.38,0,0,0-.14.54.44.44,0,0,0,.57.13,12.9,12.9,0,0,1,9.72-.82A.38.38,0,0,0,435.37,391.86Z" style="fill:#f0f0f0"></path><path d="M435,387.8a.42.42,0,0,0,.35-.25.4.4,0,0,0-.24-.51c-5.2-1.84-10.3.88-10.51,1a.38.38,0,0,0-.15.54.42.42,0,0,0,.56.15s5-2.65,9.8-.94A.43.43,0,0,0,435,387.8Z" style="fill:#ebebeb"></path><path d="M418.87,213.54a8.91,8.91,0,0,0,1.8,4.31c4.95,6.94,8.81,13.61,9.21,26.2,1,31.14.22,63.4.22,63.4.21,2.74,2.54,7.61,3.6,21.84.93,12.45.6,29.51.6,29.51s-9.05,4.24-16.82,1.26c-3.09-10.12-9.53-36.39-12.9-49.95-3.07-12.3-5.1-30.4-5.1-30.4l-5.39,25.09a72.76,72.76,0,0,1-.2,16.21c-1,8.34-4.82,32.22-4.82,32.22s-9.94,2.92-16.62-1.76c0,0-1.68-41.61-1.75-51.69-.13-18.76,0-57.15,5.76-81.11a52.18,52.18,0,0,0,.37-5.58C383.37,218.55,410.09,219.38,418.87,213.54Z" style="fill:#37474f"></path><path d="M408.45,222.35a.36.36,0,0,1,.44.26c.36,1.45.64,2.75.91,4,1,4.55,1.66,7.84,5.11,11.37a12.07,12.07,0,0,0,8.66,3.44c-1.48-9.32-4.63-16.76-9.65-22.9a.33.33,0,0,1,.07-.48.37.37,0,0,1,.51.06c5.16,6.32,8.37,14,9.85,23.56,0,0,0,0,0,.05v0a86.93,86.93,0,0,1,.95,11.57c.32,17.51.8,44,1.07,50.93a50.81,50.81,0,0,0,2,11c.92,3.52,1.95,7.52,2.87,13,2,11.83,1,31.26,1,31.46a.35.35,0,0,1-.36.33h0a.35.35,0,0,1-.35-.36c0-.19,1-19.56-.95-31.32-.92-5.44-1.95-9.42-2.86-12.93a50.57,50.57,0,0,1-2.05-11.18c-.27-7-.75-33.43-1.08-50.94a85.65,85.65,0,0,0-.89-11.21h-.38a12.6,12.6,0,0,1-8.93-3.67c-3.58-3.67-4.3-7-5.29-11.71-.27-1.25-.54-2.55-.9-4A.35.35,0,0,1,408.45,222.35Z" style="fill:#455a64"></path><path d="M434.35,355c-2.66,2.5-13.8,3.83-17.88,1.63l1.71,6.67s2.65,1.65,8.57,1.11c6.87-.62,7.6-2.81,7.6-2.81Z" style="fill:#455a64"></path><path d="M389.65,349.6c-3.53,1.17-13.51.45-17.36-1.94l.17,5.57s2.16,2.08,8.07,2.71,8.32-1,8.32-1Z" style="fill:#455a64"></path><path d="M399.48,279.71,395.61,249a19.41,19.41,0,0,1-15.52-7.49s-.26,7.69,12.37,11.22L397.09,281l-3,23.76Z" style="fill:#263238"></path></g><g id="freepik--Top--inject-10"><path id="freepik--Hair--inject-10" d="M377.17,143.13v-7.42c-7.08-15.5,5.26-23.17,21.95-23.17h0c12.27,0,22.48,8.84,22.48,21v72.28H377.17Z" style="fill:#455a64"></path><g id="freepik--Arm--inject-10"><path d="M375.47,168.74c-3.66,4.45-15.07,22.25-18.06,27.55L340.92,181.1c-1.31-1.94-1-5.75-3.22-9.55-2.44-4.21-1-8.06-3-7.67a2.91,2.91,0,0,0-1.94,2.72c-.15,2.31.72,5.3-.18,5.05-1.33-.58-2.24-2.2-3.89-4.64-.69-1-2.19-5-3-6.75a1.51,1.51,0,0,0-2.67-.37c-.3.51-.56,1.72-.85,2.2a5,5,0,0,1-1.12,1,5.45,5.45,0,0,0-1.16.93c-.83,1.1-.23,2.43-.61,3.65a10.7,10.7,0,0,0,.95,7.48c.48,1,.94,2.13,1.45,3.14a21.6,21.6,0,0,0,4.47,5.61c1.55,1.5,3.48,2.4,5,4s5.68,7.22,8.86,11.22c5.28,6.63,9.9,12.75,11.63,14.05,4.26,3.21,8.36,4,13.7-1.36,6.41-6.4,18.67-23,18.67-23l4.16-23.84S379.84,163.42,375.47,168.74Z" style="fill:#ffa8a7"></path><path d="M388.68,164.9c-5.14-1.17-9.61-.52-13.14,2.93s-13.8,20.8-15.25,22.3-2.72,2.1-3,3.47a2.2,2.2,0,0,0,.47,2c2.41.56,9.17,13.47,6,17.45l-1.39,1a2.58,2.58,0,0,0,3.29.24c1.87-1.22,4.27-5,6.94-8.29s14.16-16.61,14.16-16.61Z" style="fill:#FE3E55"></path><path d="M357.8,195.61l-1,.16s3,3.75,3.39,10.76c.22,3.85-.69,8.22-1.88,9.18,0,0,1.11.51,3.09-.66a23.86,23.86,0,0,0,3.07-2.1,13.09,13.09,0,0,0-.33-9.25C362.13,198.36,359.68,196.32,357.8,195.61Z" style="fill:#37474f"></path></g><path d="M404.56,159.35l14.05,4.37c2.41.83,11.53,6.39,8.34,20.11-1.05,4.54-2.48,10.91-3.78,17.27-1,4.86,2.65,14.23,5.59,29.14,0,0-12.06,9.58-36,6.88-18.27-2.07-20.25-8.91-20.25-8.91.51-17,2-23.58,2-30a15.56,15.56,0,0,1-2.79-9c-.12-6.06,1.48-9.32,6.91-16.2a117.48,117.48,0,0,1,10-11.08Z" style="fill:#fafafa"></path><path d="M378.58,180.5c-4.23,9.63-1.37,64.53-1.75,60.42,0,0-7.87-3-8.61-5.68,0-9.89,1.83-29.75,1.94-36.54.13-7.81,0-13.46,2.57-18.25s12.06-16.56,15.84-18.6C384.67,165.24,380.18,174.73,378.58,180.5Z" style="fill:#FE3E55"></path><path d="M378.58,180.5c-4.23,9.63-1.37,64.53-1.75,60.42,0,0-7.87-3-8.61-5.68,0-9.89,1.83-29.75,1.94-36.54.13-7.81,0-13.46,2.57-18.25s12.06-16.56,15.84-18.6C384.67,165.24,380.18,174.73,378.58,180.5Z" style="opacity:0.2"></path><path d="M394,162.4c-2.66,1.83-14.56,10-16.93,25.93,0-7,2.65-15.62,5.16-19.7,3.05-5,7.12-9.61,11.67-11Z" style="fill:#37474f"></path><path d="M409.94,159.51a14.54,14.54,0,0,1,0,3.2c-.13,3-4.85,25.54-4.93,36.36a350.66,350.66,0,0,0,2.62,43.53s17.44,1.58,23.86-7.09a122.31,122.31,0,0,1-5.91-22.72c-1.28-7.81,3.92-26.9,2.57-38.2-.56-4.72-2.35-9.44-5.89-10.55-2.92-.91-5.47-1.66-5.47-1.66Z" style="fill:#FE3E55"></path><path d="M409.94,159.51a14.54,14.54,0,0,1,0,3.2c-.13,3-4.85,25.54-4.93,36.36a350.66,350.66,0,0,0,2.62,43.53s17.44,1.58,23.86-7.09a122.31,122.31,0,0,1-5.91-22.72c-1.28-7.81,3.92-26.9,2.57-38.2-.56-4.72-2.35-9.44-5.89-10.55-2.92-.91-5.47-1.66-5.47-1.66Z" style="opacity:0.2"></path><path d="M382.33,124.17c-1.18,2.38-4,6-3.56,19.22.34,10.34,3.94,12.6,7.33,13.92,1.67.64,4.22.63,7.77.25l.09,4.84s-6.44,5.94-4.4,17.87c20-8.35,20.26-18.52,20.26-18.52l.55-16.16c.65,1.06,3.82,2.48,6.31-.7,2.94-3.75,2.28-8.22-.33-9.87s-5.79-.08-7,3c-2.81,1.17-5.05-1.38-4.87-12.26C398.12,122.4,389.49,120.34,382.33,124.17Z" style="fill:#ffa8a7"></path><path d="M410.07,154.49c1.33-.06,1.63,2.68,3.4,4.69a25.57,25.57,0,0,0,3.32,3.2c-1.63,9.93-9.45,22.31-11.68,34-.09-9.44,2.45-24.17,4.85-38.59Z" style="fill:#37474f"></path><path d="M382.26,121c-1.22,4.77.44,12.57,7.27,14.94-1.49-3-1.44-8.63-1.44-8.63s3.82,12.37,18.66,9l.59-12.49C400.59,119.11,390.14,115.64,382.26,121Z" style="fill:#455a64"></path><path d="M415.12,143.46a1.48,1.48,0,1,1-1.68-1.25A1.48,1.48,0,0,1,415.12,143.46Z" style="fill:#FE3E55"></path><path d="M393.87,157.56c8.7-1.88,13.58-5.41,14.47-8.93,0,0-.55,4.6-3,6.63-3.42,2.85-11.42,4.7-11.42,4.7Z" style="fill:#f28f8f"></path><path d="M389.27,148.46l6.06-2.24a3.07,3.07,0,0,1-1.78,4.12A3.42,3.42,0,0,1,389.27,148.46Z" style="fill:#b16668"></path><path d="M392.17,150.52a3.44,3.44,0,0,0,1.38-.18,3.05,3.05,0,0,0,2-2.6A3.71,3.71,0,0,0,392.17,150.52Z" style="fill:#f28f8f"></path><path d="M397.37,138.05a1.76,1.76,0,1,1-1.76-1.75A1.75,1.75,0,0,1,397.37,138.05Z" style="fill:#263238"></path><path d="M385,137.45a1.76,1.76,0,1,1-1.76-1.74A1.75,1.75,0,0,1,385,137.45Z" style="fill:#263238"></path><polygon points="390.75 134.17 389.81 145.95 384.21 143.73 390.75 134.17" style="fill:#f28f8f"></polygon><path d="M380.46,134.57l4-1.4a2,2,0,0,0-2.65-1.34A2.22,2.22,0,0,0,380.46,134.57Z" style="fill:#263238"></path><path d="M399,135.17l-4-1.71a2.09,2.09,0,0,1,2.78-1.16A2.24,2.24,0,0,1,399,135.17Z" style="fill:#263238"></path><g id="freepik--arm--inject-10"><path d="M432.35,249.84c2.85.81,6.5-2.73,7.5-4s-.29-4.16-.89-6.63,0-6.66-3.06-5.49S426.41,243.18,432.35,249.84Z" style="fill:#f28f8f"></path><path d="M422.82,164.67c9.24,1.93,10.16,1.65,14.52,10.43,5.09,10.22,12.29,26.92,14.11,30.8s3.57,6.75-1.31,12.75c-4.37,5.35-17.24,20.75-19.15,23-1.69,1.95.2,7.7,6,6.86,0,0-4.42,3.91-6.84,3.48-2.1-.38-5.39-2.21-8.42-8.56-1.9-4-.31-7.16,2.59-11.62,3.47-5.33,10.95-20.19,10.95-20.19l-13.64-26.29S416.06,171.72,422.82,164.67Z" style="fill:#ffa8a7"></path><path d="M422.26,164c2.27.57,6.2,1,8.14,1.85s3.49,1.58,6.44,7.11,11.75,23.34,12.89,25.52,3.5,4.78,3.58,6.53a2.05,2.05,0,0,1-1.24,2.18l-.62-1.33s-3.09-2.2-8.39-.07a18.11,18.11,0,0,0-7.78,5.75l-.77,1.51a2.16,2.16,0,0,1-2.4-2.19c-.28-2.49-1.06-4.5-3.35-8.64s-6.63-13-8.17-16.09S415.67,171.75,422.26,164Z" style="fill:#FE3E55"></path><path d="M435.28,211.58l-.77,1.51A27,27,0,0,1,447,208.83c5.36-.42,6.25,1.69,6.25,1.69s.17-1.92-1.76-4.62C448.43,202.87,439.08,205.05,435.28,211.58Z" style="fill:#37474f"></path></g></g><g id="freepik--Pencil--inject-10"><path d="M327.84,361.4,311,395.55a1.17,1.17,0,0,1-2.2-.28l-7.57-37.52Z" style="fill:#ffa8a7"></path><path d="M308.76,395.27a1.17,1.17,0,0,0,2.2.28l3.29-6.66h0a6.51,6.51,0,0,1-6.62-1.21l-.49-.43Z" style="fill:#FE3E55"></path><path d="M308.76,395.27a1.17,1.17,0,0,0,2.2.28l3.29-6.66h0a6.51,6.51,0,0,1-6.62-1.21l-.49-.43Z" style="opacity:0.2"></path><path d="M330.62,132.9l-.46,3.49-.56,4.21L301.18,357.75a17.12,17.12,0,0,0,10.57,6.66c6.37,1.48,13.26.21,16.08-3l28.39-217.06,1-8.06C356.3,141.46,329.71,138.1,330.62,132.9Z" style="fill:#FE3E55"></path><path d="M330.62,132.9l-.46,3.49-.56,4.21L301.18,357.75a17.12,17.12,0,0,0,10.57,6.66c6.37,1.48,13.26.21,16.08-3l28.39-217.06,1-8.06C356.3,141.46,329.71,138.1,330.62,132.9Z" style="fill:#fff;opacity:0.5"></path><path d="M328.84,146.18l-1,7.8c-.37,2.26,4.3,4.33,9.84,5.54,7.35,1.64,16.36.74,16.86-2.24l.75-5.75.23-2.06c-.49,3-9.51,3.89-16.86,2.25-5.31-1.17-9.83-3.15-9.83-5.29v0A.46.46,0,0,1,328.84,146.18Z" style="fill:#ebebeb"></path><path d="M328.61,148.13c-.87,5.23,25.82,8.52,26.68,3.29l1-7.8c-.86,5.22-27.54,1.94-26.68-3.29Z" style="fill:#FE3E55"></path><path d="M330.62,132.9l-1,7.7c-.89,5.13,24.83,8.51,26.62,3.74a.89.89,0,0,0,.09-.29l1-7.77C356.3,141.46,329.71,138.1,330.62,132.9Z" style="fill:#ebebeb"></path><path d="M356.22,144.34l1-8.06c-.43,2.34-6.1,3.41-12.17,2.87L315.58,365,311,395.55l16.88-34.15h0Z" style="opacity:0.1"></path><path d="M361.63,102.93a2.44,2.44,0,0,0,.06-.26c.44-3.39-5.18-6.89-12.55-7.81S335.48,95.92,335,99.3h0l-4.41,33.59c-.38,2.23,4.23,4.3,9.72,5.54,7.34,1.66,16.39.81,16.94-2.16,0,0,0,0,0,0l4.3-32.81c0-.15,0-.29,0-.44Z" style="fill:#f28f8f"></path><path d="M350.72,95.1l-5.62,44.05c6,.49,11.74-.53,12.17-2.87,0,0,0,0,0,0l4.3-32.81c0-.15,0-.29,0-.44v-.07a2.44,2.44,0,0,0,.06-.26C362.1,99.53,357.29,96.3,350.72,95.1Z" style="opacity:0.1"></path><path d="M361.69,102.67c-.43,3.39-6.75,5.38-14.11,4.46s-13-4.43-12.56-7.81,6.76-5.39,14.12-4.46S362.13,99.28,361.69,102.67Z" style="fill:#ffa8a7"></path></g></g></g></svg>