<svg xmlns="http://www.w3.org/2000/svg" viewBox="0 0 500 500"><g id="freepik--background-simple--inject-58"><path d="M85.78,322.87c31.11,46.86,93.81,60.56,149.89,56.32S341.81,364.41,378.73,322c26.36-30.29,45-74.25,50.8-114,7.48-51.19,3-91.23-30.73-113-12.74-8.23-46.4-12.56-64.67-4.58-22.19,9.7-37.92,28.64-49.29,50s-25.53,45-49.19,50.14c-18.18,4-36.49-4.41-54.86-7.35-31.24-5-64.68,6.89-85.73,30.51-16,18-24.47,42.3-23.82,66.32.4,14.75,13.33,40.4,21.8,52.49.36.52-7.65-10.2-7.26-9.67" style="fill:#e0e0e0"></path></g><g id="freepik--Windows--inject-58"><rect x="65.15" y="125.68" width="202.84" height="135.85" style="fill:#fff"></rect><rect x="65.35" y="124.71" width="202.84" height="13.57" style="fill:#ebebeb"></rect><path d="M76.08,130.53A1.64,1.64,0,1,1,74.44,129,1.59,1.59,0,0,1,76.08,130.53Z" style="fill:#fafafa"></path><path d="M81.37,130.53A1.64,1.64,0,1,1,79.73,129,1.59,1.59,0,0,1,81.37,130.53Z" style="fill:#fafafa"></path><path d="M86.66,130.53A1.64,1.64,0,1,1,85,129,1.58,1.58,0,0,1,86.66,130.53Z" style="fill:#fafafa"></path><path d="M268.19,260.57s0-.85,0-2.47,0-4,0-7.16c0-6.28,0-15.51-.06-27.32,0-23.6-.07-57.53-.12-98.91l.23.23L65.37,125h0l.29-.29c0,48.4,0,94.43,0,135.86l-.26-.27,146.15.13,41.74.07,11.1,0,2.87,0,1,0h-.95l-2.84,0-11,0-41.68.07-146.33.13h-.26v-.26c0-41.43,0-87.46,0-135.86v-.28h.31l202.82,0h.23v.23c-.05,41.44-.1,75.42-.13,99.06,0,11.78,0,21-.05,27.26,0,3.12,0,5.5,0,7.12S268.19,260.57,268.19,260.57Z" style="fill:#263238"></path><rect x="78.56" y="200.53" width="46.12" height="3.09" style="fill:#FE3E55"></rect><rect x="138.13" y="157.7" width="46.12" height="3.09" style="fill:#FE3E55"></rect><path d="M252.84,169.19c0,.16-25.68.29-57.35.29s-57.36-.13-57.36-.29,25.67-.29,57.36-.29S252.84,169,252.84,169.19Z" style="fill:#263238"></path><path d="M252.84,175.93c0,.15-25.68.28-57.35.28s-57.36-.13-57.36-.28,25.67-.29,57.36-.29S252.84,175.77,252.84,175.93Z" style="fill:#263238"></path><path d="M252.84,182.66c0,.16-25.68.29-57.35.29s-57.36-.13-57.36-.29,25.67-.29,57.36-.29S252.84,182.5,252.84,182.66Z" style="fill:#263238"></path><path d="M252.84,189.4c0,.16-25.68.29-57.35.29s-57.36-.13-57.36-.29,25.67-.29,57.36-.29S252.84,189.24,252.84,189.4Z" style="fill:#263238"></path><path d="M252.84,196.14c0,.16-25.68.28-57.35.28s-57.36-.12-57.36-.28,25.67-.29,57.36-.29S252.84,196,252.84,196.14Z" style="fill:#263238"></path><path d="M182.91,202.87c0,.16-10,.29-22.39.29s-22.39-.13-22.39-.29,10-.28,22.39-.28S182.91,202.71,182.91,202.87Z" style="fill:#263238"></path><path d="M252,216c0,.16-16.88.29-37.7.29s-37.7-.13-37.7-.29,16.88-.29,37.7-.29S252,215.79,252,216Z" style="fill:#263238"></path><path d="M252,223.1c0,.16-16.88.29-37.7.29s-37.7-.13-37.7-.29,16.88-.29,37.7-.29S252,222.94,252,223.1Z" style="fill:#263238"></path><path d="M252,230.25c0,.16-16.88.29-37.7.29s-37.7-.13-37.7-.29,16.88-.29,37.7-.29S252,230.09,252,230.25Z" style="fill:#263238"></path><path d="M252,237.4c0,.16-16.88.29-37.7.29s-37.7-.13-37.7-.29,16.88-.29,37.7-.29S252,237.24,252,237.4Z" style="fill:#263238"></path><path d="M124.79,215.26c0,.16-10.06.29-22.47.29s-22.47-.13-22.47-.29,10.06-.28,22.47-.28S124.79,215.1,124.79,215.26Z" style="fill:#263238"></path><path d="M124.79,220.88c0,.16-10.06.29-22.47.29s-22.47-.13-22.47-.29,10.06-.29,22.47-.29S124.79,220.72,124.79,220.88Z" style="fill:#263238"></path><path d="M124.79,226.5c0,.15-10.06.28-22.47.28s-22.47-.13-22.47-.28,10.06-.29,22.47-.29S124.79,226.34,124.79,226.5Z" style="fill:#263238"></path><path d="M124.79,232.11c0,.16-10.06.29-22.47.29s-22.47-.13-22.47-.29,10.06-.29,22.47-.29S124.79,232,124.79,232.11Z" style="fill:#263238"></path><path d="M124.79,237.73c0,.16-10.06.29-22.47.29s-22.47-.13-22.47-.29,10.06-.29,22.47-.29S124.79,237.57,124.79,237.73Z" style="fill:#263238"></path><rect x="138.1" y="212.54" width="32.72" height="31.66" style="fill:#FE3E55"></rect><g style="opacity:0.30000000000000004"><polygon points="140.64 241.48 149.69 225.19 157.09 235.61 161.59 230.08 168.28 241.48 140.64 241.48"></polygon></g><g style="opacity:0.30000000000000004"><path d="M160.25,222a2.36,2.36,0,1,1-2.36-2.36A2.36,2.36,0,0,1,160.25,222Z"></path></g><path d="M168.28,241.57v-.13c0-.09,0-.21,0-.37,0-.33,0-.81,0-1.42,0-1.26,0-3.07,0-5.38,0-4.62,0-11.21-.07-19.11l.13.13-27.64,0,.15-.15h0v13.91c0,4.43,0,8.63,0,12.48l-.13-.13,20,.07,5.63,0,1.5,0h-1.44l-5.61,0-20.07.07h-.14v-.14c0-3.85,0-8,0-12.48q0-3.33,0-6.82v-7.09h0l.16-.16,27.64,0h.14v.14c0,7.94,0,14.55-.07,19.2,0,2.29,0,4.1,0,5.34,0,.61,0,1.07,0,1.4v.36C168.29,241.54,168.29,241.57,168.28,241.57Z" style="opacity:0.30000000000000004"></path><rect x="76.68" y="148.87" width="46.24" height="44.73" style="fill:#FE3E55"></rect><g style="opacity:0.30000000000000004"><polygon points="80.26 189.78 93.05 166.76 103.52 181.47 109.87 173.66 119.33 189.78 80.26 189.78"></polygon></g><g style="opacity:0.30000000000000004"><circle cx="104.64" cy="162.28" r="3.33"></circle></g><path d="M119.33,189.9a1.41,1.41,0,0,1,0-.18c0-.14,0-.31,0-.52,0-.48,0-1.15,0-2,0-1.77,0-4.34-.05-7.6,0-6.53-.06-15.83-.1-27l.19.18-39.06,0a2.43,2.43,0,0,1,.21-.22h0v19.67c0,6.27,0,12.19,0,17.64l-.19-.19,28.25.1,8,.05,2.11,0h0l-2.07,0-7.93.05-28.37.1h-.19v-.19c0-5.45,0-11.37,0-17.64,0-3.13,0-6.35,0-9.64v-10h0c-.19.2.27-.27.23-.22l39.06,0h.19v.19c0,11.22-.07,20.56-.1,27.13,0,3.23,0,5.79,0,7.55,0,.85,0,1.51,0,2v.5A.92.92,0,0,1,119.33,189.9Z" style="opacity:0.30000000000000004"></path><rect x="244.22" y="132.17" width="196.42" height="131.55" style="fill:#fff"></rect><rect x="244.41" y="131.24" width="196.42" height="13.14" style="fill:#ebebeb"></rect><path d="M254.8,136.88a1.59,1.59,0,1,1-1.59-1.48A1.53,1.53,0,0,1,254.8,136.88Z" style="fill:#fafafa"></path><path d="M259.93,136.88a1.59,1.59,0,1,1-1.59-1.48A1.54,1.54,0,0,1,259.93,136.88Z" style="fill:#fafafa"></path><path d="M265.05,136.88a1.59,1.59,0,1,1-1.59-1.48A1.53,1.53,0,0,1,265.05,136.88Z" style="fill:#fafafa"></path><path d="M440.83,262.8s0-.82,0-2.39,0-3.9,0-6.94c0-6.08,0-15-.06-26.45,0-22.86-.07-55.72-.12-95.78l.23.23-196.4.06h0l.29-.29c0,46.87,0,91.44,0,131.56l-.27-.27,141.53.13,40.42.07,10.75,0,2.77,0,.95,0h-.92l-2.74,0-10.69,0-40.37.07-141.7.13h-.26v-.26c0-40.12,0-84.69,0-131.56V131h.3l196.4.06h.23v.23c-.05,40.12-.09,73-.12,95.92,0,11.42,0,20.33-.06,26.4,0,3,0,5.33,0,6.9S440.83,262.8,440.83,262.8Z" style="fill:#263238"></path><rect x="257.2" y="204.66" width="44.66" height="2.99" style="fill:#FE3E55"></rect><rect x="314.89" y="163.18" width="44.66" height="2.99" style="fill:#FE3E55"></rect><path d="M426,174.31c0,.16-24.87.29-55.54.29s-55.54-.13-55.54-.29,24.86-.29,55.54-.29S426,174.15,426,174.31Z" style="fill:#263238"></path><path d="M426,180.83c0,.16-24.87.29-55.54.29s-55.54-.13-55.54-.29,24.86-.28,55.54-.28S426,180.67,426,180.83Z" style="fill:#263238"></path><path d="M426,187.36c0,.16-24.87.28-55.54.28s-55.54-.12-55.54-.28,24.86-.29,55.54-.29S426,187.2,426,187.36Z" style="fill:#263238"></path><path d="M426,193.88c0,.16-24.87.29-55.54.29s-55.54-.13-55.54-.29,24.86-.29,55.54-.29S426,193.72,426,193.88Z" style="fill:#263238"></path><path d="M426,200.4c0,.16-24.87.29-55.54.29s-55.54-.13-55.54-.29,24.86-.28,55.54-.28S426,200.25,426,200.4Z" style="fill:#263238"></path><path d="M358.25,206.93c0,.16-9.71.29-21.68.29s-21.68-.13-21.68-.29,9.7-.29,21.68-.29S358.25,206.77,358.25,206.93Z" style="fill:#263238"></path><path d="M425.16,219.59c0,.16-16.34.29-36.5.29s-36.51-.13-36.51-.29,16.34-.29,36.51-.29S425.16,219.43,425.16,219.59Z" style="fill:#263238"></path><path d="M425.16,226.51c0,.16-16.34.29-36.5.29s-36.51-.13-36.51-.29,16.34-.28,36.51-.28S425.16,226.36,425.16,226.51Z" style="fill:#263238"></path><path d="M425.16,233.44c0,.16-16.34.29-36.5.29s-36.51-.13-36.51-.29,16.34-.29,36.51-.29S425.16,233.28,425.16,233.44Z" style="fill:#263238"></path><path d="M425.16,240.36c0,.16-16.34.29-36.5.29s-36.51-.13-36.51-.29,16.34-.28,36.51-.28S425.16,240.2,425.16,240.36Z" style="fill:#263238"></path><path d="M302,218.93c0,.16-9.75.28-21.76.28s-21.77-.12-21.77-.28,9.74-.29,21.77-.29S302,218.77,302,218.93Z" style="fill:#263238"></path><path d="M302,224.36c0,.16-9.75.29-21.76.29s-21.77-.13-21.77-.29,9.74-.28,21.77-.28S302,224.21,302,224.36Z" style="fill:#263238"></path><path d="M302,229.8c0,.16-9.75.29-21.76.29s-21.77-.13-21.77-.29,9.74-.28,21.77-.28S302,229.64,302,229.8Z" style="fill:#263238"></path><path d="M302,235.24c0,.16-9.75.29-21.76.29s-21.77-.13-21.77-.29,9.74-.29,21.77-.29S302,235.08,302,235.24Z" style="fill:#263238"></path><path d="M302,240.68c0,.16-9.75.29-21.76.29s-21.77-.13-21.77-.29,9.74-.29,21.77-.29S302,240.52,302,240.68Z" style="fill:#263238"></path><rect x="314.86" y="216.28" width="31.69" height="30.66" style="fill:#FE3E55"></rect><g style="opacity:0.30000000000000004"><polygon points="317.32 244.32 326.08 228.54 333.25 238.63 337.61 233.27 344.09 244.32 317.32 244.32"></polygon></g><g style="opacity:0.30000000000000004"><path d="M336.31,225.47a2.28,2.28,0,1,1-2.28-2.28A2.28,2.28,0,0,1,336.31,225.47Z"></path></g><path d="M344.09,244.4a1.09,1.09,0,0,0,0-.12v-.36c0-.33,0-.79,0-1.38,0-1.22,0-3,0-5.21,0-4.47,0-10.85-.07-18.51l.13.13-26.77,0s.28-.28.15-.14h0v6.88c0,2.25,0,4.46,0,6.61,0,4.29,0,8.35,0,12.08l-.13-.13,19.36.07,5.46,0,1.44,0h-1.39l-5.43,0-19.44.06h-.13v-.13c0-3.73,0-7.79,0-12.08V218.83h0c-.14.13.18-.19.15-.16l26.77,0h.13v.13c0,7.69-.05,14.1-.07,18.6,0,2.22,0,4,0,5.17,0,.59,0,1,0,1.36,0,.14,0,.25,0,.34A.32.32,0,0,1,344.09,244.4Z" style="opacity:0.30000000000000004"></path><rect x="134.37" y="103.4" width="258.3" height="173" style="fill:#fff"></rect><rect x="134.62" y="102.17" width="258.3" height="17.28" style="fill:#e0e0e0"></rect><path d="M148.28,109.58a2.09,2.09,0,1,1-2.08-1.94A2,2,0,0,1,148.28,109.58Z" style="fill:#fafafa"></path><path d="M155,109.58a2.09,2.09,0,1,1-2.09-1.94A2,2,0,0,1,155,109.58Z" style="fill:#fafafa"></path><path d="M161.76,109.58a2.1,2.1,0,1,1-2.09-1.94A2,2,0,0,1,161.76,109.58Z" style="fill:#fafafa"></path><path d="M392.92,275.17c0-1.88-.09-67.62-.23-173l.23.23-258.28.06h0l.29-.29c0,61.63,0,120.24,0,173l-.27-.26,258.3.26-258.3.26h-.26v-.26c0-52.76,0-111.37,0-173v-.29h.3l258.28.06h.23v.23C393,207.55,392.93,273.29,392.92,275.17Z" style="fill:#263238"></path><rect x="151.44" y="198.72" width="58.73" height="3.93" style="fill:#FE3E55"></rect><rect x="227.3" y="144.17" width="58.73" height="3.93" style="fill:#FE3E55"></rect><path d="M373.38,158.81c0,.15-32.7.28-73,.28s-73.05-.13-73.05-.28,32.7-.29,73.05-.29S373.38,158.65,373.38,158.81Z" style="fill:#263238"></path><path d="M373.38,167.38c0,.16-32.7.29-73,.29s-73.05-.13-73.05-.29,32.7-.28,73.05-.28S373.38,167.23,373.38,167.38Z" style="fill:#263238"></path><path d="M373.38,176c0,.16-32.7.29-73,.29s-73.05-.13-73.05-.29,32.7-.28,73.05-.28S373.38,175.8,373.38,176Z" style="fill:#263238"></path><path d="M373.38,184.54c0,.16-32.7.29-73,.29s-73.05-.13-73.05-.29,32.7-.28,73.05-.28S373.38,184.38,373.38,184.54Z" style="fill:#263238"></path><path d="M373.38,193.12c0,.16-32.7.29-73,.29s-73.05-.13-73.05-.29,32.7-.29,73.05-.29S373.38,193,373.38,193.12Z" style="fill:#263238"></path><path d="M284.32,201.7c0,.16-12.76.29-28.51.29s-28.51-.13-28.51-.29,12.76-.29,28.51-.29S284.32,201.54,284.32,201.7Z" style="fill:#263238"></path><path d="M372.31,218.35c0,.16-21.49.29-48,.29s-48-.13-48-.29,21.49-.29,48-.29S372.31,218.19,372.31,218.35Z" style="fill:#263238"></path><path d="M372.31,227.46c0,.16-21.49.29-48,.29s-48-.13-48-.29,21.49-.29,48-.29S372.31,227.3,372.31,227.46Z" style="fill:#263238"></path><path d="M372.31,236.56c0,.16-21.49.29-48,.29s-48-.13-48-.29,21.49-.28,48-.28S372.31,236.41,372.31,236.56Z" style="fill:#263238"></path><path d="M372.31,245.67c0,.16-21.49.29-48,.29s-48-.13-48-.29,21.49-.29,48-.29S372.31,245.51,372.31,245.67Z" style="fill:#263238"></path><path d="M210.32,217.48c0,.16-12.81.29-28.62.29s-28.62-.13-28.62-.29,12.82-.29,28.62-.29S210.32,217.32,210.32,217.48Z" style="fill:#263238"></path><path d="M210.32,224.63c0,.16-12.81.29-28.62.29s-28.62-.13-28.62-.29,12.82-.29,28.62-.29S210.32,224.47,210.32,224.63Z" style="fill:#263238"></path><path d="M210.32,231.78c0,.16-12.81.29-28.62.29s-28.62-.13-28.62-.29,12.82-.28,28.62-.28S210.32,231.62,210.32,231.78Z" style="fill:#263238"></path><path d="M210.32,238.93c0,.16-12.81.29-28.62.29s-28.62-.13-28.62-.29,12.82-.28,28.62-.28S210.32,238.78,210.32,238.93Z" style="fill:#263238"></path><path d="M210.32,246.09c0,.16-12.81.28-28.62.28s-28.62-.12-28.62-.28,12.82-.29,28.62-.29S210.32,245.93,210.32,246.09Z" style="fill:#263238"></path><rect x="227.26" y="214.01" width="41.67" height="40.31" style="fill:#FE3E55"></rect><g style="opacity:0.30000000000000004"><polygon points="230.5 250.87 242.02 230.12 251.45 243.38 257.18 236.34 265.7 250.87 230.5 250.87"></polygon></g><g style="opacity:0.30000000000000004"><path d="M255.47,226.09a3,3,0,1,1-3-3A3,3,0,0,1,255.47,226.09Z"></path></g><path d="M265.7,251s0-.06,0-.16,0-.28,0-.47c0-.43,0-1,0-1.82,0-1.6,0-3.91,0-6.84,0-5.89-.05-14.28-.09-24.35l.17.17-35.2,0,.19-.19h0v17.73c0,5.64,0,11,0,15.89l-.17-.17,25.45.09,7.18,0,1.91,0h.66s0,0-.15,0h-.48l-1.87,0-7.14,0-25.56.09h-.18V251c0-4.91,0-10.25,0-15.89V217.36h0c-.18.17.24-.25.2-.2l35.2,0h.17v.17c0,10.12-.06,18.54-.08,24.45,0,2.92,0,5.22-.05,6.81,0,.77,0,1.36,0,1.78,0,.19,0,.34,0,.46S265.71,251,265.7,251Z" style="opacity:0.30000000000000004"></path><rect x="149.05" y="132.93" width="58.88" height="56.97" style="fill:#FE3E55"></rect><g style="opacity:0.30000000000000004"><polygon points="153.61 185.02 169.9 155.71 183.22 174.44 191.32 164.49 203.36 185.02 153.61 185.02"></polygon></g><g style="opacity:0.30000000000000004"><path d="M188.9,150a4.24,4.24,0,1,1-4.24-4.24A4.23,4.23,0,0,1,188.9,150Z"></path></g><path d="M203.36,185.18a2.07,2.07,0,0,1,0-.23c0-.17,0-.39,0-.67,0-.6,0-1.46,0-2.56,0-2.26,0-5.53-.06-9.68,0-8.32-.08-20.16-.13-34.39l.24.24-49.74,0,.27-.27h0v12.78c0,4.18,0,8.28,0,12.27,0,8,0,15.52,0,22.46l-.25-.24,36,.12,10.15.06,2.69,0,.7,0h0l-.68,0-2.64,0-10.09.06-36.13.12h-.24v-.25c0-6.94,0-14.48,0-22.46V150.45c0-2.1,0-4.21,0-6.35v-6.43h0c-.25.24.34-.35.29-.29l49.74,0h.24v.24c0,14.29-.09,26.19-.12,34.55,0,4.12,0,7.37-.06,9.62q0,1.62,0,2.52c0,.26,0,.47,0,.63A.85.85,0,0,1,203.36,185.18Z" style="opacity:0.30000000000000004"></path></g><g id="freepik--Floor--inject-58"><path d="M472.45,466.43c0,.17-97.17.3-217,.3s-217-.13-217-.3,97.14-.31,217-.31S472.45,466.26,472.45,466.43Z" style="fill:#263238"></path></g><g id="freepik--Character--inject-58"><polygon points="259.07 457.72 256.52 466.21 274.68 466 275.49 456.91 259.07 457.72" style="fill:#FE3E55"></polygon><path d="M275,464.28a12.4,12.4,0,0,1-2.64.21c-1.64,0-3.9,0-6.39,0l-6.37-.2A13.28,13.28,0,0,1,257,464a12.08,12.08,0,0,1,2.64-.2c1.64,0,3.9,0,6.39,0l6.37.2A12.92,12.92,0,0,1,275,464.28Z" style="fill:#263238"></path><path d="M267.25,456.57a13.28,13.28,0,0,1,.07,3.83,12.65,12.65,0,0,1-.5,3.8,12.9,12.9,0,0,1-.07-3.83A12.58,12.58,0,0,1,267.25,456.57Z" style="fill:#263238"></path><polyline points="256.52 466.21 274.68 466 274.84 464.28 256.82 464.05 256.52 466.01" style="fill:#fff;opacity:0.6000000000000001"></polyline><path d="M329.35,460.13,298,297.7h0l-.18-.7v0h0c-4.81-19.1-8.61-23.79-8.61-23.79l-46.94,1.28c-3.69,6.62-4.15,22.51-4.15,22.51C237.61,298.9,259,458.14,259,458.14l16.09-1.32L269.61,307l42,153.52Z" style="fill:#263238"></path><path d="M282,301.93c0,.16-5.19,1.64-11.67,3.32s-11.77,2.91-11.81,2.76,5.18-1.64,11.67-3.32S282,301.78,282,301.93Z" style="fill:#455a64"></path><path d="M239.54,218.52l-36,2.19-31-27.77-.32-1c-.19-.52-.38-1.1-.57-1.77a7,7,0,0,1-.27-2.37,11,11,0,0,1,.43-3c.35-.85-.49-1.68-1.19-1.25s-1.69,2.75-1.58,5.71-2.88-.54-4-1.79-4.74-4.95-5.38-4.9c-.95.07-1.06,1.12.09,2.34s4.31,5.14,3.64,5.71-6.26-5.88-6.26-5.88-1-1.58-1.77-.94c-1.44,1.15,5,7.55,5.62,8.14.43.42-.28,1.07-.72.6s-5.43-6.57-6.91-5.41c-1.13.88,5.25,5.31,5.59,7.16s-4.5-3.86-5.55-3c-.39.33-.64.63,2.61,3.5a83.5,83.5,0,0,0,6.85,5.88h0l32.42,35.78,45.29,4Z" style="fill:#ffbe9d"></path><path d="M351.44,160.65c-1.26-.56-4.33,6.28-4.51,4.4s4.72-7.9,3.38-8.43c-1.74-.7-4.83,6.52-5.14,7.11s-1.15.15-.85-.37c.44-.75,4.84-8.68,3.14-9.38-.94-.39-1.44,1.39-1.44,1.39s-3.59,7.75-4.38,7.39,1.15-5,1.91-6.5.37-2.47-.56-2.28c-.63.14-3.09,4.7-3.81,6.21s-2.64,5.69-3.35,2.82-2.31-4.82-3.1-5-1.37.81-.8,1.53a11.4,11.4,0,0,1,1.24,2.71,7,7,0,0,1,.39,2.36c0,.69,0,1.3-.05,1.85l-.05,1-22.11,35.3-35.17,7.86,6.26,22.67,41.29-17.61L345,172.29h0a85.44,85.44,0,0,0,4.95-7.54C352.22,161.09,351.9,160.86,351.44,160.65Z" style="fill:#ffbe9d"></path><path d="M285,238.72l.57-2.08c1.44-.9,18.39-11.47,19-11.57S297,205.61,297,205.61l-19.29,2.76a19.53,19.53,0,0,0-3.26-.65l-22.67-.19s-6,1-8.61,2.89l-20.52,7.74L227.33,242l16.13-1.39c.22,1.79,1.21,8.58,1.64,10.34,1.43,5.84,2.28,13.65-.76,18.81,0,0-6.22,12.4-6.23,22.76l57.22-6.69s-2.46-10.05-12.85-23.42l.5-14.11Z" style="fill:#455a64"></path><path d="M253,163.14c-4.76,2.16-6.67,7.42-7.14,12.24s0,9.86-1.83,14.38c-1.57,3.81-4.8,7.29-4.44,11.37.27,3,2.54,5.72,2.95,8.75.8,5.87-5.43,11.12-4.29,17,.51,2.67,2.56,5,5,6.53a35,35,0,0,0,8.1,3.48c3.78,1.27,8,2.51,11.7,1.19,3.3-1.17,5.55-4.18,9-5.05s6.76.53,10.18.6a11.45,11.45,0,0,0,8.42-3.2,7.6,7.6,0,0,0,1.74-8c-1.52-3.76-6.21-6.18-6.94-10.12-.65-3.56,2.25-7.1,1.34-10.62-1-3.92-6.27-6-7.54-9.85-1.52-4.63,3.34-9.57,1.45-14.1-1.12-2.66-4.32-4.34-5.19-7.07-.59-1.88.05-3.9-.38-5.81-.73-3.3-4.45-5.43-8.07-6.18A18.91,18.91,0,0,0,254,160.5a13.33,13.33,0,0,0-6.82,10.1" style="fill:#263238"></path><path d="M260.09,159.79a16,16,0,0,1,21.43,11.85c.73,3.68.19,7.65,1.79,11,1.73,3.69,5.81,6.22,6.42,10.24s-2.3,7.42-2.9,11.31c-.63,4,1.27,8.13.81,12.2a10.6,10.6,0,0,1-18.42,5.9" style="fill:#263238"></path><path d="M240.91,223.43s0-.05-.06-.16a3.7,3.7,0,0,1-.1-.49,4.43,4.43,0,0,1,.27-1.91,13,13,0,0,1,1.44-2.68,13,13,0,0,0,1.79-3.49,7.62,7.62,0,0,0-.36-4.62,21.6,21.6,0,0,0-2.64-4.8,21.9,21.9,0,0,1-2.94-5.46,10.73,10.73,0,0,1,.14-6.67,10.44,10.44,0,0,1,1.63-3,30.56,30.56,0,0,1,2.21-2.42,14.31,14.31,0,0,0,1.94-2.39,6,6,0,0,0,.87-2.71,26.63,26.63,0,0,0-.72-5.44,11.13,11.13,0,0,1,.27-4.89,11.76,11.76,0,0,1,3.82-5.87,10.2,10.2,0,0,1,1.6-1.06,2.52,2.52,0,0,1,.62-.27,20.86,20.86,0,0,0-2.07,1.5A11.91,11.91,0,0,0,245,172.4a10.94,10.94,0,0,0-.19,4.7,26,26,0,0,1,.78,5.56,6.42,6.42,0,0,1-.93,3,15.37,15.37,0,0,1-2,2.49,30.62,30.62,0,0,0-2.17,2.38,10.05,10.05,0,0,0-1.54,2.85,10.25,10.25,0,0,0-.14,6.31,21.24,21.24,0,0,0,2.84,5.33,21.6,21.6,0,0,1,2.65,4.94,8.05,8.05,0,0,1,.3,4.89,13.21,13.21,0,0,1-1.91,3.56,14.35,14.35,0,0,0-1.5,2.58A5,5,0,0,0,240.91,223.43Z" style="fill:#263238"></path><path d="M283.61,232.78s.23-.24.63-.73a5.9,5.9,0,0,0,1.11-2.46,7.18,7.18,0,0,0-.43-4.21,5.86,5.86,0,0,0-1.52-2.15,6.18,6.18,0,0,0-2.63-1.33,17.34,17.34,0,0,1-3.24-1.08,3.32,3.32,0,0,1-1.85-3.2,6.57,6.57,0,0,1,1.79-3.59c.92-1,2-1.88,2.87-3a4.05,4.05,0,0,0,1.06-3.78c-.4-1.34-1.7-2.23-3-3a18.93,18.93,0,0,1-4-2.59,4.48,4.48,0,0,1-1.29-2.18,5.77,5.77,0,0,1,0-2.55c.37-1.65,1.11-3.12,1.52-4.62a4.55,4.55,0,0,0-.58-4.23c-1.93-2.26-5.38-2.62-7.28-5a8.8,8.8,0,0,1-1.72-3.87,17.32,17.32,0,0,1-.28-4c.1-2.55.44-4.87.3-7a8.56,8.56,0,0,0-1.81-5.27,6.56,6.56,0,0,0-3.63-2.13,4.13,4.13,0,0,0-2.64.32c-.56.28-.79.54-.82.51a.79.79,0,0,1,.18-.18,2.69,2.69,0,0,1,.58-.43,4.06,4.06,0,0,1,2.73-.44,6.69,6.69,0,0,1,3.84,2.13,9,9,0,0,1,2,5.46,69,69,0,0,1-.23,7,16.89,16.89,0,0,0,.3,3.85,8.12,8.12,0,0,0,1.63,3.63,9.86,9.86,0,0,0,3.46,2.41,11.37,11.37,0,0,1,3.85,2.59,4.4,4.4,0,0,1,.94,2.28,6.79,6.79,0,0,1-.24,2.46c-.44,1.57-1.17,3-1.51,4.59a4.17,4.17,0,0,0,1.11,4.2,18.25,18.25,0,0,0,3.89,2.51,11.92,11.92,0,0,1,1.94,1.33,4.39,4.39,0,0,1,1.31,2,3.74,3.74,0,0,1,0,2.34,6.68,6.68,0,0,1-1.13,1.94c-.9,1.14-2,2-2.9,3a6,6,0,0,0-1.69,3.29,2.84,2.84,0,0,0,1.59,2.77,16.43,16.43,0,0,0,3.14,1.08,6.65,6.65,0,0,1,2.76,1.45,6.14,6.14,0,0,1,1.57,2.3,7.33,7.33,0,0,1,.35,4.38,5.72,5.72,0,0,1-1.24,2.49A4.39,4.39,0,0,1,283.61,232.78Z" style="fill:#455a64"></path><path d="M251.85,236a4.38,4.38,0,0,1-.35-.76c-.22-.51-.52-1.26-.87-2.24a30.08,30.08,0,0,1-1-3.65,16.37,16.37,0,0,1-.39-5,10.11,10.11,0,0,1,2.36-5.64,24.24,24.24,0,0,0,2.06-2.64,6.05,6.05,0,0,0,.89-3.28c-.07-2.4-1.24-4.76-2.54-7.06s-2.72-4.87-2.88-7.82a6.09,6.09,0,0,1,1.24-4.13,18.18,18.18,0,0,1,3.18-2.63,5,5,0,0,0,1.94-3.1,8.93,8.93,0,0,0-.15-3.64c-.5-2.38-1.42-4.55-1.84-6.74a19.83,19.83,0,0,1,2.86-14.39,16,16,0,0,1,1.45-1.91,4.75,4.75,0,0,1,.59-.6s-.76.87-1.85,2.63a20.23,20.23,0,0,0-2.82,8.2,19.74,19.74,0,0,0,.24,6c.42,2.12,1.35,4.28,1.89,6.72a9.53,9.53,0,0,1,.17,3.85,5.64,5.64,0,0,1-2.12,3.44,18.94,18.94,0,0,0-3.09,2.54,5.51,5.51,0,0,0-1.12,3.75c.15,2.78,1.47,5.28,2.8,7.57s2.52,4.75,2.58,7.33a6.63,6.63,0,0,1-1,3.55,25.09,25.09,0,0,1-2.13,2.68,9.64,9.64,0,0,0-2.32,5.38,15.93,15.93,0,0,0,.29,4.93,35.5,35.5,0,0,0,1,3.65c.32.94.57,1.7.76,2.27A4.61,4.61,0,0,1,251.85,236Z" style="fill:#455a64"></path><path d="M330.36,461.74l-.07-1.85-18.76.54.17,6.1,1.16,0c5.16.13,26.24.31,29.66-.75C346.33,464.63,330.36,461.74,330.36,461.74Z" style="fill:#FE3E55"></path><g style="opacity:0.6000000000000001"><path d="M318.46,466.22a6,6,0,0,0-2.5-3.64,6.63,6.63,0,0,0-4.4-1.15l.15,4.86Z" style="fill:#fff"></path></g><g style="opacity:0.6000000000000001"><path d="M338.17,463.41s5.61,1.34,4.94,2.21-22,1.43-31.41.91v-.38l24.88-.46S337.08,463.48,338.17,463.41Z" style="fill:#fff"></path></g><path d="M311.42,466.14l.32,0,.93,0,3.39.05c2.87,0,6.84,0,11.21-.11s8.34-.3,11.21-.46l3.39-.22.92-.08.32,0h-.33l-.92,0-3.39.16c-2.87.13-6.83.29-11.2.4s-8.34.15-11.21.17l-3.39,0h-.93Z" style="fill:#263238"></path><path d="M336.59,466a4.56,4.56,0,0,1,1.71-2.76,2.43,2.43,0,0,0-1.32,1.13A2.18,2.18,0,0,0,336.59,466Z" style="fill:#263238"></path><path d="M331,463.5c.05,0,.31-.27.57-.68s.43-.76.37-.79-.3.28-.56.69S331,463.47,331,463.5Z" style="fill:#263238"></path><path d="M329.47,462.8s.33-.15.64-.42.53-.54.49-.58-.33.15-.64.42S329.42,462.76,329.47,462.8Z" style="fill:#263238"></path><path d="M328.46,461.19a2.3,2.3,0,0,0,1,.09,2.32,2.32,0,0,0,1-.12,2.3,2.3,0,0,0-1-.09A2.36,2.36,0,0,0,328.46,461.19Z" style="fill:#263238"></path><path d="M328.1,460a2.89,2.89,0,0,0,2.21.1,5.6,5.6,0,0,0-1.11,0A5.86,5.86,0,0,0,328.1,460Z" style="fill:#263238"></path><path d="M331.59,462a3.3,3.3,0,0,0,1.2,0,7.5,7.5,0,0,0,1.27-.29,3.57,3.57,0,0,0,.72-.3.6.6,0,0,0,.29-.35.45.45,0,0,0-.2-.45,2.3,2.3,0,0,0-2.7.67,1.86,1.86,0,0,0-.37.76c0,.19,0,.3,0,.3a3,3,0,0,1,.52-1,2.1,2.1,0,0,1,1-.65,2,2,0,0,1,1.43,0c.2.13.13.34-.08.46a3.57,3.57,0,0,1-.66.29,10,10,0,0,1-1.23.33C332,461.93,331.59,461.94,331.59,462Z" style="fill:#263238"></path><path d="M331.9,462a1,1,0,0,0,.12-.78,1.81,1.81,0,0,0-.36-.8,1.21,1.21,0,0,0-1-.55.45.45,0,0,0-.36.53,1.23,1.23,0,0,0,.22.49,3.26,3.26,0,0,0,.59.66,1.93,1.93,0,0,0,.7.44s-.25-.2-.59-.54a4.22,4.22,0,0,1-.52-.66c-.17-.23-.3-.65,0-.71a1.14,1.14,0,0,1,.81.45,1.87,1.87,0,0,1,.36.72A4.16,4.16,0,0,1,331.9,462Z" style="fill:#263238"></path><path d="M311.66,461.38s.53-.06,1.38,0a6.27,6.27,0,0,1,3,1.08,5.68,5.68,0,0,1,2,2.42,12,12,0,0,1,.39,1.23,1,1,0,0,0,0-.35,4.26,4.26,0,0,0-.23-.93,5.34,5.34,0,0,0-2-2.54,6,6,0,0,0-3.17-1.06,7,7,0,0,0-1,.05A1.09,1.09,0,0,0,311.66,461.38Z" style="fill:#263238"></path><path d="M320.76,464.46a10.94,10.94,0,0,0,2.73.18,11.55,11.55,0,0,0,2.73-.27c0-.06-1.23,0-2.73.06S320.77,464.4,320.76,464.46Z" style="fill:#263238"></path><path d="M317.1,464.55c0,.05.11.24.24.5s.21.48.27.48.09-.28-.07-.58S317.14,464.51,317.1,464.55Z" style="fill:#263238"></path><path d="M315.67,463c0,.05.09.22.28.4s.4.29.44.24-.08-.22-.28-.39S315.72,463,315.67,463Z" style="fill:#263238"></path><path d="M313.68,462.32c0,.05.26.05.54.13s.48.21.52.17-.11-.28-.46-.37S313.66,462.26,313.68,462.32Z" style="fill:#263238"></path><path d="M312.26,462c0,.05.09.14.25.19s.3.05.32,0-.09-.14-.25-.2S312.28,462,312.26,462Z" style="fill:#263238"></path></g><g id="freepik--Plant--inject-58"><path d="M411.84,442.1A14.72,14.72,0,0,1,421,441a7.62,7.62,0,0,1,4.52,2c1.13,1.25,1.35,3.44.05,4.51a4.33,4.33,0,0,1-2.85.73c-2.42,0-5.1-.46-7,1-1.1.83-1.83,2.21-3.15,2.62a3.11,3.11,0,0,1-3.43-1.53,5.34,5.34,0,0,1-.39-3.93A6,6,0,0,1,411.84,442.1Z" style="fill:#FE3E55"></path><path d="M411.84,442.1A14.72,14.72,0,0,1,421,441a7.62,7.62,0,0,1,4.52,2c1.13,1.25,1.35,3.44.05,4.51a4.33,4.33,0,0,1-2.85.73c-2.42,0-5.1-.46-7,1-1.1.83-1.83,2.21-3.15,2.62a3.11,3.11,0,0,1-3.43-1.53,5.34,5.34,0,0,1-.39-3.93A6,6,0,0,1,411.84,442.1Z" style="fill:#fff;opacity:0.2"></path><path d="M405.46,429.78c1.71,2.44,5,1.63,6.55.15s2.18-3.64,2.77-5.69c1.35-4.68,2.71-9.6,1.71-14.37a8,8,0,0,0-1.84-3.91,4.17,4.17,0,0,0-3.95-1.32c-1.67.44-2.71,2.08-3.46,3.63A34.23,34.23,0,0,0,403.86,423a11.89,11.89,0,0,0,1.6,6.8" style="fill:#FE3E55"></path><path d="M405.46,429.78c1.71,2.44,5,1.63,6.55.15s2.18-3.64,2.77-5.69c1.35-4.68,2.71-9.6,1.71-14.37a8,8,0,0,0-1.84-3.91,4.17,4.17,0,0,0-3.95-1.32c-1.67.44-2.71,2.08-3.46,3.63A34.23,34.23,0,0,0,403.86,423a11.89,11.89,0,0,0,1.6,6.8" style="opacity:0.30000000000000004"></path><path d="M400.79,433.27a8.85,8.85,0,0,0,1.38-8.14,15.68,15.68,0,0,0-4.83-7,26,26,0,0,0-8.63-5.1,9.42,9.42,0,0,0-3.88-.66,4.07,4.07,0,0,0-3.26,2c-.91,1.73,0,3.83.9,5.55a65.82,65.82,0,0,0,5.67,8.63c1.7,2.19,3.65,4.35,6.24,5.34s5.28.88,6.66-.92" style="fill:#FE3E55"></path><path d="M405.35,466.46a5.86,5.86,0,0,0,.15-1.11l.3-3a43.61,43.61,0,0,1,.67-4.42,34.63,34.63,0,0,1,1.61-5.22,19,19,0,0,1,2.67-4.73,10,10,0,0,1,3.37-2.8,9.48,9.48,0,0,1,2.83-.88,5.09,5.09,0,0,0,1.1-.16,5.07,5.07,0,0,0-1.12,0,8.71,8.71,0,0,0-3,.77,10,10,0,0,0-3.55,2.83,18.7,18.7,0,0,0-2.76,4.82,31.91,31.91,0,0,0-1.6,5.3,38.28,38.28,0,0,0-.59,4.48c-.09,1.28-.13,2.31-.15,3A5.51,5.51,0,0,0,405.35,466.46Z" style="fill:#263238"></path><path d="M405.56,464.14a3.52,3.52,0,0,0,0-.52c0-.38,0-.87,0-1.46,0-1.27,0-3.11.07-5.39.11-4.54.5-9.44,1.26-16.34.71-6.48,1.67-14,2.69-18.94.22-1.11.43-2.12.64-3s.37-1.64.53-2.26.25-1.05.34-1.42a3,3,0,0,0,.09-.51,2,2,0,0,0-.18.48l-.42,1.41c-.19.61-.39,1.36-.61,2.24s-.47,1.88-.71,3A169.39,169.39,0,0,0,406.45,439c-.75,6.91-1.1,13.21-1.13,17.77,0,2.28,0,4.12.08,5.39,0,.6.07,1.08.09,1.47A2,2,0,0,0,405.56,464.14Z" style="fill:#263238"></path><path d="M405.59,452a11.21,11.21,0,0,0,0-1.53c-.06-1-.2-2.41-.47-4.15a57.78,57.78,0,0,0-1.35-6.05,50.11,50.11,0,0,0-2.53-7.15,38.2,38.2,0,0,0-7.42-11.56,19.17,19.17,0,0,0-1.75-1.62c-.27-.23-.5-.45-.74-.63l-.68-.47a9.91,9.91,0,0,0-1.29-.82,44.8,44.8,0,0,1,4.22,3.77,40,40,0,0,1,7.24,11.51,55.93,55.93,0,0,1,2.54,7.09,58.83,58.83,0,0,1,1.44,6c.32,1.73.5,3.14.61,4.11A9.73,9.73,0,0,0,405.59,452Z" style="fill:#263238"></path></g></svg>