<svg xmlns="http://www.w3.org/2000/svg" xmlns:xlink="http://www.w3.org/1999/xlink" width="1080" height="1080" version="1.1" viewBox="0 0 1080 1080" xml:space="preserve"><desc>Created with Fabric.js 5.2.4</desc><g id="f77e04dd-c600-44f3-9efb-8a20bee2e2cb" transform="matrix(1 0 0 1 540 540)"><rect style="stroke:none;stroke-width:1;stroke-dasharray:none;stroke-linecap:butt;stroke-dashoffset:0;stroke-linejoin:miter;stroke-miterlimit:4;fill:#fff;fill-rule:nonzero;opacity:1;visibility:hidden" width="1080" height="1080" x="-540" y="-540" rx="0" ry="0" vector-effect="non-scaling-stroke"/></g><g><g transform="matrix(1.25 0 0 1.25 540 540)"><g transform="matrix(1 0 0 1 -339 -229.3)"><circle style="stroke:none;stroke-width:1;stroke-dasharray:none;stroke-linecap:butt;stroke-dashoffset:0;stroke-linejoin:miter;stroke-miterlimit:4;fill:#f0f0f0;fill-rule:nonzero;opacity:1" cx="0" cy="0" r="83" vector-effect="non-scaling-stroke"/></g><g transform="matrix(1 0 0 1 339 -43.3)"><circle style="stroke:none;stroke-width:1;stroke-dasharray:none;stroke-linecap:butt;stroke-dashoffset:0;stroke-linejoin:miter;stroke-miterlimit:4;fill:#f0f0f0;fill-rule:nonzero;opacity:1" cx="0" cy="0" r="83" vector-effect="non-scaling-stroke"/></g><g><path style="stroke:none;stroke-width:1;stroke-dasharray:none;stroke-linecap:butt;stroke-dashoffset:0;stroke-linejoin:miter;stroke-miterlimit:4;fill:#e6e6e6;fill-rule:nonzero;opacity:1" stroke-linecap="round" d="M 679.716 755.57537 L 665.1237 749.43107 L 655.11344 676.27969 L 521.80882 676.27969 L 510.95844 749.13221 L 497.90333 755.65967 C 496.61734575334634 756.3026938908228 495.9422390293065 757.7455318822977 496.27260731192723 759.144850289469 C 496.60297559454796 760.5441686966402 497.8521116966043 761.532707799067 499.2899 761.53267 L 678.51333 761.53267 C 679.989024023399 761.5327844943589 681.2602418458129 760.4926383310515 681.5522660282257 759.0461271002998 C 681.8442902106385 757.5996158695483 681.0761614708123 756.1477629045003 679.716 755.57537 Z" transform="matrix(1 0 0 1 -11.1 268.91) translate(-588.9, -718.91)" vector-effect="non-scaling-stroke"/></g><g><path style="stroke:none;stroke-width:1;stroke-dasharray:none;stroke-linecap:butt;stroke-dashoffset:0;stroke-linejoin:miter;stroke-miterlimit:4;fill:#ccc;fill-rule:nonzero;opacity:1" stroke-linecap="round" d="M 916.60741 686.01216 L 261.77821 686.01216 C 254.62460628944402 685.9960920538063 248.83395812326893 680.1924617557444 248.83391 673.03884 L 248.83391 580.69932 L 929.55171 580.69932 L 929.55171 673.0388399999999 C 929.5515903569375 680.1924321776842 923.7609839724086 685.9960206004292 916.60741 686.01216 Z" transform="matrix(1 0 0 1 -10.81 183.36) translate(-589.19, -633.36)" vector-effect="non-scaling-stroke"/></g><g><path style="stroke:none;stroke-width:1;stroke-dasharray:none;stroke-linecap:butt;stroke-dashoffset:0;stroke-linejoin:miter;stroke-miterlimit:4;fill:#3f3d56;fill-rule:nonzero;opacity:1" stroke-linecap="round" d="M 930.23622 624.34119 L 248.23622 624.34119 L 248.23622 229.23991 C 248.24620586386848 220.6066056865912 255.24255533456102 213.61050673034165 263.87586 213.60083 L 914.59639 213.60083 C 923.229734645962 213.61048453067363 930.2261514518107 220.60656582695444 930.23622 229.23991 Z" transform="matrix(1 0 0 1 -10.76 -31.03) translate(-589.24, -418.97)" vector-effect="non-scaling-stroke"/></g><g><path style="stroke:none;stroke-width:1;stroke-dasharray:none;stroke-linecap:butt;stroke-dashoffset:0;stroke-linejoin:miter;stroke-miterlimit:4;fill:#fff;fill-rule:nonzero;opacity:1" stroke-linecap="round" d="M 889.50306 595.66469 L 288.96938 595.66469 C 282.3136378845866 595.657398937216 276.91985875327 590.2637719071605 276.91238 583.60803 L 276.91238 254.334 C 276.91980297078067 247.67811349373818 282.31349375000116 242.2842393012955 288.96938 242.27659 L 889.50306 242.27659 C 896.1589462499988 242.2842393012955 901.5526370292193 247.67811349373818 901.56006 254.334 L 901.56006 583.608 C 901.5525977761858 590.2637536229514 896.1588138126167 595.6573989058347 889.50306 595.66469 Z" transform="matrix(1 0 0 1 -10.76 -31.03) translate(-589.24, -418.97)" vector-effect="non-scaling-stroke"/></g><g><path style="stroke:none;stroke-width:1;stroke-dasharray:none;stroke-linecap:butt;stroke-dashoffset:0;stroke-linejoin:miter;stroke-miterlimit:4;fill:#ccc;fill-rule:nonzero;opacity:1" stroke-linecap="round" d="M 757.65622 762.29577 L 420.20800999999994 762.29577 C 419.49719479988306 762.3108531262858 418.865323884708 761.8454390541528 418.66891999999996 761.1621299999999 C 418.5480677263558 760.7037257513385 418.6466667325168 760.2151929072191 418.9358529767082 759.8395454083505 C 419.22503922089953 759.463897909482 419.67210296367114 759.2436250929604 420.14617 759.24321 L 757.53117 759.24321 C 758.2819138835051 759.2169074148948 758.9517066439755 759.7116067487013 759.14734 760.43689 C 759.2475803857084 760.8891464515102 759.1372717426206 761.3624600677844 758.8474171462645 761.7238024896378 C 758.5575625499087 762.0851449114913 758.1194520851072 762.295508873999 757.65622 762.29577 Z" transform="matrix(1 0 0 1 -11.1 310.77) translate(-588.9, -760.77)" vector-effect="non-scaling-stroke"/></g><g><path style="stroke:none;stroke-width:1;stroke-dasharray:none;stroke-linecap:butt;stroke-dashoffset:0;stroke-linejoin:miter;stroke-miterlimit:4;fill:#f0f0f0;fill-rule:nonzero;opacity:1" stroke-linecap="round" d="M 821.43332 537.04776 L 694.90707 537.04776 C 694.2516993665994 537.103000695496 693.67256541539 536.6237975874844 693.60416 535.9696700000001 L 693.60416 433.9107 C 693.67256541539 433.25657241251565 694.2516993665994 432.7773693045041 694.90707 432.83261000000005 L 821.43332 432.83261000000005 C 822.088697246393 432.77734204972535 822.6678450517959 433.2565602994197 822.73622 433.9107 L 822.73622 535.9697 C 822.667829943065 536.6238276490832 822.0886867251998 537.1030287677046 821.43332 537.04776 Z" transform="matrix(1 0 0 1 158.17 34.94) translate(-758.17, -484.94)" vector-effect="non-scaling-stroke"/></g><g><path style="stroke:none;stroke-width:1;stroke-dasharray:none;stroke-linecap:butt;stroke-dashoffset:0;stroke-linejoin:miter;stroke-miterlimit:4;fill:#fff;fill-rule:nonzero;opacity:1" stroke-linecap="round" d="M 807.68046 444.12443 L 708.65992 444.12443 C 707.9407934847042 444.1255038797687 707.3580938797687 444.70820348470414 707.35702 445.42733000000004 L 707.35702 522.15377 C 707.3580993569248 522.8728958618208 707.9407941464847 523.4555951236717 708.65992 523.45668 L 807.68046 523.45668 C 808.3995874794241 523.4555951378195 808.9822851378195 522.8728974794241 808.98337 522.15377 L 808.98337 445.42733 C 808.982290614857 444.70820186710694 808.3995881411563 444.12550386572195 807.68046 444.12443 Z" transform="matrix(1 0 0 1 158.17 33.79) translate(-758.17, -483.79)" vector-effect="non-scaling-stroke"/></g><g transform="matrix(1 0 0 1 155.72 33.53)"><circle style="stroke:none;stroke-width:1;stroke-dasharray:none;stroke-linecap:butt;stroke-dashoffset:0;stroke-linejoin:miter;stroke-miterlimit:4;fill:#ffb8b8;fill-rule:nonzero;opacity:1" cx="0" cy="0" r="12.59" vector-effect="non-scaling-stroke"/></g><g transform="matrix(1 0 0 1 160.19 61.43)"><polygon style="stroke:none;stroke-width:1;stroke-dasharray:none;stroke-linecap:butt;stroke-dashoffset:0;stroke-linejoin:miter;stroke-miterlimit:4;fill:#fe3e55;fill-rule:nonzero;opacity:1" points="13.96 12.03 -13.96 12.03 -13.04 -8.49 -12.83 -8.72 -9.7 -12.03 .27 -12.03 3.97 -8.45 4.27 -8.16 12.13 -.62 13.96 12.03" vector-effect="non-scaling-stroke"/></g><g><path style="stroke:none;stroke-width:1;stroke-dasharray:none;stroke-linecap:butt;stroke-dashoffset:0;stroke-linejoin:miter;stroke-miterlimit:4;fill:#2f2e41;fill-rule:nonzero;opacity:1" stroke-linecap="round" d="M 751.03024 523.45668 L 729.91167 523.45668 C 729.8596699999999 518.82414 729.8306699999999 516.0504 729.8306699999999 516.0504 L 731.05242 515.30629 L 731.05822 515.3034 L 731.06122 515.3034 L 744.5187400000001 507.13276 L 747.3445300000001 502.54364000000004 L 747.35909 502.70578000000006 L 748.19009 512.3791100000001 C 748.19009 512.3791100000001 749.56236 516.81477 751.03024 523.45668 Z" transform="matrix(1 0 0 1 140.43 63) translate(-740.43, -513)" vector-effect="non-scaling-stroke"/></g><g><path style="stroke:none;stroke-width:1;stroke-dasharray:none;stroke-linecap:butt;stroke-dashoffset:0;stroke-linejoin:miter;stroke-miterlimit:4;fill:#2f2e41;fill-rule:nonzero;opacity:1" stroke-linecap="round" d="M 786.52421 523.45668 L 764.15483 523.45668 C 764.49356 509.94702 762.6695599999999 502.54368 763.60772 502.54368 L 764.15483 502.9751 L 770.7475199999999 508.18091 L 779.4365199999999 511.36868 L 779.4423199999999 511.36868 L 785.4327599999999 513.56623 L 786.48376 513.95132 L 786.48376 514.44643 C 786.48661 515.63347 786.4924 518.87915 786.52421 523.45668 Z" transform="matrix(1 0 0 1 174.93 63) translate(-774.93, -513)" vector-effect="non-scaling-stroke"/></g><g><path style="stroke:none;stroke-width:1;stroke-dasharray:none;stroke-linecap:butt;stroke-dashoffset:0;stroke-linejoin:miter;stroke-miterlimit:4;fill:#2f2e41;fill-rule:nonzero;opacity:1" stroke-linecap="round" d="M 743.813 487.4646 C 743.813 487.4646 744.88269 485.58605 744.634 479.31045 C 744.38531 473.03485 753.94154 476.58426000000003 761.92677 475.9856 C 769.912 475.3869399999999 768.22167 486.46286 768.22167 486.46286 C 768.22167 486.46286 768.7977500000001 485.80446 770.03115 480.45885999999996 C 771.26455 475.1132599999999 768.4640800000001 469.78622999999993 768.4640800000001 469.78622999999993 C 767.6393 464.16903999999994 763.1943200000001 465.9693499999999 763.1943200000001 465.9693499999999 C 764.3585145555406 466.2652735970392 765.107231414809 467.3974074633886 764.9238300000001 468.5845399999999 C 763.11183 465.4076499999999 758.6668300000001 467.2079599999999 758.6668300000001 467.2079599999999 C 752.7385100000001 463.4877899999999 746.7302200000001 468.3867799999999 746.7302200000001 468.3867799999999 C 739.5685100000002 470.01216999999986 743.7685800000002 475.70756999999986 743.7685800000002 475.70756999999986 C 736.56633 479.34734 743.813 487.4646 743.813 487.4646 Z" transform="matrix(1 0 0 1 155.46 26.58) translate(-755.46, -476.58)" vector-effect="non-scaling-stroke"/></g><g><path style="stroke:none;stroke-width:1;stroke-dasharray:none;stroke-linecap:butt;stroke-dashoffset:0;stroke-linejoin:miter;stroke-miterlimit:4;fill:#2f2e41;fill-rule:nonzero;opacity:1" stroke-linecap="round" d="M 732.7318 523.45668 L 724.0544100000001 523.45668 C 724.122080021708 522.3874947281114 724.124013662444 521.3151623646188 724.0602000000001 520.24574 C 723.5419300000001 518.1813599999999 730.8324400000001 515.39027 731.0524100000001 515.30629 L 731.0582100000001 515.3034 L 731.0612100000002 515.3034 L 732.4509200000002 516.0504 Z" transform="matrix(1 0 0 1 128.38 69.38) translate(-728.38, -519.38)" vector-effect="non-scaling-stroke"/></g><g><path style="stroke:none;stroke-width:1;stroke-dasharray:none;stroke-linecap:butt;stroke-dashoffset:0;stroke-linejoin:miter;stroke-miterlimit:4;fill:#2f2e41;fill-rule:nonzero;opacity:1" stroke-linecap="round" d="M 788.09064 523.45668 L 778.97605 523.45668 L 777.83827 512.22277 L 779.11502 511.29046 C 779.11502 511.29046 779.23095 511.31653 779.4364999999999 511.36863999999997 L 779.4422999999999 511.36863999999997 C 781.5247711393511 511.84231195956016 783.5379739249704 512.5808409793881 785.43274 513.56619 C 785.8346917001436 513.7917803321909 786.1911041037068 514.0902714812073 786.48374 514.44639 C 786.6629672293718 514.6613815632096 786.752180719173 514.9373163791552 786.73274 515.2165399999999 C 786.68637 515.63637 787.21914 518.72859 788.09064 523.45668 Z" transform="matrix(1 0 0 1 182.96 67.37) translate(-782.96, -517.37)" vector-effect="non-scaling-stroke"/></g><g><path style="stroke:none;stroke-width:1;stroke-dasharray:none;stroke-linecap:butt;stroke-dashoffset:0;stroke-linejoin:miter;stroke-miterlimit:4;fill:#f0f0f0;fill-rule:nonzero;opacity:1" stroke-linecap="round" d="M 821.02115 406.82952 L 694.49489 406.82952 C 693.8394053261894 406.88469509051185 693.260249778442 406.4053015195708 693.19199 405.75105 L 693.19199 303.65575 C 693.2602498234667 303.00149718504855 693.8394035426354 302.5221006825932 694.49489 302.57727 L 821.02115 302.57727 C 821.6766416302365 302.52208417830724 822.2558054238534 303.0014890199221 822.32405 303.65575 L 822.32405 405.75105 C 822.2558003864275 406.40530696304006 821.6766381223443 406.88470609339987 821.02115 406.82952 Z" transform="matrix(1 0 0 1 157.76 -95.3) translate(-757.76, -354.7)" vector-effect="non-scaling-stroke"/></g><g><path style="stroke:none;stroke-width:1;stroke-dasharray:none;stroke-linecap:butt;stroke-dashoffset:0;stroke-linejoin:miter;stroke-miterlimit:4;fill:#fff;fill-rule:nonzero;opacity:1" stroke-linecap="round" d="M 807.26839 313.86934 L 708.24784 313.86934 C 707.5287180434171 313.8704248621565 706.9460248621565 314.4531180434172 706.94494 315.17224000000004 L 706.94494 391.89869000000004 C 706.9460248621565 392.6178119565829 707.5287180434171 393.2005051378436 708.24784 393.20159000000007 L 807.26839 393.20159000000007 C 807.9875119565828 393.2005051378436 808.5702051378435 392.6178119565829 808.57129 391.89869000000004 L 808.57129 315.17224 C 808.5702051378435 314.4531180434172 807.9875119565828 313.8704248621565 807.26839 313.86934 Z" transform="matrix(1 0 0 1 157.76 -96.46) translate(-757.76, -353.54)" vector-effect="non-scaling-stroke"/></g><g><path style="stroke:none;stroke-width:1;stroke-dasharray:none;stroke-linecap:butt;stroke-dashoffset:0;stroke-linejoin:miter;stroke-miterlimit:4;fill:#fe3e55;fill-rule:nonzero;opacity:1" stroke-linecap="round" d="M 782.13106 393.20159 C 782.6898600000001 391.18933 783.1241600000001 389.45503 783.34706 388.2274 C 783.4159530338446 387.84884518324384 783.42279912893 387.4616034308937 783.36733 387.08085 C 782.5334700000001 381.1483 767.47193 376.13358 765.54074 375.51397 L 765.0745900000001 370.34869 L 746.116 368.30748 L 743.7157599999999 374.91464 L 736.91176 377.46543 C 736.6654857722424 377.5563954060538 736.4311756934266 377.6769453190563 736.21398 377.82443 C 735.0450520710676 378.61368289189636 734.4915893206858 380.0476113905566 734.82712 381.41755 L 737.72535 393.20155 L 782.1311400000001 393.20155 Z" transform="matrix(1 0 0 1 159.07 -69.25) translate(-759.07, -380.75)" vector-effect="non-scaling-stroke"/></g><g><path style="stroke:none;stroke-width:1;stroke-dasharray:none;stroke-linecap:butt;stroke-dashoffset:0;stroke-linejoin:miter;stroke-miterlimit:4;fill:#fe3e55;fill-rule:nonzero;opacity:1" stroke-linecap="round" d="M 742.82974 393.20159 L 728.11851 393.20159 C 728.6455100000001 389.91827 729.11751 387.01426000000004 729.42438 385.16703 C 730.5477400000001 378.44403 735.44663 377.87077 736.2138600000001 377.82446 C 736.2747200000001 377.81865999999997 736.3123300000001 377.81865999999997 736.31523 377.81865999999997 L 739.41033 377.81865999999997 Z" transform="matrix(1 0 0 1 135.47 -64.49) translate(-735.47, -385.51)" vector-effect="non-scaling-stroke"/></g><g><path style="stroke:none;stroke-width:1;stroke-dasharray:none;stroke-linecap:butt;stroke-dashoffset:0;stroke-linejoin:miter;stroke-miterlimit:4;fill:#fe3e55;fill-rule:nonzero;opacity:1" stroke-linecap="round" d="M 782.13106 393.20159 L 785.69812 393.20159 C 785.5248170632557 390.97991752133305 784.715689200411 388.85508162077383 783.36737 387.08085 C 782.6909762265005 386.18729803915215 781.818243656546 385.4611767674822 780.81658 384.95857 L 780.54731 384.84275 L 777.41166 393.20159 Z" transform="matrix(1 0 0 1 181.55 -60.98) translate(-781.55, -389.02)" vector-effect="non-scaling-stroke"/></g><g id="e3e8db5d-807d-4643-8c1f-aca9b0b4bfae" transform="matrix(1 0 0 1 154.85 -98.61)"><circle style="stroke:none;stroke-width:1;stroke-dasharray:none;stroke-linecap:butt;stroke-dashoffset:0;stroke-linejoin:miter;stroke-miterlimit:4;fill:#a0616a;fill-rule:nonzero;opacity:1" cx="0" cy="0" r="13.651" vector-effect="non-scaling-stroke"/></g><g id="b5b1c5aa-1c33-4801-a876-6607b8c48426-141"><path style="stroke:none;stroke-width:1;stroke-dasharray:none;stroke-linecap:butt;stroke-dashoffset:0;stroke-linejoin:miter;stroke-miterlimit:4;fill:#2f2e41;fill-rule:nonzero;opacity:1" stroke-linecap="round" d="M 745.69221 344.73711 C 747.1053800000001 346.40945999999997 749.49643 346.88111 751.70243 347.07293 C 756.8599451397271 347.3579032216198 762.0321978590913 346.9356515933965 767.0752 345.81793 C 767.38964 348.84639 766.5362 352.11203 768.31947 354.6037 C 769.155677995387 351.5874407258512 769.6419147524496 348.4849521877012 769.76858 345.35749 C 769.9015845781398 344.01568853190986 769.7264361579618 342.6612322698017 769.2564900000001 341.3974 C 768.743628934671 340.105292509364 767.539904510154 339.21787373196406 766.1539200000001 339.1101 C 767.1709521555526 338.338784961783 768.3622212310797 337.82969332368157 769.6225800000001 337.62775999999997 L 765.2883200000001 335.44962 L 766.4014300000001 334.30687 L 758.5544300000001 333.82668 L 760.8273500000001 332.38298000000003 C 757.4053100352029 331.9130741343905 753.9433505712245 331.8042259297659 750.4985500000001 332.05823000000004 C 748.8893428833783 332.0588030995264 747.3106784686685 332.49764768353504 745.9320400000001 333.32765000000006 C 744.6365500000002 334.25433000000004 743.8877500000001 336.09557000000007 744.6922600000001 337.45574000000005 C 742.6449705996931 337.79195985039127 740.9171309251485 339.1629821068081 740.1244100000001 341.0802800000001 C 739.6312737414416 342.5792798548723 739.5122253591642 344.17613897131537 739.7776400000001 345.73169000000007 C 740.0731857337369 348.22737605024037 740.6531222148126 350.68108535234484 741.5061500000002 353.04501000000005" transform="matrix(1 0 0 1 154.73 -106.74) translate(-754.73, -343.26)" vector-effect="non-scaling-stroke"/></g><g><path style="stroke:none;stroke-width:1;stroke-dasharray:none;stroke-linecap:butt;stroke-dashoffset:0;stroke-linejoin:miter;stroke-miterlimit:4;fill:#e4e4e4;fill-rule:nonzero;opacity:1" stroke-linecap="round" d="M 355.73622 534.19329 L 355.73622 303.33219 C 355.90446301838637 301.8421606265733 357.2318394033506 300.7592113113232 358.72531 300.89352 L 648.99869 300.89352 C 650.4921505138661 300.7592442173624 651.8195067696142 301.8421771100505 651.98778 303.33219 L 651.98778 534.19329 C 651.8195067696142 535.6833028899496 650.4921505138661 536.7662357826378 648.99869 536.63196 L 358.72531 536.63196 C 357.2318394033506 536.7662686886769 355.90446301838637 535.6833193734268 355.73622 534.19329 Z" transform="matrix(1 0 0 1 -96.14 -31.24) translate(-503.86, -418.76)" vector-effect="non-scaling-stroke"/></g><g><path style="stroke:none;stroke-width:1;stroke-dasharray:none;stroke-linecap:butt;stroke-dashoffset:0;stroke-linejoin:miter;stroke-miterlimit:4;fill:#fff;fill-rule:nonzero;opacity:1" stroke-linecap="round" d="M 387.28745 329.78858 L 387.28745 505.81249 C 387.28993912462164 507.46228669374756 388.6267433062524 508.79909087537834 390.27653999999995 508.80158 L 617.447 508.80158 C 619.0967950678279 508.79909086121717 620.4335963806154 507.4622850761461 620.43608 505.81249 L 620.43608 329.78858 C 620.4335908754023 328.1387888290937 619.0967911709064 326.8019891245977 617.447 326.7995 L 390.27654 326.7995 C 388.6267449238539 326.8019836193845 387.2899391387828 328.1387849321721 387.28745 329.78858 Z" transform="matrix(1 0 0 1 -96.14 -32.2) translate(-503.86, -417.8)" vector-effect="non-scaling-stroke"/></g><g><path style="stroke:none;stroke-width:1;stroke-dasharray:none;stroke-linecap:butt;stroke-dashoffset:0;stroke-linejoin:miter;stroke-miterlimit:4;fill:#fe3e55;fill-rule:nonzero;opacity:1" stroke-linecap="round" d="M 481.51013 508.80158 L 527.22974 508.80158 L 524.38028 466.03773 L 507.88712 469.84382 L 491.84576 463.673 L 491.42055 463.51359 L 491.39396 463.50029 C 491.38823377084174 463.513106283183 491.38377908962576 463.5264535799091 491.38066 463.54014 C 491.12833 464.55648 486.09333 484.71618 481.51013 508.80158 Z" transform="matrix(1 0 0 1 -95.63 36.15) translate(-504.37, -486.15)" vector-effect="non-scaling-stroke"/></g><g transform="matrix(1 0 0 1 -124.64 36.02)"><polygon style="stroke:none;stroke-width:1;stroke-dasharray:none;stroke-linecap:butt;stroke-dashoffset:0;stroke-linejoin:miter;stroke-miterlimit:4;fill:#2f2e41;fill-rule:nonzero;opacity:1" points="-21.4 -13 -17.13 22.78 21.4 22.78 16.49 -22.34 16.44 -22.78 16.06 -22.5 16.02 -22.48 6.52 -15.54 -21.4 -13" vector-effect="non-scaling-stroke"/></g><g><path style="stroke:none;stroke-width:1;stroke-dasharray:none;stroke-linecap:butt;stroke-dashoffset:0;stroke-linejoin:miter;stroke-miterlimit:4;fill:#2f2e41;fill-rule:nonzero;opacity:1" stroke-linecap="round" d="M 520.46781 508.80158 L 554.9751 508.80158 L 555.47328 480.63109 L 530.0793600000001 472.20851 L 524.3802800000001 466.03773 C 524.3802800000001 466.03773 522.58005 484.60328 520.46781 508.80158 Z" transform="matrix(1 0 0 1 -62.03 37.42) translate(-537.97, -487.42)" vector-effect="non-scaling-stroke"/></g><g><path style="stroke:none;stroke-width:1;stroke-dasharray:none;stroke-linecap:butt;stroke-dashoffset:0;stroke-linejoin:miter;stroke-miterlimit:4;fill:#2f2e41;fill-rule:nonzero;opacity:1" stroke-linecap="round" d="M 437.34458 508.80158 L 465.94035 508.80158 L 464.10688000000005 483.16849 L 453.95742000000007 473.01891 C 453.95742000000007 473.01891 445.92668 489.86405 437.34458 508.80158 Z" transform="matrix(1 0 0 1 -148.36 40.91) translate(-451.64, -490.91)" vector-effect="non-scaling-stroke"/></g><g><path style="stroke:none;stroke-width:1;stroke-dasharray:none;stroke-linecap:butt;stroke-dashoffset:0;stroke-linejoin:miter;stroke-miterlimit:4;fill:#2f2e41;fill-rule:nonzero;opacity:1" stroke-linecap="round" d="M 546.83815 508.80158 L 561.9231500000001 508.80158 C 561.85666 500.59158 561.8167700000001 494.91892 561.8167700000001 493.31812 C 561.9704258044363 488.29141931274967 559.5867986267108 483.5241950178284 555.4732300000002 480.63112 L 547.8544100000001 483.16852 Z" transform="matrix(1 0 0 1 -45.62 44.72) translate(-554.38, -494.72)" vector-effect="non-scaling-stroke"/></g><g><path style="stroke:none;stroke-width:1;stroke-dasharray:none;stroke-linecap:butt;stroke-dashoffset:0;stroke-linejoin:miter;stroke-miterlimit:4;fill:#2f2e41;fill-rule:nonzero;opacity:1" stroke-linecap="round" d="M 549.19147 452.58108 L 469.2581 452.58108 L 469.2581 418.89133 C 469.2581 407.34533 477.39241000000004 393.46387999999996 487.39068000000003 387.94687999999996 C 501.42396 380.20459999999997 516.76589 380.06856 529.4819100000001 387.57552 C 541.6579469345209 394.785284161595 549.1443482743 407.86790112847535 549.1914700000001 422.01831999999996 Z" transform="matrix(1 0 0 1 -90.78 -32.69) translate(-509.22, -417.31)" vector-effect="non-scaling-stroke"/></g><g transform="matrix(0.48 -0.88 0.88 0.48 -89.19 -27.12)"><circle style="stroke:none;stroke-width:1;stroke-dasharray:none;stroke-linecap:butt;stroke-dashoffset:0;stroke-linejoin:miter;stroke-miterlimit:4;fill:#ffb8b8;fill-rule:nonzero;opacity:1" cx="0" cy="0" r="28.871" vector-effect="non-scaling-stroke"/></g><g><path style="stroke:none;stroke-width:1;stroke-dasharray:none;stroke-linecap:butt;stroke-dashoffset:0;stroke-linejoin:miter;stroke-miterlimit:4;fill:#2f2e41;fill-rule:nonzero;opacity:1" stroke-linecap="round" d="M 538.25017 424.3693 L 497.06117 424.3693 L 496.9636 423.90151000000003 C 496.4868557556637 421.4463376655482 495.87086108760576 419.0202668711545 495.11859999999996 416.6350500000001 C 493.48289551073725 419.03126389308807 491.9745167738884 421.51195571320045 490.59972999999997 424.06682 L 490.43184999999994 424.3693 L 482.4244 424.3693 C 481.4309165753183 424.36832954814076 480.48368720072426 423.9493962120286 479.81456 423.21504 C 479.59673999999995 422.97512 479.08705 422.41378 481.19611 396.66835 C 481.31424382640375 395.4211103930064 482.08000522847544 394.32806802737383 483.21189 393.79103999999995 C 501.28448 385.35425999999995 519.59872 385.57752999999997 537.65008 394.45798999999994 L 537.97208 394.45798999999994 L 538.08515 394.90568999999994 C 541.64635 422.30816999999996 541.13408 422.8999299999999 540.9154 423.1524799999999 C 540.2455822390348 423.9255256266366 539.2730362247817 424.3695448824095 538.25017 424.3693 Z" transform="matrix(1 0 0 1 -89.66 -44) translate(-510.34, -406)" vector-effect="non-scaling-stroke"/></g></g></g></svg>