<?xml version="1.0" encoding="UTF-8" standalone="no" ?>
<!DOCTYPE svg PUBLIC "-//W3C//DTD SVG 1.1//EN" "http://www.w3.org/Graphics/SVG/1.1/DTD/svg11.dtd">
<svg xmlns="http://www.w3.org/2000/svg" xmlns:xlink="http://www.w3.org/1999/xlink" version="1.1" width="900" height="723" viewBox="0 0 900 723" xml:space="preserve">
<desc>Created with Fabric.js 5.2.4</desc>
<defs>
</defs>
<rect x="0" y="0" width="100%" height="100%" fill="transparent"></rect>
<g transform="matrix(Infinity NaN NaN Infinity 0 0)" id="b493bfe7-4746-4a69-9d9a-cedfa6bb029b"  >
</g>
<g transform="matrix(1 0 0 1 450 361.5)" id="d091a372-069e-4449-b33a-eeb6876397bf"  >
<rect style="stroke: none; stroke-width: 1; stroke-dasharray: none; stroke-linecap: butt; stroke-dashoffset: 0; stroke-linejoin: miter; stroke-miterlimit: 4; fill: rgb(255,255,255); fill-rule: nonzero; opacity: 1; visibility: hidden;" vector-effect="non-scaling-stroke"  x="-450" y="-361.5" rx="0" ry="0" width="900" height="723" />
</g>
<g transform="matrix(1.12 0 0 1.12 450 343.05)"  >
<g style="" vector-effect="non-scaling-stroke"   >
		<g transform="matrix(1 0 0 1 64.91 -211.95)"  >
<circle style="stroke: none; stroke-width: 1; stroke-dasharray: none; stroke-linecap: butt; stroke-dashoffset: 0; stroke-linejoin: miter; stroke-miterlimit: 4; fill: rgb(242,242,242); fill-rule: nonzero; opacity: 1;" vector-effect="non-scaling-stroke"  cx="0" cy="0" r="26.70075" />
</g>
		<g transform="matrix(1 0 0 1 -13.91 2.08)"  >
<path style="stroke: none; stroke-width: 1; stroke-dasharray: none; stroke-linecap: butt; stroke-dashoffset: 0; stroke-linejoin: miter; stroke-miterlimit: 4; fill: rgb(242,242,242); fill-rule: nonzero; opacity: 1;" vector-effect="non-scaling-stroke"  transform=" translate(-586.09, -452.07)" d="M 872.03753 661.02307 C 911.7252299999999 630.79418 930.6810499999999 579.99761 918.8138799999999 531.5407299999999 Q 918.3715699999999 529.7347299999999 917.8802099999999 527.93693 C 910.0127899999999 499.1735 890.5485399999999 471.83635 862.1802099999999 462.64563999999996 C 838.3604999999999 454.92869999999994 812.3605899999999 460.86289999999997 787.5108499999999 457.79414999999995 C 738.7294899999999 451.7699799999999 700.9102799999998 412.3001499999999 674.2996999999999 370.97481999999997 C 647.6890599999999 329.64935999999994 627.2378799999999 283.39151 591.8781299999999 249.25068999999996 C 533.5933399999999 192.97532999999996 438.51620999999994 180.85919999999996 366.25141999999994 217.49024999999997 C 293.98673 254.12142 247.95487 335.39062 249.918 416.38554 C 251.88122 497.38054 299.96432 574.8172999999999 369.79292 615.90254 C 395.44514 630.99554 425.11429999999996 641.68776 454.64117999999996 637.94631 C 480.26129 634.6999000000001 503.54026 620.93367 529.0397899999999 616.84672 C 569.1309399999999 610.42104 608.9666599999999 628.54756 643.6424699999999 649.67047 C 678.3181799999999 670.79335 711.8125399999999 695.8303500000001 751.2168299999998 705.62289 C 789.47831 715.13139 836.88051 687.80109 872.03753 661.02307 Z" stroke-linecap="round" />
</g>
		<g transform="matrix(1 0 0 1 0.45 -80)"  >
<path style="stroke: none; stroke-width: 1; stroke-dasharray: none; stroke-linecap: butt; stroke-dashoffset: 0; stroke-linejoin: miter; stroke-miterlimit: 4; fill: rgb(63,61,86); fill-rule: nonzero; opacity: 1;" vector-effect="non-scaling-stroke"  transform=" translate(-600.45, -370)" d="M 815.016 219.19108 C 814.14594 218.61108 813.266 218.06108 812.39594 217.50108 C 787.2469467423316 201.4168470060123 760.2913168909375 188.35019689874335 732.0859399999998 178.57107999999994 L 725.54594 268.79107999999997 L 684.0859399999999 268.79107999999997 L 684.0859399999999 165.40107999999998 C 681.4759399999999 164.86108 678.8459399999999 164.35107999999997 676.2159399999999 163.87107999999998 L 676.2159399999999 268.79107999999997 L 626.94587 268.79107999999997 C 570.4637684385527 268.79108000000434 524.6759720913839 223.00330156144295 524.67595 166.52120000000002 L 524.67595 166.5211 C 522.03595 167.09109999999998 519.41595 167.7011 516.79595 168.3511 L 516.79595 268.79110000000003 L 476.66594999999995 268.79110000000003 L 470.43594999999993 182.76110000000003 C 441.4506204566018 193.87739566304413 413.933135744062 208.49584952607623 388.4959499999999 226.2911 C 388.05594999999994 226.59110000000004 387.61594999999994 226.90110000000004 387.18594999999993 227.20110000000003 C 384.97594999999995 228.75110000000004 382.79594999999995 230.33110000000002 380.62594999999993 231.93110000000001 L 380.62594999999993 576.1211000000001 L 498.8959499999999 576.1211000000001 L 496.80594999999994 547.1711 L 485.30594999999994 388.22110000000004 L 716.89595 388.22110000000004 L 705.39595 547.1711 L 703.3059499999999 576.1211000000001 L 820.26595 576.1211000000001 L 820.26595 222.67110000000008 Q 817.65591 220.90114 815.016 219.19108 Z M 516.7959999999999 361.97108000000003 L 483.40599999999995 361.97108000000003 L 477.23599999999993 276.67108 L 516.7959999999999 276.67108 Z M 676.2159999999999 361.97108000000003 L 620.1359999999999 361.97108000000003 L 620.1359999999999 360.28108000000003 C 620.1360686347755 358.64028760604356 619.4836121535528 357.06682438828375 618.3224591768897 355.9075472645716 C 617.1613062002265 354.7482701408594 615.5867901383982 354.09835850949895 613.9459999999998 354.10108 L 589.5659999999998 354.10108 C 587.9267644649855 354.1004350657609 586.3544825361079 354.75133323114534 585.1953678836265 355.9104478836267 C 584.0362532311451 357.0695625361081 583.3853550657607 358.6418444649857 583.3859999999999 360.28108000000003 L 583.3859999999999 361.97108000000003 L 524.6759999999998 361.97108000000003 L 524.6759999999998 276.67108 L 676.2159999999998 276.67108 Z M 684.0859999999999 361.97108000000003 L 684.0859999999999 276.67108 L 724.9759999999999 276.67108 L 718.8059999999999 361.97108000000003 Z" stroke-linecap="round" />
</g>
		<g transform="matrix(1 0 0 1 0 163.14)"  >
<path style="stroke: none; stroke-width: 1; stroke-dasharray: none; stroke-linecap: butt; stroke-dashoffset: 0; stroke-linejoin: miter; stroke-miterlimit: 4; fill: rgb(63,61,86); fill-rule: nonzero; opacity: 1;" vector-effect="non-scaling-stroke"  transform=" translate(-600, -613.14)" d="M 206.59 598.16193 C 215.27725283759656 608.4554253922196 224.67349157198296 618.129006877301 234.7099999999999 627.11193 L 965.2900000000001 628.11193 C 975.3265084280171 619.129006877301 984.7227471624035 609.4554253922197 993.4100000000001 599.1619300000001 Z" stroke-linecap="round" />
</g>
		<g transform="matrix(1 0 0 1 169.64 98.32)"  >
<path style="stroke: none; stroke-width: 1; stroke-dasharray: none; stroke-linecap: butt; stroke-dashoffset: 0; stroke-linejoin: miter; stroke-miterlimit: 4; fill: rgb(63,61,86); fill-rule: nonzero; opacity: 1;" vector-effect="non-scaling-stroke"  transform=" translate(-769.64, -548.32)" d="M 702.01993 505.46245 L 702.01993 591.1664499999999 C 702.0217277178173 593.4406005851931 703.864839419178 595.2837167611468 706.13899 595.2855199999999 L 833.14348 595.2855199999999 C 835.4176367693467 595.283727780913 837.260757780913 593.4406067693467 837.2625499999999 591.1664499999999 L 837.2625499999999 505.46244999999993 C 837.2571479052629 503.19052898829415 835.4154055946441 501.35082109989037 833.14348 501.3479299999999 L 706.139 501.3479299999999 C 703.8670766798879 501.35082658550124 702.0253375778307 503.1905312688877 702.01993 505.46245 Z" stroke-linecap="round" />
</g>
		<g transform="matrix(1 0 0 1 169.64 98.31)"  >
<path style="stroke: none; stroke-width: 1; stroke-dasharray: none; stroke-linecap: butt; stroke-dashoffset: 0; stroke-linejoin: miter; stroke-miterlimit: 4; fill: rgb(254,69,91); fill-rule: nonzero; opacity: 1;" vector-effect="non-scaling-stroke"  transform=" translate(-769.64, -548.32)" d="M 704.99939 506.52881 L 704.99939 590.1092 C 705.0014927460587 591.3241331192553 705.9858668807447 592.3085072539412 707.2008 592.31061 L 832.08626 592.31061 C 833.3011953973578 592.3085127403508 834.2855727403509 591.3241353973577 834.28767 590.1092 L 834.28767 506.52881 C 834.287557085389 505.3123078938086 833.302759232241 504.3254567102287 832.08626 504.32281 L 707.2008 504.32281 C 705.9843053419169 504.32546770310483 704.9995139169905 505.31231244506 704.99939 506.52881 Z" stroke-linecap="round" />
</g>
		<g transform="matrix(1 0 0 1 169.3 151.29)"  >
<path style="stroke: none; stroke-width: 1; stroke-dasharray: none; stroke-linecap: butt; stroke-dashoffset: 0; stroke-linejoin: miter; stroke-miterlimit: 4; fill: rgb(47,46,65); fill-rule: nonzero; opacity: 1;" vector-effect="non-scaling-stroke"  transform=" translate(-769.3, -601.3)" d="M 699.36376 607.881 C 699.8351318035151 608.4720488268865 700.5512335813104 608.8146646137127 701.3072199999999 608.81084 L 837.29917 608.81084 C 838.0523526566951 608.8098982135708 838.7650501238144 608.469761667265 839.2395114745206 607.8848074570965 C 839.7139728252268 607.2998532469279 839.899725857318 606.5323075734725 839.74523 605.79514 L 837.63423 595.76792 C 837.4564608456523 594.9370918076071 836.8699781129559 594.2528450145021 836.07612 593.95008 C 835.7932315639525 593.839093951827 835.492001023599 593.7822740019292 835.1881199999999 593.7825799999999 L 703.40985 593.7825799999999 C 703.1059685121837 593.7822690090975 702.8047370495232 593.8390891329665 702.52185 593.95008 C 701.7279667266353 594.2528092639869 701.1414699758898 594.9370724118874 700.9637399999999 595.76792 L 698.8527399999999 605.79514 C 698.7006330004264 606.5318983868151 698.8883187510111 607.2979862106076 699.36376 607.881 Z" stroke-linecap="round" />
</g>
		<g transform="matrix(-1 0 0 -1 232.13 146.84)"  >
<rect style="stroke: none; stroke-width: 1; stroke-dasharray: none; stroke-linecap: butt; stroke-dashoffset: 0; stroke-linejoin: miter; stroke-miterlimit: 4; fill: rgb(63,61,86); fill-rule: nonzero; opacity: 1;" vector-effect="non-scaling-stroke"  x="-2.095" y="-1.255" rx="0.48819" ry="0.48819" width="4.19" height="2.51" />
</g>
		<g transform="matrix(-1 0 0 -1 223.75 146.84)"  >
<rect style="stroke: none; stroke-width: 1; stroke-dasharray: none; stroke-linecap: butt; stroke-dashoffset: 0; stroke-linejoin: miter; stroke-miterlimit: 4; fill: rgb(63,61,86); fill-rule: nonzero; opacity: 1;" vector-effect="non-scaling-stroke"  x="-2.095" y="-1.255" rx="0.48819" ry="0.48819" width="4.19" height="2.51" />
</g>
		<g transform="matrix(-1 0 0 -1 215.38 146.84)"  >
<rect style="stroke: none; stroke-width: 1; stroke-dasharray: none; stroke-linecap: butt; stroke-dashoffset: 0; stroke-linejoin: miter; stroke-miterlimit: 4; fill: rgb(63,61,86); fill-rule: nonzero; opacity: 1;" vector-effect="non-scaling-stroke"  x="-2.095" y="-1.255" rx="0.48819" ry="0.48819" width="4.19" height="2.51" />
</g>
		<g transform="matrix(-1 0 0 -1 207 146.84)"  >
<rect style="stroke: none; stroke-width: 1; stroke-dasharray: none; stroke-linecap: butt; stroke-dashoffset: 0; stroke-linejoin: miter; stroke-miterlimit: 4; fill: rgb(63,61,86); fill-rule: nonzero; opacity: 1;" vector-effect="non-scaling-stroke"  x="-2.095" y="-1.255" rx="0.48819" ry="0.48819" width="4.19" height="2.51" />
</g>
		<g transform="matrix(-1 0 0 -1 198.62 146.84)"  >
<rect style="stroke: none; stroke-width: 1; stroke-dasharray: none; stroke-linecap: butt; stroke-dashoffset: 0; stroke-linejoin: miter; stroke-miterlimit: 4; fill: rgb(63,61,86); fill-rule: nonzero; opacity: 1;" vector-effect="non-scaling-stroke"  x="-2.095" y="-1.255" rx="0.48819" ry="0.48819" width="4.19" height="2.51" />
</g>
		<g transform="matrix(-1 0 0 -1 190.25 146.84)"  >
<rect style="stroke: none; stroke-width: 1; stroke-dasharray: none; stroke-linecap: butt; stroke-dashoffset: 0; stroke-linejoin: miter; stroke-miterlimit: 4; fill: rgb(63,61,86); fill-rule: nonzero; opacity: 1;" vector-effect="non-scaling-stroke"  x="-2.095" y="-1.255" rx="0.48819" ry="0.48819" width="4.19" height="2.51" />
</g>
		<g transform="matrix(-1 0 0 -1 181.87 146.84)"  >
<rect style="stroke: none; stroke-width: 1; stroke-dasharray: none; stroke-linecap: butt; stroke-dashoffset: 0; stroke-linejoin: miter; stroke-miterlimit: 4; fill: rgb(63,61,86); fill-rule: nonzero; opacity: 1;" vector-effect="non-scaling-stroke"  x="-2.095" y="-1.255" rx="0.48819" ry="0.48819" width="4.19" height="2.51" />
</g>
		<g transform="matrix(-1 0 0 -1 173.49 146.84)"  >
<rect style="stroke: none; stroke-width: 1; stroke-dasharray: none; stroke-linecap: butt; stroke-dashoffset: 0; stroke-linejoin: miter; stroke-miterlimit: 4; fill: rgb(63,61,86); fill-rule: nonzero; opacity: 1;" vector-effect="non-scaling-stroke"  x="-2.095" y="-1.255" rx="0.48819" ry="0.48819" width="4.19" height="2.51" />
</g>
		<g transform="matrix(-1 0 0 -1 165.12 146.84)"  >
<rect style="stroke: none; stroke-width: 1; stroke-dasharray: none; stroke-linecap: butt; stroke-dashoffset: 0; stroke-linejoin: miter; stroke-miterlimit: 4; fill: rgb(63,61,86); fill-rule: nonzero; opacity: 1;" vector-effect="non-scaling-stroke"  x="-2.095" y="-1.255" rx="0.48819" ry="0.48819" width="4.19" height="2.51" />
</g>
		<g transform="matrix(-1 0 0 -1 156.74 146.84)"  >
<rect style="stroke: none; stroke-width: 1; stroke-dasharray: none; stroke-linecap: butt; stroke-dashoffset: 0; stroke-linejoin: miter; stroke-miterlimit: 4; fill: rgb(63,61,86); fill-rule: nonzero; opacity: 1;" vector-effect="non-scaling-stroke"  x="-2.095" y="-1.255" rx="0.48819" ry="0.48819" width="4.19" height="2.51" />
</g>
		<g transform="matrix(-1 0 0 -1 148.35 146.84)"  >
<rect style="stroke: none; stroke-width: 1; stroke-dasharray: none; stroke-linecap: butt; stroke-dashoffset: 0; stroke-linejoin: miter; stroke-miterlimit: 4; fill: rgb(63,61,86); fill-rule: nonzero; opacity: 1;" vector-effect="non-scaling-stroke"  x="-2.095" y="-1.255" rx="0.48819" ry="0.48819" width="4.19" height="2.51" />
</g>
		<g transform="matrix(-1 0 0 -1 139.99 146.84)"  >
<rect style="stroke: none; stroke-width: 1; stroke-dasharray: none; stroke-linecap: butt; stroke-dashoffset: 0; stroke-linejoin: miter; stroke-miterlimit: 4; fill: rgb(63,61,86); fill-rule: nonzero; opacity: 1;" vector-effect="non-scaling-stroke"  x="-2.095" y="-1.255" rx="0.48819" ry="0.48819" width="4.19" height="2.51" />
</g>
		<g transform="matrix(-1 0 0 -1 131.6 146.84)"  >
<rect style="stroke: none; stroke-width: 1; stroke-dasharray: none; stroke-linecap: butt; stroke-dashoffset: 0; stroke-linejoin: miter; stroke-miterlimit: 4; fill: rgb(63,61,86); fill-rule: nonzero; opacity: 1;" vector-effect="non-scaling-stroke"  x="-2.095" y="-1.255" rx="0.48819" ry="0.48819" width="4.19" height="2.51" />
</g>
		<g transform="matrix(-1 0 0 -1 123.22 146.84)"  >
<rect style="stroke: none; stroke-width: 1; stroke-dasharray: none; stroke-linecap: butt; stroke-dashoffset: 0; stroke-linejoin: miter; stroke-miterlimit: 4; fill: rgb(63,61,86); fill-rule: nonzero; opacity: 1;" vector-effect="non-scaling-stroke"  x="-2.095" y="-1.255" rx="0.48819" ry="0.48819" width="4.19" height="2.51" />
</g>
		<g transform="matrix(-1 0 0 -1 114.84 146.84)"  >
<rect style="stroke: none; stroke-width: 1; stroke-dasharray: none; stroke-linecap: butt; stroke-dashoffset: 0; stroke-linejoin: miter; stroke-miterlimit: 4; fill: rgb(63,61,86); fill-rule: nonzero; opacity: 1;" vector-effect="non-scaling-stroke"  x="-2.095" y="-1.255" rx="0.48819" ry="0.48819" width="4.19" height="2.51" />
</g>
		<g transform="matrix(-1 0 0 -1 106.47 146.84)"  >
<rect style="stroke: none; stroke-width: 1; stroke-dasharray: none; stroke-linecap: butt; stroke-dashoffset: 0; stroke-linejoin: miter; stroke-miterlimit: 4; fill: rgb(63,61,86); fill-rule: nonzero; opacity: 1;" vector-effect="non-scaling-stroke"  x="-2.095" y="-1.255" rx="0.48819" ry="0.48819" width="4.19" height="2.51" />
</g>
		<g transform="matrix(-1 0 0 -1 232.22 151.03)"  >
<rect style="stroke: none; stroke-width: 1; stroke-dasharray: none; stroke-linecap: butt; stroke-dashoffset: 0; stroke-linejoin: miter; stroke-miterlimit: 4; fill: rgb(63,61,86); fill-rule: nonzero; opacity: 1;" vector-effect="non-scaling-stroke"  x="-2.095" y="-1.255" rx="0.48819" ry="0.48819" width="4.19" height="2.51" />
</g>
		<g transform="matrix(-1 0 0 -1 223.84 151.03)"  >
<rect style="stroke: none; stroke-width: 1; stroke-dasharray: none; stroke-linecap: butt; stroke-dashoffset: 0; stroke-linejoin: miter; stroke-miterlimit: 4; fill: rgb(63,61,86); fill-rule: nonzero; opacity: 1;" vector-effect="non-scaling-stroke"  x="-2.095" y="-1.255" rx="0.48819" ry="0.48819" width="4.19" height="2.51" />
</g>
		<g transform="matrix(-1 0 0 -1 215.47 151.03)"  >
<rect style="stroke: none; stroke-width: 1; stroke-dasharray: none; stroke-linecap: butt; stroke-dashoffset: 0; stroke-linejoin: miter; stroke-miterlimit: 4; fill: rgb(63,61,86); fill-rule: nonzero; opacity: 1;" vector-effect="non-scaling-stroke"  x="-2.095" y="-1.255" rx="0.48819" ry="0.48819" width="4.19" height="2.51" />
</g>
		<g transform="matrix(-1 0 0 -1 207.09 151.03)"  >
<rect style="stroke: none; stroke-width: 1; stroke-dasharray: none; stroke-linecap: butt; stroke-dashoffset: 0; stroke-linejoin: miter; stroke-miterlimit: 4; fill: rgb(63,61,86); fill-rule: nonzero; opacity: 1;" vector-effect="non-scaling-stroke"  x="-2.095" y="-1.255" rx="0.48819" ry="0.48819" width="4.19" height="2.51" />
</g>
		<g transform="matrix(-1 0 0 -1 198.72 151.03)"  >
<rect style="stroke: none; stroke-width: 1; stroke-dasharray: none; stroke-linecap: butt; stroke-dashoffset: 0; stroke-linejoin: miter; stroke-miterlimit: 4; fill: rgb(63,61,86); fill-rule: nonzero; opacity: 1;" vector-effect="non-scaling-stroke"  x="-2.095" y="-1.255" rx="0.48819" ry="0.48819" width="4.19" height="2.51" />
</g>
		<g transform="matrix(-1 0 0 -1 190.34 151.03)"  >
<rect style="stroke: none; stroke-width: 1; stroke-dasharray: none; stroke-linecap: butt; stroke-dashoffset: 0; stroke-linejoin: miter; stroke-miterlimit: 4; fill: rgb(63,61,86); fill-rule: nonzero; opacity: 1;" vector-effect="non-scaling-stroke"  x="-2.095" y="-1.255" rx="0.48819" ry="0.48819" width="4.19" height="2.51" />
</g>
		<g transform="matrix(-1 0 0 -1 181.97 151.03)"  >
<rect style="stroke: none; stroke-width: 1; stroke-dasharray: none; stroke-linecap: butt; stroke-dashoffset: 0; stroke-linejoin: miter; stroke-miterlimit: 4; fill: rgb(63,61,86); fill-rule: nonzero; opacity: 1;" vector-effect="non-scaling-stroke"  x="-2.095" y="-1.255" rx="0.48819" ry="0.48819" width="4.19" height="2.51" />
</g>
		<g transform="matrix(-1 0 0 -1 173.59 151.03)"  >
<rect style="stroke: none; stroke-width: 1; stroke-dasharray: none; stroke-linecap: butt; stroke-dashoffset: 0; stroke-linejoin: miter; stroke-miterlimit: 4; fill: rgb(63,61,86); fill-rule: nonzero; opacity: 1;" vector-effect="non-scaling-stroke"  x="-2.095" y="-1.255" rx="0.48819" ry="0.48819" width="4.19" height="2.51" />
</g>
		<g transform="matrix(-1 0 0 -1 165.22 151.03)"  >
<rect style="stroke: none; stroke-width: 1; stroke-dasharray: none; stroke-linecap: butt; stroke-dashoffset: 0; stroke-linejoin: miter; stroke-miterlimit: 4; fill: rgb(63,61,86); fill-rule: nonzero; opacity: 1;" vector-effect="non-scaling-stroke"  x="-2.095" y="-1.255" rx="0.48819" ry="0.48819" width="4.19" height="2.51" />
</g>
		<g transform="matrix(-1 0 0 -1 156.84 151.03)"  >
<rect style="stroke: none; stroke-width: 1; stroke-dasharray: none; stroke-linecap: butt; stroke-dashoffset: 0; stroke-linejoin: miter; stroke-miterlimit: 4; fill: rgb(63,61,86); fill-rule: nonzero; opacity: 1;" vector-effect="non-scaling-stroke"  x="-2.095" y="-1.255" rx="0.48819" ry="0.48819" width="4.19" height="2.51" />
</g>
		<g transform="matrix(-1 0 0 -1 148.46 151.03)"  >
<rect style="stroke: none; stroke-width: 1; stroke-dasharray: none; stroke-linecap: butt; stroke-dashoffset: 0; stroke-linejoin: miter; stroke-miterlimit: 4; fill: rgb(63,61,86); fill-rule: nonzero; opacity: 1;" vector-effect="non-scaling-stroke"  x="-2.095" y="-1.255" rx="0.48819" ry="0.48819" width="4.19" height="2.51" />
</g>
		<g transform="matrix(-1 0 0 -1 140.07 151.03)"  >
<rect style="stroke: none; stroke-width: 1; stroke-dasharray: none; stroke-linecap: butt; stroke-dashoffset: 0; stroke-linejoin: miter; stroke-miterlimit: 4; fill: rgb(63,61,86); fill-rule: nonzero; opacity: 1;" vector-effect="non-scaling-stroke"  x="-2.095" y="-1.255" rx="0.48819" ry="0.48819" width="4.19" height="2.51" />
</g>
		<g transform="matrix(-1 0 0 -1 131.71 151.03)"  >
<rect style="stroke: none; stroke-width: 1; stroke-dasharray: none; stroke-linecap: butt; stroke-dashoffset: 0; stroke-linejoin: miter; stroke-miterlimit: 4; fill: rgb(63,61,86); fill-rule: nonzero; opacity: 1;" vector-effect="non-scaling-stroke"  x="-2.095" y="-1.255" rx="0.48819" ry="0.48819" width="4.19" height="2.51" />
</g>
		<g transform="matrix(-1 0 0 -1 123.32 151.03)"  >
<rect style="stroke: none; stroke-width: 1; stroke-dasharray: none; stroke-linecap: butt; stroke-dashoffset: 0; stroke-linejoin: miter; stroke-miterlimit: 4; fill: rgb(63,61,86); fill-rule: nonzero; opacity: 1;" vector-effect="non-scaling-stroke"  x="-2.095" y="-1.255" rx="0.48819" ry="0.48819" width="4.19" height="2.51" />
</g>
		<g transform="matrix(-1 0 0 -1 114.95 151.03)"  >
<rect style="stroke: none; stroke-width: 1; stroke-dasharray: none; stroke-linecap: butt; stroke-dashoffset: 0; stroke-linejoin: miter; stroke-miterlimit: 4; fill: rgb(63,61,86); fill-rule: nonzero; opacity: 1;" vector-effect="non-scaling-stroke"  x="-2.095" y="-1.255" rx="0.48819" ry="0.48819" width="4.19" height="2.51" />
</g>
		<g transform="matrix(-1 0 0 -1 106.58 151.03)"  >
<rect style="stroke: none; stroke-width: 1; stroke-dasharray: none; stroke-linecap: butt; stroke-dashoffset: 0; stroke-linejoin: miter; stroke-miterlimit: 4; fill: rgb(63,61,86); fill-rule: nonzero; opacity: 1;" vector-effect="non-scaling-stroke"  x="-2.095" y="-1.255" rx="0.48819" ry="0.48819" width="4.19" height="2.51" />
</g>
		<g transform="matrix(-1 0 0 -1 177.36 156.06)"  >
<rect style="stroke: none; stroke-width: 1; stroke-dasharray: none; stroke-linecap: butt; stroke-dashoffset: 0; stroke-linejoin: miter; stroke-miterlimit: 4; fill: rgb(63,61,86); fill-rule: nonzero; opacity: 1;" vector-effect="non-scaling-stroke"  x="-16.755" y="-1.255" rx="0.48819" ry="0.48819" width="33.51" height="2.51" />
</g>
		<g transform="matrix(1 0 0 1 125.2 74.17)"  >
<rect style="stroke: none; stroke-width: 1; stroke-dasharray: none; stroke-linecap: butt; stroke-dashoffset: 0; stroke-linejoin: miter; stroke-miterlimit: 4; fill: rgb(255,255,255); fill-rule: nonzero; opacity: 1;" vector-effect="non-scaling-stroke"  x="-2.985" y="-1.56" rx="1.56108" ry="1.56108" width="5.97" height="3.12" />
</g>
		<g transform="matrix(1 0 0 1 157.73 74.17)"  >
<rect style="stroke: none; stroke-width: 1; stroke-dasharray: none; stroke-linecap: butt; stroke-dashoffset: 0; stroke-linejoin: miter; stroke-miterlimit: 4; fill: rgb(255,255,255); fill-rule: nonzero; opacity: 1;" vector-effect="non-scaling-stroke"  x="-2.985" y="-1.56" rx="1.56108" ry="1.56108" width="5.97" height="3.12" />
</g>
		<g transform="matrix(1 0 0 1 166.95 74.17)"  >
<rect style="stroke: none; stroke-width: 1; stroke-dasharray: none; stroke-linecap: butt; stroke-dashoffset: 0; stroke-linejoin: miter; stroke-miterlimit: 4; fill: rgb(255,255,255); fill-rule: nonzero; opacity: 1;" vector-effect="non-scaling-stroke"  x="-2.985" y="-1.56" rx="1.56108" ry="1.56108" width="5.97" height="3.12" />
</g>
		<g transform="matrix(1 0 0 1 141.47 73.91)"  >
<rect style="stroke: none; stroke-width: 1; stroke-dasharray: none; stroke-linecap: butt; stroke-dashoffset: 0; stroke-linejoin: miter; stroke-miterlimit: 4; fill: rgb(255,255,255); fill-rule: nonzero; opacity: 1;" vector-effect="non-scaling-stroke"  x="-10.4" y="-1.56" rx="1.56108" ry="1.56108" width="20.8" height="3.12" />
</g>
		<g transform="matrix(1 0 0 1 184.83 73.91)"  >
<rect style="stroke: none; stroke-width: 1; stroke-dasharray: none; stroke-linecap: butt; stroke-dashoffset: 0; stroke-linejoin: miter; stroke-miterlimit: 4; fill: rgb(255,255,255); fill-rule: nonzero; opacity: 1;" vector-effect="non-scaling-stroke"  x="-10.4" y="-1.56" rx="1.56108" ry="1.56108" width="20.8" height="3.12" />
</g>
		<g transform="matrix(1 0 0 1 133.88 81.21)"  >
<rect style="stroke: none; stroke-width: 1; stroke-dasharray: none; stroke-linecap: butt; stroke-dashoffset: 0; stroke-linejoin: miter; stroke-miterlimit: 4; fill: rgb(255,255,255); fill-rule: nonzero; opacity: 1;" vector-effect="non-scaling-stroke"  x="-2.985" y="-1.56" rx="1.56108" ry="1.56108" width="5.97" height="3.12" />
</g>
		<g transform="matrix(1 0 0 1 166.41 81.21)"  >
<rect style="stroke: none; stroke-width: 1; stroke-dasharray: none; stroke-linecap: butt; stroke-dashoffset: 0; stroke-linejoin: miter; stroke-miterlimit: 4; fill: rgb(255,255,255); fill-rule: nonzero; opacity: 1;" vector-effect="non-scaling-stroke"  x="-2.985" y="-1.56" rx="1.56108" ry="1.56108" width="5.97" height="3.12" />
</g>
		<g transform="matrix(1 0 0 1 175.62 81.21)"  >
<rect style="stroke: none; stroke-width: 1; stroke-dasharray: none; stroke-linecap: butt; stroke-dashoffset: 0; stroke-linejoin: miter; stroke-miterlimit: 4; fill: rgb(255,255,255); fill-rule: nonzero; opacity: 1;" vector-effect="non-scaling-stroke"  x="-2.985" y="-1.56" rx="1.56108" ry="1.56108" width="5.97" height="3.12" />
</g>
		<g transform="matrix(1 0 0 1 150.14 80.95)"  >
<rect style="stroke: none; stroke-width: 1; stroke-dasharray: none; stroke-linecap: butt; stroke-dashoffset: 0; stroke-linejoin: miter; stroke-miterlimit: 4; fill: rgb(255,255,255); fill-rule: nonzero; opacity: 1;" vector-effect="non-scaling-stroke"  x="-10.4" y="-1.56" rx="1.56108" ry="1.56108" width="20.8" height="3.12" />
</g>
		<g transform="matrix(1 0 0 1 193.5 80.95)"  >
<rect style="stroke: none; stroke-width: 1; stroke-dasharray: none; stroke-linecap: butt; stroke-dashoffset: 0; stroke-linejoin: miter; stroke-miterlimit: 4; fill: rgb(255,255,255); fill-rule: nonzero; opacity: 1;" vector-effect="non-scaling-stroke"  x="-10.4" y="-1.56" rx="1.56108" ry="1.56108" width="20.8" height="3.12" />
</g>
		<g transform="matrix(1 0 0 1 142.56 88.26)"  >
<rect style="stroke: none; stroke-width: 1; stroke-dasharray: none; stroke-linecap: butt; stroke-dashoffset: 0; stroke-linejoin: miter; stroke-miterlimit: 4; fill: rgb(255,255,255); fill-rule: nonzero; opacity: 1;" vector-effect="non-scaling-stroke"  x="-2.985" y="-1.56" rx="1.56108" ry="1.56108" width="5.97" height="3.12" />
</g>
		<g transform="matrix(1 0 0 1 175.08 88.26)"  >
<rect style="stroke: none; stroke-width: 1; stroke-dasharray: none; stroke-linecap: butt; stroke-dashoffset: 0; stroke-linejoin: miter; stroke-miterlimit: 4; fill: rgb(255,255,255); fill-rule: nonzero; opacity: 1;" vector-effect="non-scaling-stroke"  x="-2.985" y="-1.56" rx="1.56108" ry="1.56108" width="5.97" height="3.12" />
</g>
		<g transform="matrix(1 0 0 1 184.29 88.26)"  >
<rect style="stroke: none; stroke-width: 1; stroke-dasharray: none; stroke-linecap: butt; stroke-dashoffset: 0; stroke-linejoin: miter; stroke-miterlimit: 4; fill: rgb(255,255,255); fill-rule: nonzero; opacity: 1;" vector-effect="non-scaling-stroke"  x="-2.985" y="-1.56" rx="1.56108" ry="1.56108" width="5.97" height="3.12" />
</g>
		<g transform="matrix(1 0 0 1 158.81 88)"  >
<rect style="stroke: none; stroke-width: 1; stroke-dasharray: none; stroke-linecap: butt; stroke-dashoffset: 0; stroke-linejoin: miter; stroke-miterlimit: 4; fill: rgb(255,255,255); fill-rule: nonzero; opacity: 1;" vector-effect="non-scaling-stroke"  x="-10.4" y="-1.56" rx="1.56108" ry="1.56108" width="20.8" height="3.12" />
</g>
		<g transform="matrix(1 0 0 1 202.18 88)"  >
<rect style="stroke: none; stroke-width: 1; stroke-dasharray: none; stroke-linecap: butt; stroke-dashoffset: 0; stroke-linejoin: miter; stroke-miterlimit: 4; fill: rgb(255,255,255); fill-rule: nonzero; opacity: 1;" vector-effect="non-scaling-stroke"  x="-10.4" y="-1.56" rx="1.56108" ry="1.56108" width="20.8" height="3.12" />
</g>
		<g transform="matrix(1 0 0 1 151.23 95.31)"  >
<rect style="stroke: none; stroke-width: 1; stroke-dasharray: none; stroke-linecap: butt; stroke-dashoffset: 0; stroke-linejoin: miter; stroke-miterlimit: 4; fill: rgb(255,255,255); fill-rule: nonzero; opacity: 1;" vector-effect="non-scaling-stroke"  x="-2.985" y="-1.56" rx="1.56108" ry="1.56108" width="5.97" height="3.12" />
</g>
		<g transform="matrix(1 0 0 1 183.75 95.31)"  >
<rect style="stroke: none; stroke-width: 1; stroke-dasharray: none; stroke-linecap: butt; stroke-dashoffset: 0; stroke-linejoin: miter; stroke-miterlimit: 4; fill: rgb(255,255,255); fill-rule: nonzero; opacity: 1;" vector-effect="non-scaling-stroke"  x="-2.985" y="-1.56" rx="1.56108" ry="1.56108" width="5.97" height="3.12" />
</g>
		<g transform="matrix(1 0 0 1 192.97 95.31)"  >
<rect style="stroke: none; stroke-width: 1; stroke-dasharray: none; stroke-linecap: butt; stroke-dashoffset: 0; stroke-linejoin: miter; stroke-miterlimit: 4; fill: rgb(255,255,255); fill-rule: nonzero; opacity: 1;" vector-effect="non-scaling-stroke"  x="-2.985" y="-1.56" rx="1.56108" ry="1.56108" width="5.97" height="3.12" />
</g>
		<g transform="matrix(1 0 0 1 167.49 95.05)"  >
<rect style="stroke: none; stroke-width: 1; stroke-dasharray: none; stroke-linecap: butt; stroke-dashoffset: 0; stroke-linejoin: miter; stroke-miterlimit: 4; fill: rgb(255,255,255); fill-rule: nonzero; opacity: 1;" vector-effect="non-scaling-stroke"  x="-10.4" y="-1.56" rx="1.56108" ry="1.56108" width="20.8" height="3.12" />
</g>
		<g transform="matrix(1 0 0 1 157.73 123.33)"  >
<rect style="stroke: none; stroke-width: 1; stroke-dasharray: none; stroke-linecap: butt; stroke-dashoffset: 0; stroke-linejoin: miter; stroke-miterlimit: 4; fill: rgb(255,255,255); fill-rule: nonzero; opacity: 1;" vector-effect="non-scaling-stroke"  x="-2.985" y="-1.56" rx="1.56108" ry="1.56108" width="5.97" height="3.12" />
</g>
		<g transform="matrix(1 0 0 1 166.95 123.33)"  >
<rect style="stroke: none; stroke-width: 1; stroke-dasharray: none; stroke-linecap: butt; stroke-dashoffset: 0; stroke-linejoin: miter; stroke-miterlimit: 4; fill: rgb(255,255,255); fill-rule: nonzero; opacity: 1;" vector-effect="non-scaling-stroke"  x="-2.985" y="-1.56" rx="1.56108" ry="1.56108" width="5.97" height="3.12" />
</g>
		<g transform="matrix(1 0 0 1 184.83 123.59)"  >
<rect style="stroke: none; stroke-width: 1; stroke-dasharray: none; stroke-linecap: butt; stroke-dashoffset: 0; stroke-linejoin: miter; stroke-miterlimit: 4; fill: rgb(255,255,255); fill-rule: nonzero; opacity: 1;" vector-effect="non-scaling-stroke"  x="-10.4" y="-1.56" rx="1.56108" ry="1.56108" width="20.8" height="3.12" />
</g>
		<g transform="matrix(1 0 0 1 125.2 123.33)"  >
<rect style="stroke: none; stroke-width: 1; stroke-dasharray: none; stroke-linecap: butt; stroke-dashoffset: 0; stroke-linejoin: miter; stroke-miterlimit: 4; fill: rgb(255,255,255); fill-rule: nonzero; opacity: 1;" vector-effect="non-scaling-stroke"  x="-2.985" y="-1.56" rx="1.56108" ry="1.56108" width="5.97" height="3.12" />
</g>
		<g transform="matrix(1 0 0 1 141.47 123.59)"  >
<rect style="stroke: none; stroke-width: 1; stroke-dasharray: none; stroke-linecap: butt; stroke-dashoffset: 0; stroke-linejoin: miter; stroke-miterlimit: 4; fill: rgb(255,255,255); fill-rule: nonzero; opacity: 1;" vector-effect="non-scaling-stroke"  x="-10.4" y="-1.56" rx="1.56108" ry="1.56108" width="20.8" height="3.12" />
</g>
		<g transform="matrix(1 0 0 1 133.88 116.28)"  >
<rect style="stroke: none; stroke-width: 1; stroke-dasharray: none; stroke-linecap: butt; stroke-dashoffset: 0; stroke-linejoin: miter; stroke-miterlimit: 4; fill: rgb(255,255,255); fill-rule: nonzero; opacity: 1;" vector-effect="non-scaling-stroke"  x="-2.985" y="-1.56" rx="1.56108" ry="1.56108" width="5.97" height="3.12" />
</g>
		<g transform="matrix(1 0 0 1 166.41 116.28)"  >
<rect style="stroke: none; stroke-width: 1; stroke-dasharray: none; stroke-linecap: butt; stroke-dashoffset: 0; stroke-linejoin: miter; stroke-miterlimit: 4; fill: rgb(255,255,255); fill-rule: nonzero; opacity: 1;" vector-effect="non-scaling-stroke"  x="-2.985" y="-1.56" rx="1.56108" ry="1.56108" width="5.97" height="3.12" />
</g>
		<g transform="matrix(1 0 0 1 175.62 116.28)"  >
<rect style="stroke: none; stroke-width: 1; stroke-dasharray: none; stroke-linecap: butt; stroke-dashoffset: 0; stroke-linejoin: miter; stroke-miterlimit: 4; fill: rgb(255,255,255); fill-rule: nonzero; opacity: 1;" vector-effect="non-scaling-stroke"  x="-2.985" y="-1.56" rx="1.56108" ry="1.56108" width="5.97" height="3.12" />
</g>
		<g transform="matrix(1 0 0 1 150.14 116.54)"  >
<rect style="stroke: none; stroke-width: 1; stroke-dasharray: none; stroke-linecap: butt; stroke-dashoffset: 0; stroke-linejoin: miter; stroke-miterlimit: 4; fill: rgb(255,255,255); fill-rule: nonzero; opacity: 1;" vector-effect="non-scaling-stroke"  x="-10.4" y="-1.56" rx="1.56108" ry="1.56108" width="20.8" height="3.12" />
</g>
		<g transform="matrix(1 0 0 1 142.56 109.24)"  >
<rect style="stroke: none; stroke-width: 1; stroke-dasharray: none; stroke-linecap: butt; stroke-dashoffset: 0; stroke-linejoin: miter; stroke-miterlimit: 4; fill: rgb(255,255,255); fill-rule: nonzero; opacity: 1;" vector-effect="non-scaling-stroke"  x="-2.985" y="-1.56" rx="1.56108" ry="1.56108" width="5.97" height="3.12" />
</g>
		<g transform="matrix(1 0 0 1 175.08 109.24)"  >
<rect style="stroke: none; stroke-width: 1; stroke-dasharray: none; stroke-linecap: butt; stroke-dashoffset: 0; stroke-linejoin: miter; stroke-miterlimit: 4; fill: rgb(255,255,255); fill-rule: nonzero; opacity: 1;" vector-effect="non-scaling-stroke"  x="-2.985" y="-1.56" rx="1.56108" ry="1.56108" width="5.97" height="3.12" />
</g>
		<g transform="matrix(1 0 0 1 184.29 109.24)"  >
<rect style="stroke: none; stroke-width: 1; stroke-dasharray: none; stroke-linecap: butt; stroke-dashoffset: 0; stroke-linejoin: miter; stroke-miterlimit: 4; fill: rgb(255,255,255); fill-rule: nonzero; opacity: 1;" vector-effect="non-scaling-stroke"  x="-2.985" y="-1.56" rx="1.56108" ry="1.56108" width="5.97" height="3.12" />
</g>
		<g transform="matrix(1 0 0 1 158.81 109.5)"  >
<rect style="stroke: none; stroke-width: 1; stroke-dasharray: none; stroke-linecap: butt; stroke-dashoffset: 0; stroke-linejoin: miter; stroke-miterlimit: 4; fill: rgb(255,255,255); fill-rule: nonzero; opacity: 1;" vector-effect="non-scaling-stroke"  x="-10.4" y="-1.56" rx="1.56108" ry="1.56108" width="20.8" height="3.12" />
</g>
		<g transform="matrix(1 0 0 1 151.23 102.19)"  >
<rect style="stroke: none; stroke-width: 1; stroke-dasharray: none; stroke-linecap: butt; stroke-dashoffset: 0; stroke-linejoin: miter; stroke-miterlimit: 4; fill: rgb(255,255,255); fill-rule: nonzero; opacity: 1;" vector-effect="non-scaling-stroke"  x="-2.985" y="-1.56" rx="1.56108" ry="1.56108" width="5.97" height="3.12" />
</g>
		<g transform="matrix(1 0 0 1 183.75 102.19)"  >
<rect style="stroke: none; stroke-width: 1; stroke-dasharray: none; stroke-linecap: butt; stroke-dashoffset: 0; stroke-linejoin: miter; stroke-miterlimit: 4; fill: rgb(255,255,255); fill-rule: nonzero; opacity: 1;" vector-effect="non-scaling-stroke"  x="-2.985" y="-1.56" rx="1.56108" ry="1.56108" width="5.97" height="3.12" />
</g>
		<g transform="matrix(1 0 0 1 192.97 102.19)"  >
<rect style="stroke: none; stroke-width: 1; stroke-dasharray: none; stroke-linecap: butt; stroke-dashoffset: 0; stroke-linejoin: miter; stroke-miterlimit: 4; fill: rgb(255,255,255); fill-rule: nonzero; opacity: 1;" vector-effect="non-scaling-stroke"  x="-2.985" y="-1.56" rx="1.56108" ry="1.56108" width="5.97" height="3.12" />
</g>
		<g transform="matrix(1 0 0 1 167.49 102.45)"  >
<rect style="stroke: none; stroke-width: 1; stroke-dasharray: none; stroke-linecap: butt; stroke-dashoffset: 0; stroke-linejoin: miter; stroke-miterlimit: 4; fill: rgb(255,255,255); fill-rule: nonzero; opacity: 1;" vector-effect="non-scaling-stroke"  x="-10.4" y="-1.56" rx="1.56108" ry="1.56108" width="20.8" height="3.12" />
</g>
		<g transform="matrix(1 0 0 1 144.45 164.35)"  >
<path style="stroke: none; stroke-width: 1; stroke-dasharray: none; stroke-linecap: butt; stroke-dashoffset: 0; stroke-linejoin: miter; stroke-miterlimit: 4; fill: rgb(255,182,182); fill-rule: nonzero; opacity: 1;" vector-effect="non-scaling-stroke"  transform=" translate(-744.45, -614.36)" d="M 711.50727 654.35273 L 698.1577299999999 633.2511099999999 L 740.05973 599.8482799999999 L 757.35507 580.6872099999999 C 761.9278542865679 575.6211668664275 768.8500210293045 573.3696358000495 775.5281037304751 574.7761778715937 C 782.2061864316458 576.1827199431381 787.6321396998088 581.0350199842345 789.77307 587.5151099999999 L 789.77307 587.5151099999999 C 793.0135756638475 597.3235019339554 787.8958908573255 607.9351514106925 778.20292 611.5061099999999 L 750.85412 621.5814599999999 Z" stroke-linecap="round" />
</g>
		<g transform="matrix(1 0 0 1 -165.79 100.9)"  >
<path style="stroke: none; stroke-width: 1; stroke-dasharray: none; stroke-linecap: butt; stroke-dashoffset: 0; stroke-linejoin: miter; stroke-miterlimit: 4; fill: rgb(47,46,65); fill-rule: nonzero; opacity: 1;" vector-effect="non-scaling-stroke"  transform=" translate(-434.21, -550.9)" d="M 398.28 501.35193 L 398.28 603.91193 L 470.13 603.91193 L 470.13 501.35193 C 470.13250478825785 499.83767767401207 469.14675261086035 498.4990018775463 467.7 498.05192999999997 C 467.367826047308 497.9422160229301 467.0198034238972 497.8881542561867 466.67 497.89192999999995 L 401.75 497.89192999999995 C 400.8308853345881 497.89014617539067 399.94875658967993 498.2537885437186 399.29790600464787 498.9027634786497 C 398.64705541961575 499.55173841358084 398.2808687448731 500.4328140141267 398.28 501.35193 Z M 426.32 536.5919299999999 C 426.35903750986705 532.3836643236796 429.78155326400906 528.9927499044285 433.99 528.9927499044285 C 438.1984467359909 528.9927499044285 441.6209624901329 532.3836643236796 441.65999999999997 536.5919299999999 L 441.65999999999997 548.4919299999999 C 441.6384470360907 552.7126667933759 438.2107918225389 556.1228635602818 433.99 556.1228635602818 C 429.76920817746105 556.1228635602818 426.34155296390924 552.7126667933759 426.32 548.4919299999999 Z" stroke-linecap="round" />
</g>
		<g transform="matrix(1 0 0 1 -165.79 156.55)"  >
<path style="stroke: none; stroke-width: 1; stroke-dasharray: none; stroke-linecap: butt; stroke-dashoffset: 0; stroke-linejoin: miter; stroke-miterlimit: 4; fill: rgb(63,61,86); fill-rule: nonzero; opacity: 1;" vector-effect="non-scaling-stroke"  transform=" translate(-434.21, -606.55)" d="M 398.06006 600.632 L 398.06006 610.5219999999999 C 398.0634303511914 611.5881393734027 398.9239522813383 612.4531199664002 399.99006 612.462 L 468.42006000000003 612.462 C 469.48764917133167 612.4566502219183 470.35022751321947 611.5896025621968 470.35006000000004 610.5219999999999 L 470.35006000000004 600.632 Z" stroke-linecap="round" />
</g>
		<g transform="matrix(1 0 0 1 -167 -9.54)"  >
<path style="stroke: none; stroke-width: 1; stroke-dasharray: none; stroke-linecap: butt; stroke-dashoffset: 0; stroke-linejoin: miter; stroke-miterlimit: 4; fill: rgb(63,61,86); fill-rule: nonzero; opacity: 1;" vector-effect="non-scaling-stroke"  transform=" translate(-433, -440.47)" d="M 285.25 346.832 L 285.25 534.09192 C 285.2539373349707 539.060850937133 289.28106906286706 543.0879826650292 294.25 543.09192 L 571.75 543.09192 C 576.7189400702389 543.0880046896814 580.7460846896814 539.0608600702388 580.75 534.09192 L 580.75 346.832 C 580.738177055925 341.8679628305804 576.7140472456952 337.8483042756952 571.75 337.842 L 294.25 337.842 C 289.285961852324 337.8483262180247 285.2618448762763 341.8679719529879 285.25 346.832 Z" stroke-linecap="round" />
</g>
		<g transform="matrix(1 0 0 1 -167 -9.54)"  >
<path style="stroke: none; stroke-width: 1; stroke-dasharray: none; stroke-linecap: butt; stroke-dashoffset: 0; stroke-linejoin: miter; stroke-miterlimit: 4; fill: rgb(255,255,255); fill-rule: nonzero; opacity: 1;" vector-effect="non-scaling-stroke"  transform=" translate(-433, -440.47)" d="M 291.76 349.16193 L 291.76 531.78193 C 291.76458533759865 534.4365180178436 293.9154119821564 536.5873446624013 296.57 536.5919299999999 L 569.44 536.5919299999999 C 572.0945971303701 536.5873666084856 574.2454366084856 534.43652713037 574.25 531.78193 L 574.25 349.16193 C 574.2497471117827 346.50392483279893 572.0979989096415 344.347703141672 569.44 344.34193 L 296.57 344.34193 C 293.9120102386317 344.3477251275416 291.760274893039 346.5039339353912 291.76 349.16193 Z" stroke-linecap="round" />
</g>
		<g transform="matrix(1 0 0 1 -174.11 153.93)"  >
<path style="stroke: none; stroke-width: 1; stroke-dasharray: none; stroke-linecap: butt; stroke-dashoffset: 0; stroke-linejoin: miter; stroke-miterlimit: 4; fill: rgb(47,46,65); fill-rule: nonzero; opacity: 1;" vector-effect="non-scaling-stroke"  transform=" translate(-425.89, -603.93)" d="M 342.4 611.79193 C 342.9626997894302 612.4974923907643 343.8175430533729 612.90649067653 344.71999999999997 612.90193 L 507.05999999999995 612.90193 C 507.95911502854284 612.9008073263761 508.8099013791497 612.4947692698088 509.3762927376392 611.7964785538629 C 509.94268409612863 611.098187837917 510.1644289085319 610.1819272003623 509.97999999999996 609.30193 L 507.46 597.3319299999999 C 507.2477760273331 596.3401434022481 506.54766073607624 595.5233422291152 505.59999999999997 595.16193 C 505.2623167771574 595.029449700186 504.90274076247 594.9616221302457 504.53999999999996 594.96198 L 347.23 594.96198 C 346.86725870700695 594.9616164250901 346.5076816385116 595.0294441938124 346.17 595.16193 C 345.22231191662 595.5233033704138 344.5221813885979 596.340122319773 344.31 597.3319299999999 L 341.79 609.30193 C 341.60841662390555 610.1814321718145 341.8324549445518 611.0959492511738 342.4 611.79193 Z" stroke-linecap="round" />
</g>
		<g transform="matrix(1 0 0 1 -167.08 -81.51)"  >
<path style="stroke: none; stroke-width: 1; stroke-dasharray: none; stroke-linecap: butt; stroke-dashoffset: 0; stroke-linejoin: miter; stroke-miterlimit: 4; fill: rgb(63,61,86); fill-rule: nonzero; opacity: 1;" vector-effect="non-scaling-stroke"  transform=" translate(-432.92, -368.48)" d="M 560.58451 369.49866 L 305.26115 369.49866 C 304.7091658514243 369.486410158958 304.26808303130906 369.035430058397 304.26808303130906 368.48330999999996 C 304.26808303130906 367.9311899416029 304.7091658514243 367.4802098410419 305.26115 367.46795999999995 L 560.58451 367.46795999999995 C 561.1364941485757 367.4802098410419 561.577576968691 367.9311899416029 561.577576968691 368.48330999999996 C 561.577576968691 369.035430058397 561.1364941485757 369.486410158958 560.58451 369.49866 Z" stroke-linecap="round" />
</g>
		<g transform="matrix(1 0 0 1 -277.36 -93.8)"  >
<ellipse style="stroke: none; stroke-width: 1; stroke-dasharray: none; stroke-linecap: butt; stroke-dashoffset: 0; stroke-linejoin: miter; stroke-miterlimit: 4; fill: rgb(63,61,86); fill-rule: nonzero; opacity: 1;" vector-effect="non-scaling-stroke"  cx="0" cy="0" rx="5.95043" ry="6.08304" />
</g>
		<g transform="matrix(1 0 0 1 -256.8 -93.8)"  >
<ellipse style="stroke: none; stroke-width: 1; stroke-dasharray: none; stroke-linecap: butt; stroke-dashoffset: 0; stroke-linejoin: miter; stroke-miterlimit: 4; fill: rgb(63,61,86); fill-rule: nonzero; opacity: 1;" vector-effect="non-scaling-stroke"  cx="0" cy="0" rx="5.95043" ry="6.08304" />
</g>
		<g transform="matrix(1 0 0 1 -236.25 -93.8)"  >
<ellipse style="stroke: none; stroke-width: 1; stroke-dasharray: none; stroke-linecap: butt; stroke-dashoffset: 0; stroke-linejoin: miter; stroke-miterlimit: 4; fill: rgb(63,61,86); fill-rule: nonzero; opacity: 1;" vector-effect="non-scaling-stroke"  cx="0" cy="0" rx="5.95043" ry="6.08304" />
</g>
		<g transform="matrix(1 0 0 1 -59.09 -97.28)"  >
<path style="stroke: none; stroke-width: 1; stroke-dasharray: none; stroke-linecap: butt; stroke-dashoffset: 0; stroke-linejoin: miter; stroke-miterlimit: 4; fill: rgb(63,61,86); fill-rule: nonzero; opacity: 1;" vector-effect="non-scaling-stroke"  transform=" translate(-540.91, -352.73)" d="M 548.20637 351.622 L 533.60637 351.622 C 533.0061256536723 351.6359878845554 532.5268205339754 352.1265926914063 532.5268205339754 352.72700000000003 C 532.5268205339754 353.3274073085937 533.0061256536723 353.8180121154446 533.60637 353.832 L 548.20637 353.832 C 548.8105648353203 353.82347453613534 549.2958879475366 353.3312549814125 549.2958879475366 352.727 C 549.2958879475366 352.1227450185875 548.8105648353203 351.63052546386467 548.20637 351.622 Z" stroke-linecap="round" />
</g>
		<g transform="matrix(1 0 0 1 -59.08 -93.13)"  >
<path style="stroke: none; stroke-width: 1; stroke-dasharray: none; stroke-linecap: butt; stroke-dashoffset: 0; stroke-linejoin: miter; stroke-miterlimit: 4; fill: rgb(63,61,86); fill-rule: nonzero; opacity: 1;" vector-effect="non-scaling-stroke"  transform=" translate(-540.91, -356.88)" d="M 548.20637 355.772 L 533.60637 355.772 C 533.0056122037727 355.7852813335588 532.525528935712 356.27609541227497 532.525528935712 356.87699999999995 C 532.525528935712 357.477904587725 533.0056122037727 357.96871866644113 533.60637 357.98199999999997 L 548.20637 357.98199999999997 C 548.8114585999595 357.9747187543455 549.2981531432278 357.48213240727887 549.2981531432278 356.87699999999995 C 549.2981531432278 356.2718675927211 548.8114585999595 355.7792812456545 548.20637 355.772 Z" stroke-linecap="round" />
</g>
		<g transform="matrix(1 0 0 1 -59.09 -88.98)"  >
<path style="stroke: none; stroke-width: 1; stroke-dasharray: none; stroke-linecap: butt; stroke-dashoffset: 0; stroke-linejoin: miter; stroke-miterlimit: 4; fill: rgb(63,61,86); fill-rule: nonzero; opacity: 1;" vector-effect="non-scaling-stroke"  transform=" translate(-540.91, -361.03)" d="M 548.20637 359.92194 L 533.60637 359.92194 C 533.0061256536723 359.9359278845554 532.5268205339754 360.4265326914063 532.5268205339754 361.02694 C 532.5268205339754 361.6273473085937 533.0061256536723 362.1179521154446 533.60637 362.13194 L 548.20637 362.13194 C 548.8105648353203 362.12341453613533 549.2958879475366 361.6311949814125 549.2958879475366 361.02693999999997 C 549.2958879475366 360.4226850185875 548.8105648353203 359.93046546386466 548.20637 359.92194 Z" stroke-linecap="round" />
</g>
		<g transform="matrix(1 0 0 1 324.51 126.41)"  >
<path style="stroke: none; stroke-width: 1; stroke-dasharray: none; stroke-linecap: butt; stroke-dashoffset: 0; stroke-linejoin: miter; stroke-miterlimit: 4; fill: rgb(47,46,65); fill-rule: nonzero; opacity: 1;" vector-effect="non-scaling-stroke"  transform=" translate(-924.51, -576.41)" d="M 900.18575 604.97238 C 901.089612664193 607.6040523249494 903.5867308249539 609.3531779664974 906.36885 609.3033800000001 L 932.86068 608.6216000000001 C 935.6663007366933 608.5669500179459 938.1008937390724 606.6712496388895 938.84153 603.9646 L 942.59041 563.87739 C 943.9204787368873 564.4799377229022 945.3684463998286 564.7774593339747 946.82834 564.74818 C 952.1624662764433 564.6142785624036 956.3780814375965 560.1815662764433 956.24418 554.84744 C 956.1102785624036 549.5133137235567 951.6775662764433 545.2976985624035 946.34344 545.4316 C 945.7599312952707 545.4297200054081 945.1778948313505 545.4902508858038 944.60726 545.61216 C 943.3523461552958 544.2544698106796 941.5819356904681 543.4905931152142 939.73321 543.5091600000001 L 898.9827 544.56145 C 898.6446598110016 544.5739243935939 898.3083373813341 544.6156807174954 897.97751 544.6862500000001 C 896.1694449257643 545.0232993824428 894.5955846265927 546.1260276414806 893.661411625893 547.7103326637663 C 892.7272386251933 549.294637686052 892.5240994521729 551.205600880615 893.10433 552.9508900000001 Z M 943.3592 561.1555400000001 L 946.02684 551.6028000000001 C 946.3302938820473 550.499306717032 946.3373167674933 549.3352944985342 946.0472 548.2282200000001 C 946.17664 548.22788 946.29083 548.1665300000001 946.42027 548.1662200000001 C 950.2286250119143 548.0874712731523 953.3825509569168 551.105322438579 953.4717296887753 554.913447490693 C 953.560908420634 558.7215725428069 950.5517065275394 561.8837519320609 946.74384 561.9833600000001 C 945.5613410243739 562.0203263830356 944.3911480368065 561.7341189403036 943.3592 561.15554 Z" stroke-linecap="round" />
</g>
		<g transform="matrix(1 0 0 1 319.78 98.06)"  >
<path style="stroke: none; stroke-width: 1; stroke-dasharray: none; stroke-linecap: butt; stroke-dashoffset: 0; stroke-linejoin: miter; stroke-miterlimit: 4; fill: rgb(63,61,86); fill-rule: nonzero; opacity: 1;" vector-effect="non-scaling-stroke"  transform=" translate(-919.78, -548.05)" d="M 897.97751 544.68623 C 898.8456900000001 549.65035 908.6066000000001 553.1401000000001 920.3433600000001 552.5335200000001 C 931.13607 552.0362600000001 939.96081 548.24652 941.57757 543.7550200000001 C 940.9792240095233 543.5780523947341 940.357019613907 543.4951035036314 939.73321 543.50914 L 898.9827 544.56143 C 898.6446598110016 544.5739043935938 898.3083373813341 544.6156607174953 897.97751 544.68623 Z" stroke-linecap="round" />
</g>
		<g transform="matrix(1 0 0 1 325.13 128.62)"  >
<path style="stroke: none; stroke-width: 1; stroke-dasharray: none; stroke-linecap: butt; stroke-dashoffset: 0; stroke-linejoin: miter; stroke-miterlimit: 4; fill: rgb(254,69,91); fill-rule: nonzero; opacity: 1;" vector-effect="non-scaling-stroke"  transform=" translate(-925.13, -578.62)" d="M 922.49438 582.94415 C 922.5480330740763 582.9305740010477 922.5990393092615 582.9081246329409 922.6452899999999 582.87773 L 928.3984399999999 579.11207 C 928.539737120815 579.019955931635 928.6249673862584 578.8627225545035 928.6250319330699 578.694051650744 C 928.6250964798812 578.5253807469843 928.5399865792035 578.3680821842497 928.3987599999999 578.27586 L 922.4189799999999 574.35919 C 922.2696637126626 574.2603816247099 922.0788948732727 574.2490098676637 921.9188977286124 574.3293800262564 C 921.7589005839519 574.4097501848491 921.6541293208732 574.5695783718918 921.6442498805458 574.7483543360215 C 921.6343704402183 574.9271303001512 921.7208928100878 575.097529673544 921.8710599999999 575.1950400000001 L 927.21197 578.6932200000001 L 922.0979699999999 582.0411600000001 C 921.8934889456333 582.1748654943549 921.8156043016352 582.4367814819337 921.9138020361734 582.6604930501352 C 922.0119997707116 582.8842046183365 922.2575093137426 583.0041673900652 922.49434 582.9441600000001 Z" stroke-linecap="round" />
</g>
		<g transform="matrix(1 0 0 1 310.3 129.04)"  >
<path style="stroke: none; stroke-width: 1; stroke-dasharray: none; stroke-linecap: butt; stroke-dashoffset: 0; stroke-linejoin: miter; stroke-miterlimit: 4; fill: rgb(254,69,91); fill-rule: nonzero; opacity: 1;" vector-effect="non-scaling-stroke"  transform=" translate(-910.3, -579.04)" d="M 913.40762 583.36319 C 913.6051365149381 583.3131875512672 913.7525568241323 583.1483369293429 913.780267226972 582.9464826449519 C 913.8079776298117 582.7446283605608 913.7104349293527 582.5461494027367 913.5337 582.4447700000001 L 908.23064 579.40443 L 913.35624 575.5972 C 913.5777282760721 575.4326191445505 913.6238608554496 575.1196482760722 913.45928 574.89816 C 913.2946991445503 574.6766717239278 912.9817282760721 574.6305391445504 912.76024 574.79512 L 907.02162 579.05777 C 906.8861569052511 579.1581689186465 906.8104870169693 579.3201327262343 906.8204036532742 579.4884534119171 C 906.830320289579 579.6567740976 906.9244849232743 579.8087320810097 907.0708 579.89253 L 913.0360499999999 583.3122099999999 C 913.1485897632241 583.376802216737 913.2818420840462 583.3950846488912 913.40762 583.36319 Z" stroke-linecap="round" />
</g>
		<g transform="matrix(1 0 0 1 317.72 129.05)"  >
<path style="stroke: none; stroke-width: 1; stroke-dasharray: none; stroke-linecap: butt; stroke-dashoffset: 0; stroke-linejoin: miter; stroke-miterlimit: 4; fill: rgb(254,69,91); fill-rule: nonzero; opacity: 1;" vector-effect="non-scaling-stroke"  transform=" translate(-917.72, -579.06)" d="M 921.92215 586.24416 C 921.970532687536 586.232074983383 922.0167485500051 586.2125597451067 922.0591499999999 586.1863099999999 C 922.1725580216448 586.1174691280476 922.2539403528958 586.0063607291469 922.2853632398666 585.877469118873 C 922.3167861268373 585.7485775085992 922.2956706842052 585.6124808582782 922.2266699999999 585.4991699999999 L 914.0711899999999 572.0908099999999 C 913.9271962871843 571.8554231561833 913.6197986106018 571.7810800649679 913.3841547893827 571.9246528517124 C 913.1485109681636 572.068225638457 913.073618597938 572.3754899540904 913.2167699999999 572.6113899999999 L 921.3722499999999 586.01974 C 921.4865271709174 586.2070133061198 921.7094721434023 586.2979995049288 921.92215 586.24416 Z" stroke-linecap="round" />
</g>
		<g transform="matrix(1 0 0 1 -158.67 -19.88)"  >
<rect style="stroke: none; stroke-width: 1; stroke-dasharray: none; stroke-linecap: butt; stroke-dashoffset: 0; stroke-linejoin: miter; stroke-miterlimit: 4; fill: rgb(254,69,91); fill-rule: nonzero; opacity: 1;" vector-effect="non-scaling-stroke"  x="-25.36" y="-5.425" rx="3.26417" ry="3.26417" width="50.72" height="10.85" />
</g>
		<g transform="matrix(1 0 0 1 -158.66 1.81)"  >
<rect style="stroke: none; stroke-width: 1; stroke-dasharray: none; stroke-linecap: butt; stroke-dashoffset: 0; stroke-linejoin: miter; stroke-miterlimit: 4; fill: rgb(230,230,230); fill-rule: nonzero; opacity: 1;" vector-effect="non-scaling-stroke"  x="-51.12" y="-5.425" rx="3.26417" ry="3.26417" width="102.24" height="10.85" />
</g>
		<g transform="matrix(1 0 0 1 -158.66 23.5)"  >
<rect style="stroke: none; stroke-width: 1; stroke-dasharray: none; stroke-linecap: butt; stroke-dashoffset: 0; stroke-linejoin: miter; stroke-miterlimit: 4; fill: rgb(230,230,230); fill-rule: nonzero; opacity: 1;" vector-effect="non-scaling-stroke"  x="-51.12" y="-5.425" rx="3.26417" ry="3.26417" width="102.24" height="10.85" />
</g>
		<g transform="matrix(1 0 0 1 -14.31 160.64)"  >
<path style="stroke: none; stroke-width: 1; stroke-dasharray: none; stroke-linecap: butt; stroke-dashoffset: 0; stroke-linejoin: miter; stroke-miterlimit: 4; fill: rgb(63,61,86); fill-rule: nonzero; opacity: 1;" vector-effect="non-scaling-stroke"  transform=" translate(-585.69, -610.65)" d="M 497.30123 540.717 L 497.51797999999997 541.40144 L 497.52939999999995 541.42427 L 504.05454999999995 561.26227 L 511.5608199999999 584.12321 L 525.6835199999999 627.08454 L 525.8204 633.7579999999999 L 525.8204 633.7808299999999 L 526.8698899999999 687.4653299999999 L 523.9609499999999 694.7434299999999 L 527.2349499999999 706.6757999999999 C 527.2349499999999 706.6757999999999 525.7291299999999 688.6387999999998 517.6525499999999 698.9969599999998 C 513.0780699999999 704.8833599999998 507.7278699999999 710.9065699999999 503.3358699999999 716.5533799999998 Q 512.9355099999999 720.4377399999998 522.8430299999999 723.5804799999999 C 524.2690299999999 724.0368099999998 525.7063699999999 724.4703099999998 527.1437399999999 724.9038099999999 Q 527.6056799999999 725.0407299999999 528.0677399999998 725.1775799999999 C 549.9624716593042 731.6525200553259 572.5976372812398 735.290860537564 595.4185999999999 736.0034499999999 C 596.6049699999999 736.0377 597.7685999999999 736.06045 598.8979199999999 736.08331 C 599.2972399999999 736.09473 599.6850599999999 736.10615 600.0729199999998 736.10615 C 601.3505699999998 736.11757 602.6168099999999 736.12892 603.8944599999999 736.12892 Q 607.7616699999999 736.12892 611.5946399999999 736.01487 C 630.5078711228284 735.4818420315871 649.3107792831191 732.9388305037774 667.68613 728.42874 C 667.56066 720.84268 667.21845 711.9789 666.7279299999999 702.51055 C 666.4997599999999 697.86762 661.3777299999999 692.83686 661.0696999999999 687.97719 C 660.8529499999999 684.3267199999999 665.4502699999999 680.8929999999999 665.2106999999999 677.1854999999999 C 663.6592699999999 654.35875 661.7199499999998 663.12133 660.2825699999999 646.9566799999999 Q 660.0601199999999 644.5781599999999 659.8719099999998 642.4050299999999 C 658.9479099999999 632.0240299999999 658.3090699999998 625.5330299999999 658.3090699999998 625.5330299999999 L 664.4463999999998 586.8496499999999 L 674.0858999999998 526.1152299999999 L 673.3443699999998 524.8945999999999 L 672.5116299999999 524.4839399999998 L 621.6676299999998 499.31861999999984 L 618.9069899999998 492.2458599999998 C 617.2613706253928 488.07722311380576 613.2471633802498 485.3273207690423 608.7655599999998 485.2985499999998 L 575.2726599999999 485.1616699999998 C 571.746170197262 485.1457679295094 568.4286191657995 486.8321541431935 566.3631999999999 489.6905499999998 L 557.2941999999999 502.2503299999998 Z" stroke-linecap="round" />
</g>
		<g transform="matrix(1 0 0 1 -102.15 160.15)"  >
<path style="stroke: none; stroke-width: 1; stroke-dasharray: none; stroke-linecap: butt; stroke-dashoffset: 0; stroke-linejoin: miter; stroke-miterlimit: 4; fill: rgb(63,61,86); fill-rule: nonzero; opacity: 1;" vector-effect="non-scaling-stroke"  transform=" translate(-497.85, -610.16)" d="M 533.40653 617.52479 L 525.8204 633.758 L 520.6414 644.84622 L 511.73201 691.49222 L 507.27157 696.22636 L 503.45 679.467 L 463.45228 688.34794 C 462.14036999999996 681.05843 463.10107999999997 688.59456 462.29110999999995 680.59785 C 462.5192799999999 680.36968 462.7587899999999 680.14151 462.99837999999994 679.91334 C 463.63719999999995 679.32012 464.17337999999995 678.7611599999999 464.1619799999999 678.22503 C 463.70564999999993 650.6412899999999 465.0745799999999 603.6986999999999 476.50508999999994 575.2593899999999 C 478.29530519138484 570.6159693262088 480.6557649648122 566.2130812979891 483.5321799999999 562.15199 C 483.7603499999999 561.84399 483.97709999999995 561.53593 484.19384999999994 561.22799 C 489.4641899999999 553.84719 492.79520999999994 546.58051 497.5179999999999 541.41288 L 497.5179999999999 541.4014599999999 C 497.5473874737766 541.377755612164 497.5741592919934 541.3509804416034 497.5978599999999 541.3215899999999 C 497.61502703568715 541.3130539442348 497.6304854239391 541.3014457487157 497.6434699999999 541.2873399999999 L 530.08688 524.0846199999999 L 531.4786499999999 563.1900799999999 L 532.4711199999999 591.2985899999999 Z" stroke-linecap="round" />
</g>
		<g transform="matrix(1 0 0 1 88.51 165.76)"  >
<path style="stroke: none; stroke-width: 1; stroke-dasharray: none; stroke-linecap: butt; stroke-dashoffset: 0; stroke-linejoin: miter; stroke-miterlimit: 4; fill: rgb(63,61,86); fill-rule: nonzero; opacity: 1;" vector-effect="non-scaling-stroke"  transform=" translate(-688.52, -615.76)" d="M 650.3914 622.13549 L 659.8674 642.41049 L 663.17482 649.4714 L 672.0816299999999 696.11302 L 676.5273799999999 700.83566 L 680.3577699999998 684.08042 L 682.1575699999999 683.71124 L 714.6160699999998 676.98881 L 724.0766499999999 707.0351199999999 C 728.4724773573731 699.7107905291554 727.1094874627744 690.3048470931759 720.8154299999999 684.52956 C 720.1693699999998 683.94499 719.6309899999999 683.37583 719.6462999999999 682.83745 C 720.1847699999998 650.39435 718.2002999999999 591.15382 700.2789699999998 566.77157 C 694.5871799999999 559.0338 691.1721699999998 551.32683 686.2033499999999 545.94272 C 686.1879499999999 545.92742 686.1879499999999 545.91202 686.1726399999999 545.91202 L 674.0814 526.1139 L 673.3430400000001 524.89857 L 672.5123800000001 524.4832899999999 Z" stroke-linecap="round" />
</g>
		<g transform="matrix(1 0 0 1 -7.01 -18.93)" id="a657ec4b-47ce-4d2a-9c58-81a811696ca9"  >
<circle style="stroke: none; stroke-width: 1; stroke-dasharray: none; stroke-linecap: butt; stroke-dashoffset: 0; stroke-linejoin: miter; stroke-miterlimit: 4; fill: rgb(255,182,182); fill-rule: nonzero; opacity: 1;" vector-effect="non-scaling-stroke"  cx="0" cy="0" r="44.55826" />
</g>
		<g transform="matrix(1 0 0 1 -1.5 -29.3)"  >
<path style="stroke: none; stroke-width: 1; stroke-dasharray: none; stroke-linecap: butt; stroke-dashoffset: 0; stroke-linejoin: miter; stroke-miterlimit: 4; fill: rgb(47,46,65); fill-rule: nonzero; opacity: 1;" vector-effect="non-scaling-stroke"  transform=" translate(-598.5, -420.7)" d="M 653.21227 399.94791 C 652.5144458584684 399.20235188825984 651.5433454081847 398.7727572652718 650.5222699999999 398.75791 L 651.1922699999999 396.89790999999997 C 651.6375208873756 395.7050944085127 651.4054705210533 394.3649060865066 650.5850968950218 393.3912303182368 C 649.7647232689902 392.41755454996706 648.4833346455055 391.9614895254851 647.2322699999999 392.19791 L 644.7922699999998 392.66791 L 645.0222699999998 391.03791 C 645.2017364737544 389.8028198636392 644.716409270563 388.5646556167171 643.7454527563024 387.7805004614369 C 642.7744962420418 386.9963453061566 641.4619172198695 386.7825007199098 640.2922699999998 387.21791 C 639.2330085920923 387.63482241862357 638.0420146906263 387.5502765552479 637.0522699999998 386.98791 C 636.0591737278991 386.4430455421805 635.3567320995894 385.4881456609464 635.1322699999998 384.37786 L 634.2822699999998 380.27786 L 634.1922699999998 380.05785999999995 C 630.0522699999998 373.15785999999997 622.0922699999998 368.13785999999993 612.3522699999997 366.29785999999996 C 603.6822199999998 364.64786 594.7922699999998 365.48785999999996 586.2222699999998 366.27786 C 582.8222699999998 366.59785999999997 578.9822699999997 366.95786 575.7822699999997 368.91785999999996 C 573.0622699999997 370.59785999999997 570.7622699999997 373.95786 571.2322699999997 377.34785999999997 C 562.7822699999997 374.75786 553.7222699999998 379.92785999999995 549.2322699999997 386.44786 C 543.9122699999997 394.20786 543.0422699999997 403.92786 542.9022699999997 411.52786 C 542.5222699999997 429.50786 546.2322699999997 444.21786 553.9022699999997 455.25786 C 554.4622699999996 456.05786 554.6022699999997 457.72786 555.7122699999996 458.28785999999997 L 555.4822699999996 457.91785999999996 C 556.7222699999996 458.53785999999997 557.9822699999996 459.53785999999997 557.5122699999996 460.60785999999996 C 556.1622699999996 463.68785999999994 565.1322699999996 470.49785999999995 571.4522699999997 472.74785999999995 C 582.9822699999996 476.85785999999996 598.3122699999997 476.50785999999994 609.0922699999996 475.0278599999999 L 609.4722699999996 472.4778599999999 C 613.3622699999996 471.94785999999993 616.1022699999996 470.9378599999999 616.8722699999996 469.3578599999999 C 618.2323199999996 468.1978599999999 619.3922699999996 467.1578599999999 620.4022699999996 466.1978599999999 L 620.4122699999996 466.1878599999999 C 620.4322699999996 466.1678599999999 620.4722699999995 466.1378599999999 620.4922699999996 466.1178599999999 C 625.3622699999996 461.4478599999999 626.4922699999996 458.7879099999999 627.0022699999996 454.7379199999999 C 627.4922699999996 450.7679199999999 626.6222699999996 446.7379199999999 625.7322699999996 443.1079199999999 C 644.4722699999996 446.0079199999999 618.3522699999996 423.14791999999994 635.8122699999997 418.7279199999999 C 636.0125407972329 418.6661993024772 636.2162143528649 418.6161156412562 636.4222699999997 418.57791999999995 C 636.9322699999997 418.45791999999994 637.4422699999997 418.33791999999994 637.9322699999997 418.19791999999995 C 640.2942714342694 417.5567866503113 642.5558505693333 416.5909038947111 644.6522699999997 415.32791999999995 C 649.5322699999997 412.3579199999999 651.1422699999997 408.4179199999999 653.6622699999997 403.9779199999999 C 654.4085577692274 402.6804799469092 654.2263587482341 401.0487824433683 653.21227 399.94791 Z" stroke-linecap="round" />
</g>
		<g transform="matrix(1 0 0 1 3.87 198.58)"  >
<path style="stroke: none; stroke-width: 1; stroke-dasharray: none; stroke-linecap: butt; stroke-dashoffset: 0; stroke-linejoin: miter; stroke-miterlimit: 4; fill: rgb(47,46,65); fill-rule: nonzero; opacity: 1;" vector-effect="non-scaling-stroke"  transform=" translate(-603.88, -648.58)" d="M 750.58227 625.3079 C 750.57227 627.0579 750.55227 629.5079000000001 750.47227 632.5379 Q 750.45727 633.1679 750.44227 633.8279 C 750.31227 639.3979 750.18227 644.0679 749.97227 649.2579 C 749.96227 649.6179 749.95227 649.9679 749.93227 650.3279 C 749.65227 657.5679 749.21227 665.9979 748.45227 679.3479 C 747.04227 704.0079 744.58227 682.7379 742.11227 691.3879 C 741.99227 691.8178999999999 741.86227 692.3279 741.74227 692.9278999999999 C 741.3682415117419 695.1048469017514 740.7371609833646 697.2297084680431 739.86227 699.2579 C 738.55227 700.0378999999999 737.20227 700.7878999999999 735.87227 701.5378999999999 C 732.08227 703.6478999999999 728.23232 705.6778499999999 724.35232 707.6079 C 722.1722599999999 708.6879 719.98232 709.7479 717.7823199999999 710.7678999999999 C 717.4323199999999 710.9278999999999 717.0923199999999 711.0879 716.7523199999999 711.2379 C 705.4864680553997 716.4488392579732 693.875773425355 720.8792798563729 682.0023199999999 724.4979 C 679.6823199999999 725.1979 677.37232 725.8779 675.0323199999999 726.5079 C 672.5923199999999 727.1878999999999 670.1523199999999 727.8279 667.6823199999999 728.4278999999999 C 649.3075389723863 732.9388934136339 630.5051657025442 735.4831974449781 611.5923199999999 736.0178999999999 C 609.0423199999999 736.0979 606.4723199999999 736.1279 603.8923199999998 736.1279 C 602.6123199999998 736.1279 601.3523199999998 736.1179 600.0723199999998 736.1079 C 599.6823199999998 736.1079 599.2923199999998 736.0979 598.9023199999998 736.0879 C 597.7723199999998 736.0579 596.6023199999998 736.0379 595.4223199999998 736.0079 C 572.6012560299845 735.296099530437 549.9661002849072 731.6563261567297 528.0723199999998 725.1778999999999 L 527.1423199999998 724.9078999999999 C 525.7023199999998 724.4678999999999 524.2723199999998 724.0378999999999 522.8423199999999 723.5778999999999 Q 512.9422599999998 720.4428999999999 503.33231999999987 716.5578999999999 Q 495.9973199999999 713.6028999999999 488.83231999999987 710.2178999999999 C 488.78871851242394 710.2061039051569 488.7479177684199 710.1857035331548 488.71231999999986 710.1578999999999 C 487.71231999999986 709.6978999999999 486.7023199999999 709.2178999999999 485.7023199999999 708.7279 C 485.5723199999999 708.6578999999999 485.4323199999999 708.5879 485.29231999999985 708.5178999999999 Q 479.69725999999986 705.7878999999999 474.22231999999985 702.7978999999999 C 471.15231999999986 695.7478499999999 466.83231999999987 694.3978999999999 464.15231999999986 688.1978999999999 C 463.3723209859671 686.3559403561665 462.80855550956903 684.4297416451398 462.47231999999985 682.4578999999999 C 462.47231999999985 682.4378999999999 462.46231999999986 682.4178999999999 462.46231999999986 682.3878999999998 C 462.74231999999984 686.1078999999999 461.27231999999987 675.7878999999998 462.4523199999999 682.3478999999999 C 462.4423199999999 682.2278999999999 462.4323199999999 682.0978999999999 462.4223199999999 681.9478999999999 C 462.3923199999999 681.5878999999999 462.3523799999999 681.1478999999999 462.2923799999999 680.5978999999999 C 458.8623799999999 647.1078999999999 459.08237999999994 608.8078999999999 457.59237999999993 577.2478999999998 Q 457.44231999999994 574.1878999999999 457.28237999999993 571.3878999999998 C 457.25237999999996 570.7678999999998 457.21237999999994 570.1578999999998 457.17232999999993 569.5578999999998 C 457.2423299999999 569.3778999999998 457.3223299999999 569.1878999999998 457.41232999999994 569.0078999999998 C 457.4314863531063 568.9560549547494 457.4548995570953 568.9058838033444 457.48232999999993 568.8578999999999 C 457.51181960315984 568.7958437511519 457.5452201451003 568.735722775659 457.58232999999996 568.6778999999999 C 457.60232999999994 568.6478999999999 457.63232999999997 568.6078999999999 457.65232999999995 568.5778999999999 C 457.6669470536967 568.5435806497244 457.6836447519976 568.5101852531226 457.70232999999996 568.4778999999999 C 457.79232999999994 568.3378999999999 457.89232999999996 568.1878999999999 458.00233 568.0478999999999 C 458.05233 567.9879 458.09232999999995 567.9378499999999 458.14232999999996 567.8879 C 458.1768583601633 567.8368084181961 458.2171203036541 567.7898361507902 458.26232999999996 567.7479 C 458.29301298798555 567.6998387034823 458.3300101814457 567.6561147475749 458.37233 567.6179 C 458.41233 567.5779 458.45232999999996 567.5278999999999 458.50233 567.47795 C 458.5237113139756 567.446475506885 458.55085550688506 567.4193313139756 458.58232999999996 567.3979499999999 C 458.66141890698793 567.3070783724295 458.74842788616604 567.2234158924506 458.84232999999995 567.1479499999999 C 459.1991169930222 566.8196623233268 459.58020200212496 566.518805737193 459.98232999999993 566.24795 C 460.12227999999993 566.1579499999999 460.27232999999995 566.06795 460.41232999999994 565.96795 C 461.4201164330451 565.3650844296683 462.48126034069134 564.8562709471375 463.58232999999996 564.44795 C 463.96232999999995 564.30795 464.34232999999995 564.17795 464.75233 564.03795 C 464.90232999999995 563.9979500000001 465.04233 563.94795 465.19232999999997 563.89795 C 465.41233 563.82795 465.63232999999997 563.75795 465.86233 563.70795 C 467.00233 563.36795 468.23233 563.07795 469.56233 562.80795 C 469.72233 562.77795 469.89232999999996 562.7479500000001 470.06233 562.70795 C 470.30233 562.65795 470.55233 562.61795 470.80233 562.57795 C 471.14232999999996 562.51795 471.49233 562.45795 471.84233 562.39795 C 474.81233000000003 561.92795 478.18233 561.57795 481.90233 561.3479500000001 Q 482.42733 561.3179500000001 482.95233 561.2879500000001 C 483.36233000000004 561.2679500000002 483.77233 561.2479500000002 484.19233 561.2279500000002 C 484.54233000000005 561.2079500000002 484.90233 561.1979500000002 485.26233 561.1879500000002 C 485.61233000000004 561.1679500000002 485.97233 561.1579500000003 486.34233 561.1479500000003 C 487.35233 561.1179500000003 488.39233 561.0879500000003 489.45233 561.0679500000002 C 492.47233 561.0079500000003 495.65233 561.0279500000003 498.99233000000004 561.0979500000002 C 500.54233000000005 561.1379500000002 502.12233000000003 561.1779500000002 503.74233000000004 561.2479500000002 C 503.85238000000004 561.2479500000002 503.95233 561.2579500000002 504.05233000000004 561.2579500000002 C 505.46233000000007 561.3079500000001 506.88233 561.3679500000002 508.34233000000006 561.4479500000002 C 509.36233000000004 561.4979500000002 510.3923300000001 561.5479500000002 511.42228000000006 561.6079500000002 C 512.39228 561.6679500000001 513.37228 561.7279500000002 514.36228 561.7979500000002 C 515.13228 561.8379500000002 515.90228 561.8979500000003 516.6822800000001 561.9479500000002 C 517.3422800000001 561.9979500000002 518.0022800000002 562.0479500000002 518.6622800000001 562.0879500000002 L 519.5622800000001 562.1479500000002 C 520.0522800000001 562.1879500000001 520.5422800000001 562.2179500000002 521.0422800000001 562.2679500000002 C 522.1422800000001 562.3579500000002 523.2422800000002 562.4479500000001 524.3622800000002 562.5379500000001 C 525.4722800000002 562.6379500000002 526.6022800000002 562.7379500000002 527.7322800000002 562.8379500000001 C 528.8622800000002 562.93795 530.0022800000002 563.0479500000001 531.1422800000001 563.1579500000001 C 531.2622800000001 563.1679500000001 531.3722800000002 563.1779500000001 531.4822800000002 563.1879500000001 C 532.5222800000001 563.2980000000001 533.5622800000002 563.3979500000002 534.6122800000002 563.5079500000002 C 534.8522800000002 563.5279500000001 535.1022800000002 563.5479500000001 535.3422800000002 563.5779500000002 C 536.3433800000001 563.6785300000003 537.3640100000002 563.7962700000002 538.3742800000002 563.9036300000002 C 538.6843400000002 563.9370800000003 538.9927500000002 563.9694900000003 539.3037200000002 564.0034800000002 C 540.0951100000002 564.0896600000002 540.8752600000003 564.1643700000002 541.6721900000002 564.2579400000002 C 542.7221900000002 564.3779400000002 543.7922500000002 564.4879400000002 544.8321900000002 564.6279400000002 C 545.6421900000001 564.7179400000002 546.4521900000002 564.8079400000001 547.2621900000001 564.9079400000002 C 548.5321900000001 565.0579400000001 549.8221900000001 565.2179400000001 551.1121900000002 565.3879400000002 C 551.6021900000002 565.4479400000001 552.0921900000002 565.5079400000002 552.5821900000002 565.5779400000002 C 556.2621900000001 566.0379400000003 559.9821900000002 566.5479400000003 563.7621900000001 567.0779400000002 C 569.4921900000002 567.8879400000002 575.3121900000001 568.7679400000003 581.1721900000001 569.7179400000002 Q 589.9772800000001 571.1429400000002 598.8821900000002 572.7279400000002 C 600.3821900000002 572.9979400000002 601.8821900000002 573.2679400000002 603.3921900000001 573.5479400000003 Q 604.4121900000001 573.7428500000003 605.4321900000001 573.9378900000003 C 606.5921900000001 574.1478900000003 607.7521900000002 574.3678900000002 608.9121900000001 574.5878900000002 C 610.0721900000001 574.8078900000003 611.2321900000002 575.0278900000003 612.3921900000001 575.2578900000002 C 613.7721900000001 575.5278900000002 615.1621900000001 575.7978900000002 616.5421900000001 576.0678900000001 C 625.6321900000002 577.8678900000001 634.6721300000002 579.7878900000002 643.4921900000002 581.7978900000002 C 644.9421900000002 582.1278400000002 646.3921900000001 582.4678900000001 647.8321900000002 582.7978900000002 Q 652.1521900000002 583.8028900000002 656.3921900000001 584.8378900000001 C 657.1721900000001 585.0178900000001 657.9421900000001 585.2078900000001 658.7121900000002 585.3978900000001 C 660.6321900000002 585.8778900000001 662.5521900000002 586.3578900000001 664.4421900000002 586.8478900000001 L 664.7721900000003 586.9378900000002 C 666.1621900000002 587.2778900000002 667.5221900000003 587.6278900000002 668.8821900000003 587.9878900000001 Q 673.6971900000003 589.2478900000001 678.3521900000003 590.5378900000001 Q 681.4421900000003 591.3928900000001 684.4621900000003 592.2678900000001 C 687.4721900000003 593.1378900000001 690.4221900000003 594.0178900000001 693.2921900000003 594.9078900000001 C 694.0021900000004 595.1278900000001 694.7121900000003 595.3478900000001 695.4121900000004 595.55789 C 697.5121900000004 596.20789 699.5821900000003 596.86789 701.5921900000003 597.5278900000001 C 703.1921900000003 598.04789 704.7521900000003 598.57789 706.2921900000003 599.1078900000001 Q 708.6021900000003 599.9028900000001 710.8221900000003 600.6978900000001 C 711.7721900000004 601.0378900000002 712.7121900000003 601.3978900000002 713.6521900000004 601.7378900000001 C 715.0021900000004 602.2378900000001 716.3321900000003 602.7378900000001 717.6321900000004 603.2378900000001 C 718.0321900000004 603.3878900000001 718.4221900000003 603.54789 718.8121900000003 603.6978900000001 C 719.0621900000003 603.8078900000002 719.3021900000003 603.8978900000002 719.5421900000003 603.9978900000001 C 720.0121900000004 604.1878900000002 720.4921900000004 604.3678900000001 720.9521900000003 604.55789 C 721.4221900000003 604.73789 721.8821900000003 604.92789 722.3421900000003 605.1278900000001 C 722.7921900000003 605.30789 723.2521900000003 605.4978900000001 723.6921900000003 605.68789 C 724.1421900000004 605.86789 724.5821900000003 606.05789 725.0221900000004 606.2578900000001 C 725.3921900000004 606.4078900000001 725.7521900000004 606.56789 726.1021900000004 606.7278900000001 C 726.8121900000004 607.0378900000001 727.5221900000004 607.3478900000001 728.2121900000004 607.6678900000002 C 728.5521900000005 607.8278900000001 728.8921900000004 607.9778900000001 729.2321900000004 608.1378900000002 L 730.0121900000004 608.4978900000002 C 730.1221900000004 608.5578900000002 730.2321900000004 608.6078900000002 730.3421900000004 608.6578900000002 C 730.5921900000004 608.7778900000002 730.8521900000004 608.9078900000002 731.1021900000004 609.0278900000002 C 731.6821400000005 609.2978900000002 732.2521900000004 609.5878900000001 732.8121900000004 609.8578900000002 C 733.5621900000004 610.2378900000002 734.2921900000005 610.6178900000002 734.9921900000004 610.9878900000002 C 735.7021900000004 611.3678300000003 736.3921900000004 611.7478900000002 737.0521900000003 612.1178300000003 C 737.1621900000004 612.1778300000002 737.2621900000004 612.2378900000002 737.3721900000004 612.2978900000003 C 737.5221900000004 612.3778400000003 737.6721900000003 612.4678900000002 737.8221900000004 612.5478900000003 C 738.3321900000004 612.8378900000002 738.8221900000004 613.1378900000003 739.3121900000004 613.4278300000003 C 740.2721900000005 614.0178300000003 741.1821900000004 614.5978300000003 742.0321900000005 615.1778300000003 C 742.2221900000005 615.3078300000003 742.4021900000005 615.4378300000003 742.5921900000004 615.5578300000003 C 743.2221900000004 616.0078300000004 743.8221900000004 616.4478300000003 744.3821900000004 616.8978300000003 C 744.3821900000004 616.9078300000003 744.3821900000004 616.9078300000003 744.3921900000004 616.9078300000003 C 744.5821900000004 617.0478300000003 744.7621900000004 617.1978300000003 744.9421900000003 617.3378300000003 C 745.0921900000003 617.4778300000003 745.2521900000003 617.5978300000003 745.4021900000004 617.7378300000003 C 745.9221900000003 618.1878300000003 746.4021900000004 618.6177700000003 746.8421900000004 619.0578300000003 C 746.9896982509911 619.1936324818065 747.129895407432 619.3371676657816 747.2621900000004 619.4878300000003 C 747.3204103335887 619.5360415459784 747.3739784540222 619.5896096664119 747.4221900000003 619.6478300000002 C 747.6221900000004 619.8478300000003 747.8021900000003 620.0478300000002 747.9721900000003 620.2478300000002 C 747.9985642971451 620.2753359961059 748.0220224769181 620.305496512957 748.0421900000003 620.3378300000003 C 748.2821900000004 620.6178300000003 748.5021900000004 620.8978300000002 748.7121900000003 621.1778300000003 C 748.8121900000003 621.3178300000003 748.9221900000003 621.4578300000003 749.0121900000003 621.5978300000003 C 749.1321900000003 621.7678300000002 749.2521900000003 621.9478300000003 749.3521900000003 622.1178300000003 C 749.4421900000003 622.2578300000002 749.5221900000003 622.4078300000002 749.6021900000003 622.5478900000003 C 749.814415233665 622.9082717048989 749.9950878765129 623.2863258642684 750.1421900000003 623.6778300000003 C 750.2545858803242 623.9432736073339 750.3448921346129 624.2175370462852 750.4121900000002 624.4978300000004 C 750.4879575149075 624.7634942456582 750.5447933531551 625.0341963122693 750.58227 625.3079 Z" stroke-linecap="round" />
</g>
		<g transform="matrix(1 0 0 1 3.87 176.39)"  >
<path style="stroke: none; stroke-width: 1; stroke-dasharray: none; stroke-linecap: butt; stroke-dashoffset: 0; stroke-linejoin: miter; stroke-miterlimit: 4; fill: rgb(0,0,0); fill-rule: nonzero; opacity: 0.2;" vector-effect="non-scaling-stroke"  transform=" translate(-603.87, -626.39)" d="M 750.58227 625.3079 C 750.57227 627.0579 750.55227 629.5079000000001 750.47227 632.5379 C 750.46227 632.9579 750.44227 633.3879000000001 750.43227 633.8279 C 750.33227 638.0779 750.18227 643.3279 749.97227 649.2579 C 749.96227 649.6179 749.95227 649.9679 749.93227 650.3279 C 749.65227 657.5679 749.21227 665.9979 748.45227 679.3479 C 747.04227 704.0079 744.58227 682.7379 742.11227 691.3879 C 735.25227 687.1678999999999 727.73227 682.7479 719.69227 678.2079 Q 717.51727 676.9779 715.30227 675.7379 C 699.22227 666.7678999999999 681.2622700000001 657.36784 662.5122700000001 648.0579 C 661.77227 647.6879 661.02227 647.3179 660.28227 646.9579 C 617.33227 625.7279 570.45227 605.0779 532.47227 591.2979 C 525.1422699999999 588.6379000000001 518.1422699999999 586.2379000000001 511.56226999999996 584.1278500000001 C 497.70226999999994 579.6978500000001 485.72227 576.5978500000001 476.50226999999995 575.2578500000001 C 466.90226999999993 573.8578500000001 460.27226999999993 574.3578500000001 457.5922699999999 577.2478500000001 Q 457.44220999999993 574.1878500000001 457.2822699999999 571.3878500000001 Q 457.2222099999999 570.4578500000001 457.1622699999999 569.55785 C 457.2239799999999 569.39323 457.3041799999999 569.23613 457.38181999999995 569.07768 C 457.3929299999999 569.05455 457.40081999999995 569.03068 457.4122699999999 569.0078599999999 C 457.4314263531063 568.9560149547495 457.4548395570953 568.9058438033445 457.4822699999999 568.85786 C 457.5117596031598 568.795803751152 457.5451601451003 568.7356827756591 457.58226999999994 568.67786 C 457.61479027988065 568.6069816091787 457.65503390451323 568.5399089014577 457.70226999999994 568.47786 C 457.7922699999999 568.33786 457.89226999999994 568.18786 458.00226999999995 568.04786 C 458.0831604375083 567.9429805775795 458.16996812969427 567.8428011620396 458.26226999999994 567.74781 C 458.29295298798553 567.6997487034823 458.32995018144567 567.6560247475749 458.37226999999996 567.61781 C 458.41227 567.57781 458.45226999999994 567.5278099999999 458.50226999999995 567.47786 C 458.52365131397556 567.446385506885 458.55079550688504 567.4192413139756 458.58226999999994 567.3978599999999 C 458.6613589069879 567.3069883724295 458.748367886166 567.2233258924506 458.8422699999999 567.1478599999999 C 459.19905699302217 566.8195723233268 459.58014200212494 566.518715737193 459.9822699999999 566.24786 C 460.1222199999999 566.1578599999999 460.27226999999993 566.06786 460.4122699999999 565.96786 C 461.4200564330451 565.3649944296683 462.4812003406913 564.8561809471375 463.58226999999994 564.44786 C 463.96226999999993 564.30786 464.3422699999999 564.17786 464.75226999999995 564.03786 C 464.90226999999993 563.9978600000001 465.04227 563.94786 465.19226999999995 563.89786 C 465.41227 563.82786 465.63226999999995 563.75786 465.86226999999997 563.70786 C 467.00226999999995 563.36786 468.23226999999997 563.07786 469.56226999999996 562.80786 C 469.96226999999993 562.72786 470.38226999999995 562.64786 470.80226999999996 562.57786 C 471.14226999999994 562.51786 471.49226999999996 562.45786 471.84227 562.39786 C 474.81227 561.92786 478.18226999999996 561.57786 481.90227 561.3478600000001 Q 482.42726999999996 561.3178600000001 482.95227 561.2878600000001 C 483.36227 561.2678600000002 483.77227 561.2478600000002 484.19227 561.2278600000002 C 484.54227000000003 561.2078600000002 484.90227 561.1978600000002 485.26227 561.1878600000002 C 485.61227 561.1678600000002 485.97227 561.1578600000003 486.34227 561.1478600000003 C 487.35227 561.1178600000003 488.39227 561.0878600000003 489.45227 561.0678600000002 C 492.47227 561.0178600000003 495.65227 561.0378600000003 498.99227 561.1078600000002 C 500.54227000000003 561.1378600000002 502.12227 561.1878600000002 503.74227 561.2578600000002 C 503.84227000000004 561.2578600000002 503.95227 561.2678600000002 504.05227 561.2678600000002 C 505.46227000000005 561.3078600000001 506.89227 561.3778600000002 508.34227000000004 561.4478600000001 C 509.36227 561.4978600000001 510.39227000000005 561.5478600000001 511.42222000000004 561.6078600000001 C 512.3922200000001 561.66786 513.3722200000001 561.7278600000001 514.3622200000001 561.7978600000001 C 515.1322200000001 561.8378600000001 515.90222 561.8978600000002 516.6822200000001 561.9478600000001 C 517.3422200000001 561.9978600000001 518.0022200000002 562.0478600000001 518.6622200000002 562.0878600000001 C 519.4522200000001 562.14786 520.2422200000002 562.2078600000001 521.0422200000002 562.26786 C 522.1422200000002 562.3578600000001 523.2422200000002 562.44786 524.3622200000002 562.53786 C 525.4722200000002 562.63786 526.6022200000002 562.7378600000001 527.7322200000002 562.83786 C 528.8622200000002 562.9378599999999 530.0022200000002 563.04786 531.1422200000002 563.15786 C 531.2622200000002 563.16786 531.3722200000002 563.17786 531.4822200000002 563.18786 C 532.5222200000002 563.29791 533.5622200000003 563.39786 534.6122200000002 563.50786 Q 543.3422200000002 564.39286 552.5822200000002 565.5778600000001 Q 558.1022200000002 566.2828600000001 563.7622200000002 567.0878600000001 C 569.4922200000002 567.89786 575.3122200000001 568.7778600000001 581.1722200000002 569.7178600000001 Q 589.9773100000001 571.14286 598.8822200000002 572.7278600000001 C 600.3822200000002 572.9978600000001 601.8822200000002 573.26786 603.3922200000002 573.5478600000001 Q 606.1522200000002 574.0578000000002 608.9122200000002 574.5878600000001 C 610.0722200000001 574.8078600000001 611.2322200000002 575.0278600000001 612.3922200000002 575.25786 C 613.7722200000002 575.52786 615.1622200000002 575.79786 616.5422200000002 576.06786 C 625.6322200000002 577.86786 634.6721600000002 579.78786 643.4922200000002 581.79786 C 644.9422200000002 582.1278100000001 646.3922200000002 582.46786 647.8322200000002 582.79786 Q 652.1522200000003 583.80286 656.3922200000002 584.83786 C 657.1722200000002 585.02786 657.9422200000001 585.21786 658.7122200000002 585.40786 Q 661.6072200000002 586.12786 664.4422200000002 586.8478600000001 L 664.4422200000002 586.8578600000001 C 664.5522200000003 586.87786 664.6622200000003 586.90786 664.7722200000003 586.9378600000001 C 666.1522200000003 587.2878600000001 667.5222200000003 587.6378600000002 668.8822200000003 587.9978600000001 Q 673.6972200000004 589.25786 678.3522200000003 590.53786 C 680.4122200000003 591.1178100000001 682.4522200000004 591.68786 684.4622200000003 592.26786 C 687.4722200000003 593.14786 690.4222200000004 594.02786 693.2922200000004 594.90786 C 694.0022200000004 595.12786 694.7122200000003 595.3478600000001 695.4122200000004 595.55786 Q 698.5622200000004 596.54786 701.5922200000003 597.52786 C 703.1922200000004 598.04786 704.7522200000003 598.57786 706.2922200000004 599.1078600000001 Q 708.6022200000003 599.90286 710.8222200000004 600.6978600000001 C 711.7822200000004 601.0378600000001 712.7222200000003 601.3878600000002 713.6522200000004 601.7278600000001 C 715.0122200000004 602.2278600000001 716.3322200000003 602.7278600000001 717.6322200000004 603.2378600000001 C 718.0322200000004 603.38786 718.4222200000004 603.54786 718.8122200000004 603.6978600000001 C 719.5422200000004 603.9778600000001 720.2522200000004 604.2678600000002 720.9522200000004 604.5578600000001 C 721.4222200000004 604.7378600000001 721.8822200000003 604.9278600000001 722.3422200000003 605.1278600000002 C 722.7922200000004 605.3078600000001 723.2522200000003 605.4978600000002 723.6922200000004 605.6878600000001 C 724.1422200000004 605.8678600000001 724.5822200000003 606.0578600000001 725.0222200000004 606.2578600000002 C 725.3922200000004 606.4078600000001 725.7522200000004 606.5678600000001 726.1022200000004 606.7278600000002 C 726.8122200000005 607.0378600000001 727.5222200000004 607.3478600000002 728.2122200000005 607.6678600000002 C 728.5522200000005 607.8278600000002 728.8922200000004 607.9778600000002 729.2322200000004 608.1378600000003 L 730.0122200000004 608.4978600000003 C 730.1222200000004 608.5578600000002 730.2322200000004 608.6078600000003 730.3422200000005 608.6578600000003 C 731.1922200000005 609.0578600000002 732.0122200000004 609.4578600000002 732.8122200000005 609.8578600000003 C 733.5622200000005 610.2378600000003 734.2922200000005 610.6178600000003 734.9922200000004 610.9878600000003 C 735.8222200000005 611.4278000000003 736.6122200000004 611.8578600000003 737.3722200000004 612.2978600000002 C 737.5222200000004 612.3778100000003 737.6722200000004 612.4678600000002 737.8222200000005 612.5478600000002 C 738.3322200000005 612.8378600000002 738.8222200000005 613.1378600000003 739.3122200000005 613.4278000000003 C 740.2722200000005 614.0178000000003 741.1822200000005 614.5978000000002 742.0322200000005 615.1778000000003 C 742.8722200000005 615.7578000000003 743.6522200000005 616.3278000000003 744.3822200000005 616.8978000000003 C 744.3822200000005 616.9078000000003 744.3822200000005 616.9078000000003 744.3922200000005 616.9078000000003 C 744.7422200000005 617.1878000000003 745.0822200000006 617.4678000000002 745.4022200000005 617.7378000000003 C 745.9222200000005 618.1878000000004 746.4022200000005 618.6177400000004 746.8422200000006 619.0578000000004 C 746.9897282509912 619.1936024818066 747.1299254074321 619.3371376657817 747.2622200000005 619.4878000000003 C 747.3204403335889 619.5360115459785 747.3740084540224 619.589579666412 747.4222200000005 619.6478000000003 C 747.6322200000005 619.8778000000003 747.8422200000005 620.1078000000003 748.0422800000005 620.3378000000004 C 748.2822800000005 620.6178000000003 748.5022800000005 620.8978000000003 748.7122800000004 621.1778000000004 C 748.8122800000004 621.3178000000004 748.9222800000005 621.4578000000004 749.0122800000004 621.5978000000003 C 749.1322800000004 621.7678000000003 749.2522800000004 621.9478000000004 749.3522800000004 622.1178000000003 C 749.4422800000004 622.2578000000003 749.5222800000004 622.4078000000003 749.6022800000004 622.5478600000004 C 749.8145052336652 622.908241704899 749.995177876513 623.2862958642685 750.1422800000004 623.6778000000004 C 750.2516817954952 623.9443587882283 750.3419112155805 624.2183888788576 750.4122800000004 624.4978000000004 C 750.4880185118832 624.7634762983348 750.5448242784735 625.0341884079579 750.58227 625.3079 Z" stroke-linecap="round" />
</g>
</g>
</g>
</svg>